%TF.GenerationSoftware,KiCad,Pcbnew,9.0.6+1*%
%TF.CreationDate,2026-01-07T14:05:18+00:00*%
%TF.ProjectId,Displayboard,44697370-6c61-4796-926f-6172642e6b69, + (Unreleased)*%
%TF.SameCoordinates,Original*%
%TF.FileFunction,Soldermask,Top*%
%TF.FilePolarity,Negative*%
%FSLAX46Y46*%
G04 Gerber Fmt 4.6, Leading zero omitted, Abs format (unit mm)*
G04 Created by KiCad (PCBNEW 9.0.6+1) date 2026-01-07 14:05:18*
%MOMM*%
%LPD*%
G01*
G04 APERTURE LIST*
G04 Aperture macros list*
%AMRoundRect*
0 Rectangle with rounded corners*
0 $1 Rounding radius*
0 $2 $3 $4 $5 $6 $7 $8 $9 X,Y pos of 4 corners*
0 Add a 4 corners polygon primitive as box body*
4,1,4,$2,$3,$4,$5,$6,$7,$8,$9,$2,$3,0*
0 Add four circle primitives for the rounded corners*
1,1,$1+$1,$2,$3*
1,1,$1+$1,$4,$5*
1,1,$1+$1,$6,$7*
1,1,$1+$1,$8,$9*
0 Add four rect primitives between the rounded corners*
20,1,$1+$1,$2,$3,$4,$5,0*
20,1,$1+$1,$4,$5,$6,$7,0*
20,1,$1+$1,$6,$7,$8,$9,0*
20,1,$1+$1,$8,$9,$2,$3,0*%
%AMRotRect*
0 Rectangle, with rotation*
0 The origin of the aperture is its center*
0 $1 length*
0 $2 width*
0 $3 Rotation angle, in degrees counterclockwise*
0 Add horizontal line*
21,1,$1,$2,0,0,$3*%
G04 Aperture macros list end*
%ADD10R,1.500000X1.300000*%
%ADD11RoundRect,0.250000X0.450000X-0.262500X0.450000X0.262500X-0.450000X0.262500X-0.450000X-0.262500X0*%
%ADD12C,0.950000*%
%ADD13C,0.800000*%
%ADD14C,5.400000*%
%ADD15RoundRect,0.250000X-0.450000X0.262500X-0.450000X-0.262500X0.450000X-0.262500X0.450000X0.262500X0*%
%ADD16C,0.750000*%
%ADD17C,1.050000*%
%ADD18RotRect,1.000000X2.000000X45.000000*%
%ADD19RotRect,1.800000X2.000000X45.000000*%
%ADD20R,0.800000X0.900000*%
G04 APERTURE END LIST*
D10*
%TO.C,SW403*%
X214575000Y-143350000D03*
X214575000Y-147850000D03*
X222525000Y-143350000D03*
X222525000Y-147850000D03*
%TD*%
D11*
%TO.C,R405*%
X249400000Y-92712500D03*
X249400000Y-90887500D03*
%TD*%
D10*
%TO.C,SW401*%
X183575000Y-143350000D03*
X183575000Y-147850000D03*
X191525000Y-143350000D03*
X191525000Y-147850000D03*
%TD*%
%TO.C,SW404*%
X230075000Y-143350000D03*
X230075000Y-147850000D03*
X238025000Y-143350000D03*
X238025000Y-147850000D03*
%TD*%
D12*
%TO.C,REF\u002A\u002A*%
X173375000Y-87980000D03*
X173375000Y-137020000D03*
X241625000Y-87980000D03*
X241625000Y-137020000D03*
%TD*%
D13*
%TO.C,REF\u002A\u002A*%
X253475000Y-149500000D03*
X254068109Y-148068109D03*
X254068109Y-150931891D03*
X255500000Y-147475000D03*
D14*
X255500000Y-149500000D03*
D13*
X255500000Y-151525000D03*
X256931891Y-148068109D03*
X256931891Y-150931891D03*
X257525000Y-149500000D03*
%TD*%
D15*
%TO.C,R404*%
X249000000Y-99987500D03*
X249000000Y-101812500D03*
%TD*%
D13*
%TO.C,REF\u002A\u002A*%
X253475000Y-83500000D03*
X254068109Y-82068109D03*
X254068109Y-84931891D03*
X255500000Y-81475000D03*
D14*
X255500000Y-83500000D03*
D13*
X255500000Y-85525000D03*
X256931891Y-82068109D03*
X256931891Y-84931891D03*
X257525000Y-83500000D03*
%TD*%
D15*
%TO.C,R403*%
X251000000Y-100987500D03*
X251000000Y-102812500D03*
%TD*%
D16*
%TO.C,S401*%
X255843503Y-134656497D03*
D17*
X253156497Y-137343503D03*
D18*
X252679200Y-132163946D03*
X251671573Y-133171573D03*
X250663946Y-134179200D03*
X258336054Y-137820800D03*
X257328427Y-138828427D03*
X256320800Y-139836054D03*
D19*
X257363782Y-133136218D03*
X251636218Y-138863782D03*
%TD*%
D13*
%TO.C,REF\u002A\u002A*%
X157475000Y-83500000D03*
X158068109Y-82068109D03*
X158068109Y-84931891D03*
X159500000Y-81475000D03*
D14*
X159500000Y-83500000D03*
D13*
X159500000Y-85525000D03*
X160931891Y-82068109D03*
X160931891Y-84931891D03*
X161525000Y-83500000D03*
%TD*%
D10*
%TO.C,SW402*%
X199075000Y-143350000D03*
X199075000Y-147850000D03*
X207025000Y-143350000D03*
X207025000Y-147850000D03*
%TD*%
D20*
%TO.C,D401*%
X250600000Y-95100000D03*
X249400000Y-95100000D03*
X249400000Y-96900000D03*
X250600000Y-96900000D03*
%TD*%
D13*
%TO.C,REF\u002A\u002A*%
X157475000Y-149500000D03*
X158068109Y-148068109D03*
X158068109Y-150931891D03*
X159500000Y-147475000D03*
D14*
X159500000Y-149500000D03*
D13*
X159500000Y-151525000D03*
X160931891Y-148068109D03*
X160931891Y-150931891D03*
X161525000Y-149500000D03*
%TD*%
M02*
