M48
; DRILL file {KiCad 9.0.6+1} date 2025-12-30T10:58:30+0000
; FORMAT={-:-/ absolute / metric / decimal}
; #@! TF.CreationDate,2025-12-30T10:58:30+00:00
; #@! TF.GenerationSoftware,Kicad,Pcbnew,9.0.6+1
; #@! TF.FileFunction,Plated,1,2,PTH
FMAT,2
METRIC
; #@! TA.AperFunction,Plated,PTH,ViaDrill
T1C0.250
; #@! TA.AperFunction,Plated,PTH,ComponentDrill
T2C0.500
; #@! TA.AperFunction,Plated,PTH,ComponentDrill
T3C1.000
; #@! TA.AperFunction,Plated,PTH,ComponentDrill
T4C2.700
%
G90
G05
T1
X183.4Y-99.75
X191.525Y-139.1
X198.5Y-123.5
X200.512Y-119.5
X204.2Y-116.5
X206.2Y-118.5
X209.8Y-117.5
X210.7Y-121.5
X211.212Y-124.012
X212.0Y-120.5
X213.2Y-96.5
X213.5Y-97.9
X218.0Y-94.6
X218.0Y-103.4
X219.05Y-99.25
X222.7Y-121.8
X223.15Y-119.45
X223.387Y-127.712
X223.887Y-129.2
X223.94Y-99.24
X224.387Y-128.4
X225.2Y-86.2
X225.387Y-120.95
X225.387Y-128.0
X225.887Y-126.9
X227.75Y-124.85
X228.2Y-124.35
X228.85Y-123.85
X229.8Y-114.1
X230.5Y-119.95
X232.5Y-122.35
X233.0Y-122.85
X233.5Y-123.35
T2
X157.475Y-83.5
X157.475Y-149.5
X158.068Y-82.068
X158.068Y-84.932
X158.068Y-148.068
X158.068Y-150.932
X159.5Y-81.475
X159.5Y-85.525
X159.5Y-147.475
X159.5Y-151.525
X160.932Y-82.068
X160.932Y-84.932
X160.932Y-148.068
X160.932Y-150.932
X161.525Y-83.5
X161.525Y-149.5
X253.475Y-83.5
X253.475Y-149.5
X254.068Y-82.068
X254.068Y-84.932
X254.068Y-148.068
X254.068Y-150.932
X255.5Y-81.475
X255.5Y-85.525
X255.5Y-147.475
X255.5Y-151.525
X256.932Y-82.068
X256.932Y-84.932
X256.932Y-148.068
X256.932Y-150.932
X257.525Y-83.5
X257.525Y-149.5
T3
X196.0Y-81.0
X198.54Y-81.0
X201.08Y-81.0
X203.62Y-81.0
X206.16Y-81.0
X208.7Y-81.0
X211.24Y-81.0
X213.78Y-81.0
X216.32Y-81.0
X218.86Y-81.0
X221.4Y-81.0
X223.94Y-81.0
X226.48Y-81.0
X229.02Y-81.0
T4
X159.5Y-83.5
X159.5Y-149.5
X255.5Y-83.5
X255.5Y-149.5
M30
