%TF.GenerationSoftware,KiCad,Pcbnew,9.0.6+1*%
%TF.CreationDate,2026-01-07T14:05:18+00:00*%
%TF.ProjectId,Displayboard,44697370-6c61-4796-926f-6172642e6b69, + (Unreleased)*%
%TF.SameCoordinates,Original*%
%TF.FileFunction,Legend,Top*%
%TF.FilePolarity,Positive*%
%FSLAX46Y46*%
G04 Gerber Fmt 4.6, Leading zero omitted, Abs format (unit mm)*
G04 Created by KiCad (PCBNEW 9.0.6+1) date 2026-01-07 14:05:18*
%MOMM*%
%LPD*%
G01*
G04 APERTURE LIST*
G04 Aperture macros list*
%AMRoundRect*
0 Rectangle with rounded corners*
0 $1 Rounding radius*
0 $2 $3 $4 $5 $6 $7 $8 $9 X,Y pos of 4 corners*
0 Add a 4 corners polygon primitive as box body*
4,1,4,$2,$3,$4,$5,$6,$7,$8,$9,$2,$3,0*
0 Add four circle primitives for the rounded corners*
1,1,$1+$1,$2,$3*
1,1,$1+$1,$4,$5*
1,1,$1+$1,$6,$7*
1,1,$1+$1,$8,$9*
0 Add four rect primitives between the rounded corners*
20,1,$1+$1,$2,$3,$4,$5,0*
20,1,$1+$1,$4,$5,$6,$7,0*
20,1,$1+$1,$6,$7,$8,$9,0*
20,1,$1+$1,$8,$9,$2,$3,0*%
%AMRotRect*
0 Rectangle, with rotation*
0 The origin of the aperture is its center*
0 $1 length*
0 $2 width*
0 $3 Rotation angle, in degrees counterclockwise*
0 Add horizontal line*
21,1,$1,$2,0,0,$3*%
G04 Aperture macros list end*
%ADD10C,0.150000*%
%ADD11C,0.120000*%
%ADD12R,1.500000X1.300000*%
%ADD13RoundRect,0.250000X0.450000X-0.262500X0.450000X0.262500X-0.450000X0.262500X-0.450000X-0.262500X0*%
%ADD14C,0.950000*%
%ADD15C,0.800000*%
%ADD16C,5.400000*%
%ADD17RoundRect,0.250000X-0.450000X0.262500X-0.450000X-0.262500X0.450000X-0.262500X0.450000X0.262500X0*%
%ADD18C,0.750000*%
%ADD19C,1.050000*%
%ADD20RotRect,1.000000X2.000000X45.000000*%
%ADD21RotRect,1.800000X2.000000X45.000000*%
%ADD22R,0.800000X0.900000*%
G04 APERTURE END LIST*
D10*
X206166666Y-112954819D02*
X205833333Y-112478628D01*
X205595238Y-112954819D02*
X205595238Y-111954819D01*
X205595238Y-111954819D02*
X205976190Y-111954819D01*
X205976190Y-111954819D02*
X206071428Y-112002438D01*
X206071428Y-112002438D02*
X206119047Y-112050057D01*
X206119047Y-112050057D02*
X206166666Y-112145295D01*
X206166666Y-112145295D02*
X206166666Y-112288152D01*
X206166666Y-112288152D02*
X206119047Y-112383390D01*
X206119047Y-112383390D02*
X206071428Y-112431009D01*
X206071428Y-112431009D02*
X205976190Y-112478628D01*
X205976190Y-112478628D02*
X205595238Y-112478628D01*
X206595238Y-112431009D02*
X206928571Y-112431009D01*
X207071428Y-112954819D02*
X206595238Y-112954819D01*
X206595238Y-112954819D02*
X206595238Y-111954819D01*
X206595238Y-111954819D02*
X207071428Y-111954819D01*
X207833333Y-112431009D02*
X207500000Y-112431009D01*
X207500000Y-112954819D02*
X207500000Y-111954819D01*
X207500000Y-111954819D02*
X207976190Y-111954819D01*
X208500000Y-111954819D02*
X208500000Y-112192914D01*
X208261905Y-112097676D02*
X208500000Y-112192914D01*
X208500000Y-112192914D02*
X208738095Y-112097676D01*
X208357143Y-112383390D02*
X208500000Y-112192914D01*
X208500000Y-112192914D02*
X208642857Y-112383390D01*
X209261905Y-111954819D02*
X209261905Y-112192914D01*
X209023810Y-112097676D02*
X209261905Y-112192914D01*
X209261905Y-112192914D02*
X209500000Y-112097676D01*
X209119048Y-112383390D02*
X209261905Y-112192914D01*
X209261905Y-112192914D02*
X209404762Y-112383390D01*
D11*
%TO.C,R405*%
X248665000Y-92027064D02*
X248665000Y-91572936D01*
X250135000Y-92027064D02*
X250135000Y-91572936D01*
%TO.C,R404*%
X248265000Y-100672936D02*
X248265000Y-101127064D01*
X249735000Y-100672936D02*
X249735000Y-101127064D01*
%TO.C,R403*%
X250265000Y-101672936D02*
X250265000Y-102127064D01*
X251735000Y-101672936D02*
X251735000Y-102127064D01*
%TO.C,D401*%
X251200000Y-95110000D02*
X251200001Y-94450000D01*
X251200001Y-94450000D02*
X250540000Y-94450000D01*
%TD*%
%LPC*%
D12*
%TO.C,SW403*%
X214575000Y-143350000D03*
X214575000Y-147850000D03*
X222525000Y-143350000D03*
X222525000Y-147850000D03*
%TD*%
D13*
%TO.C,R405*%
X249400000Y-92712500D03*
X249400000Y-90887500D03*
%TD*%
D12*
%TO.C,SW401*%
X183575000Y-143350000D03*
X183575000Y-147850000D03*
X191525000Y-143350000D03*
X191525000Y-147850000D03*
%TD*%
%TO.C,SW404*%
X230075000Y-143350000D03*
X230075000Y-147850000D03*
X238025000Y-143350000D03*
X238025000Y-147850000D03*
%TD*%
D14*
%TO.C,REF\u002A\u002A*%
X173375000Y-87980000D03*
X173375000Y-137020000D03*
X241625000Y-87980000D03*
X241625000Y-137020000D03*
%TD*%
D15*
%TO.C,REF\u002A\u002A*%
X253475000Y-149500000D03*
X254068109Y-148068109D03*
X254068109Y-150931891D03*
X255500000Y-147475000D03*
D16*
X255500000Y-149500000D03*
D15*
X255500000Y-151525000D03*
X256931891Y-148068109D03*
X256931891Y-150931891D03*
X257525000Y-149500000D03*
%TD*%
D17*
%TO.C,R404*%
X249000000Y-99987500D03*
X249000000Y-101812500D03*
%TD*%
D15*
%TO.C,REF\u002A\u002A*%
X253475000Y-83500000D03*
X254068109Y-82068109D03*
X254068109Y-84931891D03*
X255500000Y-81475000D03*
D16*
X255500000Y-83500000D03*
D15*
X255500000Y-85525000D03*
X256931891Y-82068109D03*
X256931891Y-84931891D03*
X257525000Y-83500000D03*
%TD*%
D17*
%TO.C,R403*%
X251000000Y-100987500D03*
X251000000Y-102812500D03*
%TD*%
D18*
%TO.C,S401*%
X255843503Y-134656497D03*
D19*
X253156497Y-137343503D03*
D20*
X252679200Y-132163946D03*
X251671573Y-133171573D03*
X250663946Y-134179200D03*
X258336054Y-137820800D03*
X257328427Y-138828427D03*
X256320800Y-139836054D03*
D21*
X257363782Y-133136218D03*
X251636218Y-138863782D03*
%TD*%
D15*
%TO.C,REF\u002A\u002A*%
X157475000Y-83500000D03*
X158068109Y-82068109D03*
X158068109Y-84931891D03*
X159500000Y-81475000D03*
D16*
X159500000Y-83500000D03*
D15*
X159500000Y-85525000D03*
X160931891Y-82068109D03*
X160931891Y-84931891D03*
X161525000Y-83500000D03*
%TD*%
D12*
%TO.C,SW402*%
X199075000Y-143350000D03*
X199075000Y-147850000D03*
X207025000Y-143350000D03*
X207025000Y-147850000D03*
%TD*%
D22*
%TO.C,D401*%
X250600000Y-95100000D03*
X249400000Y-95100000D03*
X249400000Y-96900000D03*
X250600000Y-96900000D03*
%TD*%
D15*
%TO.C,REF\u002A\u002A*%
X157475000Y-149500000D03*
X158068109Y-148068109D03*
X158068109Y-150931891D03*
X159500000Y-147475000D03*
D16*
X159500000Y-149500000D03*
D15*
X159500000Y-151525000D03*
X160931891Y-148068109D03*
X160931891Y-150931891D03*
X161525000Y-149500000D03*
%TD*%
%LPD*%
M02*
