%TF.GenerationSoftware,KiCad,Pcbnew,9.0.6+1*%
%TF.CreationDate,2025-12-30T10:58:29+00:00*%
%TF.ProjectId,Displayboard,44697370-6c61-4796-926f-6172642e6b69, + (Unreleased)*%
%TF.SameCoordinates,Original*%
%TF.FileFunction,Paste,Top*%
%TF.FilePolarity,Positive*%
%FSLAX46Y46*%
G04 Gerber Fmt 4.6, Leading zero omitted, Abs format (unit mm)*
G04 Created by KiCad (PCBNEW 9.0.6+1) date 2025-12-30 10:58:29*
%MOMM*%
%LPD*%
G01*
G04 APERTURE LIST*
G04 Aperture macros list*
%AMRoundRect*
0 Rectangle with rounded corners*
0 $1 Rounding radius*
0 $2 $3 $4 $5 $6 $7 $8 $9 X,Y pos of 4 corners*
0 Add a 4 corners polygon primitive as box body*
4,1,4,$2,$3,$4,$5,$6,$7,$8,$9,$2,$3,0*
0 Add four circle primitives for the rounded corners*
1,1,$1+$1,$2,$3*
1,1,$1+$1,$4,$5*
1,1,$1+$1,$6,$7*
1,1,$1+$1,$8,$9*
0 Add four rect primitives between the rounded corners*
20,1,$1+$1,$2,$3,$4,$5,0*
20,1,$1+$1,$4,$5,$6,$7,0*
20,1,$1+$1,$6,$7,$8,$9,0*
20,1,$1+$1,$8,$9,$2,$3,0*%
%AMRotRect*
0 Rectangle, with rotation*
0 The origin of the aperture is its center*
0 $1 length*
0 $2 width*
0 $3 Rotation angle, in degrees counterclockwise*
0 Add horizontal line*
21,1,$1,$2,0,0,$3*%
G04 Aperture macros list end*
%ADD10R,1.500000X1.300000*%
%ADD11RoundRect,0.250000X0.450000X-0.262500X0.450000X0.262500X-0.450000X0.262500X-0.450000X-0.262500X0*%
%ADD12RoundRect,0.250000X0.262500X0.450000X-0.262500X0.450000X-0.262500X-0.450000X0.262500X-0.450000X0*%
%ADD13RoundRect,0.250000X-0.450000X0.262500X-0.450000X-0.262500X0.450000X-0.262500X0.450000X0.262500X0*%
%ADD14RotRect,1.000000X2.000000X45.000000*%
%ADD15RotRect,1.800000X2.000000X45.000000*%
%ADD16R,0.800000X0.900000*%
G04 APERTURE END LIST*
D10*
%TO.C,SW1103*%
X214575000Y-143350000D03*
X214575000Y-147850000D03*
X222525000Y-143350000D03*
X222525000Y-147850000D03*
%TD*%
D11*
%TO.C,R1105*%
X249400000Y-92712500D03*
X249400000Y-90887500D03*
%TD*%
D10*
%TO.C,SW1101*%
X183575000Y-143350000D03*
X183575000Y-147850000D03*
X191525000Y-143350000D03*
X191525000Y-147850000D03*
%TD*%
%TO.C,SW1104*%
X230075000Y-143350000D03*
X230075000Y-147850000D03*
X238025000Y-143350000D03*
X238025000Y-147850000D03*
%TD*%
D12*
%TO.C,R1402*%
X200512500Y-83800000D03*
X198687500Y-83800000D03*
%TD*%
%TO.C,R1408*%
X204200000Y-86200000D03*
X202375000Y-86200000D03*
%TD*%
%TO.C,R1403*%
X229400000Y-83900000D03*
X227575000Y-83900000D03*
%TD*%
D13*
%TO.C,R1104*%
X249000000Y-99987500D03*
X249000000Y-101812500D03*
%TD*%
%TO.C,R1103*%
X251000000Y-100987500D03*
X251000000Y-102812500D03*
%TD*%
D14*
%TO.C,S1101*%
X252679200Y-132163946D03*
X251671573Y-133171573D03*
X250663946Y-134179200D03*
X258336054Y-137820800D03*
X257328427Y-138828427D03*
X256320800Y-139836054D03*
D15*
X257363782Y-133136218D03*
X251636218Y-138863782D03*
%TD*%
D10*
%TO.C,SW1102*%
X199075000Y-143350000D03*
X199075000Y-147850000D03*
X207025000Y-143350000D03*
X207025000Y-147850000D03*
%TD*%
D12*
%TO.C,R1401*%
X225812500Y-83900000D03*
X223987500Y-83900000D03*
%TD*%
D16*
%TO.C,D1101*%
X250600000Y-95100000D03*
X249400000Y-95100000D03*
X249400000Y-96900000D03*
X250600000Y-96900000D03*
%TD*%
M02*
