%TF.GenerationSoftware,KiCad,Pcbnew,9.0.6+1*%
%TF.CreationDate,2026-01-07T14:05:17+00:00*%
%TF.ProjectId,Displayboard,44697370-6c61-4796-926f-6172642e6b69, + (Unreleased)*%
%TF.SameCoordinates,Original*%
%TF.FileFunction,Profile,NP*%
%FSLAX46Y46*%
G04 Gerber Fmt 4.6, Leading zero omitted, Abs format (unit mm)*
G04 Created by KiCad (PCBNEW 9.0.6+1) date 2026-01-07 14:05:17*
%MOMM*%
%LPD*%
G01*
G04 APERTURE LIST*
%TA.AperFunction,Profile*%
%ADD10C,0.254000*%
%TD*%
G04 APERTURE END LIST*
D10*
X156500000Y-154500000D02*
G75*
G02*
X154500000Y-152500000I0J2000000D01*
G01*
X222000000Y-78500000D02*
G75*
G02*
X223000000Y-79500000I0J-1000000D01*
G01*
X236000000Y-79500000D02*
G75*
G02*
X237000000Y-78500000I1000000J0D01*
G01*
X166500000Y-138500000D02*
X156500000Y-138500000D01*
X260500000Y-152500000D02*
G75*
G02*
X258500000Y-154500000I-2000000J0D01*
G01*
X156500000Y-88500000D02*
X166500000Y-88500000D01*
X154500000Y-86500000D02*
X154500000Y-80500000D01*
X166500000Y-88500000D02*
G75*
G02*
X168500000Y-90500000I0J-2000000D01*
G01*
X156500000Y-88500000D02*
G75*
G02*
X154500000Y-86500000I0J2000000D01*
G01*
X258500000Y-78500000D02*
G75*
G02*
X260500000Y-80500000I0J-2000000D01*
G01*
X168500000Y-136500000D02*
G75*
G02*
X166500000Y-138500000I-2000000J0D01*
G01*
X224000000Y-86750000D02*
G75*
G02*
X223000000Y-85750000I0J1000000D01*
G01*
X260500000Y-80500000D02*
X260500000Y-152500000D01*
X154500000Y-140500000D02*
G75*
G02*
X156500000Y-138500000I2000000J0D01*
G01*
X222000000Y-78500000D02*
X156500000Y-78500000D01*
X258500000Y-154500000D02*
X156500000Y-154500000D01*
X168500000Y-90500000D02*
X168500000Y-136500000D01*
X236000000Y-85750000D02*
X236000000Y-79500000D01*
X236000000Y-85750000D02*
G75*
G02*
X235000000Y-86750000I-1000000J0D01*
G01*
X223000000Y-85750000D02*
X223000000Y-79500000D01*
X224000000Y-86750000D02*
X235000000Y-86750000D01*
X237000000Y-78500000D02*
X258500000Y-78500000D01*
X154500000Y-152500000D02*
X154500000Y-140500000D01*
X154500000Y-80500000D02*
G75*
G02*
X156500000Y-78500000I2000000J0D01*
G01*
M02*
