%TF.GenerationSoftware,KiCad,Pcbnew,9.0.6+1*%
%TF.CreationDate,2026-01-07T14:05:17+00:00*%
%TF.ProjectId,Displayboard,44697370-6c61-4796-926f-6172642e6b69, + (Unreleased)*%
%TF.SameCoordinates,Original*%
%TF.FileFunction,Copper,L2,Bot*%
%TF.FilePolarity,Positive*%
%FSLAX46Y46*%
G04 Gerber Fmt 4.6, Leading zero omitted, Abs format (unit mm)*
G04 Created by KiCad (PCBNEW 9.0.6+1) date 2026-01-07 14:05:17*
%MOMM*%
%LPD*%
G01*
G04 APERTURE LIST*
G04 Aperture macros list*
%AMRoundRect*
0 Rectangle with rounded corners*
0 $1 Rounding radius*
0 $2 $3 $4 $5 $6 $7 $8 $9 X,Y pos of 4 corners*
0 Add a 4 corners polygon primitive as box body*
4,1,4,$2,$3,$4,$5,$6,$7,$8,$9,$2,$3,0*
0 Add four circle primitives for the rounded corners*
1,1,$1+$1,$2,$3*
1,1,$1+$1,$4,$5*
1,1,$1+$1,$6,$7*
1,1,$1+$1,$8,$9*
0 Add four rect primitives between the rounded corners*
20,1,$1+$1,$2,$3,$4,$5,0*
20,1,$1+$1,$4,$5,$6,$7,0*
20,1,$1+$1,$6,$7,$8,$9,0*
20,1,$1+$1,$8,$9,$2,$3,0*%
%AMFreePoly0*
4,1,7,1.050000,-0.975000,-1.050000,-0.975000,-1.050000,0.625000,-0.250000,0.625000,-0.250000,0.975000,1.050000,0.975000,1.050000,-0.975000,1.050000,-0.975000,$1*%
%AMFreePoly1*
4,1,7,0.250000,0.625000,1.050000,0.625000,1.050000,-0.975000,-1.050000,-0.975000,-1.050000,0.975000,0.250000,0.975000,0.250000,0.625000,0.250000,0.625000,$1*%
G04 Aperture macros list end*
%TA.AperFunction,ComponentPad*%
%ADD10C,0.800000*%
%TD*%
%TA.AperFunction,ComponentPad*%
%ADD11C,5.400000*%
%TD*%
%TA.AperFunction,SMDPad,CuDef*%
%ADD12R,2.000000X0.610000*%
%TD*%
%TA.AperFunction,SMDPad,CuDef*%
%ADD13R,3.600000X2.680000*%
%TD*%
%TA.AperFunction,SMDPad,CuDef*%
%ADD14RoundRect,0.250000X-0.262500X-0.450000X0.262500X-0.450000X0.262500X0.450000X-0.262500X0.450000X0*%
%TD*%
%TA.AperFunction,SMDPad,CuDef*%
%ADD15RoundRect,0.075000X-0.075000X-0.475000X0.075000X-0.475000X0.075000X0.475000X-0.075000X0.475000X0*%
%TD*%
%TA.AperFunction,SMDPad,CuDef*%
%ADD16FreePoly0,0.000000*%
%TD*%
%TA.AperFunction,SMDPad,CuDef*%
%ADD17FreePoly1,0.000000*%
%TD*%
%TA.AperFunction,SMDPad,CuDef*%
%ADD18RoundRect,0.250000X0.262500X0.450000X-0.262500X0.450000X-0.262500X-0.450000X0.262500X-0.450000X0*%
%TD*%
%TA.AperFunction,SMDPad,CuDef*%
%ADD19RoundRect,0.250000X0.450000X-0.262500X0.450000X0.262500X-0.450000X0.262500X-0.450000X-0.262500X0*%
%TD*%
%TA.AperFunction,SMDPad,CuDef*%
%ADD20RoundRect,0.075000X0.475000X-0.075000X0.475000X0.075000X-0.475000X0.075000X-0.475000X-0.075000X0*%
%TD*%
%TA.AperFunction,SMDPad,CuDef*%
%ADD21FreePoly0,90.000000*%
%TD*%
%TA.AperFunction,SMDPad,CuDef*%
%ADD22FreePoly1,90.000000*%
%TD*%
%TA.AperFunction,SMDPad,CuDef*%
%ADD23RoundRect,0.150000X0.587500X0.150000X-0.587500X0.150000X-0.587500X-0.150000X0.587500X-0.150000X0*%
%TD*%
%TA.AperFunction,SMDPad,CuDef*%
%ADD24RoundRect,0.250000X0.475000X-0.250000X0.475000X0.250000X-0.475000X0.250000X-0.475000X-0.250000X0*%
%TD*%
%TA.AperFunction,SMDPad,CuDef*%
%ADD25RoundRect,0.250000X-0.250000X-0.475000X0.250000X-0.475000X0.250000X0.475000X-0.250000X0.475000X0*%
%TD*%
%TA.AperFunction,SMDPad,CuDef*%
%ADD26RoundRect,0.062500X0.375000X0.062500X-0.375000X0.062500X-0.375000X-0.062500X0.375000X-0.062500X0*%
%TD*%
%TA.AperFunction,SMDPad,CuDef*%
%ADD27RoundRect,0.062500X0.062500X0.375000X-0.062500X0.375000X-0.062500X-0.375000X0.062500X-0.375000X0*%
%TD*%
%TA.AperFunction,HeatsinkPad*%
%ADD28R,2.100000X2.100000*%
%TD*%
%TA.AperFunction,ViaPad*%
%ADD29C,0.450000*%
%TD*%
%TA.AperFunction,Conductor*%
%ADD30C,0.200000*%
%TD*%
G04 APERTURE END LIST*
D10*
%TO.P,REF\u002A\u002A,1*%
%TO.N,N/C*%
X253475000Y-149500000D03*
X254068109Y-148068109D03*
X254068109Y-150931891D03*
X255500000Y-147475000D03*
D11*
X255500000Y-149500000D03*
D10*
X255500000Y-151525000D03*
X256931891Y-148068109D03*
X256931891Y-150931891D03*
X257525000Y-149500000D03*
%TD*%
%TO.P,REF\u002A\u002A,1*%
%TO.N,N/C*%
X253475000Y-83500000D03*
X254068109Y-82068109D03*
X254068109Y-84931891D03*
X255500000Y-81475000D03*
D11*
X255500000Y-83500000D03*
D10*
X255500000Y-85525000D03*
X256931891Y-82068109D03*
X256931891Y-84931891D03*
X257525000Y-83500000D03*
%TD*%
%TO.P,REF\u002A\u002A,1*%
%TO.N,N/C*%
X157475000Y-83500000D03*
X158068109Y-82068109D03*
X158068109Y-84931891D03*
X159500000Y-81475000D03*
D11*
X159500000Y-83500000D03*
D10*
X159500000Y-85525000D03*
X160931891Y-82068109D03*
X160931891Y-84931891D03*
X161525000Y-83500000D03*
%TD*%
%TO.P,REF\u002A\u002A,1*%
%TO.N,N/C*%
X157475000Y-149500000D03*
X158068109Y-148068109D03*
X158068109Y-150931891D03*
X159500000Y-147475000D03*
D11*
X159500000Y-149500000D03*
D10*
X159500000Y-151525000D03*
X160931891Y-148068109D03*
X160931891Y-150931891D03*
X161525000Y-149500000D03*
%TD*%
D12*
%TO.P,X502,1,Pin_1*%
%TO.N,unconnected-(X502-Pin_1-Pad1)*%
X196800000Y-132500000D03*
%TO.P,X502,2,Pin_2*%
%TO.N,unconnected-(X502-Pin_2-Pad2)*%
X196800000Y-131500000D03*
%TO.P,X502,3,Pin_3*%
%TO.N,unconnected-(X502-Pin_3-Pad3)*%
X196800000Y-130500000D03*
%TO.P,X502,4,Pin_4*%
%TO.N,unconnected-(X502-Pin_4-Pad4)*%
X196800000Y-129500000D03*
%TO.P,X502,5,Pin_5*%
%TO.N,Net-(X502-Pin_5)*%
X196800000Y-128500000D03*
%TO.P,X502,6,Pin_6*%
X196800000Y-127500000D03*
%TO.P,X502,7,Pin_7*%
X196800000Y-126500000D03*
%TO.P,X502,8,Pin_8*%
X196800000Y-125500000D03*
%TO.P,X502,9,Pin_9*%
%TO.N,+3V3*%
X196800000Y-124500000D03*
%TO.P,X502,10,Pin_10*%
X196800000Y-123500000D03*
%TO.P,X502,11,Pin_11*%
%TO.N,GND*%
X196800000Y-122500000D03*
%TO.P,X502,12,Pin_12*%
%TO.N,Net-(X502-Pin_12)*%
X196800000Y-121500000D03*
%TO.P,X502,13,Pin_13*%
%TO.N,/Project Architecture/Connectors/SPI-MOSI*%
X196800000Y-120500000D03*
%TO.P,X502,14,Pin_14*%
%TO.N,/Project Architecture/Connectors/~{Display-CS}*%
X196800000Y-119500000D03*
%TO.P,X502,15,Pin_15*%
%TO.N,/Project Architecture/Connectors/Display-DC*%
X196800000Y-118500000D03*
%TO.P,X502,16,Pin_16*%
%TO.N,/Project Architecture/Connectors/SPI-SCLK*%
X196800000Y-117500000D03*
%TO.P,X502,17,Pin_17*%
%TO.N,/Project Architecture/Connectors/~{Display-Reset}*%
X196800000Y-116500000D03*
%TO.P,X502,18,Pin_18*%
%TO.N,GND*%
X196800000Y-115500000D03*
D13*
%TO.P,X502,MP*%
%TO.N,N/C*%
X194000000Y-135490000D03*
X194000000Y-112510000D03*
%TD*%
D14*
%TO.P,R401,1*%
%TO.N,Net-(IC401-~{RESET})*%
X227587500Y-119949999D03*
%TO.P,R401,2*%
%TO.N,+3V3*%
X229412500Y-119949999D03*
%TD*%
D15*
%TO.P,X503,1,Pin_1*%
%TO.N,+3V3*%
X241250000Y-95400000D03*
%TO.P,X503,2,Pin_2*%
%TO.N,GND*%
X241750000Y-95400000D03*
%TO.P,X503,3,Pin_3*%
%TO.N,/Project Architecture/Connectors/~{Touch-Reset}*%
X242250000Y-95400000D03*
%TO.P,X503,4,Pin_4*%
%TO.N,/Project Architecture/Connectors/~{Touch-IRQ}*%
X242750000Y-95400000D03*
%TO.P,X503,5,Pin_5*%
%TO.N,/Project Architecture/Connectors/I2C-SDA*%
X243250000Y-95400000D03*
%TO.P,X503,6,Pin_6*%
%TO.N,/Project Architecture/Connectors/I2C-SCL*%
X243750000Y-95400000D03*
%TO.P,X503,7,Pin_7*%
%TO.N,/Project Architecture/Connectors/~{Expander-INT}*%
X244250000Y-95400000D03*
%TO.P,X503,8,Pin_8*%
%TO.N,/Project Architecture/Connectors/~{Display-Reset}*%
X244750000Y-95400000D03*
%TO.P,X503,9,Pin_9*%
%TO.N,/Project Architecture/Connectors/SPI-SCLK*%
X245250000Y-95400000D03*
%TO.P,X503,10,Pin_10*%
%TO.N,/Project Architecture/Connectors/Display-DC*%
X245750000Y-95400000D03*
%TO.P,X503,11,Pin_11*%
%TO.N,/Project Architecture/Connectors/~{Display-CS}*%
X246250000Y-95400000D03*
%TO.P,X503,12,Pin_12*%
%TO.N,/Project Architecture/Connectors/SPI-MOSI*%
X246750000Y-95400000D03*
%TO.P,X503,13,Pin_13*%
%TO.N,/Project Architecture/Connectors/SPI-MISO*%
X247250000Y-95400000D03*
%TO.P,X503,14,Pin_14*%
%TO.N,/Project Architecture/Connectors/Display-Backlight*%
X247750000Y-95400000D03*
D16*
%TO.P,X503,MP,MountPin*%
%TO.N,GND*%
X239000000Y-94275000D03*
D17*
X250000000Y-94275000D03*
%TD*%
D14*
%TO.P,R402,1*%
%TO.N,/Project Architecture/Connectors/~{Expander-INT}*%
X227187500Y-114100000D03*
%TO.P,R402,2*%
%TO.N,+3V3*%
X229012500Y-114100000D03*
%TD*%
D18*
%TO.P,R501,1*%
%TO.N,/Project Architecture/Connectors/SPI-MISO*%
X201312500Y-121500000D03*
%TO.P,R501,2*%
%TO.N,Net-(X502-Pin_12)*%
X199487500Y-121500000D03*
%TD*%
D19*
%TO.P,R503,1*%
%TO.N,GND*%
X207400000Y-127412500D03*
%TO.P,R503,2*%
%TO.N,Net-(Q501-B)*%
X207400000Y-125587500D03*
%TD*%
D20*
%TO.P,X501,1,Pin_1*%
%TO.N,+3V3*%
X184400000Y-99750000D03*
%TO.P,X501,2,Pin_2*%
%TO.N,/Project Architecture/Connectors/I2C-SCL*%
X184400000Y-99250000D03*
%TO.P,X501,3,Pin_3*%
%TO.N,/Project Architecture/Connectors/I2C-SDA*%
X184400000Y-98750000D03*
%TO.P,X501,4,Pin_4*%
%TO.N,/Project Architecture/Connectors/~{Touch-IRQ}*%
X184400000Y-98250000D03*
%TO.P,X501,5,Pin_5*%
%TO.N,/Project Architecture/Connectors/~{Touch-Reset}*%
X184400000Y-97750000D03*
%TO.P,X501,6,Pin_6*%
%TO.N,GND*%
X184400000Y-97250000D03*
D21*
%TO.P,X501,MP*%
%TO.N,N/C*%
X183275000Y-102000000D03*
D22*
X183275000Y-95000000D03*
%TD*%
D23*
%TO.P,Q501,1,B*%
%TO.N,Net-(Q501-B)*%
X205275001Y-125550000D03*
%TO.P,Q501,2,E*%
%TO.N,GND*%
X205275001Y-127450000D03*
%TO.P,Q501,3,C*%
%TO.N,Net-(Q501-C)*%
X203400000Y-126500000D03*
%TD*%
D18*
%TO.P,R502,1*%
%TO.N,Net-(Q501-C)*%
X201212500Y-126500000D03*
%TO.P,R502,2*%
%TO.N,Net-(X502-Pin_5)*%
X199387500Y-126500000D03*
%TD*%
D24*
%TO.P,C402,1*%
%TO.N,+3V3*%
X224387500Y-119449999D03*
%TO.P,C402,2*%
%TO.N,GND*%
X224387500Y-117550001D03*
%TD*%
D25*
%TO.P,C401,1*%
%TO.N,Net-(IC401-~{RESET})*%
X227550001Y-117949999D03*
%TO.P,C401,2*%
%TO.N,GND*%
X229449999Y-117949999D03*
%TD*%
D26*
%TO.P,IC401,1,P0_0*%
%TO.N,Net-(IC401-P0_0)*%
X226575000Y-122350000D03*
%TO.P,IC401,2,P0_1*%
%TO.N,Net-(IC401-P0_1)*%
X226574999Y-122850000D03*
%TO.P,IC401,3,P0_2*%
%TO.N,Net-(IC401-P0_2)*%
X226575000Y-123350000D03*
%TO.P,IC401,4,P0_3*%
%TO.N,Net-(IC401-P0_3)*%
X226575000Y-123850000D03*
%TO.P,IC401,5,P0_4*%
%TO.N,Net-(IC401-P0_4)*%
X226574999Y-124350000D03*
%TO.P,IC401,6,P0_5*%
%TO.N,Net-(IC401-P0_5)*%
X226575000Y-124850000D03*
D27*
%TO.P,IC401,7,P0_6*%
%TO.N,Net-(IC401-P0_6)*%
X225887500Y-125537500D03*
%TO.P,IC401,8,P0_7*%
%TO.N,Net-(IC401-P0_7)*%
X225387500Y-125537499D03*
%TO.P,IC401,9,V_{SS}*%
%TO.N,GND*%
X224887500Y-125537500D03*
%TO.P,IC401,10,P1_0*%
%TO.N,Net-(IC401-P1_0)*%
X224387500Y-125537500D03*
%TO.P,IC401,11,P1_1*%
%TO.N,Net-(IC401-P1_1)*%
X223887500Y-125537499D03*
%TO.P,IC401,12,P1_2*%
%TO.N,Net-(IC401-P1_2)*%
X223387500Y-125537500D03*
D26*
%TO.P,IC401,13,P1_3*%
%TO.N,Net-(IC401-P1_3)*%
X222700000Y-124850000D03*
%TO.P,IC401,14,P1_4*%
%TO.N,unconnected-(IC401-P1_4-Pad14)*%
X222700001Y-124350000D03*
%TO.P,IC401,15,P1_5*%
%TO.N,unconnected-(IC401-P1_5-Pad15)*%
X222700000Y-123850000D03*
%TO.P,IC401,16,P1_6*%
%TO.N,unconnected-(IC401-P1_6-Pad16)*%
X222700000Y-123350000D03*
%TO.P,IC401,17,P1_7*%
%TO.N,unconnected-(IC401-P1_7-Pad17)*%
X222700001Y-122850000D03*
%TO.P,IC401,18,ADDR*%
%TO.N,+3V3*%
X222700000Y-122350000D03*
D27*
%TO.P,IC401,19,SCL*%
%TO.N,/Project Architecture/Connectors/I2C-SCL*%
X223387500Y-121662500D03*
%TO.P,IC401,20,SDA*%
%TO.N,/Project Architecture/Connectors/I2C-SDA*%
X223887500Y-121662501D03*
%TO.P,IC401,21,V_{DD(P)}*%
%TO.N,+3V3*%
X224387500Y-121662500D03*
%TO.P,IC401,22,~{INT}*%
%TO.N,/Project Architecture/Connectors/~{Expander-INT}*%
X224887500Y-121662500D03*
%TO.P,IC401,23,V_{DD(I2C-bus)}*%
%TO.N,+3V3*%
X225387500Y-121662501D03*
%TO.P,IC401,24,~{RESET}*%
%TO.N,Net-(IC401-~{RESET})*%
X225887500Y-121662500D03*
D28*
%TO.P,IC401,25,EP*%
%TO.N,GND*%
X224637500Y-123600000D03*
%TD*%
D18*
%TO.P,R504,1*%
%TO.N,/Project Architecture/Connectors/Display-Backlight*%
X211212500Y-125587500D03*
%TO.P,R504,2*%
%TO.N,Net-(Q501-B)*%
X209387500Y-125587500D03*
%TD*%
D29*
%TO.N,+3V3*%
X222700000Y-121800000D03*
X183400000Y-99750000D03*
X241250000Y-96350000D03*
X229800000Y-114100000D03*
X198500000Y-123500000D03*
X223150001Y-119449999D03*
X225387500Y-120949999D03*
X230500000Y-119949999D03*
%TO.N,/Project Architecture/Connectors/~{Expander-INT}*%
X226100000Y-103000000D03*
X244250000Y-102550000D03*
%TO.N,/Project Architecture/Connectors/~{Display-CS}*%
X246250000Y-107100000D03*
X216500000Y-119500000D03*
%TO.N,/Project Architecture/Connectors/~{Display-Reset}*%
X244750000Y-103950000D03*
X213400000Y-116500000D03*
%TO.N,/Project Architecture/Connectors/I2C-SCL*%
X223800000Y-99900000D03*
X221500000Y-99900000D03*
%TO.N,/Project Architecture/Connectors/SPI-SCLK*%
X214400000Y-117500000D03*
X245250000Y-105000000D03*
%TO.N,/Project Architecture/Connectors/SPI-MOSI*%
X246750000Y-108100000D03*
X217400000Y-120500000D03*
%TO.N,/Project Architecture/Connectors/Display-DC*%
X245750000Y-106150000D03*
X215500000Y-118500000D03*
%TO.N,/Project Architecture/Connectors/Display-Backlight*%
X247750000Y-109800000D03*
X219631094Y-122331094D03*
%TO.N,/Project Architecture/Connectors/SPI-MISO*%
X218600000Y-121500000D03*
X247250000Y-108900000D03*
%TO.N,Net-(IC401-P0_2)*%
X233500000Y-123350000D03*
%TO.N,Net-(IC401-P1_1)*%
X223887500Y-129200000D03*
%TO.N,Net-(IC401-P1_0)*%
X224387500Y-128400000D03*
%TO.N,Net-(IC401-P1_3)*%
X191525000Y-139100000D03*
%TO.N,Net-(IC401-P1_2)*%
X223387500Y-127712500D03*
%TO.N,Net-(IC401-P0_7)*%
X225387500Y-128000000D03*
%TO.N,Net-(IC401-P0_5)*%
X227750000Y-124850000D03*
%TO.N,Net-(IC401-P0_0)*%
X234093257Y-122350000D03*
%TO.N,Net-(IC401-P0_3)*%
X228850000Y-123850000D03*
%TO.N,Net-(IC401-P0_1)*%
X233000000Y-122850000D03*
%TO.N,Net-(IC401-P0_6)*%
X225887500Y-126900000D03*
%TO.N,Net-(IC401-P0_4)*%
X228200000Y-124350000D03*
%TD*%
D30*
%TO.N,+3V3*%
X230500000Y-119949999D02*
X229412500Y-119949999D01*
X196800000Y-123500000D02*
X198500000Y-123500000D01*
X222700000Y-122350000D02*
X222700000Y-121800000D01*
X224387500Y-121662500D02*
X224387500Y-119449999D01*
X223150001Y-119449999D02*
X224387500Y-119449999D01*
X196800000Y-123500000D02*
X196800000Y-124500000D01*
X225387500Y-120949999D02*
X225387500Y-121662501D01*
X229012500Y-114100000D02*
X229800000Y-114100000D01*
X241250000Y-96350000D02*
X241250000Y-95400000D01*
X183400000Y-99750000D02*
X184400000Y-99750000D01*
%TO.N,/Project Architecture/Connectors/~{Expander-INT}*%
X226400000Y-114100000D02*
X226100000Y-114400000D01*
X244250000Y-102550000D02*
X244250000Y-95400000D01*
X226100000Y-103000000D02*
X226100000Y-114400000D01*
X224887500Y-121662500D02*
X224887500Y-120662499D01*
X227187500Y-114100000D02*
X226400000Y-114100000D01*
X224887500Y-120662499D02*
X226100000Y-119449999D01*
X226100000Y-119449999D02*
X226100000Y-114400000D01*
%TO.N,/Project Architecture/Connectors/~{Touch-Reset}*%
X242250000Y-96500000D02*
X241000000Y-97750000D01*
X241000000Y-97750000D02*
X184400000Y-97750000D01*
X242250000Y-95400000D02*
X242250000Y-96500000D01*
%TO.N,/Project Architecture/Connectors/~{Display-CS}*%
X196800000Y-119500000D02*
X216500000Y-119500000D01*
X246250000Y-107100000D02*
X246250000Y-95400000D01*
%TO.N,/Project Architecture/Connectors/~{Display-Reset}*%
X244750000Y-103950000D02*
X244750000Y-95400000D01*
X213400000Y-116500000D02*
X196800000Y-116500000D01*
%TO.N,/Project Architecture/Connectors/I2C-SDA*%
X243250000Y-97250000D02*
X243250000Y-95400000D01*
X222800000Y-98800000D02*
X241700000Y-98800000D01*
X223887500Y-120987500D02*
X223600000Y-120700000D01*
X223887500Y-121662501D02*
X223887500Y-120987500D01*
X241700000Y-98800000D02*
X243250000Y-97250000D01*
X222200000Y-99400000D02*
X222800000Y-98800000D01*
X222500000Y-120700000D02*
X222200000Y-120400000D01*
X222200000Y-99400000D02*
X221550000Y-98750000D01*
X221550000Y-98750000D02*
X184400000Y-98750000D01*
X222200000Y-120400000D02*
X222200000Y-99400000D01*
X223600000Y-120700000D02*
X222500000Y-120700000D01*
%TO.N,/Project Architecture/Connectors/I2C-SCL*%
X243750000Y-97850000D02*
X243750000Y-95400000D01*
X221500000Y-120200000D02*
X222400000Y-121100000D01*
X222400000Y-121100000D02*
X223300000Y-121100000D01*
X241700000Y-99900000D02*
X243750000Y-97850000D01*
X221500000Y-99900000D02*
X221500000Y-120200000D01*
X223300000Y-121100000D02*
X223387500Y-121187500D01*
X220850000Y-99250000D02*
X184400000Y-99250000D01*
X223800000Y-99900000D02*
X241700000Y-99900000D01*
X221500000Y-99900000D02*
X220850000Y-99250000D01*
X223387500Y-121187500D02*
X223387500Y-121662500D01*
%TO.N,/Project Architecture/Connectors/SPI-SCLK*%
X214400000Y-117500000D02*
X196800000Y-117500000D01*
X245250000Y-105000000D02*
X245250000Y-95400000D01*
%TO.N,/Project Architecture/Connectors/SPI-MOSI*%
X196800000Y-120500000D02*
X217400000Y-120500000D01*
X246750000Y-108100000D02*
X246750000Y-95400000D01*
%TO.N,/Project Architecture/Connectors/~{Touch-IRQ}*%
X184400000Y-98250000D02*
X241450000Y-98250000D01*
X242750000Y-96950000D02*
X242750000Y-95400000D01*
X241450000Y-98250000D02*
X242750000Y-96950000D01*
%TO.N,/Project Architecture/Connectors/Display-DC*%
X245750000Y-106150000D02*
X245750000Y-95400000D01*
X196800000Y-118500000D02*
X215500000Y-118500000D01*
%TO.N,/Project Architecture/Connectors/Display-Backlight*%
X247750000Y-109800000D02*
X247750000Y-95400000D01*
X216374688Y-125587500D02*
X211212500Y-125587500D01*
X219631094Y-122331094D02*
X216374688Y-125587500D01*
%TO.N,/Project Architecture/Connectors/SPI-MISO*%
X247250000Y-108900000D02*
X247250000Y-95400000D01*
X201312500Y-121500000D02*
X218600000Y-121500000D01*
%TO.N,Net-(IC401-~{RESET})*%
X227587500Y-119037498D02*
X227550001Y-118999998D01*
X227550001Y-118999998D02*
X227550001Y-117949999D01*
X226750001Y-119949999D02*
X225887501Y-120812499D01*
X227587500Y-119949999D02*
X227587500Y-119037498D01*
X225887501Y-120812499D02*
X225887501Y-121662499D01*
X225887501Y-121662499D02*
X225887500Y-121662500D01*
X227587500Y-119949999D02*
X226750001Y-119949999D01*
%TO.N,Net-(IC401-P0_2)*%
X233500000Y-123350000D02*
X226575000Y-123350000D01*
%TO.N,Net-(IC401-P1_1)*%
X223887500Y-129200000D02*
X223887500Y-125537499D01*
%TO.N,Net-(IC401-P1_0)*%
X224387500Y-128400000D02*
X224387500Y-125537500D01*
%TO.N,Net-(IC401-P1_3)*%
X191525000Y-139100000D02*
X204600000Y-139100000D01*
X218850000Y-124850000D02*
X222700000Y-124850000D01*
X204600000Y-139100000D02*
X218850000Y-124850000D01*
%TO.N,Net-(IC401-P1_2)*%
X223387500Y-127712500D02*
X223387500Y-125537500D01*
%TO.N,Net-(IC401-P0_7)*%
X225387500Y-128000000D02*
X225387500Y-125537499D01*
%TO.N,Net-(IC401-P0_5)*%
X227750000Y-124850000D02*
X226575000Y-124850000D01*
%TO.N,Net-(IC401-P0_0)*%
X234093257Y-122350000D02*
X226575000Y-122350000D01*
%TO.N,Net-(IC401-P0_3)*%
X228850000Y-123850000D02*
X226575000Y-123850000D01*
%TO.N,Net-(IC401-P0_1)*%
X233000000Y-122850000D02*
X226574999Y-122850000D01*
%TO.N,Net-(IC401-P0_6)*%
X225887500Y-126900000D02*
X225887500Y-125537500D01*
%TO.N,Net-(IC401-P0_4)*%
X228200000Y-124350000D02*
X226574999Y-124350000D01*
%TO.N,Net-(Q501-B)*%
X206312500Y-125587500D02*
X206300000Y-125600000D01*
X206250000Y-125550000D02*
X205275001Y-125550000D01*
X209387500Y-125587500D02*
X207400000Y-125587500D01*
X207400000Y-125587500D02*
X206312500Y-125587500D01*
X206300000Y-125600000D02*
X206250000Y-125550000D01*
%TO.N,Net-(Q501-C)*%
X203400000Y-126500000D02*
X201212500Y-126500000D01*
%TO.N,Net-(X502-Pin_12)*%
X199487500Y-121500000D02*
X196800000Y-121500000D01*
%TO.N,Net-(X502-Pin_5)*%
X196800000Y-126500000D02*
X196800000Y-127500000D01*
X199387500Y-126500000D02*
X196800000Y-126500000D01*
X196800000Y-128500000D02*
X196800000Y-127500000D01*
X196800000Y-125500000D02*
X196800000Y-126500000D01*
%TD*%
%TA.AperFunction,Conductor*%
%TO.N,GND*%
G36*
X222003056Y-78625801D02*
G01*
X222164482Y-78641699D01*
X222176491Y-78644088D01*
X222323135Y-78688572D01*
X222328766Y-78690280D01*
X222340085Y-78694969D01*
X222480420Y-78769980D01*
X222490605Y-78776785D01*
X222612272Y-78876635D01*
X222613606Y-78877729D01*
X222622268Y-78886391D01*
X222723212Y-79009392D01*
X222730019Y-79019579D01*
X222805030Y-79159914D01*
X222809719Y-79171233D01*
X222855910Y-79323504D01*
X222858300Y-79335521D01*
X222874199Y-79496943D01*
X222874500Y-79503069D01*
X222874500Y-85721356D01*
X222874500Y-85750000D01*
X222874500Y-85848468D01*
X222897445Y-85978592D01*
X222908698Y-86042413D01*
X222976054Y-86227476D01*
X223074522Y-86398024D01*
X223074523Y-86398027D01*
X223201110Y-86548889D01*
X223351972Y-86675476D01*
X223351973Y-86675476D01*
X223351974Y-86675477D01*
X223427173Y-86718893D01*
X223522523Y-86773945D01*
X223522526Y-86773946D01*
X223707587Y-86841302D01*
X223901532Y-86875500D01*
X223901537Y-86875500D01*
X235098462Y-86875500D01*
X235098468Y-86875500D01*
X235292413Y-86841302D01*
X235477474Y-86773946D01*
X235648026Y-86675477D01*
X235798889Y-86548889D01*
X235925477Y-86398026D01*
X236023946Y-86227474D01*
X236091302Y-86042413D01*
X236125500Y-85848468D01*
X236125500Y-85750000D01*
X236125500Y-85721356D01*
X236125500Y-83341214D01*
X252672500Y-83341214D01*
X252672500Y-83658785D01*
X252708056Y-83974358D01*
X252708059Y-83974375D01*
X252778723Y-84283979D01*
X252883615Y-84583741D01*
X253021407Y-84869870D01*
X253190364Y-85138765D01*
X253190376Y-85138782D01*
X253388364Y-85387051D01*
X253388369Y-85387057D01*
X253388375Y-85387064D01*
X253612936Y-85611625D01*
X253612943Y-85611631D01*
X253612948Y-85611635D01*
X253861217Y-85809623D01*
X253861223Y-85809627D01*
X253861229Y-85809632D01*
X254130130Y-85978593D01*
X254416258Y-86116385D01*
X254716014Y-86221275D01*
X255025630Y-86291942D01*
X255341211Y-86327500D01*
X255341214Y-86327500D01*
X255658786Y-86327500D01*
X255658789Y-86327500D01*
X255974370Y-86291942D01*
X256283986Y-86221275D01*
X256583742Y-86116385D01*
X256869870Y-85978593D01*
X257138771Y-85809632D01*
X257387064Y-85611625D01*
X257611625Y-85387064D01*
X257809632Y-85138771D01*
X257978593Y-84869870D01*
X258116385Y-84583742D01*
X258221275Y-84283986D01*
X258291942Y-83974370D01*
X258327500Y-83658789D01*
X258327500Y-83341211D01*
X258291942Y-83025630D01*
X258221275Y-82716014D01*
X258116385Y-82416258D01*
X257978593Y-82130130D01*
X257809632Y-81861229D01*
X257809627Y-81861223D01*
X257809623Y-81861217D01*
X257611635Y-81612948D01*
X257611631Y-81612943D01*
X257611625Y-81612936D01*
X257387064Y-81388375D01*
X257387057Y-81388369D01*
X257387051Y-81388364D01*
X257138782Y-81190376D01*
X257138765Y-81190364D01*
X256869870Y-81021407D01*
X256583742Y-80883615D01*
X256283986Y-80778725D01*
X256283982Y-80778724D01*
X256283979Y-80778723D01*
X255974375Y-80708059D01*
X255974372Y-80708058D01*
X255974370Y-80708058D01*
X255974368Y-80708057D01*
X255974358Y-80708056D01*
X255766979Y-80684690D01*
X255658789Y-80672500D01*
X255341211Y-80672500D01*
X255244116Y-80683440D01*
X255025641Y-80708056D01*
X255025624Y-80708059D01*
X254716020Y-80778723D01*
X254416258Y-80883615D01*
X254130129Y-81021407D01*
X253861234Y-81190364D01*
X253861217Y-81190376D01*
X253612948Y-81388364D01*
X253612928Y-81388382D01*
X253388382Y-81612928D01*
X253388364Y-81612948D01*
X253190376Y-81861217D01*
X253190364Y-81861234D01*
X253021407Y-82130129D01*
X252883615Y-82416258D01*
X252778723Y-82716020D01*
X252708059Y-83025624D01*
X252708056Y-83025641D01*
X252672500Y-83341214D01*
X236125500Y-83341214D01*
X236125500Y-79503069D01*
X236125801Y-79496943D01*
X236135198Y-79401532D01*
X236141700Y-79335515D01*
X236144087Y-79323510D01*
X236190281Y-79171230D01*
X236194969Y-79159914D01*
X236269980Y-79019579D01*
X236276782Y-79009398D01*
X236377735Y-78886386D01*
X236386386Y-78877735D01*
X236509398Y-78776782D01*
X236519579Y-78769980D01*
X236525398Y-78766870D01*
X236659914Y-78694969D01*
X236671230Y-78690281D01*
X236823510Y-78644087D01*
X236835515Y-78641700D01*
X236996944Y-78625801D01*
X237003070Y-78625500D01*
X237028644Y-78625500D01*
X258471356Y-78625500D01*
X258497956Y-78625500D01*
X258502044Y-78625634D01*
X258740583Y-78641269D01*
X258748687Y-78642335D01*
X258981149Y-78688575D01*
X258989024Y-78690685D01*
X259186116Y-78757589D01*
X259213457Y-78766870D01*
X259221010Y-78769998D01*
X259433578Y-78874824D01*
X259440656Y-78878910D01*
X259635934Y-79009392D01*
X259637717Y-79010583D01*
X259644202Y-79015559D01*
X259822399Y-79171833D01*
X259828166Y-79177600D01*
X259854464Y-79207587D01*
X259984439Y-79355796D01*
X259989416Y-79362282D01*
X260121087Y-79559341D01*
X260125175Y-79566421D01*
X260230001Y-79778989D01*
X260233129Y-79786542D01*
X260309311Y-80010964D01*
X260311427Y-80018861D01*
X260357663Y-80251311D01*
X260358730Y-80259416D01*
X260374366Y-80497955D01*
X260374500Y-80502043D01*
X260374500Y-152497956D01*
X260374366Y-152502044D01*
X260358730Y-152740583D01*
X260357663Y-152748688D01*
X260311427Y-152981138D01*
X260309311Y-152989035D01*
X260233129Y-153213457D01*
X260230001Y-153221010D01*
X260125175Y-153433578D01*
X260121087Y-153440658D01*
X259989416Y-153637717D01*
X259984439Y-153644203D01*
X259828173Y-153822392D01*
X259822392Y-153828173D01*
X259644203Y-153984439D01*
X259637717Y-153989416D01*
X259440658Y-154121087D01*
X259433578Y-154125175D01*
X259221010Y-154230001D01*
X259213457Y-154233129D01*
X258989035Y-154309311D01*
X258981138Y-154311427D01*
X258748688Y-154357663D01*
X258740583Y-154358730D01*
X258502044Y-154374366D01*
X258497956Y-154374500D01*
X156502044Y-154374500D01*
X156497956Y-154374366D01*
X156259416Y-154358730D01*
X156251311Y-154357663D01*
X156018861Y-154311427D01*
X156010964Y-154309311D01*
X155786542Y-154233129D01*
X155778989Y-154230001D01*
X155566421Y-154125175D01*
X155559341Y-154121087D01*
X155362282Y-153989416D01*
X155355796Y-153984439D01*
X155264582Y-153904447D01*
X155177600Y-153828166D01*
X155171833Y-153822399D01*
X155015559Y-153644202D01*
X155010583Y-153637717D01*
X154878912Y-153440658D01*
X154874824Y-153433578D01*
X154769998Y-153221010D01*
X154766870Y-153213457D01*
X154757103Y-153184686D01*
X154690685Y-152989024D01*
X154688575Y-152981149D01*
X154642335Y-152748687D01*
X154641269Y-152740583D01*
X154625634Y-152502044D01*
X154625500Y-152497956D01*
X154625500Y-149341214D01*
X156672500Y-149341214D01*
X156672500Y-149658785D01*
X156708056Y-149974358D01*
X156708059Y-149974375D01*
X156778723Y-150283979D01*
X156883615Y-150583741D01*
X157021407Y-150869870D01*
X157190364Y-151138765D01*
X157190376Y-151138782D01*
X157388364Y-151387051D01*
X157388369Y-151387057D01*
X157388375Y-151387064D01*
X157612936Y-151611625D01*
X157612943Y-151611631D01*
X157612948Y-151611635D01*
X157861217Y-151809623D01*
X157861223Y-151809627D01*
X157861229Y-151809632D01*
X158130130Y-151978593D01*
X158416258Y-152116385D01*
X158716014Y-152221275D01*
X159025630Y-152291942D01*
X159341211Y-152327500D01*
X159341214Y-152327500D01*
X159658786Y-152327500D01*
X159658789Y-152327500D01*
X159974370Y-152291942D01*
X160283986Y-152221275D01*
X160583742Y-152116385D01*
X160869870Y-151978593D01*
X161138771Y-151809632D01*
X161387064Y-151611625D01*
X161611625Y-151387064D01*
X161809632Y-151138771D01*
X161978593Y-150869870D01*
X162116385Y-150583742D01*
X162221275Y-150283986D01*
X162291942Y-149974370D01*
X162327500Y-149658789D01*
X162327500Y-149341214D01*
X252672500Y-149341214D01*
X252672500Y-149658785D01*
X252708056Y-149974358D01*
X252708059Y-149974375D01*
X252778723Y-150283979D01*
X252883615Y-150583741D01*
X253021407Y-150869870D01*
X253190364Y-151138765D01*
X253190376Y-151138782D01*
X253388364Y-151387051D01*
X253388369Y-151387057D01*
X253388375Y-151387064D01*
X253612936Y-151611625D01*
X253612943Y-151611631D01*
X253612948Y-151611635D01*
X253861217Y-151809623D01*
X253861223Y-151809627D01*
X253861229Y-151809632D01*
X254130130Y-151978593D01*
X254416258Y-152116385D01*
X254716014Y-152221275D01*
X255025630Y-152291942D01*
X255341211Y-152327500D01*
X255341214Y-152327500D01*
X255658786Y-152327500D01*
X255658789Y-152327500D01*
X255974370Y-152291942D01*
X256283986Y-152221275D01*
X256583742Y-152116385D01*
X256869870Y-151978593D01*
X257138771Y-151809632D01*
X257387064Y-151611625D01*
X257611625Y-151387064D01*
X257809632Y-151138771D01*
X257978593Y-150869870D01*
X258116385Y-150583742D01*
X258221275Y-150283986D01*
X258291942Y-149974370D01*
X258327500Y-149658789D01*
X258327500Y-149341211D01*
X258291942Y-149025630D01*
X258221275Y-148716014D01*
X258116385Y-148416258D01*
X257978593Y-148130130D01*
X257809632Y-147861229D01*
X257809627Y-147861223D01*
X257809623Y-147861217D01*
X257611635Y-147612948D01*
X257611631Y-147612943D01*
X257611625Y-147612936D01*
X257387064Y-147388375D01*
X257387057Y-147388369D01*
X257387051Y-147388364D01*
X257138782Y-147190376D01*
X257138765Y-147190364D01*
X256869870Y-147021407D01*
X256583742Y-146883615D01*
X256283986Y-146778725D01*
X256283982Y-146778724D01*
X256283979Y-146778723D01*
X255974375Y-146708059D01*
X255974372Y-146708058D01*
X255974370Y-146708058D01*
X255974368Y-146708057D01*
X255974358Y-146708056D01*
X255766979Y-146684690D01*
X255658789Y-146672500D01*
X255341211Y-146672500D01*
X255244116Y-146683440D01*
X255025641Y-146708056D01*
X255025624Y-146708059D01*
X254716020Y-146778723D01*
X254416258Y-146883615D01*
X254130129Y-147021407D01*
X253861234Y-147190364D01*
X253861217Y-147190376D01*
X253612948Y-147388364D01*
X253612928Y-147388382D01*
X253388382Y-147612928D01*
X253388364Y-147612948D01*
X253190376Y-147861217D01*
X253190364Y-147861234D01*
X253021407Y-148130129D01*
X252883615Y-148416258D01*
X252778723Y-148716020D01*
X252708059Y-149025624D01*
X252708056Y-149025641D01*
X252672500Y-149341214D01*
X162327500Y-149341214D01*
X162327500Y-149341211D01*
X162291942Y-149025630D01*
X162221275Y-148716014D01*
X162116385Y-148416258D01*
X161978593Y-148130130D01*
X161809632Y-147861229D01*
X161809627Y-147861223D01*
X161809623Y-147861217D01*
X161611635Y-147612948D01*
X161611631Y-147612943D01*
X161611625Y-147612936D01*
X161387064Y-147388375D01*
X161387057Y-147388369D01*
X161387051Y-147388364D01*
X161138782Y-147190376D01*
X161138765Y-147190364D01*
X160869870Y-147021407D01*
X160583742Y-146883615D01*
X160283986Y-146778725D01*
X160283982Y-146778724D01*
X160283979Y-146778723D01*
X159974375Y-146708059D01*
X159974372Y-146708058D01*
X159974370Y-146708058D01*
X159974368Y-146708057D01*
X159974358Y-146708056D01*
X159766979Y-146684690D01*
X159658789Y-146672500D01*
X159341211Y-146672500D01*
X159244116Y-146683440D01*
X159025641Y-146708056D01*
X159025624Y-146708059D01*
X158716020Y-146778723D01*
X158416258Y-146883615D01*
X158130129Y-147021407D01*
X157861234Y-147190364D01*
X157861217Y-147190376D01*
X157612948Y-147388364D01*
X157612928Y-147388382D01*
X157388382Y-147612928D01*
X157388364Y-147612948D01*
X157190376Y-147861217D01*
X157190364Y-147861234D01*
X157021407Y-148130129D01*
X156883615Y-148416258D01*
X156778723Y-148716020D01*
X156708059Y-149025624D01*
X156708056Y-149025641D01*
X156672500Y-149341214D01*
X154625500Y-149341214D01*
X154625500Y-140502043D01*
X154625634Y-140497955D01*
X154641269Y-140259416D01*
X154642336Y-140251311D01*
X154675527Y-140084446D01*
X154688575Y-140018846D01*
X154690683Y-140010979D01*
X154766871Y-139786538D01*
X154769998Y-139778989D01*
X154874828Y-139566413D01*
X154878906Y-139559350D01*
X155010589Y-139362273D01*
X155015553Y-139355804D01*
X155171840Y-139177592D01*
X155177592Y-139171840D01*
X155355804Y-139015553D01*
X155362273Y-139010589D01*
X155559350Y-138878906D01*
X155566413Y-138874828D01*
X155778993Y-138769996D01*
X155786538Y-138766871D01*
X156010979Y-138690683D01*
X156018846Y-138688575D01*
X156251314Y-138642335D01*
X156259414Y-138641269D01*
X156497956Y-138625634D01*
X156502044Y-138625500D01*
X166639307Y-138625500D01*
X166639313Y-138625500D01*
X166915554Y-138589132D01*
X167184686Y-138517019D01*
X167442102Y-138410394D01*
X167683398Y-138271081D01*
X167904447Y-138101465D01*
X168101465Y-137904447D01*
X168271081Y-137683398D01*
X168410394Y-137442102D01*
X168517019Y-137184686D01*
X168582329Y-136940944D01*
X172774500Y-136940944D01*
X172774500Y-137099055D01*
X172774501Y-137099063D01*
X172815421Y-137251780D01*
X172815422Y-137251783D01*
X172838909Y-137292464D01*
X172894480Y-137388716D01*
X173006284Y-137500520D01*
X173143216Y-137579577D01*
X173143219Y-137579578D01*
X173236681Y-137604621D01*
X173295943Y-137620500D01*
X173295944Y-137620500D01*
X173454056Y-137620500D01*
X173454057Y-137620500D01*
X173606784Y-137579577D01*
X173743716Y-137500520D01*
X173855520Y-137388716D01*
X173934577Y-137251784D01*
X173975500Y-137099057D01*
X173975500Y-136940943D01*
X173934577Y-136788216D01*
X173855520Y-136651284D01*
X173743716Y-136539480D01*
X173625721Y-136471356D01*
X173606783Y-136460422D01*
X173606780Y-136460421D01*
X173454063Y-136419501D01*
X173454058Y-136419500D01*
X173454057Y-136419500D01*
X173295943Y-136419500D01*
X173295942Y-136419500D01*
X173295936Y-136419501D01*
X173143219Y-136460421D01*
X173143216Y-136460422D01*
X173046964Y-136515993D01*
X173006284Y-136539480D01*
X173006283Y-136539481D01*
X173006279Y-136539484D01*
X172894484Y-136651279D01*
X172894481Y-136651283D01*
X172815422Y-136788216D01*
X172815421Y-136788219D01*
X172774501Y-136940936D01*
X172774500Y-136940944D01*
X168582329Y-136940944D01*
X168589132Y-136915554D01*
X168625500Y-136639313D01*
X168625500Y-136500000D01*
X168625500Y-136471356D01*
X168625500Y-134137442D01*
X192072500Y-134137442D01*
X192072500Y-136842557D01*
X192079898Y-136879748D01*
X192079898Y-136879749D01*
X192108077Y-136921922D01*
X192118422Y-136928834D01*
X192150252Y-136950102D01*
X192187442Y-136957500D01*
X192187443Y-136957500D01*
X195812557Y-136957500D01*
X195812558Y-136957500D01*
X195849748Y-136950102D01*
X195891922Y-136921922D01*
X195920102Y-136879748D01*
X195927500Y-136842558D01*
X195927500Y-134137442D01*
X195920102Y-134100252D01*
X195920101Y-134100250D01*
X195891922Y-134058077D01*
X195849748Y-134029898D01*
X195812558Y-134022500D01*
X192187442Y-134022500D01*
X192168847Y-134026199D01*
X192150251Y-134029898D01*
X192150250Y-134029898D01*
X192108077Y-134058077D01*
X192079898Y-134100250D01*
X192079898Y-134100251D01*
X192072500Y-134137442D01*
X168625500Y-134137442D01*
X168625500Y-132182442D01*
X195672500Y-132182442D01*
X195672500Y-132817557D01*
X195679898Y-132854748D01*
X195679898Y-132854749D01*
X195708077Y-132896922D01*
X195736257Y-132915750D01*
X195750252Y-132925102D01*
X195787442Y-132932500D01*
X195787443Y-132932500D01*
X197812557Y-132932500D01*
X197812558Y-132932500D01*
X197849748Y-132925102D01*
X197891922Y-132896922D01*
X197920102Y-132854748D01*
X197927500Y-132817558D01*
X197927500Y-132182442D01*
X197920102Y-132145252D01*
X197920101Y-132145250D01*
X197891922Y-132103077D01*
X197849748Y-132074898D01*
X197812558Y-132067500D01*
X195787442Y-132067500D01*
X195768847Y-132071199D01*
X195750251Y-132074898D01*
X195750250Y-132074898D01*
X195708077Y-132103077D01*
X195679898Y-132145250D01*
X195679898Y-132145251D01*
X195672500Y-132182442D01*
X168625500Y-132182442D01*
X168625500Y-131182442D01*
X195672500Y-131182442D01*
X195672500Y-131817557D01*
X195679898Y-131854748D01*
X195679898Y-131854749D01*
X195708077Y-131896922D01*
X195736257Y-131915750D01*
X195750252Y-131925102D01*
X195787442Y-131932500D01*
X195787443Y-131932500D01*
X197812557Y-131932500D01*
X197812558Y-131932500D01*
X197849748Y-131925102D01*
X197891922Y-131896922D01*
X197920102Y-131854748D01*
X197927500Y-131817558D01*
X197927500Y-131182442D01*
X197920102Y-131145252D01*
X197920101Y-131145250D01*
X197891922Y-131103077D01*
X197849748Y-131074898D01*
X197812558Y-131067500D01*
X195787442Y-131067500D01*
X195768847Y-131071199D01*
X195750251Y-131074898D01*
X195750250Y-131074898D01*
X195708077Y-131103077D01*
X195679898Y-131145250D01*
X195679898Y-131145251D01*
X195672500Y-131182442D01*
X168625500Y-131182442D01*
X168625500Y-130182442D01*
X195672500Y-130182442D01*
X195672500Y-130817557D01*
X195679898Y-130854748D01*
X195679898Y-130854749D01*
X195708077Y-130896922D01*
X195736257Y-130915750D01*
X195750252Y-130925102D01*
X195787442Y-130932500D01*
X195787443Y-130932500D01*
X197812557Y-130932500D01*
X197812558Y-130932500D01*
X197849748Y-130925102D01*
X197891922Y-130896922D01*
X197920102Y-130854748D01*
X197927500Y-130817558D01*
X197927500Y-130182442D01*
X197920102Y-130145252D01*
X197920101Y-130145250D01*
X197891922Y-130103077D01*
X197849748Y-130074898D01*
X197812558Y-130067500D01*
X195787442Y-130067500D01*
X195768847Y-130071199D01*
X195750251Y-130074898D01*
X195750250Y-130074898D01*
X195708077Y-130103077D01*
X195679898Y-130145250D01*
X195679898Y-130145251D01*
X195672500Y-130182442D01*
X168625500Y-130182442D01*
X168625500Y-129182442D01*
X195672500Y-129182442D01*
X195672500Y-129817557D01*
X195679898Y-129854748D01*
X195679898Y-129854749D01*
X195708077Y-129896922D01*
X195736257Y-129915750D01*
X195750252Y-129925102D01*
X195787442Y-129932500D01*
X195787443Y-129932500D01*
X197812557Y-129932500D01*
X197812558Y-129932500D01*
X197849748Y-129925102D01*
X197891922Y-129896922D01*
X197920102Y-129854748D01*
X197927500Y-129817558D01*
X197927500Y-129182442D01*
X197920102Y-129145252D01*
X197920101Y-129145250D01*
X197891922Y-129103077D01*
X197849748Y-129074898D01*
X197812558Y-129067500D01*
X195787442Y-129067500D01*
X195768847Y-129071199D01*
X195750251Y-129074898D01*
X195750250Y-129074898D01*
X195708077Y-129103077D01*
X195679898Y-129145250D01*
X195679898Y-129145251D01*
X195672500Y-129182442D01*
X168625500Y-129182442D01*
X168625500Y-125182442D01*
X195672500Y-125182442D01*
X195672500Y-125817558D01*
X195674478Y-125827499D01*
X195679898Y-125854748D01*
X195679898Y-125854749D01*
X195708077Y-125896922D01*
X195736257Y-125915750D01*
X195750252Y-125925102D01*
X195787442Y-125932500D01*
X196510000Y-125932500D01*
X196554194Y-125950806D01*
X196572500Y-125995000D01*
X196572500Y-126005000D01*
X196554194Y-126049194D01*
X196510000Y-126067500D01*
X195787442Y-126067500D01*
X195768847Y-126071199D01*
X195750251Y-126074898D01*
X195750250Y-126074898D01*
X195708077Y-126103077D01*
X195679898Y-126145250D01*
X195679898Y-126145251D01*
X195672500Y-126182442D01*
X195672500Y-126817557D01*
X195679898Y-126854748D01*
X195679898Y-126854749D01*
X195708077Y-126896922D01*
X195736257Y-126915750D01*
X195750252Y-126925102D01*
X195787442Y-126932500D01*
X196510000Y-126932500D01*
X196554194Y-126950806D01*
X196572500Y-126995000D01*
X196572500Y-127005000D01*
X196554194Y-127049194D01*
X196510000Y-127067500D01*
X195787442Y-127067500D01*
X195768847Y-127071199D01*
X195750251Y-127074898D01*
X195750250Y-127074898D01*
X195708077Y-127103077D01*
X195679898Y-127145250D01*
X195679898Y-127145251D01*
X195672500Y-127182442D01*
X195672500Y-127817557D01*
X195679898Y-127854748D01*
X195679898Y-127854749D01*
X195708077Y-127896922D01*
X195736257Y-127915750D01*
X195750252Y-127925102D01*
X195787442Y-127932500D01*
X196510000Y-127932500D01*
X196554194Y-127950806D01*
X196572500Y-127995000D01*
X196572500Y-128005000D01*
X196554194Y-128049194D01*
X196510000Y-128067500D01*
X195787442Y-128067500D01*
X195772577Y-128070457D01*
X195750251Y-128074898D01*
X195750250Y-128074898D01*
X195708077Y-128103077D01*
X195679898Y-128145250D01*
X195679898Y-128145251D01*
X195672500Y-128182442D01*
X195672500Y-128817557D01*
X195679898Y-128854748D01*
X195679898Y-128854749D01*
X195708077Y-128896922D01*
X195717325Y-128903101D01*
X195750252Y-128925102D01*
X195787442Y-128932500D01*
X195787443Y-128932500D01*
X197812557Y-128932500D01*
X197812558Y-128932500D01*
X197849748Y-128925102D01*
X197891922Y-128896922D01*
X197920102Y-128854748D01*
X197927500Y-128817558D01*
X197927500Y-128182442D01*
X197920102Y-128145252D01*
X197920101Y-128145250D01*
X197891922Y-128103077D01*
X197849748Y-128074898D01*
X197812558Y-128067500D01*
X197812557Y-128067500D01*
X197090000Y-128067500D01*
X197045806Y-128049194D01*
X197027500Y-128005000D01*
X197027500Y-127995000D01*
X197045806Y-127950806D01*
X197090000Y-127932500D01*
X197812557Y-127932500D01*
X197812558Y-127932500D01*
X197849748Y-127925102D01*
X197891922Y-127896922D01*
X197920102Y-127854748D01*
X197927500Y-127817558D01*
X197927500Y-127641355D01*
X204410502Y-127641355D01*
X204413188Y-127664521D01*
X204413189Y-127664522D01*
X204455017Y-127759252D01*
X204455018Y-127759254D01*
X204528245Y-127832481D01*
X204622984Y-127874312D01*
X204646145Y-127876999D01*
X205211501Y-127876999D01*
X205338501Y-127876999D01*
X205903856Y-127876999D01*
X205927022Y-127874312D01*
X205927023Y-127874311D01*
X206021753Y-127832483D01*
X206021755Y-127832483D01*
X206094982Y-127759255D01*
X206116387Y-127710777D01*
X206573001Y-127710777D01*
X206583676Y-127784056D01*
X206583678Y-127784060D01*
X206638936Y-127897095D01*
X206727904Y-127986063D01*
X206840941Y-128041322D01*
X206914221Y-128051999D01*
X207336500Y-128051999D01*
X207463500Y-128051999D01*
X207885778Y-128051999D01*
X207959056Y-128041323D01*
X207959060Y-128041321D01*
X208072095Y-127986063D01*
X208161063Y-127897095D01*
X208216322Y-127784058D01*
X208227000Y-127710778D01*
X208227000Y-127476000D01*
X207463500Y-127476000D01*
X207463500Y-128051999D01*
X207336500Y-128051999D01*
X207336500Y-127476000D01*
X206573001Y-127476000D01*
X206573001Y-127710777D01*
X206116387Y-127710777D01*
X206136813Y-127664516D01*
X206139501Y-127641355D01*
X206139501Y-127513500D01*
X205338501Y-127513500D01*
X205338501Y-127876999D01*
X205211501Y-127876999D01*
X205211501Y-127513500D01*
X204410502Y-127513500D01*
X204410502Y-127641355D01*
X197927500Y-127641355D01*
X197927500Y-127182442D01*
X197920102Y-127145252D01*
X197920101Y-127145250D01*
X197891922Y-127103077D01*
X197849748Y-127074898D01*
X197812558Y-127067500D01*
X197812557Y-127067500D01*
X197090000Y-127067500D01*
X197045806Y-127049194D01*
X197027500Y-127005000D01*
X197027500Y-126995000D01*
X197045806Y-126950806D01*
X197090000Y-126932500D01*
X197812557Y-126932500D01*
X197812558Y-126932500D01*
X197849748Y-126925102D01*
X197891922Y-126896922D01*
X197920102Y-126854748D01*
X197927500Y-126817558D01*
X197927500Y-126790000D01*
X197945806Y-126745806D01*
X197990000Y-126727500D01*
X198685001Y-126727500D01*
X198729195Y-126745806D01*
X198747501Y-126790000D01*
X198747501Y-126985825D01*
X198758190Y-127059201D01*
X198758191Y-127059204D01*
X198813524Y-127172390D01*
X198902610Y-127261476D01*
X199015796Y-127316809D01*
X199089173Y-127327500D01*
X199685826Y-127327499D01*
X199759204Y-127316809D01*
X199872390Y-127261476D01*
X199961476Y-127172390D01*
X200016809Y-127059204D01*
X200027500Y-126985827D01*
X200027499Y-126014174D01*
X200027499Y-126014173D01*
X200572500Y-126014173D01*
X200572500Y-126985825D01*
X200583190Y-127059201D01*
X200583191Y-127059204D01*
X200638524Y-127172390D01*
X200727610Y-127261476D01*
X200840796Y-127316809D01*
X200914173Y-127327500D01*
X201510826Y-127327499D01*
X201584204Y-127316809D01*
X201697390Y-127261476D01*
X201700222Y-127258644D01*
X204410501Y-127258644D01*
X204410501Y-127386500D01*
X205211501Y-127386500D01*
X205338501Y-127386500D01*
X206139500Y-127386500D01*
X206139500Y-127258644D01*
X206136813Y-127235479D01*
X206094983Y-127140745D01*
X206068459Y-127114221D01*
X206573000Y-127114221D01*
X206573000Y-127349000D01*
X207336500Y-127349000D01*
X207463500Y-127349000D01*
X208226999Y-127349000D01*
X208226999Y-127114222D01*
X208216323Y-127040943D01*
X208216321Y-127040939D01*
X208161063Y-126927904D01*
X208072095Y-126838936D01*
X207959058Y-126783677D01*
X207885778Y-126773000D01*
X207463500Y-126773000D01*
X207463500Y-127349000D01*
X207336500Y-127349000D01*
X207336500Y-126773000D01*
X206914222Y-126773000D01*
X206840943Y-126783676D01*
X206840939Y-126783678D01*
X206727904Y-126838936D01*
X206638936Y-126927904D01*
X206583677Y-127040941D01*
X206573000Y-127114221D01*
X206068459Y-127114221D01*
X206021756Y-127067518D01*
X205927017Y-127025687D01*
X205903857Y-127023000D01*
X205338501Y-127023000D01*
X205338501Y-127386500D01*
X205211501Y-127386500D01*
X205211501Y-127023000D01*
X204646145Y-127023000D01*
X204622979Y-127025687D01*
X204622978Y-127025688D01*
X204528248Y-127067516D01*
X204528247Y-127067517D01*
X204455019Y-127140744D01*
X204413188Y-127235483D01*
X204410501Y-127258644D01*
X201700222Y-127258644D01*
X201786476Y-127172390D01*
X201841809Y-127059204D01*
X201852500Y-126985827D01*
X201852500Y-126790000D01*
X201870806Y-126745806D01*
X201915000Y-126727500D01*
X202502647Y-126727500D01*
X202546841Y-126745806D01*
X202559822Y-126764756D01*
X202579594Y-126809538D01*
X202579597Y-126809542D01*
X202652957Y-126882902D01*
X202652961Y-126882905D01*
X202733858Y-126918623D01*
X202747866Y-126924808D01*
X202747867Y-126924808D01*
X202747870Y-126924809D01*
X202771058Y-126927499D01*
X202771061Y-126927500D01*
X202771068Y-126927500D01*
X204028939Y-126927500D01*
X204028941Y-126927499D01*
X204052129Y-126924809D01*
X204052130Y-126924808D01*
X204052134Y-126924808D01*
X204119026Y-126895272D01*
X204147038Y-126882905D01*
X204147038Y-126882904D01*
X204147042Y-126882903D01*
X204220403Y-126809542D01*
X204229032Y-126790000D01*
X204240539Y-126763937D01*
X204262308Y-126714634D01*
X204264999Y-126691441D01*
X204265000Y-126691439D01*
X204265000Y-126308560D01*
X204264999Y-126308558D01*
X204262309Y-126285370D01*
X204262307Y-126285364D01*
X204220405Y-126190461D01*
X204220402Y-126190457D01*
X204147042Y-126117097D01*
X204147038Y-126117094D01*
X204052135Y-126075192D01*
X204052129Y-126075190D01*
X204028940Y-126072500D01*
X204028932Y-126072500D01*
X202771068Y-126072500D01*
X202771060Y-126072500D01*
X202747870Y-126075190D01*
X202747864Y-126075192D01*
X202652961Y-126117094D01*
X202652957Y-126117097D01*
X202579597Y-126190457D01*
X202579594Y-126190461D01*
X202559822Y-126235244D01*
X202525225Y-126268279D01*
X202502647Y-126272500D01*
X201914999Y-126272500D01*
X201870805Y-126254194D01*
X201852499Y-126210000D01*
X201852499Y-126014174D01*
X201843267Y-125950806D01*
X201841809Y-125940796D01*
X201786476Y-125827610D01*
X201697390Y-125738524D01*
X201584204Y-125683191D01*
X201584202Y-125683190D01*
X201584201Y-125683190D01*
X201525913Y-125674698D01*
X201510827Y-125672500D01*
X201510826Y-125672500D01*
X200914174Y-125672500D01*
X200840798Y-125683190D01*
X200840797Y-125683190D01*
X200840796Y-125683191D01*
X200727610Y-125738524D01*
X200727608Y-125738525D01*
X200638525Y-125827608D01*
X200583190Y-125940798D01*
X200572500Y-126014173D01*
X200027499Y-126014173D01*
X200016809Y-125940796D01*
X199961476Y-125827610D01*
X199872390Y-125738524D01*
X199759204Y-125683191D01*
X199759202Y-125683190D01*
X199759201Y-125683190D01*
X199700913Y-125674698D01*
X199685827Y-125672500D01*
X199685826Y-125672500D01*
X199089174Y-125672500D01*
X199015798Y-125683190D01*
X199015797Y-125683190D01*
X199015796Y-125683191D01*
X198902610Y-125738524D01*
X198902608Y-125738525D01*
X198813525Y-125827608D01*
X198758190Y-125940798D01*
X198747500Y-126014173D01*
X198747500Y-126210000D01*
X198729194Y-126254194D01*
X198685000Y-126272500D01*
X197990000Y-126272500D01*
X197945806Y-126254194D01*
X197927500Y-126210000D01*
X197927500Y-126182442D01*
X197923329Y-126161474D01*
X197920102Y-126145252D01*
X197920101Y-126145250D01*
X197891922Y-126103077D01*
X197849748Y-126074898D01*
X197812558Y-126067500D01*
X197812557Y-126067500D01*
X197090000Y-126067500D01*
X197045806Y-126049194D01*
X197027500Y-126005000D01*
X197027500Y-125995000D01*
X197045806Y-125950806D01*
X197090000Y-125932500D01*
X197812557Y-125932500D01*
X197812558Y-125932500D01*
X197849748Y-125925102D01*
X197891922Y-125896922D01*
X197920102Y-125854748D01*
X197927500Y-125817558D01*
X197927500Y-125358558D01*
X204410001Y-125358558D01*
X204410001Y-125741441D01*
X204412691Y-125764629D01*
X204412693Y-125764635D01*
X204454595Y-125859538D01*
X204454598Y-125859542D01*
X204527958Y-125932902D01*
X204527962Y-125932905D01*
X204587522Y-125959202D01*
X204622867Y-125974808D01*
X204622868Y-125974808D01*
X204622871Y-125974809D01*
X204646059Y-125977499D01*
X204646062Y-125977500D01*
X204646069Y-125977500D01*
X205903940Y-125977500D01*
X205903942Y-125977499D01*
X205927130Y-125974809D01*
X205927131Y-125974808D01*
X205927135Y-125974808D01*
X206004162Y-125940798D01*
X206022039Y-125932905D01*
X206022039Y-125932904D01*
X206022043Y-125932903D01*
X206095404Y-125859542D01*
X206107332Y-125832527D01*
X206124152Y-125816465D01*
X206140588Y-125800029D01*
X206141365Y-125800028D01*
X206141928Y-125799492D01*
X206188423Y-125800028D01*
X206224570Y-125815000D01*
X206254747Y-125827500D01*
X206254748Y-125827500D01*
X206345251Y-125827500D01*
X206345253Y-125827500D01*
X206363946Y-125819756D01*
X206387863Y-125815000D01*
X206510001Y-125815000D01*
X206554195Y-125833306D01*
X206572501Y-125877500D01*
X206572501Y-125885825D01*
X206583190Y-125959201D01*
X206583191Y-125959204D01*
X206638524Y-126072390D01*
X206727610Y-126161476D01*
X206840796Y-126216809D01*
X206914173Y-126227500D01*
X207885826Y-126227499D01*
X207959204Y-126216809D01*
X208072390Y-126161476D01*
X208161476Y-126072390D01*
X208216809Y-125959204D01*
X208227500Y-125885827D01*
X208227500Y-125877500D01*
X208245806Y-125833306D01*
X208290000Y-125815000D01*
X208685001Y-125815000D01*
X208729195Y-125833306D01*
X208747501Y-125877500D01*
X208747501Y-126073325D01*
X208758190Y-126146701D01*
X208758191Y-126146704D01*
X208813524Y-126259890D01*
X208902610Y-126348976D01*
X209015796Y-126404309D01*
X209089173Y-126415000D01*
X209685826Y-126414999D01*
X209759204Y-126404309D01*
X209872390Y-126348976D01*
X209961476Y-126259890D01*
X210016809Y-126146704D01*
X210027500Y-126073327D01*
X210027499Y-125101674D01*
X210027499Y-125101673D01*
X210572500Y-125101673D01*
X210572500Y-126073325D01*
X210583190Y-126146701D01*
X210583191Y-126146704D01*
X210638524Y-126259890D01*
X210727610Y-126348976D01*
X210840796Y-126404309D01*
X210914173Y-126415000D01*
X211510826Y-126414999D01*
X211584204Y-126404309D01*
X211697390Y-126348976D01*
X211786476Y-126259890D01*
X211841809Y-126146704D01*
X211852500Y-126073327D01*
X211852500Y-125877500D01*
X211870806Y-125833306D01*
X211915000Y-125815000D01*
X216419941Y-125815000D01*
X216457380Y-125799492D01*
X216503552Y-125780367D01*
X216503552Y-125780366D01*
X216503556Y-125780365D01*
X219582022Y-122701900D01*
X219626216Y-122683594D01*
X219677501Y-122683594D01*
X219677502Y-122683594D01*
X219767154Y-122659572D01*
X219847534Y-122613164D01*
X219913164Y-122547534D01*
X219959572Y-122467154D01*
X219983594Y-122377502D01*
X219983594Y-122284686D01*
X219959572Y-122195034D01*
X219959571Y-122195031D01*
X219913164Y-122114654D01*
X219913159Y-122114648D01*
X219847539Y-122049028D01*
X219847533Y-122049023D01*
X219767156Y-122002616D01*
X219767153Y-122002615D01*
X219677508Y-121978595D01*
X219677503Y-121978594D01*
X219677502Y-121978594D01*
X219584686Y-121978594D01*
X219584685Y-121978594D01*
X219584679Y-121978595D01*
X219495034Y-122002615D01*
X219495031Y-122002616D01*
X219414654Y-122049023D01*
X219414648Y-122049028D01*
X219349028Y-122114648D01*
X219349023Y-122114654D01*
X219302616Y-122195031D01*
X219302615Y-122195034D01*
X219278595Y-122284679D01*
X219278594Y-122284687D01*
X219278594Y-122335972D01*
X219260288Y-122380166D01*
X216298761Y-125341694D01*
X216254567Y-125360000D01*
X211914999Y-125360000D01*
X211870805Y-125341694D01*
X211852499Y-125297500D01*
X211852499Y-125101674D01*
X211847366Y-125066439D01*
X211841809Y-125028296D01*
X211786476Y-124915110D01*
X211697390Y-124826024D01*
X211584204Y-124770691D01*
X211584202Y-124770690D01*
X211584201Y-124770690D01*
X211525913Y-124762198D01*
X211510827Y-124760000D01*
X211510826Y-124760000D01*
X210914174Y-124760000D01*
X210840798Y-124770690D01*
X210840797Y-124770690D01*
X210840796Y-124770691D01*
X210773506Y-124803587D01*
X210727608Y-124826025D01*
X210638525Y-124915108D01*
X210583190Y-125028298D01*
X210572500Y-125101673D01*
X210027499Y-125101673D01*
X210016809Y-125028296D01*
X209961476Y-124915110D01*
X209872390Y-124826024D01*
X209759204Y-124770691D01*
X209759202Y-124770690D01*
X209759201Y-124770690D01*
X209700913Y-124762198D01*
X209685827Y-124760000D01*
X209685826Y-124760000D01*
X209089174Y-124760000D01*
X209015798Y-124770690D01*
X209015797Y-124770690D01*
X209015796Y-124770691D01*
X208948506Y-124803587D01*
X208902608Y-124826025D01*
X208813525Y-124915108D01*
X208758190Y-125028298D01*
X208747500Y-125101673D01*
X208747500Y-125297500D01*
X208729194Y-125341694D01*
X208685000Y-125360000D01*
X208289999Y-125360000D01*
X208245805Y-125341694D01*
X208227499Y-125297500D01*
X208227499Y-125289174D01*
X208216809Y-125215798D01*
X208216809Y-125215796D01*
X208161476Y-125102610D01*
X208072390Y-125013524D01*
X207959204Y-124958191D01*
X207959202Y-124958190D01*
X207959201Y-124958190D01*
X207900913Y-124949698D01*
X207885827Y-124947500D01*
X207885826Y-124947500D01*
X206914174Y-124947500D01*
X206840798Y-124958190D01*
X206840797Y-124958190D01*
X206840796Y-124958191D01*
X206788017Y-124983993D01*
X206727608Y-125013525D01*
X206638525Y-125102608D01*
X206583190Y-125215798D01*
X206572500Y-125289173D01*
X206572500Y-125297500D01*
X206554194Y-125341694D01*
X206510000Y-125360000D01*
X206398217Y-125360000D01*
X206374299Y-125355242D01*
X206295255Y-125322500D01*
X206295253Y-125322500D01*
X206172354Y-125322500D01*
X206128160Y-125304194D01*
X206115179Y-125285244D01*
X206095406Y-125240461D01*
X206095403Y-125240457D01*
X206022043Y-125167097D01*
X206022039Y-125167094D01*
X205927136Y-125125192D01*
X205927130Y-125125190D01*
X205903941Y-125122500D01*
X205903933Y-125122500D01*
X204646069Y-125122500D01*
X204646061Y-125122500D01*
X204622871Y-125125190D01*
X204622865Y-125125192D01*
X204527962Y-125167094D01*
X204527958Y-125167097D01*
X204454598Y-125240457D01*
X204454595Y-125240461D01*
X204412693Y-125335364D01*
X204412691Y-125335370D01*
X204410001Y-125358558D01*
X197927500Y-125358558D01*
X197927500Y-125182442D01*
X197920102Y-125145252D01*
X197911294Y-125132070D01*
X197891922Y-125103077D01*
X197849748Y-125074898D01*
X197812558Y-125067500D01*
X195787442Y-125067500D01*
X195768847Y-125071199D01*
X195750251Y-125074898D01*
X195750250Y-125074898D01*
X195708077Y-125103077D01*
X195679898Y-125145250D01*
X195679898Y-125145251D01*
X195679898Y-125145252D01*
X195672500Y-125182442D01*
X168625500Y-125182442D01*
X168625500Y-123182442D01*
X195672500Y-123182442D01*
X195672500Y-123817557D01*
X195679898Y-123854748D01*
X195679898Y-123854749D01*
X195708077Y-123896922D01*
X195736257Y-123915750D01*
X195750252Y-123925102D01*
X195787442Y-123932500D01*
X196510000Y-123932500D01*
X196554194Y-123950806D01*
X196572500Y-123995000D01*
X196572500Y-124005000D01*
X196554194Y-124049194D01*
X196510000Y-124067500D01*
X195787442Y-124067500D01*
X195768847Y-124071199D01*
X195750251Y-124074898D01*
X195750250Y-124074898D01*
X195708077Y-124103077D01*
X195679898Y-124145250D01*
X195679898Y-124145251D01*
X195672500Y-124182442D01*
X195672500Y-124817557D01*
X195679898Y-124854748D01*
X195679898Y-124854749D01*
X195708077Y-124896922D01*
X195727650Y-124910000D01*
X195750252Y-124925102D01*
X195787442Y-124932500D01*
X195787443Y-124932500D01*
X197812557Y-124932500D01*
X197812558Y-124932500D01*
X197849748Y-124925102D01*
X197891922Y-124896922D01*
X197920102Y-124854748D01*
X197927500Y-124817558D01*
X197927500Y-124182442D01*
X197920102Y-124145252D01*
X197911294Y-124132070D01*
X197891922Y-124103077D01*
X197849748Y-124074898D01*
X197812558Y-124067500D01*
X197812557Y-124067500D01*
X197090000Y-124067500D01*
X197045806Y-124049194D01*
X197027500Y-124005000D01*
X197027500Y-123995000D01*
X197045806Y-123950806D01*
X197090000Y-123932500D01*
X197812557Y-123932500D01*
X197812558Y-123932500D01*
X197849748Y-123925102D01*
X197891922Y-123896922D01*
X197920102Y-123854748D01*
X197927500Y-123817558D01*
X197927500Y-123790000D01*
X197945806Y-123745806D01*
X197990000Y-123727500D01*
X198203102Y-123727500D01*
X198247296Y-123745806D01*
X198270277Y-123768787D01*
X198283559Y-123782069D01*
X198283560Y-123782070D01*
X198363937Y-123828477D01*
X198363940Y-123828478D01*
X198453592Y-123852500D01*
X198453593Y-123852500D01*
X198546407Y-123852500D01*
X198546408Y-123852500D01*
X198636060Y-123828478D01*
X198716440Y-123782070D01*
X198782070Y-123716440D01*
X198822851Y-123645806D01*
X198828477Y-123636062D01*
X198828478Y-123636059D01*
X198832111Y-123622500D01*
X198852500Y-123546408D01*
X198852500Y-123453592D01*
X198828478Y-123363940D01*
X198828477Y-123363937D01*
X198782070Y-123283560D01*
X198782065Y-123283554D01*
X198716445Y-123217934D01*
X198716439Y-123217929D01*
X198636062Y-123171522D01*
X198636059Y-123171521D01*
X198546414Y-123147501D01*
X198546409Y-123147500D01*
X198546408Y-123147500D01*
X198453592Y-123147500D01*
X198453591Y-123147500D01*
X198453585Y-123147501D01*
X198363940Y-123171521D01*
X198363937Y-123171522D01*
X198283560Y-123217929D01*
X198283559Y-123217930D01*
X198265428Y-123236062D01*
X198247295Y-123254194D01*
X198203103Y-123272500D01*
X197990000Y-123272500D01*
X197945806Y-123254194D01*
X197927500Y-123210000D01*
X197927500Y-123182442D01*
X197925328Y-123171522D01*
X197920102Y-123145252D01*
X197920101Y-123145250D01*
X197891922Y-123103077D01*
X197849748Y-123074898D01*
X197812558Y-123067500D01*
X195787442Y-123067500D01*
X195768847Y-123071199D01*
X195750251Y-123074898D01*
X195750250Y-123074898D01*
X195708077Y-123103077D01*
X195679898Y-123145250D01*
X195679898Y-123145251D01*
X195672500Y-123182442D01*
X168625500Y-123182442D01*
X168625500Y-122817507D01*
X195672999Y-122817507D01*
X195680369Y-122854553D01*
X195680369Y-122854554D01*
X195708438Y-122896561D01*
X195750446Y-122924630D01*
X195787493Y-122932000D01*
X196736500Y-122932000D01*
X196863500Y-122932000D01*
X197812507Y-122932000D01*
X197849553Y-122924630D01*
X197849554Y-122924630D01*
X197891561Y-122896561D01*
X197919630Y-122854554D01*
X197919630Y-122854553D01*
X197927000Y-122817507D01*
X197927000Y-122563500D01*
X196863500Y-122563500D01*
X196863500Y-122932000D01*
X196736500Y-122932000D01*
X196736500Y-122563500D01*
X195673000Y-122563500D01*
X195673000Y-122817507D01*
X195672999Y-122817507D01*
X168625500Y-122817507D01*
X168625500Y-122182492D01*
X195673000Y-122182492D01*
X195673000Y-122436500D01*
X196736500Y-122436500D01*
X196863500Y-122436500D01*
X197927000Y-122436500D01*
X197927000Y-122182492D01*
X197919630Y-122145446D01*
X197919630Y-122145445D01*
X197891561Y-122103438D01*
X197849553Y-122075369D01*
X197812507Y-122068000D01*
X196863500Y-122068000D01*
X196863500Y-122436500D01*
X196736500Y-122436500D01*
X196736500Y-122068000D01*
X195787493Y-122068000D01*
X195750446Y-122075369D01*
X195750445Y-122075369D01*
X195708438Y-122103438D01*
X195680369Y-122145445D01*
X195680369Y-122145446D01*
X195673000Y-122182492D01*
X168625500Y-122182492D01*
X168625500Y-120182442D01*
X195672500Y-120182442D01*
X195672500Y-120817558D01*
X195674243Y-120826320D01*
X195679898Y-120854748D01*
X195679898Y-120854749D01*
X195708077Y-120896922D01*
X195736257Y-120915750D01*
X195750252Y-120925102D01*
X195787442Y-120932500D01*
X195787443Y-120932500D01*
X197812557Y-120932500D01*
X197812558Y-120932500D01*
X197849748Y-120925102D01*
X197891922Y-120896922D01*
X197920102Y-120854748D01*
X197927500Y-120817558D01*
X197927500Y-120790000D01*
X197945806Y-120745806D01*
X197990000Y-120727500D01*
X198863582Y-120727500D01*
X198907776Y-120745806D01*
X198926082Y-120790000D01*
X198915560Y-120822841D01*
X198915799Y-120822958D01*
X198914998Y-120824595D01*
X198914446Y-120826320D01*
X198913524Y-120827610D01*
X198858190Y-120940798D01*
X198847500Y-121014173D01*
X198847500Y-121210000D01*
X198829194Y-121254194D01*
X198785000Y-121272500D01*
X197990000Y-121272500D01*
X197945806Y-121254194D01*
X197927500Y-121210000D01*
X197927500Y-121182442D01*
X197925328Y-121171522D01*
X197920102Y-121145252D01*
X197918094Y-121142247D01*
X197891922Y-121103077D01*
X197849748Y-121074898D01*
X197812558Y-121067500D01*
X195787442Y-121067500D01*
X195768847Y-121071199D01*
X195750251Y-121074898D01*
X195750250Y-121074898D01*
X195708077Y-121103077D01*
X195679898Y-121145250D01*
X195679898Y-121145251D01*
X195672500Y-121182442D01*
X195672500Y-121817557D01*
X195679898Y-121854748D01*
X195679898Y-121854749D01*
X195708077Y-121896922D01*
X195736257Y-121915750D01*
X195750252Y-121925102D01*
X195787442Y-121932500D01*
X195787443Y-121932500D01*
X197812557Y-121932500D01*
X197812558Y-121932500D01*
X197849748Y-121925102D01*
X197891922Y-121896922D01*
X197920102Y-121854748D01*
X197927500Y-121817558D01*
X197927500Y-121790000D01*
X197945806Y-121745806D01*
X197990000Y-121727500D01*
X198785001Y-121727500D01*
X198829195Y-121745806D01*
X198847501Y-121790000D01*
X198847501Y-121985825D01*
X198858190Y-122059201D01*
X198858191Y-122059204D01*
X198913524Y-122172390D01*
X199002610Y-122261476D01*
X199115796Y-122316809D01*
X199189173Y-122327500D01*
X199785826Y-122327499D01*
X199859204Y-122316809D01*
X199972390Y-122261476D01*
X200061476Y-122172390D01*
X200116809Y-122059204D01*
X200127500Y-121985827D01*
X200127499Y-121014174D01*
X200116809Y-120940796D01*
X200061476Y-120827610D01*
X200061472Y-120827606D01*
X200060554Y-120826320D01*
X200060292Y-120825191D01*
X200059201Y-120822958D01*
X200059717Y-120822705D01*
X200049770Y-120779716D01*
X200075098Y-120739136D01*
X200111418Y-120727500D01*
X200688582Y-120727500D01*
X200732776Y-120745806D01*
X200751082Y-120790000D01*
X200740560Y-120822841D01*
X200740799Y-120822958D01*
X200739998Y-120824595D01*
X200739446Y-120826320D01*
X200738524Y-120827610D01*
X200683190Y-120940798D01*
X200672500Y-121014173D01*
X200672500Y-121985825D01*
X200683190Y-122059201D01*
X200683191Y-122059204D01*
X200738524Y-122172390D01*
X200827610Y-122261476D01*
X200940796Y-122316809D01*
X201014173Y-122327500D01*
X201610826Y-122327499D01*
X201684204Y-122316809D01*
X201797390Y-122261476D01*
X201886476Y-122172390D01*
X201941809Y-122059204D01*
X201952500Y-121985827D01*
X201952500Y-121790000D01*
X201970806Y-121745806D01*
X202015000Y-121727500D01*
X218303102Y-121727500D01*
X218347296Y-121745806D01*
X218383555Y-121782065D01*
X218383559Y-121782069D01*
X218383560Y-121782070D01*
X218463937Y-121828477D01*
X218463940Y-121828478D01*
X218553592Y-121852500D01*
X218553593Y-121852500D01*
X218646407Y-121852500D01*
X218646408Y-121852500D01*
X218736060Y-121828478D01*
X218816440Y-121782070D01*
X218882070Y-121716440D01*
X218928478Y-121636060D01*
X218952500Y-121546408D01*
X218952500Y-121453592D01*
X218928478Y-121363940D01*
X218928477Y-121363937D01*
X218882070Y-121283560D01*
X218882065Y-121283554D01*
X218816445Y-121217934D01*
X218816439Y-121217929D01*
X218736062Y-121171522D01*
X218736059Y-121171521D01*
X218646414Y-121147501D01*
X218646409Y-121147500D01*
X218646408Y-121147500D01*
X218553592Y-121147500D01*
X218553591Y-121147500D01*
X218553585Y-121147501D01*
X218463940Y-121171521D01*
X218463937Y-121171522D01*
X218383560Y-121217929D01*
X218383559Y-121217930D01*
X218372622Y-121228868D01*
X218347295Y-121254194D01*
X218303103Y-121272500D01*
X202014999Y-121272500D01*
X201970805Y-121254194D01*
X201952499Y-121210000D01*
X201952499Y-121014174D01*
X201941809Y-120940798D01*
X201941809Y-120940796D01*
X201886476Y-120827610D01*
X201886472Y-120827606D01*
X201885554Y-120826320D01*
X201885292Y-120825191D01*
X201884201Y-120822958D01*
X201884717Y-120822705D01*
X201874770Y-120779716D01*
X201900098Y-120739136D01*
X201936418Y-120727500D01*
X217103102Y-120727500D01*
X217147296Y-120745806D01*
X217168297Y-120766807D01*
X217183559Y-120782069D01*
X217183560Y-120782070D01*
X217263937Y-120828477D01*
X217263940Y-120828478D01*
X217353592Y-120852500D01*
X217353593Y-120852500D01*
X217446407Y-120852500D01*
X217446408Y-120852500D01*
X217536060Y-120828478D01*
X217537564Y-120827610D01*
X217554975Y-120817557D01*
X217616440Y-120782070D01*
X217682070Y-120716440D01*
X217728478Y-120636060D01*
X217752500Y-120546408D01*
X217752500Y-120453592D01*
X217728478Y-120363940D01*
X217728477Y-120363937D01*
X217682070Y-120283560D01*
X217682065Y-120283554D01*
X217616445Y-120217934D01*
X217616439Y-120217929D01*
X217536062Y-120171522D01*
X217536059Y-120171521D01*
X217446414Y-120147501D01*
X217446409Y-120147500D01*
X217446408Y-120147500D01*
X217353592Y-120147500D01*
X217353591Y-120147500D01*
X217353585Y-120147501D01*
X217263940Y-120171521D01*
X217263937Y-120171522D01*
X217183560Y-120217929D01*
X217183559Y-120217930D01*
X217169426Y-120232064D01*
X217147295Y-120254194D01*
X217103103Y-120272500D01*
X197990000Y-120272500D01*
X197945806Y-120254194D01*
X197927500Y-120210000D01*
X197927500Y-120182442D01*
X197925328Y-120171522D01*
X197920102Y-120145252D01*
X197920101Y-120145250D01*
X197891922Y-120103077D01*
X197849748Y-120074898D01*
X197812558Y-120067500D01*
X195787442Y-120067500D01*
X195768847Y-120071199D01*
X195750251Y-120074898D01*
X195750250Y-120074898D01*
X195708077Y-120103077D01*
X195679898Y-120145250D01*
X195679898Y-120145251D01*
X195678922Y-120150158D01*
X195672500Y-120182442D01*
X168625500Y-120182442D01*
X168625500Y-119182442D01*
X195672500Y-119182442D01*
X195672500Y-119817557D01*
X195679898Y-119854748D01*
X195679898Y-119854749D01*
X195708077Y-119896922D01*
X195718060Y-119903592D01*
X195750252Y-119925102D01*
X195787442Y-119932500D01*
X195787443Y-119932500D01*
X197812557Y-119932500D01*
X197812558Y-119932500D01*
X197849748Y-119925102D01*
X197891922Y-119896922D01*
X197920102Y-119854748D01*
X197927500Y-119817558D01*
X197927500Y-119790000D01*
X197945806Y-119745806D01*
X197990000Y-119727500D01*
X216203102Y-119727500D01*
X216247296Y-119745806D01*
X216279966Y-119778476D01*
X216283559Y-119782069D01*
X216283560Y-119782070D01*
X216363937Y-119828477D01*
X216363940Y-119828478D01*
X216453592Y-119852500D01*
X216453593Y-119852500D01*
X216546407Y-119852500D01*
X216546408Y-119852500D01*
X216636060Y-119828478D01*
X216716440Y-119782070D01*
X216782070Y-119716440D01*
X216828478Y-119636060D01*
X216852500Y-119546408D01*
X216852500Y-119453592D01*
X216828478Y-119363940D01*
X216828477Y-119363937D01*
X216782070Y-119283560D01*
X216782065Y-119283554D01*
X216716445Y-119217934D01*
X216716439Y-119217929D01*
X216636062Y-119171522D01*
X216636059Y-119171521D01*
X216546414Y-119147501D01*
X216546409Y-119147500D01*
X216546408Y-119147500D01*
X216453592Y-119147500D01*
X216453591Y-119147500D01*
X216453585Y-119147501D01*
X216363940Y-119171521D01*
X216363937Y-119171522D01*
X216283560Y-119217929D01*
X216283559Y-119217930D01*
X216267937Y-119233553D01*
X216247295Y-119254194D01*
X216203103Y-119272500D01*
X197990000Y-119272500D01*
X197945806Y-119254194D01*
X197927500Y-119210000D01*
X197927500Y-119182442D01*
X197925328Y-119171522D01*
X197920102Y-119145252D01*
X197920101Y-119145250D01*
X197891922Y-119103077D01*
X197849748Y-119074898D01*
X197812558Y-119067500D01*
X195787442Y-119067500D01*
X195768847Y-119071199D01*
X195750251Y-119074898D01*
X195750250Y-119074898D01*
X195708077Y-119103077D01*
X195679898Y-119145250D01*
X195679898Y-119145251D01*
X195672500Y-119182442D01*
X168625500Y-119182442D01*
X168625500Y-118182442D01*
X195672500Y-118182442D01*
X195672500Y-118817558D01*
X195675610Y-118833190D01*
X195679898Y-118854748D01*
X195679898Y-118854749D01*
X195708077Y-118896922D01*
X195736257Y-118915750D01*
X195750252Y-118925102D01*
X195787442Y-118932500D01*
X195787443Y-118932500D01*
X197812557Y-118932500D01*
X197812558Y-118932500D01*
X197849748Y-118925102D01*
X197891922Y-118896922D01*
X197920102Y-118854748D01*
X197927500Y-118817558D01*
X197927500Y-118790000D01*
X197945806Y-118745806D01*
X197990000Y-118727500D01*
X215203102Y-118727500D01*
X215247296Y-118745806D01*
X215283555Y-118782065D01*
X215283559Y-118782069D01*
X215283560Y-118782070D01*
X215363937Y-118828477D01*
X215363940Y-118828478D01*
X215453592Y-118852500D01*
X215453593Y-118852500D01*
X215546407Y-118852500D01*
X215546408Y-118852500D01*
X215636060Y-118828478D01*
X215643872Y-118823968D01*
X215654975Y-118817557D01*
X215716440Y-118782070D01*
X215782070Y-118716440D01*
X215828478Y-118636060D01*
X215852500Y-118546408D01*
X215852500Y-118453592D01*
X215828478Y-118363940D01*
X215828477Y-118363937D01*
X215782070Y-118283560D01*
X215782065Y-118283554D01*
X215716445Y-118217934D01*
X215716439Y-118217929D01*
X215636062Y-118171522D01*
X215636059Y-118171521D01*
X215546414Y-118147501D01*
X215546409Y-118147500D01*
X215546408Y-118147500D01*
X215453592Y-118147500D01*
X215453591Y-118147500D01*
X215453585Y-118147501D01*
X215363940Y-118171521D01*
X215363937Y-118171522D01*
X215283560Y-118217929D01*
X215283559Y-118217930D01*
X215265428Y-118236062D01*
X215247295Y-118254194D01*
X215203103Y-118272500D01*
X197990000Y-118272500D01*
X197945806Y-118254194D01*
X197927500Y-118210000D01*
X197927500Y-118182442D01*
X197925328Y-118171522D01*
X197920102Y-118145252D01*
X197920101Y-118145250D01*
X197891922Y-118103077D01*
X197849748Y-118074898D01*
X197812558Y-118067500D01*
X195787442Y-118067500D01*
X195768847Y-118071199D01*
X195750251Y-118074898D01*
X195750250Y-118074898D01*
X195708077Y-118103077D01*
X195679898Y-118145250D01*
X195679898Y-118145251D01*
X195675707Y-118166322D01*
X195672500Y-118182442D01*
X168625500Y-118182442D01*
X168625500Y-117182442D01*
X195672500Y-117182442D01*
X195672500Y-117817558D01*
X195676125Y-117835779D01*
X195679898Y-117854748D01*
X195679898Y-117854749D01*
X195708077Y-117896922D01*
X195726239Y-117909057D01*
X195750252Y-117925102D01*
X195787442Y-117932500D01*
X195787443Y-117932500D01*
X197812557Y-117932500D01*
X197812558Y-117932500D01*
X197849748Y-117925102D01*
X197891922Y-117896922D01*
X197920102Y-117854748D01*
X197927500Y-117817558D01*
X197927500Y-117790000D01*
X197945806Y-117745806D01*
X197990000Y-117727500D01*
X214103102Y-117727500D01*
X214147296Y-117745806D01*
X214183555Y-117782065D01*
X214183559Y-117782069D01*
X214183560Y-117782070D01*
X214263937Y-117828477D01*
X214263940Y-117828478D01*
X214353592Y-117852500D01*
X214353593Y-117852500D01*
X214446407Y-117852500D01*
X214446408Y-117852500D01*
X214536060Y-117828478D01*
X214616440Y-117782070D01*
X214682070Y-117716440D01*
X214728478Y-117636060D01*
X214752500Y-117546408D01*
X214752500Y-117453592D01*
X214728478Y-117363940D01*
X214728477Y-117363937D01*
X214682070Y-117283560D01*
X214682065Y-117283554D01*
X214616445Y-117217934D01*
X214616439Y-117217929D01*
X214536062Y-117171522D01*
X214536059Y-117171521D01*
X214446414Y-117147501D01*
X214446409Y-117147500D01*
X214446408Y-117147500D01*
X214353592Y-117147500D01*
X214353591Y-117147500D01*
X214353585Y-117147501D01*
X214263940Y-117171521D01*
X214263937Y-117171522D01*
X214183560Y-117217929D01*
X214183559Y-117217930D01*
X214165428Y-117236062D01*
X214147295Y-117254194D01*
X214103103Y-117272500D01*
X197990000Y-117272500D01*
X197945806Y-117254194D01*
X197927500Y-117210000D01*
X197927500Y-117182442D01*
X197925328Y-117171522D01*
X197920102Y-117145252D01*
X197920101Y-117145250D01*
X197891922Y-117103077D01*
X197849748Y-117074898D01*
X197812558Y-117067500D01*
X195787442Y-117067500D01*
X195768847Y-117071199D01*
X195750251Y-117074898D01*
X195750250Y-117074898D01*
X195708077Y-117103077D01*
X195679898Y-117145250D01*
X195679898Y-117145251D01*
X195676263Y-117163523D01*
X195672500Y-117182442D01*
X168625500Y-117182442D01*
X168625500Y-116182442D01*
X195672500Y-116182442D01*
X195672500Y-116817557D01*
X195679898Y-116854748D01*
X195679898Y-116854749D01*
X195708077Y-116896922D01*
X195736257Y-116915750D01*
X195750252Y-116925102D01*
X195787442Y-116932500D01*
X195787443Y-116932500D01*
X197812557Y-116932500D01*
X197812558Y-116932500D01*
X197849748Y-116925102D01*
X197891922Y-116896922D01*
X197920102Y-116854748D01*
X197927500Y-116817558D01*
X197927500Y-116790000D01*
X197945806Y-116745806D01*
X197990000Y-116727500D01*
X213103102Y-116727500D01*
X213147296Y-116745806D01*
X213183555Y-116782065D01*
X213183559Y-116782069D01*
X213183560Y-116782070D01*
X213263937Y-116828477D01*
X213263940Y-116828478D01*
X213353592Y-116852500D01*
X213353593Y-116852500D01*
X213446407Y-116852500D01*
X213446408Y-116852500D01*
X213536060Y-116828478D01*
X213616440Y-116782070D01*
X213682070Y-116716440D01*
X213728478Y-116636060D01*
X213752500Y-116546408D01*
X213752500Y-116453592D01*
X213728478Y-116363940D01*
X213728477Y-116363937D01*
X213682070Y-116283560D01*
X213682065Y-116283554D01*
X213616445Y-116217934D01*
X213616439Y-116217929D01*
X213536062Y-116171522D01*
X213536059Y-116171521D01*
X213446414Y-116147501D01*
X213446409Y-116147500D01*
X213446408Y-116147500D01*
X213353592Y-116147500D01*
X213353591Y-116147500D01*
X213353585Y-116147501D01*
X213263940Y-116171521D01*
X213263937Y-116171522D01*
X213183560Y-116217929D01*
X213183559Y-116217930D01*
X213165428Y-116236062D01*
X213147295Y-116254194D01*
X213103103Y-116272500D01*
X197990000Y-116272500D01*
X197945806Y-116254194D01*
X197927500Y-116210000D01*
X197927500Y-116182442D01*
X197925328Y-116171522D01*
X197920102Y-116145252D01*
X197920101Y-116145250D01*
X197891922Y-116103077D01*
X197849748Y-116074898D01*
X197812558Y-116067500D01*
X195787442Y-116067500D01*
X195768847Y-116071199D01*
X195750251Y-116074898D01*
X195750250Y-116074898D01*
X195708077Y-116103077D01*
X195679898Y-116145250D01*
X195679898Y-116145251D01*
X195672500Y-116182442D01*
X168625500Y-116182442D01*
X168625500Y-115817507D01*
X195672999Y-115817507D01*
X195680369Y-115854553D01*
X195680369Y-115854554D01*
X195708438Y-115896561D01*
X195750446Y-115924630D01*
X195787493Y-115932000D01*
X196736500Y-115932000D01*
X196863500Y-115932000D01*
X197812507Y-115932000D01*
X197849553Y-115924630D01*
X197849554Y-115924630D01*
X197891561Y-115896561D01*
X197919630Y-115854554D01*
X197919630Y-115854553D01*
X197927000Y-115817507D01*
X197927000Y-115563500D01*
X196863500Y-115563500D01*
X196863500Y-115932000D01*
X196736500Y-115932000D01*
X196736500Y-115563500D01*
X195673000Y-115563500D01*
X195673000Y-115817507D01*
X195672999Y-115817507D01*
X168625500Y-115817507D01*
X168625500Y-115182492D01*
X195673000Y-115182492D01*
X195673000Y-115436500D01*
X196736500Y-115436500D01*
X196863500Y-115436500D01*
X197927000Y-115436500D01*
X197927000Y-115182492D01*
X197919630Y-115145446D01*
X197919630Y-115145445D01*
X197891561Y-115103438D01*
X197849553Y-115075369D01*
X197812507Y-115068000D01*
X196863500Y-115068000D01*
X196863500Y-115436500D01*
X196736500Y-115436500D01*
X196736500Y-115068000D01*
X195787493Y-115068000D01*
X195750446Y-115075369D01*
X195750445Y-115075369D01*
X195708438Y-115103438D01*
X195680369Y-115145445D01*
X195680369Y-115145446D01*
X195673000Y-115182492D01*
X168625500Y-115182492D01*
X168625500Y-111157442D01*
X192072500Y-111157442D01*
X192072500Y-113862557D01*
X192079898Y-113899748D01*
X192079898Y-113899749D01*
X192108077Y-113941922D01*
X192136257Y-113960750D01*
X192150252Y-113970102D01*
X192187442Y-113977500D01*
X192187443Y-113977500D01*
X195812557Y-113977500D01*
X195812558Y-113977500D01*
X195849748Y-113970102D01*
X195891922Y-113941922D01*
X195920102Y-113899748D01*
X195927500Y-113862558D01*
X195927500Y-111157442D01*
X195920102Y-111120252D01*
X195920101Y-111120250D01*
X195891922Y-111078077D01*
X195849748Y-111049898D01*
X195812558Y-111042500D01*
X192187442Y-111042500D01*
X192168847Y-111046199D01*
X192150251Y-111049898D01*
X192150250Y-111049898D01*
X192108077Y-111078077D01*
X192079898Y-111120250D01*
X192079898Y-111120251D01*
X192072500Y-111157442D01*
X168625500Y-111157442D01*
X168625500Y-100949997D01*
X182167500Y-100949997D01*
X182167500Y-102249998D01*
X182179474Y-102305042D01*
X182228365Y-102361466D01*
X182228366Y-102361467D01*
X182299997Y-102382499D01*
X182299999Y-102382500D01*
X182300000Y-102382500D01*
X182455000Y-102382500D01*
X182499194Y-102400806D01*
X182517500Y-102445000D01*
X182517500Y-103050000D01*
X182529474Y-103105042D01*
X182578365Y-103161466D01*
X182578366Y-103161467D01*
X182649997Y-103182499D01*
X182649999Y-103182500D01*
X182650000Y-103182500D01*
X184249999Y-103182500D01*
X184250000Y-103182500D01*
X184305042Y-103170526D01*
X184361466Y-103121635D01*
X184382500Y-103050000D01*
X184382500Y-100950000D01*
X184370526Y-100894958D01*
X184321635Y-100838534D01*
X184321634Y-100838533D01*
X184321633Y-100838532D01*
X184250002Y-100817500D01*
X184250000Y-100817500D01*
X182300000Y-100817500D01*
X182272479Y-100823487D01*
X182244957Y-100829474D01*
X182188533Y-100878365D01*
X182188532Y-100878366D01*
X182167500Y-100949997D01*
X168625500Y-100949997D01*
X168625500Y-99703593D01*
X183047500Y-99703593D01*
X183047500Y-99796406D01*
X183047501Y-99796414D01*
X183071521Y-99886059D01*
X183071522Y-99886062D01*
X183117929Y-99966439D01*
X183117934Y-99966445D01*
X183183554Y-100032065D01*
X183183560Y-100032070D01*
X183263937Y-100078477D01*
X183263940Y-100078478D01*
X183353592Y-100102500D01*
X183353593Y-100102500D01*
X183446407Y-100102500D01*
X183446408Y-100102500D01*
X183536060Y-100078478D01*
X183616440Y-100032070D01*
X183652704Y-99995805D01*
X183696897Y-99977500D01*
X183769784Y-99977500D01*
X183804508Y-99988034D01*
X183845985Y-100015750D01*
X183845988Y-100015751D01*
X183905056Y-100027500D01*
X183905057Y-100027500D01*
X184894943Y-100027500D01*
X184894944Y-100027500D01*
X184954012Y-100015751D01*
X185020994Y-99970994D01*
X185065751Y-99904012D01*
X185077500Y-99844944D01*
X185077500Y-99655056D01*
X185065751Y-99595988D01*
X185051543Y-99574724D01*
X185042210Y-99527808D01*
X185068785Y-99488034D01*
X185103509Y-99477500D01*
X220729879Y-99477500D01*
X220774073Y-99495806D01*
X221129194Y-99850927D01*
X221147500Y-99895121D01*
X221147500Y-99946406D01*
X221147501Y-99946414D01*
X221171521Y-100036059D01*
X221171522Y-100036062D01*
X221217929Y-100116439D01*
X221217930Y-100116440D01*
X221254194Y-100152704D01*
X221272500Y-100196897D01*
X221272500Y-120245255D01*
X221307132Y-120328864D01*
X221307134Y-120328867D01*
X221307135Y-120328868D01*
X222207135Y-121228868D01*
X222271132Y-121292865D01*
X222271133Y-121292865D01*
X222271135Y-121292867D01*
X222354744Y-121327499D01*
X222354747Y-121327500D01*
X222626702Y-121327500D01*
X222670896Y-121345806D01*
X222689202Y-121390000D01*
X222670896Y-121434194D01*
X222642878Y-121450370D01*
X222563940Y-121471521D01*
X222563937Y-121471522D01*
X222483560Y-121517929D01*
X222483554Y-121517934D01*
X222417934Y-121583554D01*
X222417929Y-121583560D01*
X222371522Y-121663937D01*
X222371521Y-121663940D01*
X222347501Y-121753585D01*
X222347500Y-121753593D01*
X222347500Y-121846406D01*
X222347501Y-121846414D01*
X222371521Y-121936059D01*
X222371522Y-121936062D01*
X222396079Y-121978594D01*
X222406995Y-121997501D01*
X222410603Y-122003749D01*
X222416848Y-122051175D01*
X222387728Y-122089126D01*
X222356477Y-122097500D01*
X222306288Y-122097500D01*
X222250866Y-122108523D01*
X222250864Y-122108524D01*
X222188017Y-122150517D01*
X222146024Y-122213364D01*
X222146023Y-122213366D01*
X222135000Y-122268787D01*
X222135000Y-122431212D01*
X222146023Y-122486633D01*
X222146024Y-122486635D01*
X222188018Y-122549483D01*
X222192370Y-122553835D01*
X222190784Y-122555420D01*
X222212425Y-122587805D01*
X222203094Y-122634722D01*
X222192011Y-122645805D01*
X222192371Y-122646165D01*
X222188019Y-122650516D01*
X222146025Y-122713364D01*
X222146024Y-122713366D01*
X222135001Y-122768787D01*
X222135001Y-122931212D01*
X222146024Y-122986633D01*
X222146025Y-122986635D01*
X222188019Y-123049483D01*
X222192371Y-123053835D01*
X222190784Y-123055421D01*
X222212424Y-123087799D01*
X222203097Y-123134717D01*
X222192011Y-123145806D01*
X222192370Y-123146165D01*
X222188018Y-123150516D01*
X222146024Y-123213364D01*
X222146023Y-123213366D01*
X222135000Y-123268787D01*
X222135000Y-123431212D01*
X222146023Y-123486633D01*
X222146024Y-123486635D01*
X222188018Y-123549483D01*
X222192370Y-123553835D01*
X222190785Y-123555419D01*
X222212426Y-123587815D01*
X222203087Y-123634730D01*
X222192011Y-123645806D01*
X222192370Y-123646165D01*
X222188018Y-123650516D01*
X222146024Y-123713364D01*
X222146023Y-123713366D01*
X222135000Y-123768787D01*
X222135000Y-123931212D01*
X222146023Y-123986633D01*
X222146024Y-123986635D01*
X222188018Y-124049483D01*
X222192370Y-124053835D01*
X222190784Y-124055420D01*
X222212425Y-124087805D01*
X222203094Y-124134722D01*
X222192011Y-124145805D01*
X222192371Y-124146165D01*
X222188019Y-124150516D01*
X222146025Y-124213364D01*
X222146024Y-124213366D01*
X222135001Y-124268787D01*
X222135001Y-124431212D01*
X222146024Y-124486633D01*
X222146025Y-124486635D01*
X222171845Y-124525277D01*
X222181177Y-124572193D01*
X222154601Y-124611967D01*
X222119878Y-124622500D01*
X218804744Y-124622500D01*
X218737107Y-124650517D01*
X218721136Y-124657132D01*
X218721130Y-124657136D01*
X204524073Y-138854194D01*
X204479879Y-138872500D01*
X191821898Y-138872500D01*
X191777704Y-138854194D01*
X191741440Y-138817930D01*
X191741439Y-138817929D01*
X191661062Y-138771522D01*
X191661059Y-138771521D01*
X191571414Y-138747501D01*
X191571409Y-138747500D01*
X191571408Y-138747500D01*
X191478592Y-138747500D01*
X191478591Y-138747500D01*
X191478585Y-138747501D01*
X191388940Y-138771521D01*
X191388937Y-138771522D01*
X191308560Y-138817929D01*
X191308554Y-138817934D01*
X191242934Y-138883554D01*
X191242929Y-138883560D01*
X191196522Y-138963937D01*
X191196521Y-138963940D01*
X191172501Y-139053585D01*
X191172500Y-139053593D01*
X191172500Y-139146406D01*
X191172501Y-139146414D01*
X191196521Y-139236059D01*
X191196522Y-139236062D01*
X191242929Y-139316439D01*
X191242934Y-139316445D01*
X191308554Y-139382065D01*
X191308560Y-139382070D01*
X191388937Y-139428477D01*
X191388940Y-139428478D01*
X191478592Y-139452500D01*
X191478593Y-139452500D01*
X191571407Y-139452500D01*
X191571408Y-139452500D01*
X191661060Y-139428478D01*
X191741440Y-139382070D01*
X191777704Y-139345805D01*
X191821897Y-139327500D01*
X204645253Y-139327500D01*
X204673124Y-139315955D01*
X204728864Y-139292867D01*
X204728864Y-139292866D01*
X204728868Y-139292865D01*
X207080789Y-136940944D01*
X241024500Y-136940944D01*
X241024500Y-137099055D01*
X241024501Y-137099063D01*
X241065421Y-137251780D01*
X241065422Y-137251783D01*
X241088909Y-137292464D01*
X241144480Y-137388716D01*
X241256284Y-137500520D01*
X241393216Y-137579577D01*
X241393219Y-137579578D01*
X241486681Y-137604621D01*
X241545943Y-137620500D01*
X241545944Y-137620500D01*
X241704056Y-137620500D01*
X241704057Y-137620500D01*
X241856784Y-137579577D01*
X241993716Y-137500520D01*
X242105520Y-137388716D01*
X242168615Y-137279432D01*
X252505997Y-137279432D01*
X252505997Y-137407573D01*
X252530995Y-137533245D01*
X252580032Y-137651630D01*
X252580033Y-137651632D01*
X252651220Y-137758171D01*
X252651221Y-137758172D01*
X252741828Y-137848779D01*
X252848370Y-137919968D01*
X252966753Y-137969004D01*
X253092428Y-137994003D01*
X253220566Y-137994003D01*
X253346241Y-137969004D01*
X253464624Y-137919968D01*
X253571166Y-137848779D01*
X253661773Y-137758172D01*
X253732962Y-137651630D01*
X253781998Y-137533247D01*
X253806997Y-137407572D01*
X253806997Y-137279434D01*
X253781998Y-137153759D01*
X253732962Y-137035376D01*
X253661773Y-136928834D01*
X253571166Y-136838227D01*
X253496324Y-136788219D01*
X253464626Y-136767039D01*
X253464624Y-136767038D01*
X253346239Y-136718001D01*
X253220567Y-136693003D01*
X253220566Y-136693003D01*
X253092428Y-136693003D01*
X253092426Y-136693003D01*
X252966754Y-136718001D01*
X252848369Y-136767038D01*
X252848367Y-136767039D01*
X252741828Y-136838226D01*
X252651220Y-136928834D01*
X252580033Y-137035373D01*
X252580032Y-137035375D01*
X252530995Y-137153760D01*
X252505997Y-137279432D01*
X242168615Y-137279432D01*
X242184577Y-137251784D01*
X242225500Y-137099057D01*
X242225500Y-136940943D01*
X242184577Y-136788216D01*
X242105520Y-136651284D01*
X241993716Y-136539480D01*
X241875721Y-136471356D01*
X241856783Y-136460422D01*
X241856780Y-136460421D01*
X241704063Y-136419501D01*
X241704058Y-136419500D01*
X241704057Y-136419500D01*
X241545943Y-136419500D01*
X241545942Y-136419500D01*
X241545936Y-136419501D01*
X241393219Y-136460421D01*
X241393216Y-136460422D01*
X241296964Y-136515993D01*
X241256284Y-136539480D01*
X241256283Y-136539481D01*
X241256279Y-136539484D01*
X241144484Y-136651279D01*
X241144481Y-136651283D01*
X241065422Y-136788216D01*
X241065421Y-136788219D01*
X241024501Y-136940936D01*
X241024500Y-136940944D01*
X207080789Y-136940944D01*
X209431127Y-134590606D01*
X255343003Y-134590606D01*
X255343003Y-134722387D01*
X255343004Y-134722395D01*
X255377109Y-134849679D01*
X255377110Y-134849682D01*
X255443004Y-134963812D01*
X255443007Y-134963816D01*
X255536183Y-135056992D01*
X255536187Y-135056995D01*
X255536189Y-135056997D01*
X255650317Y-135122889D01*
X255650320Y-135122890D01*
X255728215Y-135143761D01*
X255777611Y-135156997D01*
X255777612Y-135156997D01*
X255909394Y-135156997D01*
X255909395Y-135156997D01*
X256036689Y-135122889D01*
X256150817Y-135056997D01*
X256244003Y-134963811D01*
X256309895Y-134849683D01*
X256344003Y-134722389D01*
X256344003Y-134590605D01*
X256309895Y-134463311D01*
X256244003Y-134349183D01*
X256244001Y-134349181D01*
X256243998Y-134349177D01*
X256150822Y-134256001D01*
X256150818Y-134255998D01*
X256150817Y-134255997D01*
X256093753Y-134223051D01*
X256036688Y-134190104D01*
X256036685Y-134190103D01*
X255909401Y-134155998D01*
X255909396Y-134155997D01*
X255909395Y-134155997D01*
X255777611Y-134155997D01*
X255777610Y-134155997D01*
X255777604Y-134155998D01*
X255650320Y-134190103D01*
X255650317Y-134190104D01*
X255536187Y-134255998D01*
X255536183Y-134256001D01*
X255443007Y-134349177D01*
X255443004Y-134349181D01*
X255377110Y-134463311D01*
X255377109Y-134463314D01*
X255343004Y-134590598D01*
X255343003Y-134590606D01*
X209431127Y-134590606D01*
X218925927Y-125095806D01*
X218970121Y-125077500D01*
X222210990Y-125077500D01*
X222245712Y-125088032D01*
X222250866Y-125091476D01*
X222306288Y-125102500D01*
X223072500Y-125102500D01*
X223116694Y-125120806D01*
X223135000Y-125165000D01*
X223135000Y-125931212D01*
X223146023Y-125986633D01*
X223149465Y-125991783D01*
X223160000Y-126026509D01*
X223160000Y-127415601D01*
X223141694Y-127459795D01*
X223105434Y-127496054D01*
X223105429Y-127496060D01*
X223059022Y-127576437D01*
X223059021Y-127576440D01*
X223035001Y-127666085D01*
X223035000Y-127666093D01*
X223035000Y-127758906D01*
X223035001Y-127758914D01*
X223059021Y-127848559D01*
X223059022Y-127848562D01*
X223105429Y-127928939D01*
X223105434Y-127928945D01*
X223171054Y-127994565D01*
X223171060Y-127994570D01*
X223251437Y-128040977D01*
X223251440Y-128040978D01*
X223341092Y-128065000D01*
X223341093Y-128065000D01*
X223433907Y-128065000D01*
X223433908Y-128065000D01*
X223523560Y-128040978D01*
X223566249Y-128016330D01*
X223613675Y-128010086D01*
X223651626Y-128039206D01*
X223660000Y-128070457D01*
X223660000Y-128903101D01*
X223641694Y-128947295D01*
X223605434Y-128983554D01*
X223605429Y-128983560D01*
X223559022Y-129063937D01*
X223559021Y-129063940D01*
X223535001Y-129153585D01*
X223535000Y-129153593D01*
X223535000Y-129246406D01*
X223535001Y-129246414D01*
X223559021Y-129336059D01*
X223559022Y-129336062D01*
X223605429Y-129416439D01*
X223605434Y-129416445D01*
X223671054Y-129482065D01*
X223671060Y-129482070D01*
X223751437Y-129528477D01*
X223751440Y-129528478D01*
X223841092Y-129552500D01*
X223841093Y-129552500D01*
X223933907Y-129552500D01*
X223933908Y-129552500D01*
X224023560Y-129528478D01*
X224103940Y-129482070D01*
X224169570Y-129416440D01*
X224215978Y-129336060D01*
X224240000Y-129246408D01*
X224240000Y-129153592D01*
X224215978Y-129063940D01*
X224215977Y-129063937D01*
X224169570Y-128983560D01*
X224169565Y-128983554D01*
X224133306Y-128947295D01*
X224115000Y-128903101D01*
X224115000Y-128757957D01*
X224133306Y-128713763D01*
X224177500Y-128695457D01*
X224208750Y-128703830D01*
X224251440Y-128728478D01*
X224341092Y-128752500D01*
X224341093Y-128752500D01*
X224433907Y-128752500D01*
X224433908Y-128752500D01*
X224523560Y-128728478D01*
X224603940Y-128682070D01*
X224669570Y-128616440D01*
X224715978Y-128536060D01*
X224740000Y-128446408D01*
X224740000Y-128353592D01*
X224715978Y-128263940D01*
X224715977Y-128263937D01*
X224669570Y-128183560D01*
X224669565Y-128183554D01*
X224633306Y-128147295D01*
X224615000Y-128103101D01*
X224615000Y-126117022D01*
X224633306Y-126072828D01*
X224677500Y-126054522D01*
X224712224Y-126065055D01*
X224751061Y-126091005D01*
X224751062Y-126091006D01*
X224806332Y-126101999D01*
X224824000Y-126101999D01*
X224824000Y-124973000D01*
X224806337Y-124973000D01*
X224751060Y-124983994D01*
X224688376Y-125025878D01*
X224684025Y-125030230D01*
X224682470Y-125028675D01*
X224649987Y-125050375D01*
X224603072Y-125041039D01*
X224591619Y-125029585D01*
X224591335Y-125029870D01*
X224586983Y-125025518D01*
X224524135Y-124983524D01*
X224524133Y-124983523D01*
X224468712Y-124972500D01*
X224306288Y-124972500D01*
X224250866Y-124983523D01*
X224250864Y-124983524D01*
X224188016Y-125025518D01*
X224183665Y-125029870D01*
X224182080Y-125028285D01*
X224149685Y-125049926D01*
X224102770Y-125040587D01*
X224091694Y-125029509D01*
X224091335Y-125029869D01*
X224086983Y-125025517D01*
X224024135Y-124983523D01*
X224024133Y-124983522D01*
X223968712Y-124972499D01*
X223806288Y-124972499D01*
X223750866Y-124983522D01*
X223750864Y-124983523D01*
X223688016Y-125025517D01*
X223683665Y-125029869D01*
X223682082Y-125028286D01*
X223649680Y-125049927D01*
X223602765Y-125040585D01*
X223591694Y-125029510D01*
X223591335Y-125029870D01*
X223586983Y-125025518D01*
X223524135Y-124983524D01*
X223524133Y-124983523D01*
X223468712Y-124972500D01*
X223327500Y-124972500D01*
X223283306Y-124954194D01*
X223265000Y-124910000D01*
X223265000Y-124768788D01*
X223253976Y-124713366D01*
X223246715Y-124702498D01*
X223211981Y-124650516D01*
X223207630Y-124646165D01*
X223209215Y-124644579D01*
X223187575Y-124612195D01*
X223196906Y-124565278D01*
X223207991Y-124554195D01*
X223207631Y-124553835D01*
X223211982Y-124549483D01*
X223253976Y-124486635D01*
X223253977Y-124486634D01*
X223265001Y-124431212D01*
X223265001Y-124268788D01*
X223253977Y-124213366D01*
X223246716Y-124202498D01*
X223211982Y-124150516D01*
X223207631Y-124146165D01*
X223209215Y-124144580D01*
X223187574Y-124112189D01*
X223196909Y-124065273D01*
X223207990Y-124054195D01*
X223207630Y-124053835D01*
X223211981Y-124049483D01*
X223253975Y-123986635D01*
X223253976Y-123986634D01*
X223265000Y-123931212D01*
X223265000Y-123768788D01*
X223253976Y-123713366D01*
X223246715Y-123702498D01*
X223211981Y-123650516D01*
X223207630Y-123646165D01*
X223209215Y-123644579D01*
X223187575Y-123612195D01*
X223196906Y-123565278D01*
X223207989Y-123554194D01*
X223207630Y-123553835D01*
X223211981Y-123549483D01*
X223253975Y-123486635D01*
X223253976Y-123486634D01*
X223265000Y-123431212D01*
X223265000Y-123268788D01*
X223253976Y-123213366D01*
X223211982Y-123150518D01*
X223211981Y-123150516D01*
X223207630Y-123146165D01*
X223209215Y-123144579D01*
X223187575Y-123112195D01*
X223196906Y-123065278D01*
X223207991Y-123054195D01*
X223207631Y-123053835D01*
X223211982Y-123049483D01*
X223240714Y-123006484D01*
X223253977Y-122986634D01*
X223265001Y-122931212D01*
X223265001Y-122768788D01*
X223253977Y-122713366D01*
X223246716Y-122702498D01*
X223211982Y-122650516D01*
X223207631Y-122646165D01*
X223209215Y-122644580D01*
X223187574Y-122612189D01*
X223196909Y-122565273D01*
X223207990Y-122554195D01*
X223207630Y-122553835D01*
X223211981Y-122549483D01*
X223213284Y-122547534D01*
X223253976Y-122486634D01*
X223265000Y-122431212D01*
X223265000Y-122290000D01*
X223283306Y-122245806D01*
X223327500Y-122227500D01*
X223468712Y-122227500D01*
X223524134Y-122216476D01*
X223586982Y-122174482D01*
X223586983Y-122174481D01*
X223591335Y-122170130D01*
X223592922Y-122171717D01*
X223625290Y-122150078D01*
X223672208Y-122159398D01*
X223683304Y-122170491D01*
X223683665Y-122170131D01*
X223688016Y-122174482D01*
X223750864Y-122216476D01*
X223750866Y-122216477D01*
X223806288Y-122227501D01*
X223968712Y-122227501D01*
X224024134Y-122216477D01*
X224086982Y-122174483D01*
X224086983Y-122174482D01*
X224091335Y-122170131D01*
X224092921Y-122171717D01*
X224125295Y-122150077D01*
X224172213Y-122159401D01*
X224183304Y-122170490D01*
X224183665Y-122170130D01*
X224188016Y-122174481D01*
X224250864Y-122216475D01*
X224250866Y-122216476D01*
X224306288Y-122227500D01*
X224468712Y-122227500D01*
X224524134Y-122216476D01*
X224586982Y-122174482D01*
X224586983Y-122174481D01*
X224591335Y-122170130D01*
X224592920Y-122171715D01*
X224625305Y-122150075D01*
X224672222Y-122159406D01*
X224683305Y-122170489D01*
X224683665Y-122170130D01*
X224688016Y-122174481D01*
X224750864Y-122216475D01*
X224750866Y-122216476D01*
X224806288Y-122227500D01*
X224968712Y-122227500D01*
X225024134Y-122216476D01*
X225086982Y-122174482D01*
X225086983Y-122174481D01*
X225091335Y-122170130D01*
X225092922Y-122171717D01*
X225125290Y-122150078D01*
X225172208Y-122159398D01*
X225183304Y-122170491D01*
X225183665Y-122170131D01*
X225188016Y-122174482D01*
X225250864Y-122216476D01*
X225250866Y-122216477D01*
X225306288Y-122227501D01*
X225468712Y-122227501D01*
X225524134Y-122216477D01*
X225586982Y-122174483D01*
X225586983Y-122174482D01*
X225591335Y-122170131D01*
X225592921Y-122171717D01*
X225625295Y-122150077D01*
X225672213Y-122159401D01*
X225683304Y-122170490D01*
X225683665Y-122170130D01*
X225688016Y-122174481D01*
X225750864Y-122216475D01*
X225750866Y-122216476D01*
X225806288Y-122227500D01*
X225947500Y-122227500D01*
X225991694Y-122245806D01*
X226010000Y-122290000D01*
X226010000Y-122431212D01*
X226021023Y-122486633D01*
X226021024Y-122486635D01*
X226063018Y-122549483D01*
X226067370Y-122553835D01*
X226065783Y-122555421D01*
X226087423Y-122587799D01*
X226078096Y-122634717D01*
X226067010Y-122645806D01*
X226067369Y-122646165D01*
X226063017Y-122650516D01*
X226021023Y-122713364D01*
X226021022Y-122713366D01*
X226009999Y-122768787D01*
X226009999Y-122931212D01*
X226021022Y-122986633D01*
X226021023Y-122986635D01*
X226063017Y-123049483D01*
X226067369Y-123053835D01*
X226065783Y-123055420D01*
X226087424Y-123087805D01*
X226078093Y-123134722D01*
X226067010Y-123145805D01*
X226067370Y-123146165D01*
X226063018Y-123150516D01*
X226021024Y-123213364D01*
X226021023Y-123213366D01*
X226010000Y-123268787D01*
X226010000Y-123431212D01*
X226021023Y-123486633D01*
X226021024Y-123486635D01*
X226063018Y-123549483D01*
X226067370Y-123553835D01*
X226065785Y-123555419D01*
X226087426Y-123587815D01*
X226078087Y-123634730D01*
X226067011Y-123645806D01*
X226067370Y-123646165D01*
X226063018Y-123650516D01*
X226021024Y-123713364D01*
X226021023Y-123713366D01*
X226010000Y-123768787D01*
X226010000Y-123931212D01*
X226021023Y-123986633D01*
X226021024Y-123986635D01*
X226063018Y-124049483D01*
X226067370Y-124053835D01*
X226065783Y-124055421D01*
X226087423Y-124087799D01*
X226078096Y-124134717D01*
X226067010Y-124145806D01*
X226067369Y-124146165D01*
X226063017Y-124150516D01*
X226021023Y-124213364D01*
X226021022Y-124213366D01*
X226009999Y-124268787D01*
X226009999Y-124431212D01*
X226021022Y-124486633D01*
X226021023Y-124486635D01*
X226063017Y-124549483D01*
X226067369Y-124553835D01*
X226065783Y-124555420D01*
X226087424Y-124587805D01*
X226078093Y-124634722D01*
X226067010Y-124645805D01*
X226067370Y-124646165D01*
X226063018Y-124650516D01*
X226021024Y-124713364D01*
X226021023Y-124713366D01*
X226010000Y-124768787D01*
X226010000Y-124910000D01*
X225991694Y-124954194D01*
X225947500Y-124972500D01*
X225806288Y-124972500D01*
X225750866Y-124983523D01*
X225750864Y-124983524D01*
X225688016Y-125025518D01*
X225683665Y-125029870D01*
X225682080Y-125028285D01*
X225649685Y-125049926D01*
X225602770Y-125040587D01*
X225591694Y-125029509D01*
X225591335Y-125029869D01*
X225586983Y-125025517D01*
X225524135Y-124983523D01*
X225524133Y-124983522D01*
X225468712Y-124972499D01*
X225306288Y-124972499D01*
X225250866Y-124983522D01*
X225250864Y-124983523D01*
X225188016Y-125025517D01*
X225183665Y-125029869D01*
X225182230Y-125028434D01*
X225149381Y-125050375D01*
X225102467Y-125041035D01*
X225091319Y-125029885D01*
X225090975Y-125030230D01*
X225086623Y-125025878D01*
X225023941Y-124983995D01*
X225023937Y-124983993D01*
X224968667Y-124973000D01*
X224951000Y-124973000D01*
X224951000Y-126101999D01*
X224968663Y-126101999D01*
X225023937Y-126091006D01*
X225062776Y-126065055D01*
X225109693Y-126055723D01*
X225149467Y-126082298D01*
X225160000Y-126117022D01*
X225160000Y-127703101D01*
X225141694Y-127747295D01*
X225105434Y-127783554D01*
X225105429Y-127783560D01*
X225059022Y-127863937D01*
X225059021Y-127863940D01*
X225035001Y-127953585D01*
X225035000Y-127953593D01*
X225035000Y-128046406D01*
X225035001Y-128046414D01*
X225059021Y-128136059D01*
X225059022Y-128136062D01*
X225105429Y-128216439D01*
X225105434Y-128216445D01*
X225171054Y-128282065D01*
X225171060Y-128282070D01*
X225251437Y-128328477D01*
X225251440Y-128328478D01*
X225341092Y-128352500D01*
X225341093Y-128352500D01*
X225433907Y-128352500D01*
X225433908Y-128352500D01*
X225523560Y-128328478D01*
X225603940Y-128282070D01*
X225669570Y-128216440D01*
X225715978Y-128136060D01*
X225740000Y-128046408D01*
X225740000Y-127953592D01*
X225715978Y-127863940D01*
X225715977Y-127863937D01*
X225669570Y-127783560D01*
X225669565Y-127783554D01*
X225633306Y-127747295D01*
X225615000Y-127703101D01*
X225615000Y-127257957D01*
X225633306Y-127213763D01*
X225677500Y-127195457D01*
X225708750Y-127203830D01*
X225751440Y-127228478D01*
X225841092Y-127252500D01*
X225841093Y-127252500D01*
X225933907Y-127252500D01*
X225933908Y-127252500D01*
X226023560Y-127228478D01*
X226103940Y-127182070D01*
X226169570Y-127116440D01*
X226215978Y-127036060D01*
X226240000Y-126946408D01*
X226240000Y-126853592D01*
X226215978Y-126763940D01*
X226215977Y-126763937D01*
X226169570Y-126683560D01*
X226169565Y-126683554D01*
X226133306Y-126647295D01*
X226115000Y-126603101D01*
X226115000Y-126026509D01*
X226125535Y-125991783D01*
X226128976Y-125986634D01*
X226140000Y-125931212D01*
X226140000Y-125165000D01*
X226158306Y-125120806D01*
X226202500Y-125102500D01*
X226968712Y-125102500D01*
X227024134Y-125091476D01*
X227029287Y-125088032D01*
X227064010Y-125077500D01*
X227453102Y-125077500D01*
X227497296Y-125095806D01*
X227522296Y-125120806D01*
X227533559Y-125132069D01*
X227533560Y-125132070D01*
X227613937Y-125178477D01*
X227613940Y-125178478D01*
X227703592Y-125202500D01*
X227703593Y-125202500D01*
X227796407Y-125202500D01*
X227796408Y-125202500D01*
X227886060Y-125178478D01*
X227966440Y-125132070D01*
X228032070Y-125066440D01*
X228078478Y-124986060D01*
X228102500Y-124896408D01*
X228102500Y-124803592D01*
X228096494Y-124781177D01*
X228102737Y-124733751D01*
X228140687Y-124704630D01*
X228156864Y-124702500D01*
X228246407Y-124702500D01*
X228246408Y-124702500D01*
X228336060Y-124678478D01*
X228416440Y-124632070D01*
X228482070Y-124566440D01*
X228528478Y-124486060D01*
X228552500Y-124396408D01*
X228552500Y-124303592D01*
X228528478Y-124213940D01*
X228528147Y-124213366D01*
X228510465Y-124182739D01*
X228504221Y-124135313D01*
X228533341Y-124097363D01*
X228580767Y-124091119D01*
X228608786Y-124107296D01*
X228633555Y-124132066D01*
X228633560Y-124132070D01*
X228713937Y-124178477D01*
X228713940Y-124178478D01*
X228803592Y-124202500D01*
X228803593Y-124202500D01*
X228896407Y-124202500D01*
X228896408Y-124202500D01*
X228986060Y-124178478D01*
X229066440Y-124132070D01*
X229132070Y-124066440D01*
X229178478Y-123986060D01*
X229202500Y-123896408D01*
X229202500Y-123803592D01*
X229178478Y-123713940D01*
X229178145Y-123713364D01*
X229153831Y-123671251D01*
X229147586Y-123623825D01*
X229176706Y-123585874D01*
X229207957Y-123577500D01*
X233203102Y-123577500D01*
X233247296Y-123595806D01*
X233273990Y-123622500D01*
X233283559Y-123632069D01*
X233283560Y-123632070D01*
X233363937Y-123678477D01*
X233363940Y-123678478D01*
X233453592Y-123702500D01*
X233453593Y-123702500D01*
X233546407Y-123702500D01*
X233546408Y-123702500D01*
X233636060Y-123678478D01*
X233716440Y-123632070D01*
X233782070Y-123566440D01*
X233828478Y-123486060D01*
X233852500Y-123396408D01*
X233852500Y-123303592D01*
X233828478Y-123213940D01*
X233828477Y-123213937D01*
X233782070Y-123133560D01*
X233782065Y-123133554D01*
X233716445Y-123067934D01*
X233716439Y-123067929D01*
X233636062Y-123021522D01*
X233636059Y-123021521D01*
X233546414Y-122997501D01*
X233546409Y-122997500D01*
X233546408Y-122997500D01*
X233453592Y-122997500D01*
X233453590Y-122997500D01*
X233420061Y-123006484D01*
X233372635Y-123000239D01*
X233343515Y-122962288D01*
X233343516Y-122929936D01*
X233352499Y-122896412D01*
X233352500Y-122896406D01*
X233352500Y-122803593D01*
X233352498Y-122803585D01*
X233328478Y-122713940D01*
X233328477Y-122713938D01*
X233317202Y-122694409D01*
X233303830Y-122671250D01*
X233297586Y-122623825D01*
X233326706Y-122585874D01*
X233357957Y-122577500D01*
X233796359Y-122577500D01*
X233840553Y-122595806D01*
X233867247Y-122622500D01*
X233876816Y-122632069D01*
X233876817Y-122632070D01*
X233957194Y-122678477D01*
X233957197Y-122678478D01*
X234046849Y-122702500D01*
X234046850Y-122702500D01*
X234139664Y-122702500D01*
X234139665Y-122702500D01*
X234229317Y-122678478D01*
X234309697Y-122632070D01*
X234375327Y-122566440D01*
X234421735Y-122486060D01*
X234445757Y-122396408D01*
X234445757Y-122303592D01*
X234421735Y-122213940D01*
X234421734Y-122213937D01*
X234375327Y-122133560D01*
X234375322Y-122133554D01*
X234309702Y-122067934D01*
X234309696Y-122067929D01*
X234229319Y-122021522D01*
X234229316Y-122021521D01*
X234139671Y-121997501D01*
X234139666Y-121997500D01*
X234139665Y-121997500D01*
X234046849Y-121997500D01*
X234046848Y-121997500D01*
X234046842Y-121997501D01*
X233957197Y-122021521D01*
X233957194Y-122021522D01*
X233876817Y-122067929D01*
X233876816Y-122067930D01*
X233865553Y-122079194D01*
X233840552Y-122104194D01*
X233796360Y-122122500D01*
X227064010Y-122122500D01*
X227029287Y-122111967D01*
X227024134Y-122108524D01*
X227024133Y-122108523D01*
X226968712Y-122097500D01*
X226202500Y-122097500D01*
X226158306Y-122079194D01*
X226140000Y-122035000D01*
X226140000Y-121268788D01*
X226128976Y-121213366D01*
X226128974Y-121213361D01*
X226125534Y-121208213D01*
X226115001Y-121173491D01*
X226115001Y-120932620D01*
X226133307Y-120888426D01*
X226825928Y-120195805D01*
X226870122Y-120177499D01*
X226885001Y-120177499D01*
X226929195Y-120195805D01*
X226947501Y-120239999D01*
X226947501Y-120435824D01*
X226958190Y-120509200D01*
X226958191Y-120509203D01*
X227013524Y-120622389D01*
X227102610Y-120711475D01*
X227215796Y-120766808D01*
X227289173Y-120777499D01*
X227885826Y-120777498D01*
X227959204Y-120766808D01*
X228072390Y-120711475D01*
X228161476Y-120622389D01*
X228216809Y-120509203D01*
X228227500Y-120435826D01*
X228227499Y-119464173D01*
X228227499Y-119464172D01*
X228772500Y-119464172D01*
X228772500Y-120435824D01*
X228783190Y-120509200D01*
X228783191Y-120509203D01*
X228838524Y-120622389D01*
X228927610Y-120711475D01*
X229040796Y-120766808D01*
X229114173Y-120777499D01*
X229710826Y-120777498D01*
X229784204Y-120766808D01*
X229897390Y-120711475D01*
X229986476Y-120622389D01*
X230041809Y-120509203D01*
X230052500Y-120435826D01*
X230052500Y-120239999D01*
X230070806Y-120195805D01*
X230115000Y-120177499D01*
X230203102Y-120177499D01*
X230247296Y-120195805D01*
X230269420Y-120217929D01*
X230283559Y-120232068D01*
X230283560Y-120232069D01*
X230363937Y-120278476D01*
X230363940Y-120278477D01*
X230453592Y-120302499D01*
X230453593Y-120302499D01*
X230546407Y-120302499D01*
X230546408Y-120302499D01*
X230636060Y-120278477D01*
X230716440Y-120232069D01*
X230782070Y-120166439D01*
X230828478Y-120086059D01*
X230852500Y-119996407D01*
X230852500Y-119903591D01*
X230828478Y-119813939D01*
X230828477Y-119813936D01*
X230782070Y-119733559D01*
X230782065Y-119733553D01*
X230716445Y-119667933D01*
X230716439Y-119667928D01*
X230636062Y-119621521D01*
X230636059Y-119621520D01*
X230546414Y-119597500D01*
X230546409Y-119597499D01*
X230546408Y-119597499D01*
X230453592Y-119597499D01*
X230453591Y-119597499D01*
X230453585Y-119597500D01*
X230363940Y-119621520D01*
X230363937Y-119621521D01*
X230283560Y-119667928D01*
X230283559Y-119667929D01*
X230273990Y-119677499D01*
X230247295Y-119704193D01*
X230203103Y-119722499D01*
X230114999Y-119722499D01*
X230070805Y-119704193D01*
X230052499Y-119659999D01*
X230052499Y-119464173D01*
X230050958Y-119453593D01*
X230041809Y-119390795D01*
X229986476Y-119277609D01*
X229897390Y-119188523D01*
X229784204Y-119133190D01*
X229784202Y-119133189D01*
X229784201Y-119133189D01*
X229724876Y-119124546D01*
X229710827Y-119122499D01*
X229710826Y-119122499D01*
X229114174Y-119122499D01*
X229040798Y-119133189D01*
X229040797Y-119133189D01*
X229040796Y-119133190D01*
X228940049Y-119182442D01*
X228927608Y-119188524D01*
X228838525Y-119277607D01*
X228783190Y-119390797D01*
X228772500Y-119464172D01*
X228227499Y-119464172D01*
X228216809Y-119390795D01*
X228161476Y-119277609D01*
X228072390Y-119188523D01*
X227959204Y-119133190D01*
X227959202Y-119133189D01*
X227959201Y-119133189D01*
X227899876Y-119124546D01*
X227885827Y-119122499D01*
X227885826Y-119122499D01*
X227877500Y-119122499D01*
X227833306Y-119104193D01*
X227815000Y-119059999D01*
X227815000Y-118992245D01*
X227808937Y-118977609D01*
X227797173Y-118949208D01*
X227782257Y-118913197D01*
X227777501Y-118889282D01*
X227777501Y-118864859D01*
X227795807Y-118820665D01*
X227833666Y-118803355D01*
X227833589Y-118802824D01*
X227835409Y-118802558D01*
X227835490Y-118802522D01*
X227835817Y-118802498D01*
X227835827Y-118802498D01*
X227909205Y-118791808D01*
X228022391Y-118736475D01*
X228111477Y-118647389D01*
X228166810Y-118534203D01*
X228177501Y-118460826D01*
X228177501Y-118460776D01*
X228823000Y-118460776D01*
X228833675Y-118534055D01*
X228833677Y-118534059D01*
X228888935Y-118647094D01*
X228977903Y-118736062D01*
X229090940Y-118791321D01*
X229164213Y-118801997D01*
X229164227Y-118801998D01*
X229386498Y-118801998D01*
X229513499Y-118801998D01*
X229735777Y-118801998D01*
X229809055Y-118791322D01*
X229809059Y-118791320D01*
X229922094Y-118736062D01*
X230011062Y-118647094D01*
X230066321Y-118534057D01*
X230076999Y-118460777D01*
X230076999Y-118013499D01*
X229513499Y-118013499D01*
X229513499Y-118801998D01*
X229386498Y-118801998D01*
X229386499Y-118801997D01*
X229386499Y-118013499D01*
X228823000Y-118013499D01*
X228823000Y-118460776D01*
X228177501Y-118460776D01*
X228177500Y-117932500D01*
X228177500Y-117439220D01*
X228822999Y-117439220D01*
X228822999Y-117886499D01*
X229386499Y-117886499D01*
X229513499Y-117886499D01*
X230076998Y-117886499D01*
X230076998Y-117439221D01*
X230066322Y-117365942D01*
X230066320Y-117365938D01*
X230011062Y-117252903D01*
X229922094Y-117163935D01*
X229809057Y-117108676D01*
X229735777Y-117097999D01*
X229513499Y-117097999D01*
X229513499Y-117886499D01*
X229386499Y-117886499D01*
X229386499Y-117097999D01*
X229164221Y-117097999D01*
X229090941Y-117108676D01*
X229090938Y-117108677D01*
X228977903Y-117163935D01*
X228888935Y-117252903D01*
X228833676Y-117365940D01*
X228822999Y-117439220D01*
X228177500Y-117439220D01*
X228177500Y-117439173D01*
X228166810Y-117365797D01*
X228166810Y-117365795D01*
X228111477Y-117252609D01*
X228022391Y-117163523D01*
X227909205Y-117108190D01*
X227909203Y-117108189D01*
X227909202Y-117108189D01*
X227850914Y-117099697D01*
X227835828Y-117097499D01*
X227835827Y-117097499D01*
X227264175Y-117097499D01*
X227190799Y-117108189D01*
X227190798Y-117108189D01*
X227190797Y-117108190D01*
X227114985Y-117145252D01*
X227077609Y-117163524D01*
X226988526Y-117252607D01*
X226933191Y-117365797D01*
X226922501Y-117439172D01*
X226922501Y-118460824D01*
X226933191Y-118534200D01*
X226933192Y-118534203D01*
X226988525Y-118647389D01*
X227077611Y-118736475D01*
X227190797Y-118791808D01*
X227264174Y-118802499D01*
X227264186Y-118802498D01*
X227264508Y-118802523D01*
X227264577Y-118802557D01*
X227266412Y-118802825D01*
X227266323Y-118803433D01*
X227307267Y-118823968D01*
X227322501Y-118864860D01*
X227322501Y-119045252D01*
X227323655Y-119051054D01*
X227314323Y-119097971D01*
X227274549Y-119124546D01*
X227271367Y-119125094D01*
X227239570Y-119129726D01*
X227215796Y-119133190D01*
X227115049Y-119182442D01*
X227102608Y-119188524D01*
X227013525Y-119277607D01*
X226958190Y-119390797D01*
X226947500Y-119464172D01*
X226947500Y-119659999D01*
X226929194Y-119704193D01*
X226885000Y-119722499D01*
X226704745Y-119722499D01*
X226621136Y-119757131D01*
X226621131Y-119757135D01*
X225758633Y-120619634D01*
X225758632Y-120619635D01*
X225701331Y-120676934D01*
X225657137Y-120695239D01*
X225612943Y-120676932D01*
X225612942Y-120676931D01*
X225603944Y-120667932D01*
X225603939Y-120667928D01*
X225523562Y-120621521D01*
X225523559Y-120621520D01*
X225433914Y-120597500D01*
X225433909Y-120597499D01*
X225433908Y-120597499D01*
X225425120Y-120597499D01*
X225380926Y-120579193D01*
X225362620Y-120534999D01*
X225380926Y-120490805D01*
X225507794Y-120363937D01*
X226292866Y-119578867D01*
X226327500Y-119495252D01*
X226327500Y-119404746D01*
X226327500Y-114520121D01*
X226345806Y-114475927D01*
X226440807Y-114380926D01*
X226485001Y-114362620D01*
X226529195Y-114380926D01*
X226547501Y-114425120D01*
X226547501Y-114585825D01*
X226558190Y-114659201D01*
X226558191Y-114659204D01*
X226613524Y-114772390D01*
X226702610Y-114861476D01*
X226815796Y-114916809D01*
X226889173Y-114927500D01*
X227485826Y-114927499D01*
X227559204Y-114916809D01*
X227672390Y-114861476D01*
X227761476Y-114772390D01*
X227816809Y-114659204D01*
X227827500Y-114585827D01*
X227827499Y-113614174D01*
X227827499Y-113614173D01*
X228372500Y-113614173D01*
X228372500Y-114585825D01*
X228383190Y-114659201D01*
X228383191Y-114659204D01*
X228438524Y-114772390D01*
X228527610Y-114861476D01*
X228640796Y-114916809D01*
X228714173Y-114927500D01*
X229310826Y-114927499D01*
X229384204Y-114916809D01*
X229497390Y-114861476D01*
X229586476Y-114772390D01*
X229641809Y-114659204D01*
X229652500Y-114585827D01*
X229652499Y-114506863D01*
X229670804Y-114462670D01*
X229714998Y-114444364D01*
X229731175Y-114446494D01*
X229749581Y-114451425D01*
X229753592Y-114452500D01*
X229753593Y-114452500D01*
X229846407Y-114452500D01*
X229846408Y-114452500D01*
X229936060Y-114428478D01*
X230016440Y-114382070D01*
X230082070Y-114316440D01*
X230128478Y-114236060D01*
X230152500Y-114146408D01*
X230152500Y-114053592D01*
X230128478Y-113963940D01*
X230128477Y-113963937D01*
X230082070Y-113883560D01*
X230082065Y-113883554D01*
X230016445Y-113817934D01*
X230016439Y-113817929D01*
X229936062Y-113771522D01*
X229936059Y-113771521D01*
X229846414Y-113747501D01*
X229846409Y-113747500D01*
X229846408Y-113747500D01*
X229753592Y-113747500D01*
X229753587Y-113747500D01*
X229731173Y-113753506D01*
X229683747Y-113747261D01*
X229654628Y-113709309D01*
X229652499Y-113693135D01*
X229652499Y-113614174D01*
X229641809Y-113540798D01*
X229641809Y-113540796D01*
X229586476Y-113427610D01*
X229497390Y-113338524D01*
X229384204Y-113283191D01*
X229384202Y-113283190D01*
X229384201Y-113283190D01*
X229325913Y-113274698D01*
X229310827Y-113272500D01*
X229310826Y-113272500D01*
X228714174Y-113272500D01*
X228640798Y-113283190D01*
X228640797Y-113283190D01*
X228640796Y-113283191D01*
X228527610Y-113338524D01*
X228527608Y-113338525D01*
X228438525Y-113427608D01*
X228383190Y-113540798D01*
X228372500Y-113614173D01*
X227827499Y-113614173D01*
X227816809Y-113540796D01*
X227761476Y-113427610D01*
X227672390Y-113338524D01*
X227559204Y-113283191D01*
X227559202Y-113283190D01*
X227559201Y-113283190D01*
X227500913Y-113274698D01*
X227485827Y-113272500D01*
X227485826Y-113272500D01*
X226889174Y-113272500D01*
X226815798Y-113283190D01*
X226815797Y-113283190D01*
X226815796Y-113283191D01*
X226702610Y-113338524D01*
X226702608Y-113338525D01*
X226613525Y-113427608D01*
X226558190Y-113540798D01*
X226547500Y-113614173D01*
X226547500Y-113810000D01*
X226529194Y-113854194D01*
X226485000Y-113872500D01*
X226390000Y-113872500D01*
X226345806Y-113854194D01*
X226327500Y-113810000D01*
X226327500Y-103296898D01*
X226345806Y-103252704D01*
X226382070Y-103216440D01*
X226428478Y-103136060D01*
X226452500Y-103046408D01*
X226452500Y-102953592D01*
X226428478Y-102863940D01*
X226428477Y-102863937D01*
X226382070Y-102783560D01*
X226382065Y-102783554D01*
X226316445Y-102717934D01*
X226316439Y-102717929D01*
X226236062Y-102671522D01*
X226236059Y-102671521D01*
X226146414Y-102647501D01*
X226146409Y-102647500D01*
X226146408Y-102647500D01*
X226053592Y-102647500D01*
X226053591Y-102647500D01*
X226053585Y-102647501D01*
X225963940Y-102671521D01*
X225963937Y-102671522D01*
X225883560Y-102717929D01*
X225883554Y-102717934D01*
X225817934Y-102783554D01*
X225817929Y-102783560D01*
X225771522Y-102863937D01*
X225771521Y-102863940D01*
X225747501Y-102953585D01*
X225747500Y-102953593D01*
X225747500Y-103046406D01*
X225747501Y-103046414D01*
X225771521Y-103136059D01*
X225771522Y-103136062D01*
X225798334Y-103182500D01*
X225817930Y-103216440D01*
X225854194Y-103252704D01*
X225872500Y-103296897D01*
X225872500Y-119329877D01*
X225854194Y-119374071D01*
X225312659Y-119915605D01*
X225268465Y-119933911D01*
X225224271Y-119915605D01*
X225205965Y-119871411D01*
X225212314Y-119843965D01*
X225229309Y-119809203D01*
X225240000Y-119735826D01*
X225239999Y-119164173D01*
X225229309Y-119090795D01*
X225173976Y-118977609D01*
X225084890Y-118888523D01*
X224971704Y-118833190D01*
X224971702Y-118833189D01*
X224971701Y-118833189D01*
X224908409Y-118823968D01*
X224898327Y-118822499D01*
X224898326Y-118822499D01*
X223876674Y-118822499D01*
X223803298Y-118833189D01*
X223803297Y-118833189D01*
X223803296Y-118833190D01*
X223738516Y-118864859D01*
X223690108Y-118888524D01*
X223601025Y-118977607D01*
X223545690Y-119090797D01*
X223535000Y-119164171D01*
X223534976Y-119164506D01*
X223534941Y-119164575D01*
X223534674Y-119166410D01*
X223534065Y-119166321D01*
X223525188Y-119184020D01*
X223516833Y-119204193D01*
X223514609Y-119205113D01*
X223513531Y-119207265D01*
X223472639Y-119222499D01*
X223446899Y-119222499D01*
X223402705Y-119204193D01*
X223366441Y-119167929D01*
X223366440Y-119167928D01*
X223286063Y-119121521D01*
X223286060Y-119121520D01*
X223196415Y-119097500D01*
X223196410Y-119097499D01*
X223196409Y-119097499D01*
X223103593Y-119097499D01*
X223103592Y-119097499D01*
X223103586Y-119097500D01*
X223013941Y-119121520D01*
X223013938Y-119121521D01*
X222933561Y-119167928D01*
X222933555Y-119167933D01*
X222867935Y-119233553D01*
X222867930Y-119233559D01*
X222821523Y-119313936D01*
X222821522Y-119313939D01*
X222797502Y-119403584D01*
X222797501Y-119403592D01*
X222797501Y-119496405D01*
X222797502Y-119496413D01*
X222821522Y-119586058D01*
X222821523Y-119586061D01*
X222867930Y-119666438D01*
X222867935Y-119666444D01*
X222933555Y-119732064D01*
X222933561Y-119732069D01*
X223013938Y-119778476D01*
X223013941Y-119778477D01*
X223103593Y-119802499D01*
X223103594Y-119802499D01*
X223196408Y-119802499D01*
X223196409Y-119802499D01*
X223286061Y-119778477D01*
X223366441Y-119732069D01*
X223402705Y-119695804D01*
X223446898Y-119677499D01*
X223472640Y-119677499D01*
X223516834Y-119695805D01*
X223534143Y-119733664D01*
X223534675Y-119733587D01*
X223534940Y-119735407D01*
X223534977Y-119735488D01*
X223535001Y-119735829D01*
X223545690Y-119809200D01*
X223545691Y-119809203D01*
X223601024Y-119922389D01*
X223690110Y-120011475D01*
X223803296Y-120066808D01*
X223876673Y-120077499D01*
X224097500Y-120077498D01*
X224141694Y-120095804D01*
X224160000Y-120139998D01*
X224160000Y-120787379D01*
X224141694Y-120831573D01*
X224097500Y-120849879D01*
X224053306Y-120831573D01*
X223728869Y-120507136D01*
X223728864Y-120507132D01*
X223645255Y-120472500D01*
X223645253Y-120472500D01*
X222620121Y-120472500D01*
X222575927Y-120454194D01*
X222445806Y-120324073D01*
X222427500Y-120279879D01*
X222427500Y-117835778D01*
X223535501Y-117835778D01*
X223546176Y-117909057D01*
X223546178Y-117909061D01*
X223601436Y-118022096D01*
X223690404Y-118111064D01*
X223803441Y-118166323D01*
X223876721Y-118177000D01*
X224324000Y-118177000D01*
X224451000Y-118177000D01*
X224898278Y-118177000D01*
X224971556Y-118166324D01*
X224971560Y-118166322D01*
X225084595Y-118111064D01*
X225173563Y-118022096D01*
X225228822Y-117909059D01*
X225239500Y-117835779D01*
X225239500Y-117613501D01*
X224451000Y-117613501D01*
X224451000Y-118177000D01*
X224324000Y-118177000D01*
X224324000Y-117613501D01*
X223535501Y-117613501D01*
X223535501Y-117835778D01*
X222427500Y-117835778D01*
X222427500Y-117264222D01*
X223535500Y-117264222D01*
X223535500Y-117486501D01*
X224324000Y-117486501D01*
X224451000Y-117486501D01*
X225239499Y-117486501D01*
X225239499Y-117264223D01*
X225228823Y-117190944D01*
X225228821Y-117190940D01*
X225173563Y-117077905D01*
X225084595Y-116988937D01*
X224971558Y-116933678D01*
X224898278Y-116923001D01*
X224451000Y-116923001D01*
X224451000Y-117486501D01*
X224324000Y-117486501D01*
X224324000Y-116923001D01*
X223876722Y-116923001D01*
X223803443Y-116933677D01*
X223803439Y-116933679D01*
X223690404Y-116988937D01*
X223601436Y-117077905D01*
X223546177Y-117190942D01*
X223535500Y-117264222D01*
X222427500Y-117264222D01*
X222427500Y-99520121D01*
X222445806Y-99475927D01*
X222875927Y-99045806D01*
X222920121Y-99027500D01*
X241745253Y-99027500D01*
X241811643Y-99000000D01*
X241828864Y-98992867D01*
X241828864Y-98992866D01*
X241828868Y-98992865D01*
X243415806Y-97405927D01*
X243460000Y-97387621D01*
X243504194Y-97405927D01*
X243522500Y-97450121D01*
X243522500Y-97729878D01*
X243504194Y-97774072D01*
X241624073Y-99654194D01*
X241579879Y-99672500D01*
X224096898Y-99672500D01*
X224052704Y-99654194D01*
X224016440Y-99617930D01*
X224016439Y-99617929D01*
X223936062Y-99571522D01*
X223936059Y-99571521D01*
X223846414Y-99547501D01*
X223846409Y-99547500D01*
X223846408Y-99547500D01*
X223753592Y-99547500D01*
X223753591Y-99547500D01*
X223753585Y-99547501D01*
X223663940Y-99571521D01*
X223663937Y-99571522D01*
X223583560Y-99617929D01*
X223583554Y-99617934D01*
X223517934Y-99683554D01*
X223517929Y-99683560D01*
X223471522Y-99763937D01*
X223471521Y-99763940D01*
X223447501Y-99853585D01*
X223447500Y-99853593D01*
X223447500Y-99946406D01*
X223447501Y-99946414D01*
X223471521Y-100036059D01*
X223471522Y-100036062D01*
X223517929Y-100116439D01*
X223517934Y-100116445D01*
X223583554Y-100182065D01*
X223583560Y-100182070D01*
X223663937Y-100228477D01*
X223663940Y-100228478D01*
X223753592Y-100252500D01*
X223753593Y-100252500D01*
X223846407Y-100252500D01*
X223846408Y-100252500D01*
X223936060Y-100228478D01*
X224016440Y-100182070D01*
X224052704Y-100145805D01*
X224096897Y-100127500D01*
X241745253Y-100127500D01*
X241773124Y-100115955D01*
X241828864Y-100092867D01*
X241828864Y-100092866D01*
X241828868Y-100092865D01*
X243915807Y-98005926D01*
X243960000Y-97987621D01*
X244004194Y-98005927D01*
X244022500Y-98050121D01*
X244022500Y-102253101D01*
X244004194Y-102297295D01*
X243967934Y-102333554D01*
X243967929Y-102333560D01*
X243921522Y-102413937D01*
X243921521Y-102413940D01*
X243897501Y-102503585D01*
X243897500Y-102503593D01*
X243897500Y-102596406D01*
X243897501Y-102596414D01*
X243921521Y-102686059D01*
X243921522Y-102686062D01*
X243967929Y-102766439D01*
X243967934Y-102766445D01*
X244033554Y-102832065D01*
X244033560Y-102832070D01*
X244113937Y-102878477D01*
X244113940Y-102878478D01*
X244203592Y-102902500D01*
X244203593Y-102902500D01*
X244296407Y-102902500D01*
X244296408Y-102902500D01*
X244386060Y-102878478D01*
X244428749Y-102853830D01*
X244476175Y-102847586D01*
X244514126Y-102876706D01*
X244522500Y-102907957D01*
X244522500Y-103653101D01*
X244504194Y-103697295D01*
X244467934Y-103733554D01*
X244467929Y-103733560D01*
X244421522Y-103813937D01*
X244421521Y-103813940D01*
X244397501Y-103903585D01*
X244397500Y-103903593D01*
X244397500Y-103996406D01*
X244397501Y-103996414D01*
X244421521Y-104086059D01*
X244421522Y-104086062D01*
X244467929Y-104166439D01*
X244467934Y-104166445D01*
X244533554Y-104232065D01*
X244533560Y-104232070D01*
X244613937Y-104278477D01*
X244613940Y-104278478D01*
X244703592Y-104302500D01*
X244703593Y-104302500D01*
X244796407Y-104302500D01*
X244796408Y-104302500D01*
X244886060Y-104278478D01*
X244928749Y-104253830D01*
X244976175Y-104247586D01*
X245014126Y-104276706D01*
X245022500Y-104307957D01*
X245022500Y-104703101D01*
X245004194Y-104747295D01*
X244967934Y-104783554D01*
X244967929Y-104783560D01*
X244921522Y-104863937D01*
X244921521Y-104863940D01*
X244897501Y-104953585D01*
X244897500Y-104953593D01*
X244897500Y-105046406D01*
X244897501Y-105046414D01*
X244921521Y-105136059D01*
X244921522Y-105136062D01*
X244967929Y-105216439D01*
X244967934Y-105216445D01*
X245033554Y-105282065D01*
X245033560Y-105282070D01*
X245113937Y-105328477D01*
X245113940Y-105328478D01*
X245203592Y-105352500D01*
X245203593Y-105352500D01*
X245296407Y-105352500D01*
X245296408Y-105352500D01*
X245386060Y-105328478D01*
X245428749Y-105303830D01*
X245476175Y-105297586D01*
X245514126Y-105326706D01*
X245522500Y-105357957D01*
X245522500Y-105853101D01*
X245504194Y-105897295D01*
X245467934Y-105933554D01*
X245467929Y-105933560D01*
X245421522Y-106013937D01*
X245421521Y-106013940D01*
X245397501Y-106103585D01*
X245397500Y-106103593D01*
X245397500Y-106196406D01*
X245397501Y-106196414D01*
X245421521Y-106286059D01*
X245421522Y-106286062D01*
X245467929Y-106366439D01*
X245467934Y-106366445D01*
X245533554Y-106432065D01*
X245533560Y-106432070D01*
X245613937Y-106478477D01*
X245613940Y-106478478D01*
X245703592Y-106502500D01*
X245703593Y-106502500D01*
X245796407Y-106502500D01*
X245796408Y-106502500D01*
X245886060Y-106478478D01*
X245928749Y-106453830D01*
X245976175Y-106447586D01*
X246014126Y-106476706D01*
X246022500Y-106507957D01*
X246022500Y-106803101D01*
X246004194Y-106847295D01*
X245967934Y-106883554D01*
X245967929Y-106883560D01*
X245921522Y-106963937D01*
X245921521Y-106963940D01*
X245897501Y-107053585D01*
X245897500Y-107053593D01*
X245897500Y-107146406D01*
X245897501Y-107146414D01*
X245921521Y-107236059D01*
X245921522Y-107236062D01*
X245967929Y-107316439D01*
X245967934Y-107316445D01*
X246033554Y-107382065D01*
X246033560Y-107382070D01*
X246113937Y-107428477D01*
X246113940Y-107428478D01*
X246203592Y-107452500D01*
X246203593Y-107452500D01*
X246296407Y-107452500D01*
X246296408Y-107452500D01*
X246386060Y-107428478D01*
X246428749Y-107403830D01*
X246476175Y-107397586D01*
X246514126Y-107426706D01*
X246522500Y-107457957D01*
X246522500Y-107803101D01*
X246504194Y-107847295D01*
X246467934Y-107883554D01*
X246467929Y-107883560D01*
X246421522Y-107963937D01*
X246421521Y-107963940D01*
X246397501Y-108053585D01*
X246397500Y-108053593D01*
X246397500Y-108146406D01*
X246397501Y-108146414D01*
X246421521Y-108236059D01*
X246421522Y-108236062D01*
X246467929Y-108316439D01*
X246467934Y-108316445D01*
X246533554Y-108382065D01*
X246533560Y-108382070D01*
X246613937Y-108428477D01*
X246613940Y-108428478D01*
X246703592Y-108452500D01*
X246703593Y-108452500D01*
X246796407Y-108452500D01*
X246796408Y-108452500D01*
X246886060Y-108428478D01*
X246928749Y-108403830D01*
X246976175Y-108397586D01*
X247014126Y-108426706D01*
X247022500Y-108457957D01*
X247022500Y-108603101D01*
X247004194Y-108647295D01*
X246967934Y-108683554D01*
X246967929Y-108683560D01*
X246921522Y-108763937D01*
X246921521Y-108763940D01*
X246897501Y-108853585D01*
X246897500Y-108853593D01*
X246897500Y-108946406D01*
X246897501Y-108946414D01*
X246921521Y-109036059D01*
X246921522Y-109036062D01*
X246967929Y-109116439D01*
X246967934Y-109116445D01*
X247033554Y-109182065D01*
X247033560Y-109182070D01*
X247113937Y-109228477D01*
X247113940Y-109228478D01*
X247203592Y-109252500D01*
X247203593Y-109252500D01*
X247296407Y-109252500D01*
X247296408Y-109252500D01*
X247386060Y-109228478D01*
X247428749Y-109203830D01*
X247476175Y-109197586D01*
X247514126Y-109226706D01*
X247522500Y-109257957D01*
X247522500Y-109503101D01*
X247504194Y-109547295D01*
X247467934Y-109583554D01*
X247467929Y-109583560D01*
X247421522Y-109663937D01*
X247421521Y-109663940D01*
X247397501Y-109753585D01*
X247397500Y-109753593D01*
X247397500Y-109846406D01*
X247397501Y-109846414D01*
X247421521Y-109936059D01*
X247421522Y-109936062D01*
X247467929Y-110016439D01*
X247467934Y-110016445D01*
X247533554Y-110082065D01*
X247533560Y-110082070D01*
X247613937Y-110128477D01*
X247613940Y-110128478D01*
X247703592Y-110152500D01*
X247703593Y-110152500D01*
X247796407Y-110152500D01*
X247796408Y-110152500D01*
X247886060Y-110128478D01*
X247966440Y-110082070D01*
X248032070Y-110016440D01*
X248078478Y-109936060D01*
X248102500Y-109846408D01*
X248102500Y-109753592D01*
X248078478Y-109663940D01*
X248078477Y-109663937D01*
X248032070Y-109583560D01*
X248032065Y-109583554D01*
X247995806Y-109547295D01*
X247977500Y-109503101D01*
X247977500Y-96030216D01*
X247988034Y-95995492D01*
X248015750Y-95954014D01*
X248015751Y-95954011D01*
X248027500Y-95894944D01*
X248027500Y-95381999D01*
X248982801Y-95381999D01*
X248982802Y-95382000D01*
X251017198Y-95382000D01*
X251017198Y-95381999D01*
X250000000Y-94364802D01*
X248982801Y-95381999D01*
X248027500Y-95381999D01*
X248027500Y-94905056D01*
X248015751Y-94845988D01*
X247970994Y-94779006D01*
X247904012Y-94734249D01*
X247904010Y-94734248D01*
X247844944Y-94722500D01*
X247655056Y-94722500D01*
X247655055Y-94722500D01*
X247595989Y-94734248D01*
X247595985Y-94734250D01*
X247534723Y-94775185D01*
X247487807Y-94784517D01*
X247465277Y-94775185D01*
X247404014Y-94734250D01*
X247404010Y-94734248D01*
X247344944Y-94722500D01*
X247155056Y-94722500D01*
X247155055Y-94722500D01*
X247095989Y-94734248D01*
X247095985Y-94734250D01*
X247034723Y-94775185D01*
X246987807Y-94784517D01*
X246965277Y-94775185D01*
X246904014Y-94734250D01*
X246904010Y-94734248D01*
X246844944Y-94722500D01*
X246655056Y-94722500D01*
X246655055Y-94722500D01*
X246595989Y-94734248D01*
X246595985Y-94734250D01*
X246534723Y-94775185D01*
X246487807Y-94784517D01*
X246465277Y-94775185D01*
X246404014Y-94734250D01*
X246404010Y-94734248D01*
X246344944Y-94722500D01*
X246155056Y-94722500D01*
X246155055Y-94722500D01*
X246095989Y-94734248D01*
X246095985Y-94734250D01*
X246034723Y-94775185D01*
X245987807Y-94784517D01*
X245965277Y-94775185D01*
X245904014Y-94734250D01*
X245904010Y-94734248D01*
X245844944Y-94722500D01*
X245655056Y-94722500D01*
X245655055Y-94722500D01*
X245595989Y-94734248D01*
X245595985Y-94734250D01*
X245534723Y-94775185D01*
X245487807Y-94784517D01*
X245465277Y-94775185D01*
X245404014Y-94734250D01*
X245404010Y-94734248D01*
X245344944Y-94722500D01*
X245155056Y-94722500D01*
X245155055Y-94722500D01*
X245095989Y-94734248D01*
X245095985Y-94734250D01*
X245034723Y-94775185D01*
X244987807Y-94784517D01*
X244965277Y-94775185D01*
X244904014Y-94734250D01*
X244904010Y-94734248D01*
X244844944Y-94722500D01*
X244655056Y-94722500D01*
X244655055Y-94722500D01*
X244595989Y-94734248D01*
X244595985Y-94734250D01*
X244534723Y-94775185D01*
X244487807Y-94784517D01*
X244465277Y-94775185D01*
X244404014Y-94734250D01*
X244404010Y-94734248D01*
X244344944Y-94722500D01*
X244155056Y-94722500D01*
X244155055Y-94722500D01*
X244095989Y-94734248D01*
X244095985Y-94734250D01*
X244034723Y-94775185D01*
X243987807Y-94784517D01*
X243965277Y-94775185D01*
X243904014Y-94734250D01*
X243904010Y-94734248D01*
X243844944Y-94722500D01*
X243655056Y-94722500D01*
X243655055Y-94722500D01*
X243595989Y-94734248D01*
X243595985Y-94734250D01*
X243534723Y-94775185D01*
X243487807Y-94784517D01*
X243465277Y-94775185D01*
X243404014Y-94734250D01*
X243404010Y-94734248D01*
X243344944Y-94722500D01*
X243155056Y-94722500D01*
X243155055Y-94722500D01*
X243095989Y-94734248D01*
X243095985Y-94734250D01*
X243034723Y-94775185D01*
X242987807Y-94784517D01*
X242965277Y-94775185D01*
X242904014Y-94734250D01*
X242904010Y-94734248D01*
X242844944Y-94722500D01*
X242655056Y-94722500D01*
X242655055Y-94722500D01*
X242595989Y-94734248D01*
X242595985Y-94734250D01*
X242534723Y-94775185D01*
X242487807Y-94784517D01*
X242465277Y-94775185D01*
X242404014Y-94734250D01*
X242404010Y-94734248D01*
X242344944Y-94722500D01*
X242155056Y-94722500D01*
X242155055Y-94722500D01*
X242095989Y-94734248D01*
X242095985Y-94734250D01*
X242034273Y-94775486D01*
X241987357Y-94784818D01*
X241964828Y-94775486D01*
X241903817Y-94734721D01*
X241844892Y-94723000D01*
X241813500Y-94723000D01*
X241813500Y-96076999D01*
X241844891Y-96076999D01*
X241844892Y-96076998D01*
X241903814Y-96065279D01*
X241903816Y-96065278D01*
X241925277Y-96050939D01*
X241972193Y-96041607D01*
X242011967Y-96068183D01*
X242022500Y-96102906D01*
X242022500Y-96379878D01*
X242004194Y-96424072D01*
X240924073Y-97504194D01*
X240879879Y-97522500D01*
X185102906Y-97522500D01*
X185058712Y-97504194D01*
X185040406Y-97460000D01*
X185050939Y-97425277D01*
X185065278Y-97403815D01*
X185077000Y-97344892D01*
X185077000Y-97313500D01*
X183723001Y-97313500D01*
X183723001Y-97344892D01*
X183734720Y-97403814D01*
X183734722Y-97403819D01*
X183775486Y-97464828D01*
X183784818Y-97511744D01*
X183775486Y-97534273D01*
X183734250Y-97595985D01*
X183734248Y-97595989D01*
X183722500Y-97655055D01*
X183722500Y-97844944D01*
X183734248Y-97904010D01*
X183734250Y-97904014D01*
X183775185Y-97965277D01*
X183784517Y-98012193D01*
X183775185Y-98034723D01*
X183734250Y-98095985D01*
X183734248Y-98095989D01*
X183722500Y-98155055D01*
X183722500Y-98344944D01*
X183734248Y-98404010D01*
X183734250Y-98404014D01*
X183775185Y-98465277D01*
X183784517Y-98512193D01*
X183775185Y-98534723D01*
X183734250Y-98595985D01*
X183734248Y-98595989D01*
X183722500Y-98655055D01*
X183722500Y-98844944D01*
X183734248Y-98904010D01*
X183734250Y-98904014D01*
X183775185Y-98965277D01*
X183784517Y-99012193D01*
X183775185Y-99034723D01*
X183734250Y-99095985D01*
X183734248Y-99095989D01*
X183722500Y-99155055D01*
X183722500Y-99344944D01*
X183734248Y-99404010D01*
X183734250Y-99404015D01*
X183747636Y-99424047D01*
X183756969Y-99470963D01*
X183730394Y-99510737D01*
X183683478Y-99520070D01*
X183651476Y-99502965D01*
X183616445Y-99467934D01*
X183616439Y-99467929D01*
X183536062Y-99421522D01*
X183536059Y-99421521D01*
X183446414Y-99397501D01*
X183446409Y-99397500D01*
X183446408Y-99397500D01*
X183353592Y-99397500D01*
X183353591Y-99397500D01*
X183353585Y-99397501D01*
X183263940Y-99421521D01*
X183263937Y-99421522D01*
X183183560Y-99467929D01*
X183183554Y-99467934D01*
X183117934Y-99533554D01*
X183117929Y-99533560D01*
X183071522Y-99613937D01*
X183071521Y-99613940D01*
X183047501Y-99703585D01*
X183047500Y-99703593D01*
X168625500Y-99703593D01*
X168625500Y-97155107D01*
X183723000Y-97155107D01*
X183723000Y-97186500D01*
X184336500Y-97186500D01*
X184463500Y-97186500D01*
X185076999Y-97186500D01*
X185076999Y-97155109D01*
X185076998Y-97155107D01*
X185065279Y-97096185D01*
X185065277Y-97096180D01*
X185020634Y-97029366D01*
X185020633Y-97029365D01*
X184953817Y-96984721D01*
X184894892Y-96973000D01*
X184463500Y-96973000D01*
X184463500Y-97186500D01*
X184336500Y-97186500D01*
X184336500Y-96973000D01*
X183905109Y-96973000D01*
X183905107Y-96973001D01*
X183846185Y-96984720D01*
X183846180Y-96984722D01*
X183779366Y-97029365D01*
X183779365Y-97029366D01*
X183734721Y-97096182D01*
X183723000Y-97155107D01*
X168625500Y-97155107D01*
X168625500Y-96303593D01*
X240897500Y-96303593D01*
X240897500Y-96396406D01*
X240897501Y-96396414D01*
X240921521Y-96486059D01*
X240921522Y-96486062D01*
X240967929Y-96566439D01*
X240967934Y-96566445D01*
X241033554Y-96632065D01*
X241033560Y-96632070D01*
X241113937Y-96678477D01*
X241113940Y-96678478D01*
X241203592Y-96702500D01*
X241203593Y-96702500D01*
X241296407Y-96702500D01*
X241296408Y-96702500D01*
X241386060Y-96678478D01*
X241466440Y-96632070D01*
X241532070Y-96566440D01*
X241578478Y-96486060D01*
X241602500Y-96396408D01*
X241602500Y-96303592D01*
X241578478Y-96213940D01*
X241578477Y-96213937D01*
X241548186Y-96161473D01*
X241541941Y-96114046D01*
X241571061Y-96076096D01*
X241614506Y-96068923D01*
X241655107Y-96076999D01*
X241686499Y-96076998D01*
X241686500Y-96076998D01*
X241686500Y-94723000D01*
X241686499Y-94722999D01*
X241655110Y-94723000D01*
X241655106Y-94723001D01*
X241596185Y-94734720D01*
X241596180Y-94734722D01*
X241535172Y-94775486D01*
X241488256Y-94784818D01*
X241465727Y-94775486D01*
X241404014Y-94734250D01*
X241404010Y-94734248D01*
X241344944Y-94722500D01*
X241155056Y-94722500D01*
X241155055Y-94722500D01*
X241095989Y-94734248D01*
X241095988Y-94734249D01*
X241029006Y-94779006D01*
X240984249Y-94845988D01*
X240984248Y-94845989D01*
X240972500Y-94905055D01*
X240972500Y-95894944D01*
X240984248Y-95954011D01*
X240984249Y-95954014D01*
X241011966Y-95995492D01*
X241022500Y-96030216D01*
X241022500Y-96053101D01*
X241004194Y-96097295D01*
X240967934Y-96133554D01*
X240967929Y-96133560D01*
X240921522Y-96213937D01*
X240921521Y-96213940D01*
X240897501Y-96303585D01*
X240897500Y-96303593D01*
X168625500Y-96303593D01*
X168625500Y-94749997D01*
X182167500Y-94749997D01*
X182167500Y-94750000D01*
X182167500Y-96050000D01*
X182173807Y-96078990D01*
X182179474Y-96105042D01*
X182228365Y-96161466D01*
X182228366Y-96161467D01*
X182299997Y-96182499D01*
X182299999Y-96182500D01*
X182300000Y-96182500D01*
X184249999Y-96182500D01*
X184250000Y-96182500D01*
X184305042Y-96170526D01*
X184361466Y-96121635D01*
X184363695Y-96114046D01*
X184374837Y-96076096D01*
X184382500Y-96050000D01*
X184382500Y-95381999D01*
X237982801Y-95381999D01*
X237982802Y-95382000D01*
X240017198Y-95382000D01*
X240017198Y-95381999D01*
X239000000Y-94364802D01*
X237982801Y-95381999D01*
X184382500Y-95381999D01*
X184382500Y-93950000D01*
X184370526Y-93894958D01*
X184321635Y-93838534D01*
X184321634Y-93838533D01*
X184321633Y-93838532D01*
X184250002Y-93817500D01*
X184250000Y-93817500D01*
X182650000Y-93817500D01*
X182622479Y-93823487D01*
X182594957Y-93829474D01*
X182538533Y-93878365D01*
X182538532Y-93878366D01*
X182517500Y-93949997D01*
X182517500Y-94555000D01*
X182499194Y-94599194D01*
X182455000Y-94617500D01*
X182300000Y-94617500D01*
X182272479Y-94623487D01*
X182244957Y-94629474D01*
X182188533Y-94678365D01*
X182188532Y-94678366D01*
X182167500Y-94749997D01*
X168625500Y-94749997D01*
X168625500Y-93649997D01*
X237818000Y-93649997D01*
X237818000Y-95249998D01*
X237829929Y-95304835D01*
X237853341Y-95331854D01*
X237853342Y-95331855D01*
X237862056Y-95323141D01*
X238910197Y-94274999D01*
X239089802Y-94274999D01*
X239089802Y-94275000D01*
X240147715Y-95332913D01*
X240161044Y-95321365D01*
X240182000Y-95250000D01*
X240182000Y-93300001D01*
X240181999Y-93299998D01*
X248818000Y-93299998D01*
X248818000Y-95249998D01*
X248829929Y-95304835D01*
X248853341Y-95331854D01*
X248853342Y-95331855D01*
X248862056Y-95323141D01*
X249910196Y-94275000D01*
X250089802Y-94275000D01*
X251147715Y-95332913D01*
X251161044Y-95321365D01*
X251182000Y-95250000D01*
X251182000Y-93650001D01*
X251170070Y-93595165D01*
X251121363Y-93538953D01*
X251050002Y-93518000D01*
X250846802Y-93518000D01*
X250089802Y-94275000D01*
X249910196Y-94275000D01*
X249910197Y-94274999D01*
X248852283Y-93217085D01*
X248838954Y-93228635D01*
X248818000Y-93299998D01*
X240181999Y-93299998D01*
X240170070Y-93245164D01*
X240146657Y-93218144D01*
X239089802Y-94274999D01*
X238910197Y-94274999D01*
X238153198Y-93518000D01*
X238332801Y-93518000D01*
X238999999Y-94185198D01*
X240017198Y-93168000D01*
X248982801Y-93168000D01*
X250000000Y-94185198D01*
X250667198Y-93518000D01*
X250444500Y-93518000D01*
X250400306Y-93499694D01*
X250382000Y-93455500D01*
X250382000Y-93300001D01*
X250370070Y-93245165D01*
X250321363Y-93188953D01*
X250250002Y-93168000D01*
X248982801Y-93168000D01*
X240017198Y-93168000D01*
X238750001Y-93168000D01*
X238695165Y-93179929D01*
X238638953Y-93228636D01*
X238618000Y-93299997D01*
X238618000Y-93455500D01*
X238599694Y-93499694D01*
X238555500Y-93518000D01*
X238332801Y-93518000D01*
X238153198Y-93518000D01*
X237950001Y-93518000D01*
X237895165Y-93529929D01*
X237838953Y-93578636D01*
X237818000Y-93649997D01*
X168625500Y-93649997D01*
X168625500Y-90475036D01*
X168625500Y-90360687D01*
X168589132Y-90084446D01*
X168570482Y-90014844D01*
X168517020Y-89815319D01*
X168517019Y-89815314D01*
X168410394Y-89557898D01*
X168271081Y-89316602D01*
X168101465Y-89095553D01*
X167904447Y-88898535D01*
X167904443Y-88898532D01*
X167904441Y-88898530D01*
X167779019Y-88802291D01*
X167683398Y-88728919D01*
X167442102Y-88589606D01*
X167442099Y-88589605D01*
X167442096Y-88589603D01*
X167266861Y-88517019D01*
X167184686Y-88482981D01*
X167184682Y-88482980D01*
X167184680Y-88482979D01*
X167184681Y-88482979D01*
X166915558Y-88410868D01*
X166639317Y-88374500D01*
X166639313Y-88374500D01*
X166524964Y-88374500D01*
X156502044Y-88374500D01*
X156497956Y-88374366D01*
X156259416Y-88358730D01*
X156251311Y-88357663D01*
X156018861Y-88311427D01*
X156010964Y-88309311D01*
X155786542Y-88233129D01*
X155778989Y-88230001D01*
X155566421Y-88125175D01*
X155559341Y-88121087D01*
X155362282Y-87989416D01*
X155355796Y-87984439D01*
X155309498Y-87943837D01*
X155264582Y-87904447D01*
X155260588Y-87900944D01*
X172774500Y-87900944D01*
X172774500Y-88059055D01*
X172774501Y-88059063D01*
X172815421Y-88211780D01*
X172815422Y-88211783D01*
X172815423Y-88211784D01*
X172894480Y-88348716D01*
X173006284Y-88460520D01*
X173143216Y-88539577D01*
X173143219Y-88539578D01*
X173236681Y-88564621D01*
X173295943Y-88580500D01*
X173295944Y-88580500D01*
X173454056Y-88580500D01*
X173454057Y-88580500D01*
X173606784Y-88539577D01*
X173743716Y-88460520D01*
X173855520Y-88348716D01*
X173934577Y-88211784D01*
X173975500Y-88059057D01*
X173975500Y-87900944D01*
X241024500Y-87900944D01*
X241024500Y-88059055D01*
X241024501Y-88059063D01*
X241065421Y-88211780D01*
X241065422Y-88211783D01*
X241065423Y-88211784D01*
X241144480Y-88348716D01*
X241256284Y-88460520D01*
X241393216Y-88539577D01*
X241393219Y-88539578D01*
X241486681Y-88564621D01*
X241545943Y-88580500D01*
X241545944Y-88580500D01*
X241704056Y-88580500D01*
X241704057Y-88580500D01*
X241856784Y-88539577D01*
X241993716Y-88460520D01*
X242105520Y-88348716D01*
X242184577Y-88211784D01*
X242225500Y-88059057D01*
X242225500Y-87900943D01*
X242225499Y-87900942D01*
X242225499Y-87900935D01*
X242184578Y-87748219D01*
X242184577Y-87748216D01*
X242105520Y-87611284D01*
X241993716Y-87499480D01*
X241897464Y-87443909D01*
X241856783Y-87420422D01*
X241856780Y-87420421D01*
X241704063Y-87379501D01*
X241704058Y-87379500D01*
X241704057Y-87379500D01*
X241545943Y-87379500D01*
X241545942Y-87379500D01*
X241545936Y-87379501D01*
X241393219Y-87420421D01*
X241393216Y-87420422D01*
X241296964Y-87475993D01*
X241256284Y-87499480D01*
X241256283Y-87499481D01*
X241256279Y-87499484D01*
X241144484Y-87611279D01*
X241144481Y-87611283D01*
X241065422Y-87748216D01*
X241065421Y-87748219D01*
X241024501Y-87900935D01*
X241024500Y-87900944D01*
X173975500Y-87900944D01*
X173975500Y-87900943D01*
X173975499Y-87900942D01*
X173975499Y-87900935D01*
X173934578Y-87748219D01*
X173934577Y-87748216D01*
X173855520Y-87611284D01*
X173743716Y-87499480D01*
X173647464Y-87443909D01*
X173606783Y-87420422D01*
X173606780Y-87420421D01*
X173454063Y-87379501D01*
X173454058Y-87379500D01*
X173454057Y-87379500D01*
X173295943Y-87379500D01*
X173295942Y-87379500D01*
X173295936Y-87379501D01*
X173143219Y-87420421D01*
X173143216Y-87420422D01*
X173046964Y-87475993D01*
X173006284Y-87499480D01*
X173006283Y-87499481D01*
X173006279Y-87499484D01*
X172894484Y-87611279D01*
X172894481Y-87611283D01*
X172815422Y-87748216D01*
X172815421Y-87748219D01*
X172774501Y-87900935D01*
X172774500Y-87900944D01*
X155260588Y-87900944D01*
X155177600Y-87828166D01*
X155171833Y-87822399D01*
X155015559Y-87644202D01*
X155010583Y-87637717D01*
X154918218Y-87499484D01*
X154878910Y-87440656D01*
X154874824Y-87433578D01*
X154848156Y-87379501D01*
X154769998Y-87221010D01*
X154766870Y-87213457D01*
X154757103Y-87184686D01*
X154690685Y-86989024D01*
X154688575Y-86981149D01*
X154642335Y-86748687D01*
X154641269Y-86740583D01*
X154625634Y-86502044D01*
X154625500Y-86497956D01*
X154625500Y-83341214D01*
X156672500Y-83341214D01*
X156672500Y-83658785D01*
X156708056Y-83974358D01*
X156708059Y-83974375D01*
X156778723Y-84283979D01*
X156883615Y-84583741D01*
X157021407Y-84869870D01*
X157190364Y-85138765D01*
X157190376Y-85138782D01*
X157388364Y-85387051D01*
X157388369Y-85387057D01*
X157388375Y-85387064D01*
X157612936Y-85611625D01*
X157612943Y-85611631D01*
X157612948Y-85611635D01*
X157861217Y-85809623D01*
X157861223Y-85809627D01*
X157861229Y-85809632D01*
X158130130Y-85978593D01*
X158416258Y-86116385D01*
X158716014Y-86221275D01*
X159025630Y-86291942D01*
X159341211Y-86327500D01*
X159341214Y-86327500D01*
X159658786Y-86327500D01*
X159658789Y-86327500D01*
X159974370Y-86291942D01*
X160283986Y-86221275D01*
X160583742Y-86116385D01*
X160869870Y-85978593D01*
X161138771Y-85809632D01*
X161387064Y-85611625D01*
X161611625Y-85387064D01*
X161809632Y-85138771D01*
X161978593Y-84869870D01*
X162116385Y-84583742D01*
X162221275Y-84283986D01*
X162291942Y-83974370D01*
X162327500Y-83658789D01*
X162327500Y-83341211D01*
X162291942Y-83025630D01*
X162221275Y-82716014D01*
X162116385Y-82416258D01*
X161978593Y-82130130D01*
X161809632Y-81861229D01*
X161809627Y-81861223D01*
X161809623Y-81861217D01*
X161611635Y-81612948D01*
X161611631Y-81612943D01*
X161611625Y-81612936D01*
X161387064Y-81388375D01*
X161387057Y-81388369D01*
X161387051Y-81388364D01*
X161138782Y-81190376D01*
X161138765Y-81190364D01*
X160869870Y-81021407D01*
X160583742Y-80883615D01*
X160283986Y-80778725D01*
X160283982Y-80778724D01*
X160283979Y-80778723D01*
X159974375Y-80708059D01*
X159974372Y-80708058D01*
X159974370Y-80708058D01*
X159974368Y-80708057D01*
X159974358Y-80708056D01*
X159766979Y-80684690D01*
X159658789Y-80672500D01*
X159341211Y-80672500D01*
X159244116Y-80683440D01*
X159025641Y-80708056D01*
X159025624Y-80708059D01*
X158716020Y-80778723D01*
X158416258Y-80883615D01*
X158130129Y-81021407D01*
X157861234Y-81190364D01*
X157861217Y-81190376D01*
X157612948Y-81388364D01*
X157612928Y-81388382D01*
X157388382Y-81612928D01*
X157388364Y-81612948D01*
X157190376Y-81861217D01*
X157190364Y-81861234D01*
X157021407Y-82130129D01*
X156883615Y-82416258D01*
X156778723Y-82716020D01*
X156708059Y-83025624D01*
X156708056Y-83025641D01*
X156672500Y-83341214D01*
X154625500Y-83341214D01*
X154625500Y-80502043D01*
X154625634Y-80497955D01*
X154641269Y-80259416D01*
X154642336Y-80251311D01*
X154675527Y-80084446D01*
X154688575Y-80018846D01*
X154690683Y-80010979D01*
X154766871Y-79786538D01*
X154769998Y-79778989D01*
X154874828Y-79566413D01*
X154878906Y-79559350D01*
X155010589Y-79362273D01*
X155015553Y-79355804D01*
X155171840Y-79177592D01*
X155177592Y-79171840D01*
X155355804Y-79015553D01*
X155362273Y-79010589D01*
X155559350Y-78878906D01*
X155566413Y-78874828D01*
X155778993Y-78769996D01*
X155786538Y-78766871D01*
X156010979Y-78690683D01*
X156018846Y-78688575D01*
X156251314Y-78642335D01*
X156259414Y-78641269D01*
X156497956Y-78625634D01*
X156502044Y-78625500D01*
X156528644Y-78625500D01*
X221971356Y-78625500D01*
X221996930Y-78625500D01*
X222003056Y-78625801D01*
G37*
%TD.AperFunction*%
%TD*%
M02*
