M48
; DRILL file {KiCad 9.0.6+1} date 2026-01-07T14:05:20+0000
; FORMAT={-:-/ absolute / metric / decimal}
; #@! TF.CreationDate,2026-01-07T14:05:20+00:00
; #@! TF.GenerationSoftware,Kicad,Pcbnew,9.0.6+1
; #@! TF.FileFunction,Plated,1,2,PTH
FMAT,2
METRIC
; #@! TA.AperFunction,Plated,PTH,ViaDrill
T1C0.250
; #@! TA.AperFunction,Plated,PTH,ComponentDrill
T2C0.500
; #@! TA.AperFunction,Plated,PTH,ComponentDrill
T3C2.700
%
G90
G05
T1
X183.4Y-99.75
X191.525Y-139.1
X198.5Y-123.5
X213.4Y-116.5
X214.4Y-117.5
X215.5Y-118.5
X216.5Y-119.5
X217.4Y-120.5
X218.6Y-121.5
X219.631Y-122.331
X221.5Y-99.9
X222.7Y-121.8
X223.15Y-119.45
X223.387Y-127.712
X223.8Y-99.9
X223.887Y-129.2
X224.387Y-128.4
X225.387Y-120.95
X225.387Y-128.0
X225.887Y-126.9
X226.1Y-103.0
X227.75Y-124.85
X228.2Y-124.35
X228.85Y-123.85
X229.8Y-114.1
X230.5Y-119.95
X233.0Y-122.85
X233.5Y-123.35
X234.093Y-122.35
X241.25Y-96.35
X244.25Y-102.55
X244.75Y-103.95
X245.25Y-105.0
X245.75Y-106.15
X246.25Y-107.1
X246.75Y-108.1
X247.25Y-108.9
X247.75Y-109.8
T2
X157.475Y-83.5
X157.475Y-149.5
X158.068Y-82.068
X158.068Y-84.932
X158.068Y-148.068
X158.068Y-150.932
X159.5Y-81.475
X159.5Y-85.525
X159.5Y-147.475
X159.5Y-151.525
X160.932Y-82.068
X160.932Y-84.932
X160.932Y-148.068
X160.932Y-150.932
X161.525Y-83.5
X161.525Y-149.5
X253.475Y-83.5
X253.475Y-149.5
X254.068Y-82.068
X254.068Y-84.932
X254.068Y-148.068
X254.068Y-150.932
X255.5Y-81.475
X255.5Y-85.525
X255.5Y-147.475
X255.5Y-151.525
X256.932Y-82.068
X256.932Y-84.932
X256.932Y-148.068
X256.932Y-150.932
X257.525Y-83.5
X257.525Y-149.5
T3
X159.5Y-83.5
X159.5Y-149.5
X255.5Y-83.5
X255.5Y-149.5
M30
