M48
; DRILL file {KiCad 9.0.6+1} date 2026-01-17T13:13:56+0000
; FORMAT={-:-/ absolute / metric / decimal}
; #@! TF.CreationDate,2026-01-17T13:13:56+00:00
; #@! TF.GenerationSoftware,Kicad,Pcbnew,9.0.6+1
; #@! TF.FileFunction,Plated,1,2,PTH
FMAT,2
METRIC
; #@! TA.AperFunction,Plated,PTH,ViaDrill
T1C0.250
; #@! TA.AperFunction,Plated,PTH,ComponentDrill
T2C0.500
; #@! TA.AperFunction,Plated,PTH,ComponentDrill
T3C2.700
%
G90
G05
T1
X191.525Y-139.1
X201.0Y-95.65
X215.2Y-124.2
X219.5Y-108.25
X219.5Y-109.25
X219.5Y-110.25
X219.9Y-108.75
X219.9Y-109.75
X219.9Y-110.75
X219.9Y-112.25
X222.5Y-99.9
X222.7Y-121.8
X223.387Y-127.712
X223.887Y-129.2
X224.387Y-118.6
X224.387Y-128.4
X225.387Y-120.95
X225.387Y-128.0
X225.6Y-99.9
X225.887Y-126.9
X226.1Y-103.0
X227.75Y-124.85
X228.2Y-124.35
X228.85Y-123.85
X229.8Y-114.1
X230.5Y-119.95
X240.25Y-122.85
X241.25Y-96.35
X241.85Y-123.35
X244.25Y-102.55
X244.75Y-103.95
X245.25Y-105.0
X245.65Y-122.35
X245.75Y-106.15
X246.2Y-112.7
X246.25Y-107.1
X246.75Y-108.1
X247.25Y-109.212
T2
X157.475Y-79.5
X157.475Y-149.5
X158.068Y-78.068
X158.068Y-80.932
X158.068Y-148.068
X158.068Y-150.932
X159.5Y-77.475
X159.5Y-81.525
X159.5Y-147.475
X159.5Y-151.525
X160.932Y-78.068
X160.932Y-80.932
X160.932Y-148.068
X160.932Y-150.932
X161.525Y-79.5
X161.525Y-149.5
X253.475Y-79.5
X253.475Y-149.5
X254.068Y-78.068
X254.068Y-80.932
X254.068Y-148.068
X254.068Y-150.932
X255.5Y-77.475
X255.5Y-81.525
X255.5Y-147.475
X255.5Y-151.525
X256.932Y-78.068
X256.932Y-80.932
X256.932Y-148.068
X256.932Y-150.932
X257.525Y-79.5
X257.525Y-149.5
T3
X159.5Y-79.5
X159.5Y-149.5
X255.5Y-79.5
X255.5Y-149.5
M30
