%TF.GenerationSoftware,KiCad,Pcbnew,9.0.6+1*%
%TF.CreationDate,2026-01-17T13:13:54+00:00*%
%TF.ProjectId,Displayboard,44697370-6c61-4796-926f-6172642e6b69,1.0.0*%
%TF.SameCoordinates,Original*%
%TF.FileFunction,Soldermask,Bot*%
%TF.FilePolarity,Negative*%
%FSLAX46Y46*%
G04 Gerber Fmt 4.6, Leading zero omitted, Abs format (unit mm)*
G04 Created by KiCad (PCBNEW 9.0.6+1) date 2026-01-17 13:13:54*
%MOMM*%
%LPD*%
G01*
G04 APERTURE LIST*
G04 Aperture macros list*
%AMRoundRect*
0 Rectangle with rounded corners*
0 $1 Rounding radius*
0 $2 $3 $4 $5 $6 $7 $8 $9 X,Y pos of 4 corners*
0 Add a 4 corners polygon primitive as box body*
4,1,4,$2,$3,$4,$5,$6,$7,$8,$9,$2,$3,0*
0 Add four circle primitives for the rounded corners*
1,1,$1+$1,$2,$3*
1,1,$1+$1,$4,$5*
1,1,$1+$1,$6,$7*
1,1,$1+$1,$8,$9*
0 Add four rect primitives between the rounded corners*
20,1,$1+$1,$2,$3,$4,$5,0*
20,1,$1+$1,$4,$5,$6,$7,0*
20,1,$1+$1,$6,$7,$8,$9,0*
20,1,$1+$1,$8,$9,$2,$3,0*%
%AMFreePoly0*
4,1,7,1.050000,-0.975000,-1.050000,-0.975000,-1.050000,0.625000,-0.250000,0.625000,-0.250000,0.975000,1.050000,0.975000,1.050000,-0.975000,1.050000,-0.975000,$1*%
%AMFreePoly1*
4,1,7,0.250000,0.625000,1.050000,0.625000,1.050000,-0.975000,-1.050000,-0.975000,-1.050000,0.975000,0.250000,0.975000,0.250000,0.625000,0.250000,0.625000,$1*%
G04 Aperture macros list end*
%ADD10C,0.950000*%
%ADD11C,0.800000*%
%ADD12C,5.400000*%
%ADD13C,0.750000*%
%ADD14C,1.050000*%
%ADD15R,1.000000X0.300000*%
%ADD16R,1.300000X2.000000*%
%ADD17RoundRect,0.250000X-0.262500X-0.450000X0.262500X-0.450000X0.262500X0.450000X-0.262500X0.450000X0*%
%ADD18RoundRect,0.075000X-0.075000X-0.475000X0.075000X-0.475000X0.075000X0.475000X-0.075000X0.475000X0*%
%ADD19FreePoly0,0.000000*%
%ADD20FreePoly1,0.000000*%
%ADD21RoundRect,0.250000X-0.450000X0.262500X-0.450000X-0.262500X0.450000X-0.262500X0.450000X0.262500X0*%
%ADD22RoundRect,0.075000X0.475000X-0.075000X0.475000X0.075000X-0.475000X0.075000X-0.475000X-0.075000X0*%
%ADD23FreePoly0,90.000000*%
%ADD24FreePoly1,90.000000*%
%ADD25RoundRect,0.150000X-0.587500X-0.150000X0.587500X-0.150000X0.587500X0.150000X-0.587500X0.150000X0*%
%ADD26RoundRect,0.250000X0.475000X-0.250000X0.475000X0.250000X-0.475000X0.250000X-0.475000X-0.250000X0*%
%ADD27RoundRect,0.250000X-0.250000X-0.475000X0.250000X-0.475000X0.250000X0.475000X-0.250000X0.475000X0*%
%ADD28RoundRect,0.062500X0.375000X0.062500X-0.375000X0.062500X-0.375000X-0.062500X0.375000X-0.062500X0*%
%ADD29RoundRect,0.062500X0.062500X0.375000X-0.062500X0.375000X-0.062500X-0.375000X0.062500X-0.375000X0*%
%ADD30R,2.100000X2.100000*%
%ADD31RoundRect,0.250000X0.262500X0.450000X-0.262500X0.450000X-0.262500X-0.450000X0.262500X-0.450000X0*%
G04 APERTURE END LIST*
D10*
%TO.C,REF\u002A\u002A*%
X173375000Y-87980000D03*
X173375000Y-137020000D03*
X241625000Y-87980000D03*
X241625000Y-137020000D03*
%TD*%
D11*
%TO.C,REF\u002A\u002A*%
X253475000Y-149500000D03*
X254068109Y-148068109D03*
X254068109Y-150931891D03*
X255500000Y-147475000D03*
D12*
X255500000Y-149500000D03*
D11*
X255500000Y-151525000D03*
X256931891Y-148068109D03*
X256931891Y-150931891D03*
X257525000Y-149500000D03*
%TD*%
%TO.C,REF\u002A\u002A*%
X253475000Y-79500000D03*
X254068109Y-78068109D03*
X254068109Y-80931891D03*
X255500000Y-77475000D03*
D12*
X255500000Y-79500000D03*
D11*
X255500000Y-81525000D03*
X256931891Y-78068109D03*
X256931891Y-80931891D03*
X257525000Y-79500000D03*
%TD*%
D13*
%TO.C,S401*%
X255843503Y-134656497D03*
D14*
X253156497Y-137343503D03*
%TD*%
D11*
%TO.C,REF\u002A\u002A*%
X157475000Y-79500000D03*
X158068109Y-78068109D03*
X158068109Y-80931891D03*
X159500000Y-77475000D03*
D12*
X159500000Y-79500000D03*
D11*
X159500000Y-81525000D03*
X160931891Y-78068109D03*
X160931891Y-80931891D03*
X161525000Y-79500000D03*
%TD*%
%TO.C,REF\u002A\u002A*%
X157475000Y-149500000D03*
X158068109Y-148068109D03*
X158068109Y-150931891D03*
X159500000Y-147475000D03*
D12*
X159500000Y-149500000D03*
D11*
X159500000Y-151525000D03*
X160931891Y-148068109D03*
X160931891Y-150931891D03*
X161525000Y-149500000D03*
%TD*%
D15*
%TO.C,X502*%
X221125000Y-116250000D03*
X221125000Y-115750000D03*
X221125000Y-115250000D03*
X221125000Y-114750000D03*
X221125000Y-114250000D03*
X221125000Y-113750000D03*
X221125000Y-113250000D03*
X221125000Y-112750000D03*
X221125000Y-112250000D03*
X221125000Y-111750000D03*
X221125000Y-111250000D03*
X221125000Y-110750000D03*
X221125000Y-110250000D03*
X221125000Y-109750000D03*
X221125000Y-109250000D03*
X221125000Y-108750000D03*
X221125000Y-108250000D03*
X221125000Y-107750000D03*
D16*
X218425000Y-118550000D03*
X218425000Y-105450000D03*
%TD*%
D17*
%TO.C,R401*%
X227587500Y-119949999D03*
X229412500Y-119949999D03*
%TD*%
D18*
%TO.C,X503*%
X241250000Y-95400000D03*
X241750000Y-95400000D03*
X242250000Y-95400000D03*
X242750000Y-95400000D03*
X243250000Y-95400000D03*
X243750000Y-95400000D03*
X244250000Y-95400000D03*
X244750000Y-95400000D03*
X245250000Y-95400000D03*
X245750000Y-95400000D03*
X246250000Y-95400000D03*
X246750000Y-95400000D03*
X247250000Y-95400000D03*
X247750000Y-95400000D03*
D19*
X239000000Y-94275000D03*
D20*
X250000000Y-94275000D03*
%TD*%
D17*
%TO.C,R402*%
X227187500Y-114100000D03*
X229012500Y-114100000D03*
%TD*%
D21*
%TO.C,R503*%
X210312501Y-120575000D03*
X210312501Y-122400000D03*
%TD*%
D22*
%TO.C,X501*%
X201900000Y-95650000D03*
X201900000Y-95150000D03*
X201900000Y-94650000D03*
X201900000Y-94150000D03*
X201900000Y-93650000D03*
X201900000Y-93150000D03*
D23*
X200775000Y-97900000D03*
D24*
X200775000Y-90900000D03*
%TD*%
D25*
%TO.C,Q501*%
X212437498Y-122437500D03*
X212437498Y-120537500D03*
X214312499Y-121487500D03*
%TD*%
D17*
%TO.C,R502*%
X216500000Y-121487500D03*
X218325000Y-121487500D03*
%TD*%
D26*
%TO.C,C402*%
X224387500Y-119449999D03*
X224387500Y-117550001D03*
%TD*%
D27*
%TO.C,C401*%
X227550001Y-117949999D03*
X229449999Y-117949999D03*
%TD*%
D28*
%TO.C,IC401*%
X226575000Y-122350000D03*
X226574999Y-122850000D03*
X226575000Y-123350000D03*
X226575000Y-123850000D03*
X226574999Y-124350000D03*
X226575000Y-124850000D03*
D29*
X225887500Y-125537500D03*
X225387500Y-125537499D03*
X224887500Y-125537500D03*
X224387500Y-125537500D03*
X223887500Y-125537499D03*
X223387500Y-125537500D03*
D28*
X222700000Y-124850000D03*
X222700001Y-124350000D03*
X222700000Y-123850000D03*
X222700000Y-123350000D03*
X222700001Y-122850000D03*
X222700000Y-122350000D03*
D29*
X223387500Y-121662500D03*
X223887500Y-121662501D03*
X224387500Y-121662500D03*
X224887500Y-121662500D03*
X225387500Y-121662501D03*
X225887500Y-121662500D03*
D30*
X224637500Y-123600000D03*
%TD*%
D31*
%TO.C,R504*%
X212912500Y-124200000D03*
X211087500Y-124200000D03*
%TD*%
M02*
