%TF.GenerationSoftware,KiCad,Pcbnew,9.0.6+1*%
%TF.CreationDate,2026-01-17T13:13:53+00:00*%
%TF.ProjectId,Displayboard,44697370-6c61-4796-926f-6172642e6b69,1.0.0*%
%TF.SameCoordinates,Original*%
%TF.FileFunction,Copper,L2,Bot*%
%TF.FilePolarity,Positive*%
%FSLAX46Y46*%
G04 Gerber Fmt 4.6, Leading zero omitted, Abs format (unit mm)*
G04 Created by KiCad (PCBNEW 9.0.6+1) date 2026-01-17 13:13:53*
%MOMM*%
%LPD*%
G01*
G04 APERTURE LIST*
G04 Aperture macros list*
%AMRoundRect*
0 Rectangle with rounded corners*
0 $1 Rounding radius*
0 $2 $3 $4 $5 $6 $7 $8 $9 X,Y pos of 4 corners*
0 Add a 4 corners polygon primitive as box body*
4,1,4,$2,$3,$4,$5,$6,$7,$8,$9,$2,$3,0*
0 Add four circle primitives for the rounded corners*
1,1,$1+$1,$2,$3*
1,1,$1+$1,$4,$5*
1,1,$1+$1,$6,$7*
1,1,$1+$1,$8,$9*
0 Add four rect primitives between the rounded corners*
20,1,$1+$1,$2,$3,$4,$5,0*
20,1,$1+$1,$4,$5,$6,$7,0*
20,1,$1+$1,$6,$7,$8,$9,0*
20,1,$1+$1,$8,$9,$2,$3,0*%
%AMFreePoly0*
4,1,7,1.050000,-0.975000,-1.050000,-0.975000,-1.050000,0.625000,-0.250000,0.625000,-0.250000,0.975000,1.050000,0.975000,1.050000,-0.975000,1.050000,-0.975000,$1*%
%AMFreePoly1*
4,1,7,0.250000,0.625000,1.050000,0.625000,1.050000,-0.975000,-1.050000,-0.975000,-1.050000,0.975000,0.250000,0.975000,0.250000,0.625000,0.250000,0.625000,$1*%
G04 Aperture macros list end*
%TA.AperFunction,ComponentPad*%
%ADD10C,0.800000*%
%TD*%
%TA.AperFunction,ComponentPad*%
%ADD11C,5.400000*%
%TD*%
%TA.AperFunction,SMDPad,CuDef*%
%ADD12R,1.000000X0.300000*%
%TD*%
%TA.AperFunction,SMDPad,CuDef*%
%ADD13R,1.300000X2.000000*%
%TD*%
%TA.AperFunction,SMDPad,CuDef*%
%ADD14RoundRect,0.250000X-0.262500X-0.450000X0.262500X-0.450000X0.262500X0.450000X-0.262500X0.450000X0*%
%TD*%
%TA.AperFunction,SMDPad,CuDef*%
%ADD15RoundRect,0.075000X-0.075000X-0.475000X0.075000X-0.475000X0.075000X0.475000X-0.075000X0.475000X0*%
%TD*%
%TA.AperFunction,SMDPad,CuDef*%
%ADD16FreePoly0,0.000000*%
%TD*%
%TA.AperFunction,SMDPad,CuDef*%
%ADD17FreePoly1,0.000000*%
%TD*%
%TA.AperFunction,SMDPad,CuDef*%
%ADD18RoundRect,0.250000X-0.450000X0.262500X-0.450000X-0.262500X0.450000X-0.262500X0.450000X0.262500X0*%
%TD*%
%TA.AperFunction,SMDPad,CuDef*%
%ADD19RoundRect,0.075000X0.475000X-0.075000X0.475000X0.075000X-0.475000X0.075000X-0.475000X-0.075000X0*%
%TD*%
%TA.AperFunction,SMDPad,CuDef*%
%ADD20FreePoly0,90.000000*%
%TD*%
%TA.AperFunction,SMDPad,CuDef*%
%ADD21FreePoly1,90.000000*%
%TD*%
%TA.AperFunction,SMDPad,CuDef*%
%ADD22RoundRect,0.150000X-0.587500X-0.150000X0.587500X-0.150000X0.587500X0.150000X-0.587500X0.150000X0*%
%TD*%
%TA.AperFunction,SMDPad,CuDef*%
%ADD23RoundRect,0.250000X0.475000X-0.250000X0.475000X0.250000X-0.475000X0.250000X-0.475000X-0.250000X0*%
%TD*%
%TA.AperFunction,SMDPad,CuDef*%
%ADD24RoundRect,0.250000X-0.250000X-0.475000X0.250000X-0.475000X0.250000X0.475000X-0.250000X0.475000X0*%
%TD*%
%TA.AperFunction,SMDPad,CuDef*%
%ADD25RoundRect,0.062500X0.375000X0.062500X-0.375000X0.062500X-0.375000X-0.062500X0.375000X-0.062500X0*%
%TD*%
%TA.AperFunction,SMDPad,CuDef*%
%ADD26RoundRect,0.062500X0.062500X0.375000X-0.062500X0.375000X-0.062500X-0.375000X0.062500X-0.375000X0*%
%TD*%
%TA.AperFunction,HeatsinkPad*%
%ADD27R,2.100000X2.100000*%
%TD*%
%TA.AperFunction,SMDPad,CuDef*%
%ADD28RoundRect,0.250000X0.262500X0.450000X-0.262500X0.450000X-0.262500X-0.450000X0.262500X-0.450000X0*%
%TD*%
%TA.AperFunction,ViaPad*%
%ADD29C,0.450000*%
%TD*%
%TA.AperFunction,Conductor*%
%ADD30C,0.200000*%
%TD*%
G04 APERTURE END LIST*
D10*
%TO.P,REF\u002A\u002A,1*%
%TO.N,N/C*%
X253475000Y-149500000D03*
X254068109Y-148068109D03*
X254068109Y-150931891D03*
X255500000Y-147475000D03*
D11*
X255500000Y-149500000D03*
D10*
X255500000Y-151525000D03*
X256931891Y-148068109D03*
X256931891Y-150931891D03*
X257525000Y-149500000D03*
%TD*%
%TO.P,REF\u002A\u002A,1*%
%TO.N,N/C*%
X253475000Y-79500000D03*
X254068109Y-78068109D03*
X254068109Y-80931891D03*
X255500000Y-77475000D03*
D11*
X255500000Y-79500000D03*
D10*
X255500000Y-81525000D03*
X256931891Y-78068109D03*
X256931891Y-80931891D03*
X257525000Y-79500000D03*
%TD*%
%TO.P,REF\u002A\u002A,1*%
%TO.N,N/C*%
X157475000Y-79500000D03*
X158068109Y-78068109D03*
X158068109Y-80931891D03*
X159500000Y-77475000D03*
D11*
X159500000Y-79500000D03*
D10*
X159500000Y-81525000D03*
X160931891Y-78068109D03*
X160931891Y-80931891D03*
X161525000Y-79500000D03*
%TD*%
%TO.P,REF\u002A\u002A,1*%
%TO.N,N/C*%
X157475000Y-149500000D03*
X158068109Y-148068109D03*
X158068109Y-150931891D03*
X159500000Y-147475000D03*
D11*
X159500000Y-149500000D03*
D10*
X159500000Y-151525000D03*
X160931891Y-148068109D03*
X160931891Y-150931891D03*
X161525000Y-149500000D03*
%TD*%
D12*
%TO.P,X502,1,Pin_1*%
%TO.N,unconnected-(X502-Pin_1-Pad1)*%
X221125000Y-116250000D03*
%TO.P,X502,2,Pin_2*%
%TO.N,unconnected-(X502-Pin_2-Pad2)*%
X221125000Y-115750000D03*
%TO.P,X502,3,Pin_3*%
%TO.N,unconnected-(X502-Pin_3-Pad3)*%
X221125000Y-115250000D03*
%TO.P,X502,4,Pin_4*%
%TO.N,unconnected-(X502-Pin_4-Pad4)*%
X221125000Y-114750000D03*
%TO.P,X502,5,Pin_5*%
%TO.N,Net-(X502-Pin_5)*%
X221125000Y-114250000D03*
%TO.P,X502,6,Pin_6*%
X221125000Y-113750000D03*
%TO.P,X502,7,Pin_7*%
X221125000Y-113250000D03*
%TO.P,X502,8,Pin_8*%
X221125000Y-112750000D03*
%TO.P,X502,9,Pin_9*%
%TO.N,+3V3*%
X221125000Y-112250000D03*
%TO.P,X502,10,Pin_10*%
X221125000Y-111750000D03*
%TO.P,X502,11,Pin_11*%
%TO.N,GND*%
X221125000Y-111250000D03*
%TO.P,X502,12,Pin_12*%
%TO.N,Net-(X502-Pin_12)*%
X221125000Y-110750000D03*
%TO.P,X502,13,Pin_13*%
%TO.N,/Project Architecture/Connectors/SPI-MOSI*%
X221125000Y-110250000D03*
%TO.P,X502,14,Pin_14*%
%TO.N,/Project Architecture/Connectors/~{Display-CS}*%
X221125000Y-109750000D03*
%TO.P,X502,15,Pin_15*%
%TO.N,/Project Architecture/Connectors/Display-DC*%
X221125000Y-109250000D03*
%TO.P,X502,16,Pin_16*%
%TO.N,/Project Architecture/Connectors/SPI-SCLK*%
X221125000Y-108750000D03*
%TO.P,X502,17,Pin_17*%
%TO.N,/Project Architecture/Connectors/~{Display-Reset}*%
X221125000Y-108250000D03*
%TO.P,X502,18,Pin_18*%
%TO.N,GND*%
X221125000Y-107750000D03*
D13*
%TO.P,X502,MP,MountPin*%
X218425000Y-118550000D03*
X218425000Y-105450000D03*
%TD*%
D14*
%TO.P,R401,1*%
%TO.N,Net-(IC401-~{RESET})*%
X227587500Y-119949999D03*
%TO.P,R401,2*%
%TO.N,+3V3*%
X229412500Y-119949999D03*
%TD*%
D15*
%TO.P,X503,1,Pin_1*%
%TO.N,+3V3*%
X241250000Y-95400000D03*
%TO.P,X503,2,Pin_2*%
%TO.N,GND*%
X241750000Y-95400000D03*
%TO.P,X503,3,Pin_3*%
%TO.N,/Project Architecture/Connectors/~{Touch-Reset}*%
X242250000Y-95400000D03*
%TO.P,X503,4,Pin_4*%
%TO.N,/Project Architecture/Connectors/~{Touch-IRQ}*%
X242750000Y-95400000D03*
%TO.P,X503,5,Pin_5*%
%TO.N,/Project Architecture/Connectors/I2C-SDA*%
X243250000Y-95400000D03*
%TO.P,X503,6,Pin_6*%
%TO.N,/Project Architecture/Connectors/I2C-SCL*%
X243750000Y-95400000D03*
%TO.P,X503,7,Pin_7*%
%TO.N,/Project Architecture/Connectors/~{Expander-Int}*%
X244250000Y-95400000D03*
%TO.P,X503,8,Pin_8*%
%TO.N,/Project Architecture/Connectors/~{Display-Reset}*%
X244750000Y-95400000D03*
%TO.P,X503,9,Pin_9*%
%TO.N,/Project Architecture/Connectors/SPI-SCLK*%
X245250000Y-95400000D03*
%TO.P,X503,10,Pin_10*%
%TO.N,/Project Architecture/Connectors/Display-DC*%
X245750000Y-95400000D03*
%TO.P,X503,11,Pin_11*%
%TO.N,/Project Architecture/Connectors/~{Display-CS}*%
X246250000Y-95400000D03*
%TO.P,X503,12,Pin_12*%
%TO.N,/Project Architecture/Connectors/SPI-MOSI*%
X246750000Y-95400000D03*
%TO.P,X503,13,Pin_13*%
%TO.N,/Project Architecture/Connectors/SPI-MISO*%
X247250000Y-95400000D03*
%TO.P,X503,14,Pin_14*%
%TO.N,/Project Architecture/Connectors/Display-Backlight*%
X247750000Y-95400000D03*
D16*
%TO.P,X503,MP,MountPin*%
%TO.N,GND*%
X239000000Y-94275000D03*
D17*
X250000000Y-94275000D03*
%TD*%
D14*
%TO.P,R402,1*%
%TO.N,/Project Architecture/Connectors/~{Expander-Int}*%
X227187500Y-114100000D03*
%TO.P,R402,2*%
%TO.N,+3V3*%
X229012500Y-114100000D03*
%TD*%
D18*
%TO.P,R503,1*%
%TO.N,GND*%
X210312501Y-120575000D03*
%TO.P,R503,2*%
%TO.N,Net-(Q501-B)*%
X210312501Y-122400000D03*
%TD*%
D19*
%TO.P,X501,1,Pin_1*%
%TO.N,+3V3*%
X201900000Y-95650000D03*
%TO.P,X501,2,Pin_2*%
%TO.N,/Project Architecture/Connectors/I2C-SCL*%
X201900000Y-95150000D03*
%TO.P,X501,3,Pin_3*%
%TO.N,/Project Architecture/Connectors/I2C-SDA*%
X201900000Y-94650000D03*
%TO.P,X501,4,Pin_4*%
%TO.N,/Project Architecture/Connectors/~{Touch-IRQ}*%
X201900000Y-94150000D03*
%TO.P,X501,5,Pin_5*%
%TO.N,/Project Architecture/Connectors/~{Touch-Reset}*%
X201900000Y-93650000D03*
%TO.P,X501,6,Pin_6*%
%TO.N,GND*%
X201900000Y-93150000D03*
D20*
%TO.P,X501,MP,MountPin*%
X200775000Y-97900000D03*
D21*
X200775000Y-90900000D03*
%TD*%
D22*
%TO.P,Q501,1,B*%
%TO.N,Net-(Q501-B)*%
X212437498Y-122437500D03*
%TO.P,Q501,2,E*%
%TO.N,GND*%
X212437498Y-120537500D03*
%TO.P,Q501,3,C*%
%TO.N,Net-(Q501-C)*%
X214312499Y-121487500D03*
%TD*%
D14*
%TO.P,R502,1*%
%TO.N,Net-(Q501-C)*%
X216500000Y-121487500D03*
%TO.P,R502,2*%
%TO.N,Net-(X502-Pin_5)*%
X218325000Y-121487500D03*
%TD*%
D23*
%TO.P,C402,1*%
%TO.N,+3V3*%
X224387500Y-119449999D03*
%TO.P,C402,2*%
%TO.N,GND*%
X224387500Y-117550001D03*
%TD*%
D24*
%TO.P,C401,1*%
%TO.N,Net-(IC401-~{RESET})*%
X227550001Y-117949999D03*
%TO.P,C401,2*%
%TO.N,GND*%
X229449999Y-117949999D03*
%TD*%
D25*
%TO.P,IC401,1,P0_0*%
%TO.N,Net-(IC401-P0_0)*%
X226575000Y-122350000D03*
%TO.P,IC401,2,P0_1*%
%TO.N,Net-(IC401-P0_1)*%
X226574999Y-122850000D03*
%TO.P,IC401,3,P0_2*%
%TO.N,Net-(IC401-P0_2)*%
X226575000Y-123350000D03*
%TO.P,IC401,4,P0_3*%
%TO.N,Net-(IC401-P0_3)*%
X226575000Y-123850000D03*
%TO.P,IC401,5,P0_4*%
%TO.N,Net-(IC401-P0_4)*%
X226574999Y-124350000D03*
%TO.P,IC401,6,P0_5*%
%TO.N,Net-(IC401-P0_5)*%
X226575000Y-124850000D03*
D26*
%TO.P,IC401,7,P0_6*%
%TO.N,Net-(IC401-P0_6)*%
X225887500Y-125537500D03*
%TO.P,IC401,8,P0_7*%
%TO.N,Net-(IC401-P0_7)*%
X225387500Y-125537499D03*
%TO.P,IC401,9,V_{SS}*%
%TO.N,GND*%
X224887500Y-125537500D03*
%TO.P,IC401,10,P1_0*%
%TO.N,Net-(IC401-P1_0)*%
X224387500Y-125537500D03*
%TO.P,IC401,11,P1_1*%
%TO.N,Net-(IC401-P1_1)*%
X223887500Y-125537499D03*
%TO.P,IC401,12,P1_2*%
%TO.N,Net-(IC401-P1_2)*%
X223387500Y-125537500D03*
D25*
%TO.P,IC401,13,P1_3*%
%TO.N,Net-(IC401-P1_3)*%
X222700000Y-124850000D03*
%TO.P,IC401,14,P1_4*%
%TO.N,unconnected-(IC401-P1_4-Pad14)*%
X222700001Y-124350000D03*
%TO.P,IC401,15,P1_5*%
%TO.N,unconnected-(IC401-P1_5-Pad15)*%
X222700000Y-123850000D03*
%TO.P,IC401,16,P1_6*%
%TO.N,unconnected-(IC401-P1_6-Pad16)*%
X222700000Y-123350000D03*
%TO.P,IC401,17,P1_7*%
%TO.N,unconnected-(IC401-P1_7-Pad17)*%
X222700001Y-122850000D03*
%TO.P,IC401,18,ADDR*%
%TO.N,+3V3*%
X222700000Y-122350000D03*
D26*
%TO.P,IC401,19,SCL*%
%TO.N,/Project Architecture/Connectors/I2C-SCL*%
X223387500Y-121662500D03*
%TO.P,IC401,20,SDA*%
%TO.N,/Project Architecture/Connectors/I2C-SDA*%
X223887500Y-121662501D03*
%TO.P,IC401,21,V_{DD(P)}*%
%TO.N,+3V3*%
X224387500Y-121662500D03*
%TO.P,IC401,22,~{INT}*%
%TO.N,/Project Architecture/Connectors/~{Expander-Int}*%
X224887500Y-121662500D03*
%TO.P,IC401,23,V_{DD(I2C-bus)}*%
%TO.N,+3V3*%
X225387500Y-121662501D03*
%TO.P,IC401,24,~{RESET}*%
%TO.N,Net-(IC401-~{RESET})*%
X225887500Y-121662500D03*
D27*
%TO.P,IC401,25,EP*%
%TO.N,GND*%
X224637500Y-123600000D03*
%TD*%
D28*
%TO.P,R504,1*%
%TO.N,/Project Architecture/Connectors/Display-Backlight*%
X212912500Y-124200000D03*
%TO.P,R504,2*%
%TO.N,Net-(Q501-B)*%
X211087500Y-124200000D03*
%TD*%
D29*
%TO.N,+3V3*%
X219900000Y-112250000D03*
X222700000Y-121800000D03*
X241250000Y-96350000D03*
X201000000Y-95650000D03*
X229800000Y-114100000D03*
X224387500Y-118600000D03*
X225387500Y-120949999D03*
X230500000Y-119949999D03*
%TO.N,/Project Architecture/Connectors/~{Expander-Int}*%
X226100000Y-103000000D03*
X244250000Y-102550000D03*
%TO.N,/Project Architecture/Connectors/~{Display-CS}*%
X246250000Y-107100000D03*
X219900000Y-109750000D03*
%TO.N,/Project Architecture/Connectors/~{Display-Reset}*%
X244750000Y-103950000D03*
X219500000Y-108250000D03*
%TO.N,/Project Architecture/Connectors/I2C-SCL*%
X225600000Y-99900000D03*
X222500000Y-99900000D03*
%TO.N,/Project Architecture/Connectors/SPI-SCLK*%
X219900000Y-108750000D03*
X245250000Y-105000000D03*
%TO.N,/Project Architecture/Connectors/SPI-MOSI*%
X246750000Y-108100000D03*
X219500000Y-110250000D03*
%TO.N,/Project Architecture/Connectors/Display-DC*%
X245750000Y-106150000D03*
X219500000Y-109250000D03*
%TO.N,/Project Architecture/Connectors/Display-Backlight*%
X246200000Y-112700000D03*
X215200000Y-124200000D03*
%TO.N,/Project Architecture/Connectors/SPI-MISO*%
X247250000Y-109212500D03*
%TO.N,Net-(IC401-P0_2)*%
X241850000Y-123350000D03*
%TO.N,Net-(IC401-P1_1)*%
X223887500Y-129200000D03*
%TO.N,Net-(IC401-P1_0)*%
X224387500Y-128400000D03*
%TO.N,Net-(IC401-P1_3)*%
X191525000Y-139100000D03*
%TO.N,Net-(IC401-P1_2)*%
X223387500Y-127712500D03*
%TO.N,Net-(IC401-P0_7)*%
X225387500Y-128000000D03*
%TO.N,Net-(IC401-P0_5)*%
X227750000Y-124850000D03*
%TO.N,Net-(IC401-P0_0)*%
X245650000Y-122350000D03*
%TO.N,Net-(IC401-P0_3)*%
X228850000Y-123850000D03*
%TO.N,Net-(IC401-P0_1)*%
X240250000Y-122850000D03*
%TO.N,Net-(IC401-P0_6)*%
X225887500Y-126900000D03*
%TO.N,Net-(IC401-P0_4)*%
X228200000Y-124350000D03*
%TO.N,Net-(X502-Pin_12)*%
X219900000Y-110750000D03*
%TD*%
D30*
%TO.N,+3V3*%
X230500000Y-119949999D02*
X229412500Y-119949999D01*
X222700000Y-122350000D02*
X222700000Y-121800000D01*
X224387500Y-121662500D02*
X224387500Y-119449999D01*
X219900000Y-112250000D02*
X221125000Y-112250000D01*
X221125000Y-111750000D02*
X221125000Y-112250000D01*
X201000000Y-95650000D02*
X201900000Y-95650000D01*
X224387500Y-118600000D02*
X224387500Y-119449999D01*
X225387500Y-120949999D02*
X225387500Y-121662501D01*
X229012500Y-114100000D02*
X229800000Y-114100000D01*
X241250000Y-96350000D02*
X241250000Y-95400000D01*
%TO.N,/Project Architecture/Connectors/~{Expander-Int}*%
X226400000Y-114100000D02*
X226100000Y-114400000D01*
X244250000Y-102550000D02*
X244250000Y-95400000D01*
X226100000Y-103000000D02*
X226100000Y-114400000D01*
X224887500Y-121662500D02*
X224887500Y-120662499D01*
X227187500Y-114100000D02*
X226400000Y-114100000D01*
X224887500Y-120662499D02*
X226100000Y-119449999D01*
X226100000Y-119449999D02*
X226100000Y-114400000D01*
%TO.N,/Project Architecture/Connectors/~{Touch-Reset}*%
X205350000Y-93650000D02*
X201900000Y-93650000D01*
X242250000Y-96500000D02*
X241000000Y-97750000D01*
X241000000Y-97750000D02*
X209450000Y-97750000D01*
X209450000Y-97750000D02*
X205350000Y-93650000D01*
X242250000Y-95400000D02*
X242250000Y-96500000D01*
%TO.N,/Project Architecture/Connectors/~{Display-CS}*%
X219900000Y-109750000D02*
X221125000Y-109750000D01*
X246250000Y-107100000D02*
X246250000Y-95400000D01*
%TO.N,/Project Architecture/Connectors/~{Display-Reset}*%
X244750000Y-103950000D02*
X244750000Y-95400000D01*
X219500000Y-108250000D02*
X221125000Y-108250000D01*
%TO.N,/Project Architecture/Connectors/I2C-SDA*%
X201900000Y-94650000D02*
X204550000Y-94650000D01*
X223500000Y-98800000D02*
X241700000Y-98800000D01*
X241700000Y-98800000D02*
X243250000Y-97250000D01*
X223000000Y-99300000D02*
X223500000Y-98800000D01*
X243250000Y-97250000D02*
X243250000Y-95400000D01*
X204550000Y-94650000D02*
X208650000Y-98750000D01*
X223887500Y-121662501D02*
X223887500Y-120987500D01*
X223887500Y-120987500D02*
X223000000Y-120100000D01*
X222450000Y-98750000D02*
X223000000Y-99300000D01*
X223000000Y-120100000D02*
X223000000Y-100200000D01*
X223000000Y-100200000D02*
X223000000Y-99300000D01*
X208650000Y-98750000D02*
X222450000Y-98750000D01*
%TO.N,/Project Architecture/Connectors/I2C-SCL*%
X225600000Y-99900000D02*
X241700000Y-99900000D01*
X222500000Y-120300000D02*
X223387500Y-121187500D01*
X208150000Y-99250000D02*
X204050000Y-95150000D01*
X243750000Y-97850000D02*
X243750000Y-95400000D01*
X222500000Y-99900000D02*
X221850000Y-99250000D01*
X241700000Y-99900000D02*
X243750000Y-97850000D01*
X204050000Y-95150000D02*
X201900000Y-95150000D01*
X223387500Y-121187500D02*
X223387500Y-121662500D01*
X222500000Y-99900000D02*
X222500000Y-120300000D01*
X221850000Y-99250000D02*
X208150000Y-99250000D01*
%TO.N,/Project Architecture/Connectors/SPI-SCLK*%
X219900000Y-108750000D02*
X221125000Y-108750000D01*
X245250000Y-105000000D02*
X245250000Y-95400000D01*
%TO.N,/Project Architecture/Connectors/SPI-MOSI*%
X246750000Y-108100000D02*
X246750000Y-95400000D01*
X219500000Y-110250000D02*
X221125000Y-110250000D01*
%TO.N,/Project Architecture/Connectors/~{Touch-IRQ}*%
X242750000Y-96950000D02*
X242750000Y-95400000D01*
X204950000Y-94150000D02*
X209050000Y-98250000D01*
X209050000Y-98250000D02*
X241450000Y-98250000D01*
X241450000Y-98250000D02*
X242750000Y-96950000D01*
X201900000Y-94150000D02*
X204950000Y-94150000D01*
%TO.N,/Project Architecture/Connectors/Display-DC*%
X245750000Y-106150000D02*
X245750000Y-95400000D01*
X219500000Y-109250000D02*
X221125000Y-109250000D01*
%TO.N,/Project Architecture/Connectors/Display-Backlight*%
X212912500Y-124200000D02*
X215200000Y-124200000D01*
X247750000Y-111150000D02*
X247750000Y-95400000D01*
X246200000Y-112700000D02*
X247750000Y-111150000D01*
%TO.N,/Project Architecture/Connectors/SPI-MISO*%
X247250000Y-109212500D02*
X247250000Y-95400000D01*
%TO.N,Net-(IC401-~{RESET})*%
X227587500Y-119037498D02*
X227550001Y-118999998D01*
X227550001Y-118999998D02*
X227550001Y-117949999D01*
X226750001Y-119949999D02*
X225887501Y-120812499D01*
X227587500Y-119949999D02*
X227587500Y-119037498D01*
X225887501Y-120812499D02*
X225887501Y-121662499D01*
X225887501Y-121662499D02*
X225887500Y-121662500D01*
X227587500Y-119949999D02*
X226750001Y-119949999D01*
%TO.N,Net-(IC401-P0_2)*%
X241850000Y-123350000D02*
X226575000Y-123350000D01*
%TO.N,Net-(IC401-P1_1)*%
X223887500Y-129200000D02*
X223887500Y-125537499D01*
%TO.N,Net-(IC401-P1_0)*%
X224387500Y-128400000D02*
X224387500Y-125537500D01*
%TO.N,Net-(IC401-P1_3)*%
X191525000Y-139100000D02*
X204600000Y-139100000D01*
X218850000Y-124850000D02*
X222700000Y-124850000D01*
X204600000Y-139100000D02*
X218850000Y-124850000D01*
%TO.N,Net-(IC401-P1_2)*%
X223387500Y-127712500D02*
X223387500Y-125537500D01*
%TO.N,Net-(IC401-P0_7)*%
X225387500Y-128000000D02*
X225387500Y-125537499D01*
%TO.N,Net-(IC401-P0_5)*%
X227750000Y-124850000D02*
X226575000Y-124850000D01*
%TO.N,Net-(IC401-P0_0)*%
X245650000Y-122350000D02*
X226575000Y-122350000D01*
%TO.N,Net-(IC401-P0_3)*%
X228850000Y-123850000D02*
X226575000Y-123850000D01*
%TO.N,Net-(IC401-P0_1)*%
X240250000Y-122850000D02*
X226574999Y-122850000D01*
%TO.N,Net-(IC401-P0_6)*%
X225887500Y-126900000D02*
X225887500Y-125537500D01*
%TO.N,Net-(IC401-P0_4)*%
X228200000Y-124350000D02*
X226574999Y-124350000D01*
%TO.N,Net-(Q501-B)*%
X211087500Y-123387500D02*
X210312501Y-122612501D01*
X210312501Y-122612501D02*
X210312501Y-122400000D01*
X211400000Y-122400000D02*
X211412500Y-122387500D01*
X211462500Y-122437500D02*
X212437499Y-122437500D01*
X210312501Y-122400000D02*
X211400000Y-122400000D01*
X211087500Y-124200000D02*
X211087500Y-123387500D01*
X211412500Y-122387500D02*
X211462500Y-122437500D01*
%TO.N,Net-(Q501-C)*%
X214312500Y-121487500D02*
X216500000Y-121487500D01*
%TO.N,Net-(X502-Pin_12)*%
X219900000Y-110750000D02*
X221125000Y-110750000D01*
%TO.N,Net-(X502-Pin_5)*%
X221125000Y-112750000D02*
X221125000Y-114250000D01*
X220000000Y-120987500D02*
X219500000Y-121487500D01*
X221125000Y-114250000D02*
X220550000Y-114250000D01*
X219500000Y-121487500D02*
X218325000Y-121487500D01*
X220550000Y-114250000D02*
X220000000Y-114800000D01*
X220000000Y-114800000D02*
X220000000Y-120987500D01*
%TD*%
%TA.AperFunction,Conductor*%
%TO.N,GND*%
G36*
X222003056Y-74625801D02*
G01*
X222164482Y-74641699D01*
X222176491Y-74644088D01*
X222323135Y-74688572D01*
X222328766Y-74690280D01*
X222340085Y-74694969D01*
X222480420Y-74769980D01*
X222490605Y-74776785D01*
X222612272Y-74876635D01*
X222613606Y-74877729D01*
X222622268Y-74886391D01*
X222723212Y-75009392D01*
X222730019Y-75019579D01*
X222805030Y-75159914D01*
X222809719Y-75171233D01*
X222855910Y-75323504D01*
X222858300Y-75335521D01*
X222874199Y-75496943D01*
X222874500Y-75503069D01*
X222874500Y-83721356D01*
X222874500Y-83750000D01*
X222874500Y-83848468D01*
X222898476Y-83984439D01*
X222908698Y-84042413D01*
X222976054Y-84227476D01*
X223074522Y-84398024D01*
X223074523Y-84398027D01*
X223201110Y-84548889D01*
X223351972Y-84675476D01*
X223351973Y-84675476D01*
X223351974Y-84675477D01*
X223376041Y-84689372D01*
X223522523Y-84773945D01*
X223522526Y-84773946D01*
X223707587Y-84841302D01*
X223901532Y-84875500D01*
X223901537Y-84875500D01*
X237098462Y-84875500D01*
X237098468Y-84875500D01*
X237292413Y-84841302D01*
X237477474Y-84773946D01*
X237648026Y-84675477D01*
X237798889Y-84548889D01*
X237925477Y-84398026D01*
X238020681Y-84233129D01*
X238023945Y-84227476D01*
X238062667Y-84121087D01*
X238091302Y-84042413D01*
X238125500Y-83848468D01*
X238125500Y-83750000D01*
X238125500Y-83721356D01*
X238125500Y-79341214D01*
X252672500Y-79341214D01*
X252672500Y-79658785D01*
X252708056Y-79974358D01*
X252708059Y-79974375D01*
X252778723Y-80283979D01*
X252883615Y-80583741D01*
X253021407Y-80869870D01*
X253190364Y-81138765D01*
X253190376Y-81138782D01*
X253388364Y-81387051D01*
X253388369Y-81387057D01*
X253388375Y-81387064D01*
X253612936Y-81611625D01*
X253612943Y-81611631D01*
X253612948Y-81611635D01*
X253861217Y-81809623D01*
X253861223Y-81809627D01*
X253861229Y-81809632D01*
X254130130Y-81978593D01*
X254416258Y-82116385D01*
X254716014Y-82221275D01*
X255025630Y-82291942D01*
X255341211Y-82327500D01*
X255341214Y-82327500D01*
X255658786Y-82327500D01*
X255658789Y-82327500D01*
X255974370Y-82291942D01*
X256283986Y-82221275D01*
X256583742Y-82116385D01*
X256869870Y-81978593D01*
X257138771Y-81809632D01*
X257387064Y-81611625D01*
X257611625Y-81387064D01*
X257809632Y-81138771D01*
X257978593Y-80869870D01*
X258116385Y-80583742D01*
X258221275Y-80283986D01*
X258291942Y-79974370D01*
X258327500Y-79658789D01*
X258327500Y-79341211D01*
X258291942Y-79025630D01*
X258221275Y-78716014D01*
X258116385Y-78416258D01*
X257978593Y-78130130D01*
X257809632Y-77861229D01*
X257809627Y-77861223D01*
X257809623Y-77861217D01*
X257611635Y-77612948D01*
X257611631Y-77612943D01*
X257611625Y-77612936D01*
X257387064Y-77388375D01*
X257387057Y-77388369D01*
X257387051Y-77388364D01*
X257138782Y-77190376D01*
X257138765Y-77190364D01*
X256869870Y-77021407D01*
X256583742Y-76883615D01*
X256283986Y-76778725D01*
X256283982Y-76778724D01*
X256283979Y-76778723D01*
X255974375Y-76708059D01*
X255974372Y-76708058D01*
X255974370Y-76708058D01*
X255974368Y-76708057D01*
X255974358Y-76708056D01*
X255766979Y-76684690D01*
X255658789Y-76672500D01*
X255341211Y-76672500D01*
X255244116Y-76683440D01*
X255025641Y-76708056D01*
X255025624Y-76708059D01*
X254716020Y-76778723D01*
X254416258Y-76883615D01*
X254130129Y-77021407D01*
X253861234Y-77190364D01*
X253861217Y-77190376D01*
X253612948Y-77388364D01*
X253612928Y-77388382D01*
X253388382Y-77612928D01*
X253388364Y-77612948D01*
X253190376Y-77861217D01*
X253190364Y-77861234D01*
X253021407Y-78130129D01*
X252883615Y-78416258D01*
X252778723Y-78716020D01*
X252708059Y-79025624D01*
X252708056Y-79025641D01*
X252672500Y-79341214D01*
X238125500Y-79341214D01*
X238125500Y-75503069D01*
X238125801Y-75496943D01*
X238135198Y-75401532D01*
X238141700Y-75335515D01*
X238144087Y-75323510D01*
X238190281Y-75171230D01*
X238194969Y-75159914D01*
X238269980Y-75019579D01*
X238276782Y-75009398D01*
X238377735Y-74886386D01*
X238386386Y-74877735D01*
X238509398Y-74776782D01*
X238519579Y-74769980D01*
X238525398Y-74766870D01*
X238659914Y-74694969D01*
X238671230Y-74690281D01*
X238823510Y-74644087D01*
X238835515Y-74641700D01*
X238996944Y-74625801D01*
X239003070Y-74625500D01*
X239028644Y-74625500D01*
X258471356Y-74625500D01*
X258497956Y-74625500D01*
X258502044Y-74625634D01*
X258740583Y-74641269D01*
X258748687Y-74642335D01*
X258981149Y-74688575D01*
X258989024Y-74690685D01*
X259186116Y-74757589D01*
X259213457Y-74766870D01*
X259221010Y-74769998D01*
X259433578Y-74874824D01*
X259440656Y-74878910D01*
X259635934Y-75009392D01*
X259637717Y-75010583D01*
X259644202Y-75015559D01*
X259822399Y-75171833D01*
X259828166Y-75177600D01*
X259854464Y-75207587D01*
X259984439Y-75355796D01*
X259989416Y-75362282D01*
X260121087Y-75559341D01*
X260125175Y-75566421D01*
X260230001Y-75778989D01*
X260233129Y-75786542D01*
X260309311Y-76010964D01*
X260311427Y-76018861D01*
X260357663Y-76251311D01*
X260358730Y-76259416D01*
X260374366Y-76497955D01*
X260374500Y-76502043D01*
X260374500Y-152497956D01*
X260374366Y-152502044D01*
X260358730Y-152740583D01*
X260357663Y-152748688D01*
X260311427Y-152981138D01*
X260309311Y-152989035D01*
X260233129Y-153213457D01*
X260230001Y-153221010D01*
X260125175Y-153433578D01*
X260121087Y-153440658D01*
X259989416Y-153637717D01*
X259984439Y-153644203D01*
X259828173Y-153822392D01*
X259822392Y-153828173D01*
X259644203Y-153984439D01*
X259637717Y-153989416D01*
X259440658Y-154121087D01*
X259433578Y-154125175D01*
X259221010Y-154230001D01*
X259213457Y-154233129D01*
X258989035Y-154309311D01*
X258981138Y-154311427D01*
X258748688Y-154357663D01*
X258740583Y-154358730D01*
X258502044Y-154374366D01*
X258497956Y-154374500D01*
X156502044Y-154374500D01*
X156497956Y-154374366D01*
X156259416Y-154358730D01*
X156251311Y-154357663D01*
X156018861Y-154311427D01*
X156010964Y-154309311D01*
X155786542Y-154233129D01*
X155778989Y-154230001D01*
X155566421Y-154125175D01*
X155559341Y-154121087D01*
X155362282Y-153989416D01*
X155355796Y-153984439D01*
X155264582Y-153904447D01*
X155177600Y-153828166D01*
X155171833Y-153822399D01*
X155015559Y-153644202D01*
X155010583Y-153637717D01*
X154878912Y-153440658D01*
X154874824Y-153433578D01*
X154769998Y-153221010D01*
X154766870Y-153213457D01*
X154757103Y-153184686D01*
X154690685Y-152989024D01*
X154688575Y-152981149D01*
X154642335Y-152748687D01*
X154641269Y-152740583D01*
X154625634Y-152502044D01*
X154625500Y-152497956D01*
X154625500Y-149341214D01*
X156672500Y-149341214D01*
X156672500Y-149658785D01*
X156708056Y-149974358D01*
X156708059Y-149974375D01*
X156778723Y-150283979D01*
X156883615Y-150583741D01*
X157021407Y-150869870D01*
X157190364Y-151138765D01*
X157190376Y-151138782D01*
X157388364Y-151387051D01*
X157388369Y-151387057D01*
X157388375Y-151387064D01*
X157612936Y-151611625D01*
X157612943Y-151611631D01*
X157612948Y-151611635D01*
X157861217Y-151809623D01*
X157861223Y-151809627D01*
X157861229Y-151809632D01*
X158130130Y-151978593D01*
X158416258Y-152116385D01*
X158716014Y-152221275D01*
X159025630Y-152291942D01*
X159341211Y-152327500D01*
X159341214Y-152327500D01*
X159658786Y-152327500D01*
X159658789Y-152327500D01*
X159974370Y-152291942D01*
X160283986Y-152221275D01*
X160583742Y-152116385D01*
X160869870Y-151978593D01*
X161138771Y-151809632D01*
X161387064Y-151611625D01*
X161611625Y-151387064D01*
X161809632Y-151138771D01*
X161978593Y-150869870D01*
X162116385Y-150583742D01*
X162221275Y-150283986D01*
X162291942Y-149974370D01*
X162327500Y-149658789D01*
X162327500Y-149341214D01*
X252672500Y-149341214D01*
X252672500Y-149658785D01*
X252708056Y-149974358D01*
X252708059Y-149974375D01*
X252778723Y-150283979D01*
X252883615Y-150583741D01*
X253021407Y-150869870D01*
X253190364Y-151138765D01*
X253190376Y-151138782D01*
X253388364Y-151387051D01*
X253388369Y-151387057D01*
X253388375Y-151387064D01*
X253612936Y-151611625D01*
X253612943Y-151611631D01*
X253612948Y-151611635D01*
X253861217Y-151809623D01*
X253861223Y-151809627D01*
X253861229Y-151809632D01*
X254130130Y-151978593D01*
X254416258Y-152116385D01*
X254716014Y-152221275D01*
X255025630Y-152291942D01*
X255341211Y-152327500D01*
X255341214Y-152327500D01*
X255658786Y-152327500D01*
X255658789Y-152327500D01*
X255974370Y-152291942D01*
X256283986Y-152221275D01*
X256583742Y-152116385D01*
X256869870Y-151978593D01*
X257138771Y-151809632D01*
X257387064Y-151611625D01*
X257611625Y-151387064D01*
X257809632Y-151138771D01*
X257978593Y-150869870D01*
X258116385Y-150583742D01*
X258221275Y-150283986D01*
X258291942Y-149974370D01*
X258327500Y-149658789D01*
X258327500Y-149341211D01*
X258291942Y-149025630D01*
X258221275Y-148716014D01*
X258116385Y-148416258D01*
X257978593Y-148130130D01*
X257809632Y-147861229D01*
X257809627Y-147861223D01*
X257809623Y-147861217D01*
X257611635Y-147612948D01*
X257611631Y-147612943D01*
X257611625Y-147612936D01*
X257387064Y-147388375D01*
X257387057Y-147388369D01*
X257387051Y-147388364D01*
X257138782Y-147190376D01*
X257138765Y-147190364D01*
X256869870Y-147021407D01*
X256583742Y-146883615D01*
X256283986Y-146778725D01*
X256283982Y-146778724D01*
X256283979Y-146778723D01*
X255974375Y-146708059D01*
X255974372Y-146708058D01*
X255974370Y-146708058D01*
X255974368Y-146708057D01*
X255974358Y-146708056D01*
X255766979Y-146684690D01*
X255658789Y-146672500D01*
X255341211Y-146672500D01*
X255244116Y-146683440D01*
X255025641Y-146708056D01*
X255025624Y-146708059D01*
X254716020Y-146778723D01*
X254416258Y-146883615D01*
X254130129Y-147021407D01*
X253861234Y-147190364D01*
X253861217Y-147190376D01*
X253612948Y-147388364D01*
X253612928Y-147388382D01*
X253388382Y-147612928D01*
X253388364Y-147612948D01*
X253190376Y-147861217D01*
X253190364Y-147861234D01*
X253021407Y-148130129D01*
X252883615Y-148416258D01*
X252778723Y-148716020D01*
X252708059Y-149025624D01*
X252708056Y-149025641D01*
X252672500Y-149341214D01*
X162327500Y-149341214D01*
X162327500Y-149341211D01*
X162291942Y-149025630D01*
X162221275Y-148716014D01*
X162116385Y-148416258D01*
X161978593Y-148130130D01*
X161809632Y-147861229D01*
X161809627Y-147861223D01*
X161809623Y-147861217D01*
X161611635Y-147612948D01*
X161611631Y-147612943D01*
X161611625Y-147612936D01*
X161387064Y-147388375D01*
X161387057Y-147388369D01*
X161387051Y-147388364D01*
X161138782Y-147190376D01*
X161138765Y-147190364D01*
X160869870Y-147021407D01*
X160583742Y-146883615D01*
X160283986Y-146778725D01*
X160283982Y-146778724D01*
X160283979Y-146778723D01*
X159974375Y-146708059D01*
X159974372Y-146708058D01*
X159974370Y-146708058D01*
X159974368Y-146708057D01*
X159974358Y-146708056D01*
X159766979Y-146684690D01*
X159658789Y-146672500D01*
X159341211Y-146672500D01*
X159244116Y-146683440D01*
X159025641Y-146708056D01*
X159025624Y-146708059D01*
X158716020Y-146778723D01*
X158416258Y-146883615D01*
X158130129Y-147021407D01*
X157861234Y-147190364D01*
X157861217Y-147190376D01*
X157612948Y-147388364D01*
X157612928Y-147388382D01*
X157388382Y-147612928D01*
X157388364Y-147612948D01*
X157190376Y-147861217D01*
X157190364Y-147861234D01*
X157021407Y-148130129D01*
X156883615Y-148416258D01*
X156778723Y-148716020D01*
X156708059Y-149025624D01*
X156708056Y-149025641D01*
X156672500Y-149341214D01*
X154625500Y-149341214D01*
X154625500Y-146502043D01*
X154625634Y-146497955D01*
X154641269Y-146259416D01*
X154642336Y-146251311D01*
X154675527Y-146084446D01*
X154688575Y-146018846D01*
X154690683Y-146010979D01*
X154766871Y-145786538D01*
X154769998Y-145778989D01*
X154874828Y-145566413D01*
X154878906Y-145559350D01*
X155010589Y-145362273D01*
X155015553Y-145355804D01*
X155171840Y-145177592D01*
X155177592Y-145171840D01*
X155355804Y-145015553D01*
X155362273Y-145010589D01*
X155559350Y-144878906D01*
X155566413Y-144874828D01*
X155778993Y-144769996D01*
X155786538Y-144766871D01*
X156010979Y-144690683D01*
X156018846Y-144688575D01*
X156251314Y-144642335D01*
X156259414Y-144641269D01*
X156497956Y-144625634D01*
X156502044Y-144625500D01*
X170639307Y-144625500D01*
X170639313Y-144625500D01*
X170915554Y-144589132D01*
X171184686Y-144517019D01*
X171442102Y-144410394D01*
X171683398Y-144271081D01*
X171904447Y-144101465D01*
X172101465Y-143904447D01*
X172271081Y-143683398D01*
X172410394Y-143442102D01*
X172517019Y-143184686D01*
X172589132Y-142915554D01*
X172625500Y-142639313D01*
X172625500Y-142500000D01*
X172625500Y-142471356D01*
X172625500Y-139053593D01*
X191172500Y-139053593D01*
X191172500Y-139146406D01*
X191172501Y-139146414D01*
X191196521Y-139236059D01*
X191196522Y-139236062D01*
X191242929Y-139316439D01*
X191242934Y-139316445D01*
X191308554Y-139382065D01*
X191308560Y-139382070D01*
X191388937Y-139428477D01*
X191388940Y-139428478D01*
X191478592Y-139452500D01*
X191478593Y-139452500D01*
X191571407Y-139452500D01*
X191571408Y-139452500D01*
X191661060Y-139428478D01*
X191741440Y-139382070D01*
X191777704Y-139345805D01*
X191821897Y-139327500D01*
X204645253Y-139327500D01*
X204673124Y-139315955D01*
X204728864Y-139292867D01*
X204728864Y-139292866D01*
X204728868Y-139292865D01*
X207080789Y-136940944D01*
X241024500Y-136940944D01*
X241024500Y-137099055D01*
X241024501Y-137099063D01*
X241065421Y-137251780D01*
X241065422Y-137251783D01*
X241088909Y-137292464D01*
X241144480Y-137388716D01*
X241256284Y-137500520D01*
X241393216Y-137579577D01*
X241393219Y-137579578D01*
X241486681Y-137604621D01*
X241545943Y-137620500D01*
X241545944Y-137620500D01*
X241704056Y-137620500D01*
X241704057Y-137620500D01*
X241856784Y-137579577D01*
X241993716Y-137500520D01*
X242105520Y-137388716D01*
X242168615Y-137279432D01*
X252505997Y-137279432D01*
X252505997Y-137407573D01*
X252530995Y-137533245D01*
X252550187Y-137579578D01*
X252580032Y-137651630D01*
X252651221Y-137758172D01*
X252741828Y-137848779D01*
X252848370Y-137919968D01*
X252966753Y-137969004D01*
X253092428Y-137994003D01*
X253220566Y-137994003D01*
X253346241Y-137969004D01*
X253464624Y-137919968D01*
X253571166Y-137848779D01*
X253661773Y-137758172D01*
X253732962Y-137651630D01*
X253781998Y-137533247D01*
X253806997Y-137407572D01*
X253806997Y-137279434D01*
X253781998Y-137153759D01*
X253732962Y-137035376D01*
X253661773Y-136928834D01*
X253571166Y-136838227D01*
X253496324Y-136788219D01*
X253464626Y-136767039D01*
X253464624Y-136767038D01*
X253346239Y-136718001D01*
X253220567Y-136693003D01*
X253220566Y-136693003D01*
X253092428Y-136693003D01*
X253092426Y-136693003D01*
X252966754Y-136718001D01*
X252848369Y-136767038D01*
X252848367Y-136767039D01*
X252741828Y-136838226D01*
X252651220Y-136928834D01*
X252580033Y-137035373D01*
X252580032Y-137035375D01*
X252530995Y-137153760D01*
X252505997Y-137279432D01*
X242168615Y-137279432D01*
X242184577Y-137251784D01*
X242225500Y-137099057D01*
X242225500Y-136940943D01*
X242184577Y-136788216D01*
X242105520Y-136651284D01*
X241993716Y-136539480D01*
X241897464Y-136483909D01*
X241856783Y-136460422D01*
X241856780Y-136460421D01*
X241704063Y-136419501D01*
X241704058Y-136419500D01*
X241704057Y-136419500D01*
X241545943Y-136419500D01*
X241545942Y-136419500D01*
X241545936Y-136419501D01*
X241393219Y-136460421D01*
X241393216Y-136460422D01*
X241296964Y-136515993D01*
X241256284Y-136539480D01*
X241256283Y-136539481D01*
X241256279Y-136539484D01*
X241144484Y-136651279D01*
X241144481Y-136651283D01*
X241065422Y-136788216D01*
X241065421Y-136788219D01*
X241024501Y-136940936D01*
X241024500Y-136940944D01*
X207080789Y-136940944D01*
X209431127Y-134590606D01*
X255343003Y-134590606D01*
X255343003Y-134722387D01*
X255343004Y-134722395D01*
X255377109Y-134849679D01*
X255377110Y-134849682D01*
X255443004Y-134963812D01*
X255443007Y-134963816D01*
X255536183Y-135056992D01*
X255536187Y-135056995D01*
X255536189Y-135056997D01*
X255650317Y-135122889D01*
X255650320Y-135122890D01*
X255728215Y-135143761D01*
X255777611Y-135156997D01*
X255777612Y-135156997D01*
X255909394Y-135156997D01*
X255909395Y-135156997D01*
X256036689Y-135122889D01*
X256150817Y-135056997D01*
X256244003Y-134963811D01*
X256309895Y-134849683D01*
X256344003Y-134722389D01*
X256344003Y-134590605D01*
X256309895Y-134463311D01*
X256244003Y-134349183D01*
X256244001Y-134349181D01*
X256243998Y-134349177D01*
X256150822Y-134256001D01*
X256150818Y-134255998D01*
X256150817Y-134255997D01*
X256093753Y-134223051D01*
X256036688Y-134190104D01*
X256036685Y-134190103D01*
X255909401Y-134155998D01*
X255909396Y-134155997D01*
X255909395Y-134155997D01*
X255777611Y-134155997D01*
X255777610Y-134155997D01*
X255777604Y-134155998D01*
X255650320Y-134190103D01*
X255650317Y-134190104D01*
X255536187Y-134255998D01*
X255536183Y-134256001D01*
X255443007Y-134349177D01*
X255443004Y-134349181D01*
X255377110Y-134463311D01*
X255377109Y-134463314D01*
X255343004Y-134590598D01*
X255343003Y-134590606D01*
X209431127Y-134590606D01*
X218925927Y-125095806D01*
X218970121Y-125077500D01*
X222210990Y-125077500D01*
X222245712Y-125088032D01*
X222250866Y-125091476D01*
X222306288Y-125102500D01*
X223072500Y-125102500D01*
X223116694Y-125120806D01*
X223135000Y-125165000D01*
X223135000Y-125931212D01*
X223146023Y-125986633D01*
X223149465Y-125991783D01*
X223160000Y-126026509D01*
X223160000Y-127415601D01*
X223141694Y-127459795D01*
X223105434Y-127496054D01*
X223105429Y-127496060D01*
X223059022Y-127576437D01*
X223059021Y-127576440D01*
X223035001Y-127666085D01*
X223035000Y-127666093D01*
X223035000Y-127758906D01*
X223035001Y-127758914D01*
X223059021Y-127848559D01*
X223059022Y-127848562D01*
X223105429Y-127928939D01*
X223105434Y-127928945D01*
X223171054Y-127994565D01*
X223171060Y-127994570D01*
X223251437Y-128040977D01*
X223251440Y-128040978D01*
X223341092Y-128065000D01*
X223341093Y-128065000D01*
X223433907Y-128065000D01*
X223433908Y-128065000D01*
X223523560Y-128040978D01*
X223566249Y-128016330D01*
X223613675Y-128010086D01*
X223651626Y-128039206D01*
X223660000Y-128070457D01*
X223660000Y-128903101D01*
X223641694Y-128947295D01*
X223605434Y-128983554D01*
X223605429Y-128983560D01*
X223559022Y-129063937D01*
X223559021Y-129063940D01*
X223535001Y-129153585D01*
X223535000Y-129153593D01*
X223535000Y-129246406D01*
X223535001Y-129246414D01*
X223559021Y-129336059D01*
X223559022Y-129336062D01*
X223605429Y-129416439D01*
X223605434Y-129416445D01*
X223671054Y-129482065D01*
X223671060Y-129482070D01*
X223751437Y-129528477D01*
X223751440Y-129528478D01*
X223841092Y-129552500D01*
X223841093Y-129552500D01*
X223933907Y-129552500D01*
X223933908Y-129552500D01*
X224023560Y-129528478D01*
X224103940Y-129482070D01*
X224169570Y-129416440D01*
X224215978Y-129336060D01*
X224240000Y-129246408D01*
X224240000Y-129153592D01*
X224215978Y-129063940D01*
X224215977Y-129063937D01*
X224169570Y-128983560D01*
X224169565Y-128983554D01*
X224133306Y-128947295D01*
X224115000Y-128903101D01*
X224115000Y-128757957D01*
X224133306Y-128713763D01*
X224177500Y-128695457D01*
X224208750Y-128703830D01*
X224251440Y-128728478D01*
X224341092Y-128752500D01*
X224341093Y-128752500D01*
X224433907Y-128752500D01*
X224433908Y-128752500D01*
X224523560Y-128728478D01*
X224603940Y-128682070D01*
X224669570Y-128616440D01*
X224715978Y-128536060D01*
X224740000Y-128446408D01*
X224740000Y-128353592D01*
X224715978Y-128263940D01*
X224715977Y-128263937D01*
X224669570Y-128183560D01*
X224669565Y-128183554D01*
X224633306Y-128147295D01*
X224615000Y-128103101D01*
X224615000Y-126117022D01*
X224633306Y-126072828D01*
X224677500Y-126054522D01*
X224712224Y-126065055D01*
X224751061Y-126091005D01*
X224751062Y-126091006D01*
X224806332Y-126101999D01*
X224824000Y-126101999D01*
X224824000Y-124973000D01*
X224806337Y-124973000D01*
X224751060Y-124983994D01*
X224688376Y-125025878D01*
X224684025Y-125030230D01*
X224682470Y-125028675D01*
X224649987Y-125050375D01*
X224603072Y-125041039D01*
X224591619Y-125029585D01*
X224591335Y-125029870D01*
X224586983Y-125025518D01*
X224524135Y-124983524D01*
X224524133Y-124983523D01*
X224468712Y-124972500D01*
X224306288Y-124972500D01*
X224250866Y-124983523D01*
X224250864Y-124983524D01*
X224188016Y-125025518D01*
X224183665Y-125029870D01*
X224182080Y-125028285D01*
X224149685Y-125049926D01*
X224102770Y-125040587D01*
X224091694Y-125029509D01*
X224091335Y-125029869D01*
X224086983Y-125025517D01*
X224024135Y-124983523D01*
X224024133Y-124983522D01*
X223968712Y-124972499D01*
X223806288Y-124972499D01*
X223750866Y-124983522D01*
X223750864Y-124983523D01*
X223688016Y-125025517D01*
X223683665Y-125029869D01*
X223682082Y-125028286D01*
X223649680Y-125049927D01*
X223602765Y-125040585D01*
X223591694Y-125029510D01*
X223591335Y-125029870D01*
X223586983Y-125025518D01*
X223524135Y-124983524D01*
X223524133Y-124983523D01*
X223468712Y-124972500D01*
X223327500Y-124972500D01*
X223283306Y-124954194D01*
X223265000Y-124910000D01*
X223265000Y-124768788D01*
X223253976Y-124713366D01*
X223246715Y-124702498D01*
X223211981Y-124650516D01*
X223207630Y-124646165D01*
X223209215Y-124644579D01*
X223187575Y-124612195D01*
X223196906Y-124565278D01*
X223207991Y-124554195D01*
X223207631Y-124553835D01*
X223211982Y-124549483D01*
X223226018Y-124528478D01*
X223253977Y-124486634D01*
X223265001Y-124431212D01*
X223265001Y-124268788D01*
X223253977Y-124213366D01*
X223246716Y-124202498D01*
X223211982Y-124150516D01*
X223207631Y-124146165D01*
X223209215Y-124144580D01*
X223187574Y-124112189D01*
X223196909Y-124065273D01*
X223207990Y-124054195D01*
X223207630Y-124053835D01*
X223211981Y-124049483D01*
X223253975Y-123986635D01*
X223253976Y-123986634D01*
X223265000Y-123931212D01*
X223265000Y-123768788D01*
X223253976Y-123713366D01*
X223246715Y-123702498D01*
X223211981Y-123650516D01*
X223207630Y-123646165D01*
X223209215Y-123644579D01*
X223187575Y-123612195D01*
X223196906Y-123565278D01*
X223207989Y-123554194D01*
X223207630Y-123553835D01*
X223211981Y-123549483D01*
X223226597Y-123527610D01*
X223253976Y-123486634D01*
X223265000Y-123431212D01*
X223265000Y-123268788D01*
X223253976Y-123213366D01*
X223241461Y-123194635D01*
X223211981Y-123150516D01*
X223207630Y-123146165D01*
X223209215Y-123144579D01*
X223187575Y-123112195D01*
X223196906Y-123065278D01*
X223207991Y-123054195D01*
X223207631Y-123053835D01*
X223211982Y-123049483D01*
X223218319Y-123040000D01*
X223253977Y-122986634D01*
X223265001Y-122931212D01*
X223265001Y-122768788D01*
X223253977Y-122713366D01*
X223246716Y-122702498D01*
X223211982Y-122650516D01*
X223207631Y-122646165D01*
X223209215Y-122644580D01*
X223187574Y-122612189D01*
X223196909Y-122565273D01*
X223207990Y-122554195D01*
X223207630Y-122553835D01*
X223211981Y-122549483D01*
X223253975Y-122486635D01*
X223253976Y-122486634D01*
X223265000Y-122431212D01*
X223265000Y-122290000D01*
X223283306Y-122245806D01*
X223327500Y-122227500D01*
X223468712Y-122227500D01*
X223524134Y-122216476D01*
X223586982Y-122174482D01*
X223586983Y-122174481D01*
X223591335Y-122170130D01*
X223592922Y-122171717D01*
X223625290Y-122150078D01*
X223672208Y-122159398D01*
X223683304Y-122170491D01*
X223683665Y-122170131D01*
X223688016Y-122174482D01*
X223750864Y-122216476D01*
X223750866Y-122216477D01*
X223806288Y-122227501D01*
X223968712Y-122227501D01*
X224024134Y-122216477D01*
X224086982Y-122174483D01*
X224086983Y-122174482D01*
X224091335Y-122170131D01*
X224092921Y-122171717D01*
X224125295Y-122150077D01*
X224172213Y-122159401D01*
X224183304Y-122170490D01*
X224183665Y-122170130D01*
X224188016Y-122174481D01*
X224250864Y-122216475D01*
X224250866Y-122216476D01*
X224306288Y-122227500D01*
X224468712Y-122227500D01*
X224524134Y-122216476D01*
X224586982Y-122174482D01*
X224586983Y-122174481D01*
X224591335Y-122170130D01*
X224592920Y-122171715D01*
X224625305Y-122150075D01*
X224672222Y-122159406D01*
X224683305Y-122170489D01*
X224683665Y-122170130D01*
X224688016Y-122174481D01*
X224750864Y-122216475D01*
X224750866Y-122216476D01*
X224806288Y-122227500D01*
X224968712Y-122227500D01*
X225024134Y-122216476D01*
X225086982Y-122174482D01*
X225086983Y-122174481D01*
X225091335Y-122170130D01*
X225092922Y-122171717D01*
X225125290Y-122150078D01*
X225172208Y-122159398D01*
X225183304Y-122170491D01*
X225183665Y-122170131D01*
X225188016Y-122174482D01*
X225250864Y-122216476D01*
X225250866Y-122216477D01*
X225306288Y-122227501D01*
X225468712Y-122227501D01*
X225524134Y-122216477D01*
X225586982Y-122174483D01*
X225586983Y-122174482D01*
X225591335Y-122170131D01*
X225592921Y-122171717D01*
X225625295Y-122150077D01*
X225672213Y-122159401D01*
X225683304Y-122170490D01*
X225683665Y-122170130D01*
X225688016Y-122174481D01*
X225750864Y-122216475D01*
X225750866Y-122216476D01*
X225806288Y-122227500D01*
X225947500Y-122227500D01*
X225991694Y-122245806D01*
X226010000Y-122290000D01*
X226010000Y-122431212D01*
X226021023Y-122486633D01*
X226021024Y-122486635D01*
X226063018Y-122549483D01*
X226067370Y-122553835D01*
X226065783Y-122555421D01*
X226087423Y-122587799D01*
X226078096Y-122634717D01*
X226067010Y-122645806D01*
X226067369Y-122646165D01*
X226063017Y-122650516D01*
X226021023Y-122713364D01*
X226021022Y-122713366D01*
X226009999Y-122768787D01*
X226009999Y-122931212D01*
X226021022Y-122986633D01*
X226021023Y-122986635D01*
X226063017Y-123049483D01*
X226067369Y-123053835D01*
X226065783Y-123055420D01*
X226087424Y-123087805D01*
X226078093Y-123134722D01*
X226067010Y-123145805D01*
X226067370Y-123146165D01*
X226063018Y-123150516D01*
X226021024Y-123213364D01*
X226021023Y-123213366D01*
X226010000Y-123268787D01*
X226010000Y-123431212D01*
X226021023Y-123486633D01*
X226021024Y-123486635D01*
X226063018Y-123549483D01*
X226067370Y-123553835D01*
X226065785Y-123555419D01*
X226087426Y-123587815D01*
X226078087Y-123634730D01*
X226067011Y-123645806D01*
X226067370Y-123646165D01*
X226063018Y-123650516D01*
X226021024Y-123713364D01*
X226021023Y-123713366D01*
X226010000Y-123768787D01*
X226010000Y-123931212D01*
X226021023Y-123986633D01*
X226021024Y-123986635D01*
X226063018Y-124049483D01*
X226067370Y-124053835D01*
X226065783Y-124055421D01*
X226087423Y-124087799D01*
X226078096Y-124134717D01*
X226067010Y-124145806D01*
X226067369Y-124146165D01*
X226063017Y-124150516D01*
X226021023Y-124213364D01*
X226021022Y-124213366D01*
X226009999Y-124268787D01*
X226009999Y-124431212D01*
X226021022Y-124486633D01*
X226021023Y-124486635D01*
X226063017Y-124549483D01*
X226067369Y-124553835D01*
X226065783Y-124555420D01*
X226087424Y-124587805D01*
X226078093Y-124634722D01*
X226067010Y-124645805D01*
X226067370Y-124646165D01*
X226063018Y-124650516D01*
X226021024Y-124713364D01*
X226021023Y-124713366D01*
X226010000Y-124768787D01*
X226010000Y-124910000D01*
X225991694Y-124954194D01*
X225947500Y-124972500D01*
X225806288Y-124972500D01*
X225750866Y-124983523D01*
X225750864Y-124983524D01*
X225688016Y-125025518D01*
X225683665Y-125029870D01*
X225682080Y-125028285D01*
X225649685Y-125049926D01*
X225602770Y-125040587D01*
X225591694Y-125029509D01*
X225591335Y-125029869D01*
X225586983Y-125025517D01*
X225524135Y-124983523D01*
X225524133Y-124983522D01*
X225468712Y-124972499D01*
X225306288Y-124972499D01*
X225250866Y-124983522D01*
X225250864Y-124983523D01*
X225188016Y-125025517D01*
X225183665Y-125029869D01*
X225182230Y-125028434D01*
X225149381Y-125050375D01*
X225102467Y-125041035D01*
X225091319Y-125029885D01*
X225090975Y-125030230D01*
X225086623Y-125025878D01*
X225023941Y-124983995D01*
X225023937Y-124983993D01*
X224968667Y-124973000D01*
X224951000Y-124973000D01*
X224951000Y-126101999D01*
X224968663Y-126101999D01*
X225023937Y-126091006D01*
X225062776Y-126065055D01*
X225109693Y-126055723D01*
X225149467Y-126082298D01*
X225160000Y-126117022D01*
X225160000Y-127703101D01*
X225141694Y-127747295D01*
X225105434Y-127783554D01*
X225105429Y-127783560D01*
X225059022Y-127863937D01*
X225059021Y-127863940D01*
X225035001Y-127953585D01*
X225035000Y-127953593D01*
X225035000Y-128046406D01*
X225035001Y-128046414D01*
X225059021Y-128136059D01*
X225059022Y-128136062D01*
X225105429Y-128216439D01*
X225105434Y-128216445D01*
X225171054Y-128282065D01*
X225171060Y-128282070D01*
X225251437Y-128328477D01*
X225251440Y-128328478D01*
X225341092Y-128352500D01*
X225341093Y-128352500D01*
X225433907Y-128352500D01*
X225433908Y-128352500D01*
X225523560Y-128328478D01*
X225603940Y-128282070D01*
X225669570Y-128216440D01*
X225715978Y-128136060D01*
X225740000Y-128046408D01*
X225740000Y-127953592D01*
X225715978Y-127863940D01*
X225715977Y-127863937D01*
X225669570Y-127783560D01*
X225669565Y-127783554D01*
X225633306Y-127747295D01*
X225615000Y-127703101D01*
X225615000Y-127257957D01*
X225633306Y-127213763D01*
X225677500Y-127195457D01*
X225708750Y-127203830D01*
X225751440Y-127228478D01*
X225841092Y-127252500D01*
X225841093Y-127252500D01*
X225933907Y-127252500D01*
X225933908Y-127252500D01*
X226023560Y-127228478D01*
X226103940Y-127182070D01*
X226169570Y-127116440D01*
X226215978Y-127036060D01*
X226240000Y-126946408D01*
X226240000Y-126853592D01*
X226215978Y-126763940D01*
X226215977Y-126763937D01*
X226169570Y-126683560D01*
X226169565Y-126683554D01*
X226133306Y-126647295D01*
X226115000Y-126603101D01*
X226115000Y-126026509D01*
X226125535Y-125991783D01*
X226128976Y-125986634D01*
X226140000Y-125931212D01*
X226140000Y-125165000D01*
X226158306Y-125120806D01*
X226202500Y-125102500D01*
X226968712Y-125102500D01*
X227024134Y-125091476D01*
X227029287Y-125088032D01*
X227064010Y-125077500D01*
X227453102Y-125077500D01*
X227497296Y-125095806D01*
X227522296Y-125120806D01*
X227533559Y-125132069D01*
X227533560Y-125132070D01*
X227613937Y-125178477D01*
X227613940Y-125178478D01*
X227703592Y-125202500D01*
X227703593Y-125202500D01*
X227796407Y-125202500D01*
X227796408Y-125202500D01*
X227886060Y-125178478D01*
X227966440Y-125132070D01*
X228032070Y-125066440D01*
X228078478Y-124986060D01*
X228102500Y-124896408D01*
X228102500Y-124803592D01*
X228096494Y-124781177D01*
X228102737Y-124733751D01*
X228140687Y-124704630D01*
X228156864Y-124702500D01*
X228246407Y-124702500D01*
X228246408Y-124702500D01*
X228336060Y-124678478D01*
X228416440Y-124632070D01*
X228482070Y-124566440D01*
X228528478Y-124486060D01*
X228552500Y-124396408D01*
X228552500Y-124303592D01*
X228528478Y-124213940D01*
X228528147Y-124213366D01*
X228510465Y-124182739D01*
X228504221Y-124135313D01*
X228533341Y-124097363D01*
X228580767Y-124091119D01*
X228608786Y-124107296D01*
X228633555Y-124132066D01*
X228633560Y-124132070D01*
X228713937Y-124178477D01*
X228713940Y-124178478D01*
X228803592Y-124202500D01*
X228803593Y-124202500D01*
X228896407Y-124202500D01*
X228896408Y-124202500D01*
X228986060Y-124178478D01*
X229066440Y-124132070D01*
X229132070Y-124066440D01*
X229178478Y-123986060D01*
X229202500Y-123896408D01*
X229202500Y-123803592D01*
X229178478Y-123713940D01*
X229178145Y-123713364D01*
X229153831Y-123671251D01*
X229147586Y-123623825D01*
X229176706Y-123585874D01*
X229207957Y-123577500D01*
X241553102Y-123577500D01*
X241597296Y-123595806D01*
X241623990Y-123622500D01*
X241633559Y-123632069D01*
X241633560Y-123632070D01*
X241713937Y-123678477D01*
X241713940Y-123678478D01*
X241803592Y-123702500D01*
X241803593Y-123702500D01*
X241896407Y-123702500D01*
X241896408Y-123702500D01*
X241986060Y-123678478D01*
X242066440Y-123632070D01*
X242132070Y-123566440D01*
X242178478Y-123486060D01*
X242202500Y-123396408D01*
X242202500Y-123303592D01*
X242178478Y-123213940D01*
X242178477Y-123213937D01*
X242132070Y-123133560D01*
X242132065Y-123133554D01*
X242066445Y-123067934D01*
X242066439Y-123067929D01*
X241986062Y-123021522D01*
X241986059Y-123021521D01*
X241896414Y-122997501D01*
X241896409Y-122997500D01*
X241896408Y-122997500D01*
X241803592Y-122997500D01*
X241803591Y-122997500D01*
X241803585Y-122997501D01*
X241713940Y-123021521D01*
X241713937Y-123021522D01*
X241633560Y-123067929D01*
X241633559Y-123067930D01*
X241623990Y-123077500D01*
X241597295Y-123104194D01*
X241553103Y-123122500D01*
X240607957Y-123122500D01*
X240563763Y-123104194D01*
X240545457Y-123060000D01*
X240553831Y-123028749D01*
X240578146Y-122986635D01*
X240578478Y-122986060D01*
X240602500Y-122896408D01*
X240602500Y-122803592D01*
X240578478Y-122713940D01*
X240578145Y-122713364D01*
X240553831Y-122671251D01*
X240547586Y-122623825D01*
X240576706Y-122585874D01*
X240607957Y-122577500D01*
X245353102Y-122577500D01*
X245397296Y-122595806D01*
X245423990Y-122622500D01*
X245433559Y-122632069D01*
X245433560Y-122632070D01*
X245513937Y-122678477D01*
X245513940Y-122678478D01*
X245603592Y-122702500D01*
X245603593Y-122702500D01*
X245696407Y-122702500D01*
X245696408Y-122702500D01*
X245786060Y-122678478D01*
X245866440Y-122632070D01*
X245932070Y-122566440D01*
X245978478Y-122486060D01*
X246002500Y-122396408D01*
X246002500Y-122303592D01*
X245978478Y-122213940D01*
X245978477Y-122213937D01*
X245932070Y-122133560D01*
X245932065Y-122133554D01*
X245866445Y-122067934D01*
X245866439Y-122067929D01*
X245786062Y-122021522D01*
X245786059Y-122021521D01*
X245696414Y-121997501D01*
X245696409Y-121997500D01*
X245696408Y-121997500D01*
X245603592Y-121997500D01*
X245603591Y-121997500D01*
X245603585Y-121997501D01*
X245513940Y-122021521D01*
X245513937Y-122021522D01*
X245433560Y-122067929D01*
X245433559Y-122067930D01*
X245422296Y-122079194D01*
X245397295Y-122104194D01*
X245353103Y-122122500D01*
X227064010Y-122122500D01*
X227029287Y-122111967D01*
X227024134Y-122108524D01*
X227024133Y-122108523D01*
X226968712Y-122097500D01*
X226202500Y-122097500D01*
X226158306Y-122079194D01*
X226140000Y-122035000D01*
X226140000Y-121268788D01*
X226128976Y-121213366D01*
X226128974Y-121213361D01*
X226125534Y-121208213D01*
X226115001Y-121173491D01*
X226115001Y-120932620D01*
X226133307Y-120888426D01*
X226825928Y-120195805D01*
X226870122Y-120177499D01*
X226885001Y-120177499D01*
X226929195Y-120195805D01*
X226947501Y-120239999D01*
X226947501Y-120435824D01*
X226958190Y-120509200D01*
X226958191Y-120509203D01*
X227013524Y-120622389D01*
X227102610Y-120711475D01*
X227215796Y-120766808D01*
X227289173Y-120777499D01*
X227885826Y-120777498D01*
X227959204Y-120766808D01*
X228072390Y-120711475D01*
X228161476Y-120622389D01*
X228216809Y-120509203D01*
X228227500Y-120435826D01*
X228227499Y-119464173D01*
X228227499Y-119464172D01*
X228772500Y-119464172D01*
X228772500Y-120435824D01*
X228783190Y-120509200D01*
X228783191Y-120509203D01*
X228838524Y-120622389D01*
X228927610Y-120711475D01*
X229040796Y-120766808D01*
X229114173Y-120777499D01*
X229710826Y-120777498D01*
X229784204Y-120766808D01*
X229897390Y-120711475D01*
X229986476Y-120622389D01*
X230041809Y-120509203D01*
X230052500Y-120435826D01*
X230052500Y-120239999D01*
X230070806Y-120195805D01*
X230115000Y-120177499D01*
X230203102Y-120177499D01*
X230247296Y-120195805D01*
X230279735Y-120228244D01*
X230283559Y-120232068D01*
X230283560Y-120232069D01*
X230363937Y-120278476D01*
X230363940Y-120278477D01*
X230453592Y-120302499D01*
X230453593Y-120302499D01*
X230546407Y-120302499D01*
X230546408Y-120302499D01*
X230636060Y-120278477D01*
X230639102Y-120276721D01*
X230677161Y-120254747D01*
X230716440Y-120232069D01*
X230782070Y-120166439D01*
X230828478Y-120086059D01*
X230852500Y-119996407D01*
X230852500Y-119903591D01*
X230828478Y-119813939D01*
X230828477Y-119813936D01*
X230782070Y-119733559D01*
X230782065Y-119733553D01*
X230716445Y-119667933D01*
X230716439Y-119667928D01*
X230636062Y-119621521D01*
X230636059Y-119621520D01*
X230546414Y-119597500D01*
X230546409Y-119597499D01*
X230546408Y-119597499D01*
X230453592Y-119597499D01*
X230453591Y-119597499D01*
X230453585Y-119597500D01*
X230363940Y-119621520D01*
X230363937Y-119621521D01*
X230283560Y-119667928D01*
X230283559Y-119667929D01*
X230274489Y-119677000D01*
X230247295Y-119704193D01*
X230203103Y-119722499D01*
X230114999Y-119722499D01*
X230070805Y-119704193D01*
X230052499Y-119659999D01*
X230052499Y-119464173D01*
X230041809Y-119390797D01*
X230041809Y-119390795D01*
X229986476Y-119277609D01*
X229897390Y-119188523D01*
X229784204Y-119133190D01*
X229784202Y-119133189D01*
X229784201Y-119133189D01*
X229724876Y-119124546D01*
X229710827Y-119122499D01*
X229710826Y-119122499D01*
X229114174Y-119122499D01*
X229040798Y-119133189D01*
X229040797Y-119133189D01*
X229040796Y-119133190D01*
X228977421Y-119164172D01*
X228927608Y-119188524D01*
X228838525Y-119277607D01*
X228783190Y-119390797D01*
X228772500Y-119464172D01*
X228227499Y-119464172D01*
X228216809Y-119390795D01*
X228161476Y-119277609D01*
X228072390Y-119188523D01*
X227959204Y-119133190D01*
X227959202Y-119133189D01*
X227959201Y-119133189D01*
X227899876Y-119124546D01*
X227885827Y-119122499D01*
X227885826Y-119122499D01*
X227877500Y-119122499D01*
X227833306Y-119104193D01*
X227815000Y-119059999D01*
X227815000Y-118992245D01*
X227808937Y-118977609D01*
X227797173Y-118949208D01*
X227782257Y-118913197D01*
X227777501Y-118889282D01*
X227777501Y-118864859D01*
X227795807Y-118820665D01*
X227833666Y-118803355D01*
X227833589Y-118802824D01*
X227835409Y-118802558D01*
X227835490Y-118802522D01*
X227835817Y-118802498D01*
X227835827Y-118802498D01*
X227909205Y-118791808D01*
X228022391Y-118736475D01*
X228111477Y-118647389D01*
X228166810Y-118534203D01*
X228177501Y-118460826D01*
X228177501Y-118460776D01*
X228823000Y-118460776D01*
X228833675Y-118534055D01*
X228833677Y-118534059D01*
X228888935Y-118647094D01*
X228977903Y-118736062D01*
X229090940Y-118791321D01*
X229164213Y-118801997D01*
X229164227Y-118801998D01*
X229386498Y-118801998D01*
X229513499Y-118801998D01*
X229735777Y-118801998D01*
X229809055Y-118791322D01*
X229809059Y-118791320D01*
X229922094Y-118736062D01*
X230011062Y-118647094D01*
X230066321Y-118534057D01*
X230076999Y-118460777D01*
X230076999Y-118013499D01*
X229513499Y-118013499D01*
X229513499Y-118801998D01*
X229386498Y-118801998D01*
X229386499Y-118801997D01*
X229386499Y-118013499D01*
X228823000Y-118013499D01*
X228823000Y-118460776D01*
X228177501Y-118460776D01*
X228177500Y-117909061D01*
X228177500Y-117439220D01*
X228822999Y-117439220D01*
X228822999Y-117886499D01*
X229386499Y-117886499D01*
X229513499Y-117886499D01*
X230076998Y-117886499D01*
X230076998Y-117439221D01*
X230066322Y-117365942D01*
X230066320Y-117365938D01*
X230011062Y-117252903D01*
X229922094Y-117163935D01*
X229809057Y-117108676D01*
X229735777Y-117097999D01*
X229513499Y-117097999D01*
X229513499Y-117886499D01*
X229386499Y-117886499D01*
X229386499Y-117097999D01*
X229164221Y-117097999D01*
X229090941Y-117108676D01*
X229090938Y-117108677D01*
X228977903Y-117163935D01*
X228888935Y-117252903D01*
X228833676Y-117365940D01*
X228822999Y-117439220D01*
X228177500Y-117439220D01*
X228177500Y-117439173D01*
X228166810Y-117365797D01*
X228166810Y-117365795D01*
X228111477Y-117252609D01*
X228022391Y-117163523D01*
X227909205Y-117108190D01*
X227909203Y-117108189D01*
X227909202Y-117108189D01*
X227850914Y-117099697D01*
X227835828Y-117097499D01*
X227835827Y-117097499D01*
X227264175Y-117097499D01*
X227190799Y-117108189D01*
X227190798Y-117108189D01*
X227190797Y-117108190D01*
X227077611Y-117163523D01*
X227077609Y-117163524D01*
X226988526Y-117252607D01*
X226933191Y-117365797D01*
X226922501Y-117439172D01*
X226922501Y-118460824D01*
X226933191Y-118534200D01*
X226933192Y-118534203D01*
X226988525Y-118647389D01*
X227077611Y-118736475D01*
X227190797Y-118791808D01*
X227264174Y-118802499D01*
X227264186Y-118802498D01*
X227264508Y-118802523D01*
X227264577Y-118802557D01*
X227266412Y-118802825D01*
X227266323Y-118803433D01*
X227307267Y-118823968D01*
X227322501Y-118864860D01*
X227322501Y-119045252D01*
X227323655Y-119051054D01*
X227314323Y-119097971D01*
X227274549Y-119124546D01*
X227271367Y-119125094D01*
X227239570Y-119129726D01*
X227215796Y-119133190D01*
X227152421Y-119164172D01*
X227102608Y-119188524D01*
X227013525Y-119277607D01*
X226958190Y-119390797D01*
X226947500Y-119464172D01*
X226947500Y-119659999D01*
X226929194Y-119704193D01*
X226885000Y-119722499D01*
X226704745Y-119722499D01*
X226621136Y-119757131D01*
X226621131Y-119757135D01*
X225758633Y-120619634D01*
X225758632Y-120619635D01*
X225701331Y-120676934D01*
X225657137Y-120695239D01*
X225612943Y-120676932D01*
X225612942Y-120676931D01*
X225603944Y-120667932D01*
X225603939Y-120667928D01*
X225523562Y-120621521D01*
X225523559Y-120621520D01*
X225433914Y-120597500D01*
X225433909Y-120597499D01*
X225433908Y-120597499D01*
X225425120Y-120597499D01*
X225380926Y-120579193D01*
X225362620Y-120534999D01*
X225380926Y-120490805D01*
X225442867Y-120428864D01*
X226292866Y-119578867D01*
X226327500Y-119495252D01*
X226327500Y-119404746D01*
X226327500Y-114520121D01*
X226345806Y-114475927D01*
X226440807Y-114380926D01*
X226485001Y-114362620D01*
X226529195Y-114380926D01*
X226547501Y-114425120D01*
X226547501Y-114585826D01*
X226549698Y-114600909D01*
X226558190Y-114659201D01*
X226558191Y-114659204D01*
X226613524Y-114772390D01*
X226702610Y-114861476D01*
X226815796Y-114916809D01*
X226889173Y-114927500D01*
X227485826Y-114927499D01*
X227559204Y-114916809D01*
X227672390Y-114861476D01*
X227761476Y-114772390D01*
X227816809Y-114659204D01*
X227827500Y-114585827D01*
X227827499Y-113614174D01*
X227827499Y-113614173D01*
X228372500Y-113614173D01*
X228372500Y-114585825D01*
X228383190Y-114659201D01*
X228383191Y-114659204D01*
X228438524Y-114772390D01*
X228527610Y-114861476D01*
X228640796Y-114916809D01*
X228714173Y-114927500D01*
X229310826Y-114927499D01*
X229384204Y-114916809D01*
X229497390Y-114861476D01*
X229586476Y-114772390D01*
X229641809Y-114659204D01*
X229652500Y-114585827D01*
X229652499Y-114506863D01*
X229670804Y-114462670D01*
X229714998Y-114444364D01*
X229731175Y-114446494D01*
X229749581Y-114451425D01*
X229753592Y-114452500D01*
X229753593Y-114452500D01*
X229846407Y-114452500D01*
X229846408Y-114452500D01*
X229936060Y-114428478D01*
X230016440Y-114382070D01*
X230082070Y-114316440D01*
X230128478Y-114236060D01*
X230152500Y-114146408D01*
X230152500Y-114053592D01*
X230128478Y-113963940D01*
X230128477Y-113963937D01*
X230082070Y-113883560D01*
X230082065Y-113883554D01*
X230016445Y-113817934D01*
X230016439Y-113817929D01*
X229936062Y-113771522D01*
X229936059Y-113771521D01*
X229846414Y-113747501D01*
X229846409Y-113747500D01*
X229846408Y-113747500D01*
X229753592Y-113747500D01*
X229753587Y-113747500D01*
X229731173Y-113753506D01*
X229683747Y-113747261D01*
X229654628Y-113709309D01*
X229652499Y-113693135D01*
X229652499Y-113614174D01*
X229652499Y-113614173D01*
X229641809Y-113540796D01*
X229586476Y-113427610D01*
X229497390Y-113338524D01*
X229384204Y-113283191D01*
X229384202Y-113283190D01*
X229384201Y-113283190D01*
X229325913Y-113274698D01*
X229310827Y-113272500D01*
X229310826Y-113272500D01*
X228714174Y-113272500D01*
X228640798Y-113283190D01*
X228640797Y-113283190D01*
X228640796Y-113283191D01*
X228527610Y-113338524D01*
X228527608Y-113338525D01*
X228438525Y-113427608D01*
X228383190Y-113540798D01*
X228372500Y-113614173D01*
X227827499Y-113614173D01*
X227816809Y-113540796D01*
X227761476Y-113427610D01*
X227672390Y-113338524D01*
X227559204Y-113283191D01*
X227559202Y-113283190D01*
X227559201Y-113283190D01*
X227500913Y-113274698D01*
X227485827Y-113272500D01*
X227485826Y-113272500D01*
X226889174Y-113272500D01*
X226815798Y-113283190D01*
X226815797Y-113283190D01*
X226815796Y-113283191D01*
X226702610Y-113338524D01*
X226702608Y-113338525D01*
X226613525Y-113427608D01*
X226558190Y-113540798D01*
X226547500Y-113614173D01*
X226547500Y-113810000D01*
X226529194Y-113854194D01*
X226485000Y-113872500D01*
X226390000Y-113872500D01*
X226345806Y-113854194D01*
X226327500Y-113810000D01*
X226327500Y-103296898D01*
X226345806Y-103252704D01*
X226382070Y-103216440D01*
X226428478Y-103136060D01*
X226452500Y-103046408D01*
X226452500Y-102953592D01*
X226428478Y-102863940D01*
X226428477Y-102863937D01*
X226382070Y-102783560D01*
X226382065Y-102783554D01*
X226316445Y-102717934D01*
X226316439Y-102717929D01*
X226236062Y-102671522D01*
X226236059Y-102671521D01*
X226146414Y-102647501D01*
X226146409Y-102647500D01*
X226146408Y-102647500D01*
X226053592Y-102647500D01*
X226053591Y-102647500D01*
X226053585Y-102647501D01*
X225963940Y-102671521D01*
X225963937Y-102671522D01*
X225883560Y-102717929D01*
X225883554Y-102717934D01*
X225817934Y-102783554D01*
X225817929Y-102783560D01*
X225771522Y-102863937D01*
X225771521Y-102863940D01*
X225747501Y-102953585D01*
X225747500Y-102953593D01*
X225747500Y-103046406D01*
X225747501Y-103046414D01*
X225771521Y-103136059D01*
X225771522Y-103136062D01*
X225817929Y-103216439D01*
X225817930Y-103216440D01*
X225854194Y-103252704D01*
X225872500Y-103296897D01*
X225872500Y-119329877D01*
X225854194Y-119374071D01*
X225312659Y-119915605D01*
X225268465Y-119933911D01*
X225224271Y-119915605D01*
X225205965Y-119871411D01*
X225212314Y-119843965D01*
X225229309Y-119809203D01*
X225240000Y-119735826D01*
X225239999Y-119164173D01*
X225229309Y-119090795D01*
X225173976Y-118977609D01*
X225084890Y-118888523D01*
X224971704Y-118833190D01*
X224971702Y-118833189D01*
X224971701Y-118833189D01*
X224908409Y-118823968D01*
X224898327Y-118822499D01*
X224898326Y-118822499D01*
X224773712Y-118822499D01*
X224729518Y-118804193D01*
X224711212Y-118759999D01*
X224715172Y-118740085D01*
X224714918Y-118740017D01*
X224715956Y-118736142D01*
X224715967Y-118736088D01*
X224715977Y-118736062D01*
X224739737Y-118647390D01*
X224740000Y-118646408D01*
X224740000Y-118553592D01*
X224715978Y-118463940D01*
X224715977Y-118463937D01*
X224669570Y-118383560D01*
X224669565Y-118383554D01*
X224603945Y-118317934D01*
X224603939Y-118317929D01*
X224561845Y-118293626D01*
X224532725Y-118255676D01*
X224538970Y-118208249D01*
X224576920Y-118179129D01*
X224593096Y-118177000D01*
X224898278Y-118177000D01*
X224971556Y-118166324D01*
X224971560Y-118166322D01*
X225084595Y-118111064D01*
X225173563Y-118022096D01*
X225228822Y-117909059D01*
X225239500Y-117835779D01*
X225239500Y-117613501D01*
X223535501Y-117613501D01*
X223535501Y-117835778D01*
X223546176Y-117909057D01*
X223546178Y-117909061D01*
X223601436Y-118022096D01*
X223690404Y-118111064D01*
X223803441Y-118166323D01*
X223876721Y-118177000D01*
X224181902Y-118177000D01*
X224226096Y-118195306D01*
X224244402Y-118239500D01*
X224226096Y-118283694D01*
X224213154Y-118293626D01*
X224171057Y-118317931D01*
X224105434Y-118383554D01*
X224105429Y-118383560D01*
X224059022Y-118463937D01*
X224059021Y-118463940D01*
X224035001Y-118553585D01*
X224035000Y-118553593D01*
X224035000Y-118646406D01*
X224035001Y-118646414D01*
X224059022Y-118736062D01*
X224059033Y-118736088D01*
X224059032Y-118736102D01*
X224060082Y-118740017D01*
X224059032Y-118740298D01*
X224059028Y-118783923D01*
X224025199Y-118817744D01*
X224001288Y-118822499D01*
X223876674Y-118822499D01*
X223803298Y-118833189D01*
X223803297Y-118833189D01*
X223803296Y-118833190D01*
X223738516Y-118864859D01*
X223690108Y-118888524D01*
X223601025Y-118977607D01*
X223545690Y-119090797D01*
X223535000Y-119164172D01*
X223535000Y-119735824D01*
X223545690Y-119809200D01*
X223545691Y-119809203D01*
X223601024Y-119922389D01*
X223690110Y-120011475D01*
X223803296Y-120066808D01*
X223876673Y-120077499D01*
X224097500Y-120077498D01*
X224141694Y-120095804D01*
X224160000Y-120139998D01*
X224160000Y-120787378D01*
X224141694Y-120831572D01*
X224097500Y-120849878D01*
X224053306Y-120831572D01*
X223245806Y-120024072D01*
X223227500Y-119979878D01*
X223227500Y-117264222D01*
X223535500Y-117264222D01*
X223535500Y-117486501D01*
X224324000Y-117486501D01*
X224451000Y-117486501D01*
X225239499Y-117486501D01*
X225239499Y-117264223D01*
X225228823Y-117190944D01*
X225228821Y-117190940D01*
X225173563Y-117077905D01*
X225084595Y-116988937D01*
X224971558Y-116933678D01*
X224898278Y-116923001D01*
X224451000Y-116923001D01*
X224451000Y-117486501D01*
X224324000Y-117486501D01*
X224324000Y-116923001D01*
X223876722Y-116923001D01*
X223803443Y-116933677D01*
X223803439Y-116933679D01*
X223690404Y-116988937D01*
X223601436Y-117077905D01*
X223546177Y-117190942D01*
X223535500Y-117264222D01*
X223227500Y-117264222D01*
X223227500Y-99420121D01*
X223245806Y-99375927D01*
X223575928Y-99045806D01*
X223620122Y-99027500D01*
X241745253Y-99027500D01*
X241801518Y-99004194D01*
X241828864Y-98992867D01*
X241828864Y-98992866D01*
X241828868Y-98992865D01*
X243415806Y-97405927D01*
X243460000Y-97387621D01*
X243504194Y-97405927D01*
X243522500Y-97450121D01*
X243522500Y-97729878D01*
X243504194Y-97774072D01*
X241624073Y-99654194D01*
X241579879Y-99672500D01*
X225896898Y-99672500D01*
X225852704Y-99654194D01*
X225816440Y-99617930D01*
X225816439Y-99617929D01*
X225736062Y-99571522D01*
X225736059Y-99571521D01*
X225646414Y-99547501D01*
X225646409Y-99547500D01*
X225646408Y-99547500D01*
X225553592Y-99547500D01*
X225553591Y-99547500D01*
X225553585Y-99547501D01*
X225463940Y-99571521D01*
X225463937Y-99571522D01*
X225383560Y-99617929D01*
X225383554Y-99617934D01*
X225317934Y-99683554D01*
X225317929Y-99683560D01*
X225271522Y-99763937D01*
X225271521Y-99763940D01*
X225247501Y-99853585D01*
X225247500Y-99853593D01*
X225247500Y-99946406D01*
X225247501Y-99946414D01*
X225271521Y-100036059D01*
X225271522Y-100036062D01*
X225317929Y-100116439D01*
X225317934Y-100116445D01*
X225383554Y-100182065D01*
X225383560Y-100182070D01*
X225463937Y-100228477D01*
X225463940Y-100228478D01*
X225553592Y-100252500D01*
X225553593Y-100252500D01*
X225646407Y-100252500D01*
X225646408Y-100252500D01*
X225736060Y-100228478D01*
X225816440Y-100182070D01*
X225852704Y-100145805D01*
X225896897Y-100127500D01*
X241745253Y-100127500D01*
X241773124Y-100115955D01*
X241828864Y-100092867D01*
X241828864Y-100092866D01*
X241828868Y-100092865D01*
X243915807Y-98005926D01*
X243960000Y-97987621D01*
X244004194Y-98005927D01*
X244022500Y-98050121D01*
X244022500Y-102253101D01*
X244004194Y-102297295D01*
X243967934Y-102333554D01*
X243967929Y-102333560D01*
X243921522Y-102413937D01*
X243921521Y-102413940D01*
X243897501Y-102503585D01*
X243897500Y-102503593D01*
X243897500Y-102596406D01*
X243897501Y-102596414D01*
X243921521Y-102686059D01*
X243921522Y-102686062D01*
X243967929Y-102766439D01*
X243967934Y-102766445D01*
X244033554Y-102832065D01*
X244033560Y-102832070D01*
X244113937Y-102878477D01*
X244113940Y-102878478D01*
X244203592Y-102902500D01*
X244203593Y-102902500D01*
X244296407Y-102902500D01*
X244296408Y-102902500D01*
X244386060Y-102878478D01*
X244428749Y-102853830D01*
X244476175Y-102847586D01*
X244514126Y-102876706D01*
X244522500Y-102907957D01*
X244522500Y-103653101D01*
X244504194Y-103697295D01*
X244467934Y-103733554D01*
X244467929Y-103733560D01*
X244421522Y-103813937D01*
X244421521Y-103813940D01*
X244397501Y-103903585D01*
X244397500Y-103903593D01*
X244397500Y-103996406D01*
X244397501Y-103996414D01*
X244421521Y-104086059D01*
X244421522Y-104086062D01*
X244467929Y-104166439D01*
X244467934Y-104166445D01*
X244533554Y-104232065D01*
X244533560Y-104232070D01*
X244613937Y-104278477D01*
X244613940Y-104278478D01*
X244703592Y-104302500D01*
X244703593Y-104302500D01*
X244796407Y-104302500D01*
X244796408Y-104302500D01*
X244886060Y-104278478D01*
X244928749Y-104253830D01*
X244976175Y-104247586D01*
X245014126Y-104276706D01*
X245022500Y-104307957D01*
X245022500Y-104703101D01*
X245004194Y-104747295D01*
X244967934Y-104783554D01*
X244967929Y-104783560D01*
X244921522Y-104863937D01*
X244921521Y-104863940D01*
X244897501Y-104953585D01*
X244897500Y-104953593D01*
X244897500Y-105046406D01*
X244897501Y-105046414D01*
X244921521Y-105136059D01*
X244921522Y-105136062D01*
X244967929Y-105216439D01*
X244967934Y-105216445D01*
X245033554Y-105282065D01*
X245033560Y-105282070D01*
X245113937Y-105328477D01*
X245113940Y-105328478D01*
X245203592Y-105352500D01*
X245203593Y-105352500D01*
X245296407Y-105352500D01*
X245296408Y-105352500D01*
X245386060Y-105328478D01*
X245428749Y-105303830D01*
X245476175Y-105297586D01*
X245514126Y-105326706D01*
X245522500Y-105357957D01*
X245522500Y-105853101D01*
X245504194Y-105897295D01*
X245467934Y-105933554D01*
X245467929Y-105933560D01*
X245421522Y-106013937D01*
X245421521Y-106013940D01*
X245397501Y-106103585D01*
X245397500Y-106103593D01*
X245397500Y-106196406D01*
X245397501Y-106196414D01*
X245421521Y-106286059D01*
X245421522Y-106286062D01*
X245467929Y-106366439D01*
X245467934Y-106366445D01*
X245533554Y-106432065D01*
X245533560Y-106432070D01*
X245613937Y-106478477D01*
X245613940Y-106478478D01*
X245703592Y-106502500D01*
X245703593Y-106502500D01*
X245796407Y-106502500D01*
X245796408Y-106502500D01*
X245886060Y-106478478D01*
X245928749Y-106453830D01*
X245976175Y-106447586D01*
X246014126Y-106476706D01*
X246022500Y-106507957D01*
X246022500Y-106803101D01*
X246004194Y-106847295D01*
X245967934Y-106883554D01*
X245967929Y-106883560D01*
X245921522Y-106963937D01*
X245921521Y-106963940D01*
X245897501Y-107053585D01*
X245897500Y-107053593D01*
X245897500Y-107146406D01*
X245897501Y-107146414D01*
X245921521Y-107236059D01*
X245921522Y-107236062D01*
X245967929Y-107316439D01*
X245967934Y-107316445D01*
X246033554Y-107382065D01*
X246033560Y-107382070D01*
X246113937Y-107428477D01*
X246113940Y-107428478D01*
X246203592Y-107452500D01*
X246203593Y-107452500D01*
X246296407Y-107452500D01*
X246296408Y-107452500D01*
X246386060Y-107428478D01*
X246428749Y-107403830D01*
X246476175Y-107397586D01*
X246514126Y-107426706D01*
X246522500Y-107457957D01*
X246522500Y-107803101D01*
X246504194Y-107847295D01*
X246467934Y-107883554D01*
X246467929Y-107883560D01*
X246421522Y-107963937D01*
X246421521Y-107963940D01*
X246397501Y-108053585D01*
X246397500Y-108053593D01*
X246397500Y-108146406D01*
X246397501Y-108146414D01*
X246421521Y-108236059D01*
X246421522Y-108236062D01*
X246467929Y-108316439D01*
X246467934Y-108316445D01*
X246533554Y-108382065D01*
X246533560Y-108382070D01*
X246613937Y-108428477D01*
X246613940Y-108428478D01*
X246703592Y-108452500D01*
X246703593Y-108452500D01*
X246796407Y-108452500D01*
X246796408Y-108452500D01*
X246886060Y-108428478D01*
X246928749Y-108403830D01*
X246976175Y-108397586D01*
X247014126Y-108426706D01*
X247022500Y-108457957D01*
X247022500Y-108915601D01*
X247004194Y-108959795D01*
X246967934Y-108996054D01*
X246967929Y-108996060D01*
X246921522Y-109076437D01*
X246921521Y-109076440D01*
X246897501Y-109166085D01*
X246897500Y-109166093D01*
X246897500Y-109258906D01*
X246897501Y-109258914D01*
X246921521Y-109348559D01*
X246921522Y-109348562D01*
X246967929Y-109428939D01*
X246967934Y-109428945D01*
X247033554Y-109494565D01*
X247033560Y-109494570D01*
X247113937Y-109540977D01*
X247113940Y-109540978D01*
X247203592Y-109565000D01*
X247203593Y-109565000D01*
X247296407Y-109565000D01*
X247296408Y-109565000D01*
X247386060Y-109540978D01*
X247428749Y-109516330D01*
X247476175Y-109510086D01*
X247514126Y-109539206D01*
X247522500Y-109570457D01*
X247522500Y-111029879D01*
X247504194Y-111074073D01*
X246249073Y-112329194D01*
X246204879Y-112347500D01*
X246153592Y-112347500D01*
X246153591Y-112347500D01*
X246153585Y-112347501D01*
X246063940Y-112371521D01*
X246063937Y-112371522D01*
X245983560Y-112417929D01*
X245983554Y-112417934D01*
X245917934Y-112483554D01*
X245917929Y-112483560D01*
X245871522Y-112563937D01*
X245871521Y-112563940D01*
X245847501Y-112653585D01*
X245847500Y-112653593D01*
X245847500Y-112746406D01*
X245847501Y-112746414D01*
X245871521Y-112836059D01*
X245871522Y-112836062D01*
X245917929Y-112916439D01*
X245917934Y-112916445D01*
X245983554Y-112982065D01*
X245983560Y-112982070D01*
X246063937Y-113028477D01*
X246063940Y-113028478D01*
X246153592Y-113052500D01*
X246153593Y-113052500D01*
X246246407Y-113052500D01*
X246246408Y-113052500D01*
X246336060Y-113028478D01*
X246416440Y-112982070D01*
X246482070Y-112916440D01*
X246528478Y-112836060D01*
X246552500Y-112746408D01*
X246552500Y-112695121D01*
X246570806Y-112650927D01*
X247256456Y-111965277D01*
X247942865Y-111278868D01*
X247977500Y-111195253D01*
X247977500Y-111104747D01*
X247977500Y-96030216D01*
X247988034Y-95995492D01*
X248015750Y-95954014D01*
X248015751Y-95954011D01*
X248020115Y-95932070D01*
X248027500Y-95894944D01*
X248027500Y-95381999D01*
X248982801Y-95381999D01*
X248982802Y-95382000D01*
X251017198Y-95382000D01*
X251017198Y-95381999D01*
X250000000Y-94364802D01*
X248982801Y-95381999D01*
X248027500Y-95381999D01*
X248027500Y-94905056D01*
X248015751Y-94845988D01*
X247970994Y-94779006D01*
X247904012Y-94734249D01*
X247904010Y-94734248D01*
X247844944Y-94722500D01*
X247655056Y-94722500D01*
X247655055Y-94722500D01*
X247595989Y-94734248D01*
X247595985Y-94734250D01*
X247534723Y-94775185D01*
X247487807Y-94784517D01*
X247465277Y-94775185D01*
X247404014Y-94734250D01*
X247404010Y-94734248D01*
X247344944Y-94722500D01*
X247155056Y-94722500D01*
X247155055Y-94722500D01*
X247095989Y-94734248D01*
X247095985Y-94734250D01*
X247034723Y-94775185D01*
X246987807Y-94784517D01*
X246965277Y-94775185D01*
X246904014Y-94734250D01*
X246904010Y-94734248D01*
X246844944Y-94722500D01*
X246655056Y-94722500D01*
X246655055Y-94722500D01*
X246595989Y-94734248D01*
X246595985Y-94734250D01*
X246534723Y-94775185D01*
X246487807Y-94784517D01*
X246465277Y-94775185D01*
X246404014Y-94734250D01*
X246404010Y-94734248D01*
X246344944Y-94722500D01*
X246155056Y-94722500D01*
X246155055Y-94722500D01*
X246095989Y-94734248D01*
X246095985Y-94734250D01*
X246034723Y-94775185D01*
X245987807Y-94784517D01*
X245965277Y-94775185D01*
X245904014Y-94734250D01*
X245904010Y-94734248D01*
X245844944Y-94722500D01*
X245655056Y-94722500D01*
X245655055Y-94722500D01*
X245595989Y-94734248D01*
X245595985Y-94734250D01*
X245534723Y-94775185D01*
X245487807Y-94784517D01*
X245465277Y-94775185D01*
X245404014Y-94734250D01*
X245404010Y-94734248D01*
X245344944Y-94722500D01*
X245155056Y-94722500D01*
X245155055Y-94722500D01*
X245095989Y-94734248D01*
X245095985Y-94734250D01*
X245034723Y-94775185D01*
X244987807Y-94784517D01*
X244965277Y-94775185D01*
X244904014Y-94734250D01*
X244904010Y-94734248D01*
X244844944Y-94722500D01*
X244655056Y-94722500D01*
X244655055Y-94722500D01*
X244595989Y-94734248D01*
X244595985Y-94734250D01*
X244534723Y-94775185D01*
X244487807Y-94784517D01*
X244465277Y-94775185D01*
X244404014Y-94734250D01*
X244404010Y-94734248D01*
X244344944Y-94722500D01*
X244155056Y-94722500D01*
X244155055Y-94722500D01*
X244095989Y-94734248D01*
X244095985Y-94734250D01*
X244034723Y-94775185D01*
X243987807Y-94784517D01*
X243965277Y-94775185D01*
X243904014Y-94734250D01*
X243904010Y-94734248D01*
X243844944Y-94722500D01*
X243655056Y-94722500D01*
X243655055Y-94722500D01*
X243595989Y-94734248D01*
X243595985Y-94734250D01*
X243534723Y-94775185D01*
X243487807Y-94784517D01*
X243465277Y-94775185D01*
X243404014Y-94734250D01*
X243404010Y-94734248D01*
X243344944Y-94722500D01*
X243155056Y-94722500D01*
X243155055Y-94722500D01*
X243095989Y-94734248D01*
X243095985Y-94734250D01*
X243034723Y-94775185D01*
X242987807Y-94784517D01*
X242965277Y-94775185D01*
X242904014Y-94734250D01*
X242904010Y-94734248D01*
X242844944Y-94722500D01*
X242655056Y-94722500D01*
X242655055Y-94722500D01*
X242595989Y-94734248D01*
X242595985Y-94734250D01*
X242534723Y-94775185D01*
X242487807Y-94784517D01*
X242465277Y-94775185D01*
X242404014Y-94734250D01*
X242404010Y-94734248D01*
X242344944Y-94722500D01*
X242155056Y-94722500D01*
X242155055Y-94722500D01*
X242095989Y-94734248D01*
X242095985Y-94734250D01*
X242034273Y-94775486D01*
X241987357Y-94784818D01*
X241964828Y-94775486D01*
X241903817Y-94734721D01*
X241844892Y-94723000D01*
X241813500Y-94723000D01*
X241813500Y-96076999D01*
X241844891Y-96076999D01*
X241844892Y-96076998D01*
X241903814Y-96065279D01*
X241903816Y-96065278D01*
X241925277Y-96050939D01*
X241972193Y-96041607D01*
X242011967Y-96068183D01*
X242022500Y-96102906D01*
X242022500Y-96379878D01*
X242004194Y-96424072D01*
X240924073Y-97504194D01*
X240879879Y-97522500D01*
X209570122Y-97522500D01*
X209525928Y-97504194D01*
X208365424Y-96343690D01*
X208325327Y-96303593D01*
X240897500Y-96303593D01*
X240897500Y-96396406D01*
X240897501Y-96396414D01*
X240921521Y-96486059D01*
X240921522Y-96486062D01*
X240967929Y-96566439D01*
X240967934Y-96566445D01*
X241033554Y-96632065D01*
X241033560Y-96632070D01*
X241113937Y-96678477D01*
X241113940Y-96678478D01*
X241203592Y-96702500D01*
X241203593Y-96702500D01*
X241296407Y-96702500D01*
X241296408Y-96702500D01*
X241386060Y-96678478D01*
X241466440Y-96632070D01*
X241532070Y-96566440D01*
X241578478Y-96486060D01*
X241602500Y-96396408D01*
X241602500Y-96303592D01*
X241578478Y-96213940D01*
X241578477Y-96213937D01*
X241548186Y-96161473D01*
X241541941Y-96114046D01*
X241571061Y-96076096D01*
X241614506Y-96068923D01*
X241655107Y-96076999D01*
X241686499Y-96076998D01*
X241686500Y-96076998D01*
X241686500Y-94723000D01*
X241686499Y-94722999D01*
X241655110Y-94723000D01*
X241655106Y-94723001D01*
X241596185Y-94734720D01*
X241596180Y-94734722D01*
X241535172Y-94775486D01*
X241488256Y-94784818D01*
X241465727Y-94775486D01*
X241404014Y-94734250D01*
X241404010Y-94734248D01*
X241344944Y-94722500D01*
X241155056Y-94722500D01*
X241155055Y-94722500D01*
X241095989Y-94734248D01*
X241095988Y-94734249D01*
X241029006Y-94779006D01*
X240984249Y-94845988D01*
X240984248Y-94845989D01*
X240972500Y-94905055D01*
X240972500Y-95894944D01*
X240984248Y-95954011D01*
X240984249Y-95954014D01*
X241011966Y-95995492D01*
X241022500Y-96030216D01*
X241022500Y-96053101D01*
X241004194Y-96097295D01*
X240967934Y-96133554D01*
X240967929Y-96133560D01*
X240921522Y-96213937D01*
X240921521Y-96213940D01*
X240897501Y-96303585D01*
X240897500Y-96303593D01*
X208325327Y-96303593D01*
X207403733Y-95381999D01*
X237982801Y-95381999D01*
X237982802Y-95382000D01*
X240017198Y-95382000D01*
X240017198Y-95381999D01*
X239000000Y-94364802D01*
X237982801Y-95381999D01*
X207403733Y-95381999D01*
X205711457Y-93689724D01*
X205671730Y-93649997D01*
X237818000Y-93649997D01*
X237818000Y-95249998D01*
X237829929Y-95304835D01*
X237853341Y-95331854D01*
X237853342Y-95331855D01*
X237862056Y-95323141D01*
X238910197Y-94274999D01*
X239089802Y-94274999D01*
X239089802Y-94275000D01*
X240147715Y-95332913D01*
X240161044Y-95321365D01*
X240182000Y-95250000D01*
X240182000Y-93300001D01*
X240181999Y-93299998D01*
X248818000Y-93299998D01*
X248818000Y-95249998D01*
X248829929Y-95304835D01*
X248853341Y-95331854D01*
X248853342Y-95331855D01*
X248862056Y-95323141D01*
X249910196Y-94275000D01*
X250089802Y-94275000D01*
X251147715Y-95332913D01*
X251161044Y-95321365D01*
X251182000Y-95250000D01*
X251182000Y-93650001D01*
X251170070Y-93595165D01*
X251121363Y-93538953D01*
X251050002Y-93518000D01*
X250846802Y-93518000D01*
X250089802Y-94275000D01*
X249910196Y-94275000D01*
X249910197Y-94274999D01*
X248852283Y-93217085D01*
X248838954Y-93228635D01*
X248818000Y-93299998D01*
X240181999Y-93299998D01*
X240170070Y-93245164D01*
X240146657Y-93218144D01*
X239089802Y-94274999D01*
X238910197Y-94274999D01*
X238153198Y-93518000D01*
X238332801Y-93518000D01*
X238999999Y-94185198D01*
X240017198Y-93168000D01*
X248982801Y-93168000D01*
X250000000Y-94185198D01*
X250667198Y-93518000D01*
X250444500Y-93518000D01*
X250400306Y-93499694D01*
X250382000Y-93455500D01*
X250382000Y-93300001D01*
X250370070Y-93245165D01*
X250321363Y-93188953D01*
X250250002Y-93168000D01*
X248982801Y-93168000D01*
X240017198Y-93168000D01*
X238750001Y-93168000D01*
X238695165Y-93179929D01*
X238638953Y-93228636D01*
X238618000Y-93299997D01*
X238618000Y-93455500D01*
X238599694Y-93499694D01*
X238555500Y-93518000D01*
X238332801Y-93518000D01*
X238153198Y-93518000D01*
X237950001Y-93518000D01*
X237895165Y-93529929D01*
X237838953Y-93578636D01*
X237818000Y-93649997D01*
X205671730Y-93649997D01*
X205478869Y-93457136D01*
X205478864Y-93457132D01*
X205395255Y-93422500D01*
X205395253Y-93422500D01*
X202602906Y-93422500D01*
X202558712Y-93404194D01*
X202540406Y-93360000D01*
X202550939Y-93325277D01*
X202565278Y-93303815D01*
X202577000Y-93244892D01*
X202577000Y-93213500D01*
X201223001Y-93213500D01*
X201223001Y-93244892D01*
X201234720Y-93303814D01*
X201234722Y-93303819D01*
X201275486Y-93364828D01*
X201284818Y-93411744D01*
X201275486Y-93434273D01*
X201234250Y-93495985D01*
X201234248Y-93495989D01*
X201222500Y-93555055D01*
X201222500Y-93744944D01*
X201234248Y-93804010D01*
X201234250Y-93804014D01*
X201275185Y-93865277D01*
X201284517Y-93912193D01*
X201275185Y-93934723D01*
X201234250Y-93995985D01*
X201234248Y-93995989D01*
X201222500Y-94055055D01*
X201222500Y-94244944D01*
X201234248Y-94304010D01*
X201234250Y-94304014D01*
X201275185Y-94365277D01*
X201284517Y-94412193D01*
X201275185Y-94434723D01*
X201234250Y-94495985D01*
X201234248Y-94495989D01*
X201222500Y-94555055D01*
X201222500Y-94744944D01*
X201234248Y-94804010D01*
X201234250Y-94804014D01*
X201275185Y-94865277D01*
X201284517Y-94912193D01*
X201275185Y-94934723D01*
X201234250Y-94995985D01*
X201234248Y-94995989D01*
X201222500Y-95055055D01*
X201222500Y-95244942D01*
X201222499Y-95244942D01*
X201224050Y-95252737D01*
X201214715Y-95299653D01*
X201174940Y-95326227D01*
X201138840Y-95322673D01*
X201136058Y-95321521D01*
X201046414Y-95297501D01*
X201046409Y-95297500D01*
X201046408Y-95297500D01*
X200953592Y-95297500D01*
X200953591Y-95297500D01*
X200953585Y-95297501D01*
X200863940Y-95321521D01*
X200863937Y-95321522D01*
X200783560Y-95367929D01*
X200783554Y-95367934D01*
X200717934Y-95433554D01*
X200717929Y-95433560D01*
X200671522Y-95513937D01*
X200671521Y-95513940D01*
X200647501Y-95603585D01*
X200647500Y-95603593D01*
X200647500Y-95696406D01*
X200647501Y-95696414D01*
X200671521Y-95786059D01*
X200671522Y-95786062D01*
X200717929Y-95866439D01*
X200717934Y-95866445D01*
X200783554Y-95932065D01*
X200783560Y-95932070D01*
X200863937Y-95978477D01*
X200863940Y-95978478D01*
X200953592Y-96002500D01*
X200953593Y-96002500D01*
X201046407Y-96002500D01*
X201046408Y-96002500D01*
X201136060Y-95978478D01*
X201137609Y-95977584D01*
X201178432Y-95954014D01*
X201216440Y-95932070D01*
X201241844Y-95906665D01*
X201286035Y-95888360D01*
X201320759Y-95898893D01*
X201345988Y-95915751D01*
X201405056Y-95927500D01*
X201405057Y-95927500D01*
X202394943Y-95927500D01*
X202394944Y-95927500D01*
X202454012Y-95915751D01*
X202520994Y-95870994D01*
X202565751Y-95804012D01*
X202577500Y-95744944D01*
X202577500Y-95555056D01*
X202565751Y-95495988D01*
X202551543Y-95474724D01*
X202542210Y-95427808D01*
X202568785Y-95388034D01*
X202603509Y-95377500D01*
X203929879Y-95377500D01*
X203974072Y-95395805D01*
X208021132Y-99442866D01*
X208080253Y-99467353D01*
X208080255Y-99467355D01*
X208080256Y-99467355D01*
X208104747Y-99477500D01*
X208104748Y-99477500D01*
X208195253Y-99477500D01*
X221729879Y-99477500D01*
X221774073Y-99495806D01*
X222129194Y-99850927D01*
X222147500Y-99895121D01*
X222147500Y-99946406D01*
X222147501Y-99946414D01*
X222171521Y-100036059D01*
X222171522Y-100036062D01*
X222217929Y-100116439D01*
X222217930Y-100116440D01*
X222254194Y-100152704D01*
X222272500Y-100196897D01*
X222272500Y-120345255D01*
X222307132Y-120428864D01*
X222307134Y-120428867D01*
X222307135Y-120428868D01*
X223116694Y-121238428D01*
X223135000Y-121282621D01*
X223135000Y-121615187D01*
X223116694Y-121659381D01*
X223072500Y-121677687D01*
X223028306Y-121659381D01*
X223018374Y-121646438D01*
X222982070Y-121583560D01*
X222982065Y-121583554D01*
X222916445Y-121517934D01*
X222916439Y-121517929D01*
X222836062Y-121471522D01*
X222836059Y-121471521D01*
X222746414Y-121447501D01*
X222746409Y-121447500D01*
X222746408Y-121447500D01*
X222653592Y-121447500D01*
X222653591Y-121447500D01*
X222653585Y-121447501D01*
X222563940Y-121471521D01*
X222563937Y-121471522D01*
X222483560Y-121517929D01*
X222483554Y-121517934D01*
X222417934Y-121583554D01*
X222417929Y-121583560D01*
X222371522Y-121663937D01*
X222371521Y-121663940D01*
X222347501Y-121753585D01*
X222347500Y-121753593D01*
X222347500Y-121846406D01*
X222347501Y-121846414D01*
X222371521Y-121936059D01*
X222371522Y-121936062D01*
X222393038Y-121973327D01*
X222406995Y-121997501D01*
X222410603Y-122003749D01*
X222416848Y-122051175D01*
X222387728Y-122089126D01*
X222356477Y-122097500D01*
X222306288Y-122097500D01*
X222250866Y-122108523D01*
X222250864Y-122108524D01*
X222188017Y-122150517D01*
X222146024Y-122213364D01*
X222146023Y-122213366D01*
X222135000Y-122268787D01*
X222135000Y-122431212D01*
X222146023Y-122486633D01*
X222146024Y-122486635D01*
X222188018Y-122549483D01*
X222192370Y-122553835D01*
X222190784Y-122555420D01*
X222212425Y-122587805D01*
X222203094Y-122634722D01*
X222192011Y-122645805D01*
X222192371Y-122646165D01*
X222188019Y-122650516D01*
X222146025Y-122713364D01*
X222146024Y-122713366D01*
X222135001Y-122768787D01*
X222135001Y-122931212D01*
X222146024Y-122986633D01*
X222146025Y-122986635D01*
X222188019Y-123049483D01*
X222192371Y-123053835D01*
X222190784Y-123055421D01*
X222212424Y-123087799D01*
X222203097Y-123134717D01*
X222192011Y-123145806D01*
X222192370Y-123146165D01*
X222188018Y-123150516D01*
X222146024Y-123213364D01*
X222146023Y-123213366D01*
X222135000Y-123268787D01*
X222135000Y-123431212D01*
X222146023Y-123486633D01*
X222146024Y-123486635D01*
X222188018Y-123549483D01*
X222192370Y-123553835D01*
X222190785Y-123555419D01*
X222212426Y-123587815D01*
X222203087Y-123634730D01*
X222192011Y-123645806D01*
X222192370Y-123646165D01*
X222188018Y-123650516D01*
X222146024Y-123713364D01*
X222146023Y-123713366D01*
X222135000Y-123768787D01*
X222135000Y-123931212D01*
X222146023Y-123986633D01*
X222146024Y-123986635D01*
X222188018Y-124049483D01*
X222192370Y-124053835D01*
X222190784Y-124055420D01*
X222212425Y-124087805D01*
X222203094Y-124134722D01*
X222192011Y-124145805D01*
X222192371Y-124146165D01*
X222188019Y-124150516D01*
X222146025Y-124213364D01*
X222146024Y-124213366D01*
X222135001Y-124268787D01*
X222135001Y-124431212D01*
X222146024Y-124486633D01*
X222146025Y-124486635D01*
X222171845Y-124525277D01*
X222181177Y-124572193D01*
X222154601Y-124611967D01*
X222119878Y-124622500D01*
X218804744Y-124622500D01*
X218737107Y-124650517D01*
X218721136Y-124657132D01*
X218721130Y-124657136D01*
X204524073Y-138854194D01*
X204479879Y-138872500D01*
X191821898Y-138872500D01*
X191777704Y-138854194D01*
X191741440Y-138817930D01*
X191741439Y-138817929D01*
X191661062Y-138771522D01*
X191661059Y-138771521D01*
X191571414Y-138747501D01*
X191571409Y-138747500D01*
X191571408Y-138747500D01*
X191478592Y-138747500D01*
X191478591Y-138747500D01*
X191478585Y-138747501D01*
X191388940Y-138771521D01*
X191388937Y-138771522D01*
X191308560Y-138817929D01*
X191308554Y-138817934D01*
X191242934Y-138883554D01*
X191242929Y-138883560D01*
X191196522Y-138963937D01*
X191196521Y-138963940D01*
X191172501Y-139053585D01*
X191172500Y-139053593D01*
X172625500Y-139053593D01*
X172625500Y-136940944D01*
X172774500Y-136940944D01*
X172774500Y-137099055D01*
X172774501Y-137099063D01*
X172815421Y-137251780D01*
X172815422Y-137251783D01*
X172838909Y-137292464D01*
X172894480Y-137388716D01*
X173006284Y-137500520D01*
X173143216Y-137579577D01*
X173143219Y-137579578D01*
X173236681Y-137604621D01*
X173295943Y-137620500D01*
X173295944Y-137620500D01*
X173454056Y-137620500D01*
X173454057Y-137620500D01*
X173606784Y-137579577D01*
X173743716Y-137500520D01*
X173855520Y-137388716D01*
X173934577Y-137251784D01*
X173975500Y-137099057D01*
X173975500Y-136940943D01*
X173934577Y-136788216D01*
X173855520Y-136651284D01*
X173743716Y-136539480D01*
X173647464Y-136483909D01*
X173606783Y-136460422D01*
X173606780Y-136460421D01*
X173454063Y-136419501D01*
X173454058Y-136419500D01*
X173454057Y-136419500D01*
X173295943Y-136419500D01*
X173295942Y-136419500D01*
X173295936Y-136419501D01*
X173143219Y-136460421D01*
X173143216Y-136460422D01*
X173046964Y-136515993D01*
X173006284Y-136539480D01*
X173006283Y-136539481D01*
X173006279Y-136539484D01*
X172894484Y-136651279D01*
X172894481Y-136651283D01*
X172815422Y-136788216D01*
X172815421Y-136788219D01*
X172774501Y-136940936D01*
X172774500Y-136940944D01*
X172625500Y-136940944D01*
X172625500Y-122101673D01*
X209485001Y-122101673D01*
X209485001Y-122698325D01*
X209495691Y-122771701D01*
X209495692Y-122771704D01*
X209551025Y-122884890D01*
X209640111Y-122973976D01*
X209753297Y-123029309D01*
X209826674Y-123040000D01*
X210392378Y-123039999D01*
X210436572Y-123058305D01*
X210684567Y-123306300D01*
X210702873Y-123350494D01*
X210684567Y-123394688D01*
X210667823Y-123406643D01*
X210602611Y-123438522D01*
X210513525Y-123527608D01*
X210458190Y-123640798D01*
X210447500Y-123714173D01*
X210447500Y-124685825D01*
X210458190Y-124759201D01*
X210458191Y-124759204D01*
X210513524Y-124872390D01*
X210602610Y-124961476D01*
X210715796Y-125016809D01*
X210789173Y-125027500D01*
X211385826Y-125027499D01*
X211459204Y-125016809D01*
X211572390Y-124961476D01*
X211661476Y-124872390D01*
X211716809Y-124759204D01*
X211727500Y-124685827D01*
X211727499Y-123714174D01*
X211727499Y-123714173D01*
X212272500Y-123714173D01*
X212272500Y-124685825D01*
X212283190Y-124759201D01*
X212283191Y-124759204D01*
X212338524Y-124872390D01*
X212427610Y-124961476D01*
X212540796Y-125016809D01*
X212614173Y-125027500D01*
X213210826Y-125027499D01*
X213284204Y-125016809D01*
X213397390Y-124961476D01*
X213486476Y-124872390D01*
X213541809Y-124759204D01*
X213552500Y-124685827D01*
X213552500Y-124490000D01*
X213570806Y-124445806D01*
X213615000Y-124427500D01*
X214903102Y-124427500D01*
X214947296Y-124445806D01*
X214983555Y-124482065D01*
X214983559Y-124482069D01*
X214983560Y-124482070D01*
X215063937Y-124528477D01*
X215063940Y-124528478D01*
X215153592Y-124552500D01*
X215153593Y-124552500D01*
X215246407Y-124552500D01*
X215246408Y-124552500D01*
X215336060Y-124528478D01*
X215416440Y-124482070D01*
X215482070Y-124416440D01*
X215528478Y-124336060D01*
X215552500Y-124246408D01*
X215552500Y-124153592D01*
X215528478Y-124063940D01*
X215528477Y-124063937D01*
X215482070Y-123983560D01*
X215482065Y-123983554D01*
X215416445Y-123917934D01*
X215416439Y-123917929D01*
X215336062Y-123871522D01*
X215336059Y-123871521D01*
X215246414Y-123847501D01*
X215246409Y-123847500D01*
X215246408Y-123847500D01*
X215153592Y-123847500D01*
X215153591Y-123847500D01*
X215153585Y-123847501D01*
X215063940Y-123871521D01*
X215063937Y-123871522D01*
X214983560Y-123917929D01*
X214983559Y-123917930D01*
X214970278Y-123931212D01*
X214947295Y-123954194D01*
X214903103Y-123972500D01*
X213614999Y-123972500D01*
X213570805Y-123954194D01*
X213552499Y-123910000D01*
X213552499Y-123714174D01*
X213547299Y-123678478D01*
X213541809Y-123640796D01*
X213486476Y-123527610D01*
X213397390Y-123438524D01*
X213284204Y-123383191D01*
X213284202Y-123383190D01*
X213284201Y-123383190D01*
X213225913Y-123374698D01*
X213210827Y-123372500D01*
X213210826Y-123372500D01*
X212614174Y-123372500D01*
X212540798Y-123383190D01*
X212540797Y-123383190D01*
X212540796Y-123383191D01*
X212442567Y-123431212D01*
X212427608Y-123438525D01*
X212338525Y-123527608D01*
X212283190Y-123640798D01*
X212272500Y-123714173D01*
X211727499Y-123714173D01*
X211716809Y-123640796D01*
X211661476Y-123527610D01*
X211572390Y-123438524D01*
X211459204Y-123383191D01*
X211459202Y-123383190D01*
X211459201Y-123383190D01*
X211400913Y-123374698D01*
X211385827Y-123372500D01*
X211385826Y-123372500D01*
X211369292Y-123372500D01*
X211325098Y-123354194D01*
X211311550Y-123333918D01*
X211280367Y-123258635D01*
X211280363Y-123258630D01*
X211034494Y-123012761D01*
X211016188Y-122968567D01*
X211034494Y-122924373D01*
X211073977Y-122884890D01*
X211129310Y-122771704D01*
X211140001Y-122698327D01*
X211140001Y-122690000D01*
X211158307Y-122645806D01*
X211202501Y-122627500D01*
X211314281Y-122627500D01*
X211338196Y-122632256D01*
X211386186Y-122652134D01*
X211417247Y-122665000D01*
X211417248Y-122665000D01*
X211507753Y-122665000D01*
X211540145Y-122665000D01*
X211584339Y-122683306D01*
X211597320Y-122702256D01*
X211617092Y-122747038D01*
X211617095Y-122747042D01*
X211690455Y-122820402D01*
X211690459Y-122820405D01*
X211771356Y-122856123D01*
X211785364Y-122862308D01*
X211785365Y-122862308D01*
X211785368Y-122862309D01*
X211808556Y-122864999D01*
X211808559Y-122865000D01*
X211808566Y-122865000D01*
X213066437Y-122865000D01*
X213066439Y-122864999D01*
X213089627Y-122862309D01*
X213089628Y-122862308D01*
X213089632Y-122862308D01*
X213156524Y-122832772D01*
X213184536Y-122820405D01*
X213184536Y-122820404D01*
X213184540Y-122820403D01*
X213257901Y-122747042D01*
X213277676Y-122702256D01*
X213299806Y-122652134D01*
X213299807Y-122652129D01*
X213302497Y-122628941D01*
X213302498Y-122628939D01*
X213302498Y-122246060D01*
X213302497Y-122246058D01*
X213299807Y-122222870D01*
X213299805Y-122222864D01*
X213257903Y-122127961D01*
X213257900Y-122127957D01*
X213184540Y-122054597D01*
X213184536Y-122054594D01*
X213089633Y-122012692D01*
X213089627Y-122012690D01*
X213066438Y-122010000D01*
X213066430Y-122010000D01*
X211808566Y-122010000D01*
X211808558Y-122010000D01*
X211785368Y-122012690D01*
X211785362Y-122012692D01*
X211690459Y-122054594D01*
X211690455Y-122054597D01*
X211617095Y-122127957D01*
X211617091Y-122127962D01*
X211605165Y-122154974D01*
X211570568Y-122188008D01*
X211524074Y-122187471D01*
X211457753Y-122160000D01*
X211367247Y-122160000D01*
X211348554Y-122167743D01*
X211324637Y-122172500D01*
X211202500Y-122172500D01*
X211158306Y-122154194D01*
X211140000Y-122110000D01*
X211140000Y-122101674D01*
X211135208Y-122068780D01*
X211129310Y-122028296D01*
X211073977Y-121915110D01*
X210984891Y-121826024D01*
X210871705Y-121770691D01*
X210871703Y-121770690D01*
X210871702Y-121770690D01*
X210813414Y-121762198D01*
X210798328Y-121760000D01*
X210798327Y-121760000D01*
X209826675Y-121760000D01*
X209753299Y-121770690D01*
X209753298Y-121770690D01*
X209753297Y-121770691D01*
X209699395Y-121797042D01*
X209640109Y-121826025D01*
X209551026Y-121915108D01*
X209495691Y-122028298D01*
X209485001Y-122101673D01*
X172625500Y-122101673D01*
X172625500Y-121296058D01*
X213447499Y-121296058D01*
X213447499Y-121678941D01*
X213450189Y-121702129D01*
X213450191Y-121702135D01*
X213492093Y-121797038D01*
X213492096Y-121797042D01*
X213565456Y-121870402D01*
X213565460Y-121870405D01*
X213646357Y-121906123D01*
X213660365Y-121912308D01*
X213660366Y-121912308D01*
X213660369Y-121912309D01*
X213683557Y-121914999D01*
X213683560Y-121915000D01*
X213683567Y-121915000D01*
X214941438Y-121915000D01*
X214941440Y-121914999D01*
X214964628Y-121912309D01*
X214964629Y-121912308D01*
X214964633Y-121912308D01*
X215031525Y-121882772D01*
X215059537Y-121870405D01*
X215059537Y-121870404D01*
X215059541Y-121870403D01*
X215132902Y-121797042D01*
X215132904Y-121797038D01*
X215152677Y-121752256D01*
X215187274Y-121719221D01*
X215209852Y-121715000D01*
X215797501Y-121715000D01*
X215841695Y-121733306D01*
X215860001Y-121777500D01*
X215860001Y-121973325D01*
X215870690Y-122046701D01*
X215870691Y-122046704D01*
X215926024Y-122159890D01*
X216015110Y-122248976D01*
X216128296Y-122304309D01*
X216201673Y-122315000D01*
X216798326Y-122314999D01*
X216871704Y-122304309D01*
X216984890Y-122248976D01*
X217073976Y-122159890D01*
X217129309Y-122046704D01*
X217140000Y-121973327D01*
X217139999Y-121001674D01*
X217139999Y-121001673D01*
X217685000Y-121001673D01*
X217685000Y-121973325D01*
X217695690Y-122046701D01*
X217695691Y-122046704D01*
X217751024Y-122159890D01*
X217840110Y-122248976D01*
X217953296Y-122304309D01*
X218026673Y-122315000D01*
X218623326Y-122314999D01*
X218696704Y-122304309D01*
X218809890Y-122248976D01*
X218898976Y-122159890D01*
X218954309Y-122046704D01*
X218965000Y-121973327D01*
X218965000Y-121777500D01*
X218983306Y-121733306D01*
X219027500Y-121715000D01*
X219545253Y-121715000D01*
X219576326Y-121702129D01*
X219628864Y-121680367D01*
X219628864Y-121680366D01*
X219628868Y-121680365D01*
X220192866Y-121116368D01*
X220227500Y-121032753D01*
X220227500Y-120942247D01*
X220227500Y-114920121D01*
X220245806Y-114875927D01*
X220390806Y-114730927D01*
X220435000Y-114712621D01*
X220479194Y-114730927D01*
X220497500Y-114775121D01*
X220497500Y-114912558D01*
X220500472Y-114927499D01*
X220504898Y-114949748D01*
X220504898Y-114949749D01*
X220515274Y-114965277D01*
X220524606Y-115012193D01*
X220515274Y-115034723D01*
X220504898Y-115050250D01*
X220504898Y-115050251D01*
X220497500Y-115087442D01*
X220497500Y-115412557D01*
X220504898Y-115449748D01*
X220504898Y-115449749D01*
X220515274Y-115465277D01*
X220524606Y-115512193D01*
X220515274Y-115534723D01*
X220504898Y-115550250D01*
X220504898Y-115550251D01*
X220497500Y-115587442D01*
X220497500Y-115912557D01*
X220504898Y-115949748D01*
X220504898Y-115949749D01*
X220515274Y-115965277D01*
X220524606Y-116012193D01*
X220515274Y-116034723D01*
X220504898Y-116050250D01*
X220504898Y-116050251D01*
X220497500Y-116087442D01*
X220497500Y-116412557D01*
X220504898Y-116449748D01*
X220504898Y-116449749D01*
X220533077Y-116491922D01*
X220561257Y-116510750D01*
X220575252Y-116520102D01*
X220612442Y-116527500D01*
X220612443Y-116527500D01*
X221637557Y-116527500D01*
X221637558Y-116527500D01*
X221674748Y-116520102D01*
X221716922Y-116491922D01*
X221745102Y-116449748D01*
X221752500Y-116412558D01*
X221752500Y-116087442D01*
X221745102Y-116050252D01*
X221734726Y-116034723D01*
X221725394Y-115987807D01*
X221734726Y-115965277D01*
X221745101Y-115949749D01*
X221745102Y-115949748D01*
X221752500Y-115912558D01*
X221752500Y-115587442D01*
X221745102Y-115550252D01*
X221734726Y-115534723D01*
X221725394Y-115487807D01*
X221734726Y-115465277D01*
X221745101Y-115449749D01*
X221745102Y-115449748D01*
X221752500Y-115412558D01*
X221752500Y-115087442D01*
X221745102Y-115050252D01*
X221734726Y-115034723D01*
X221725394Y-114987807D01*
X221734726Y-114965277D01*
X221745101Y-114949749D01*
X221745102Y-114949748D01*
X221752500Y-114912558D01*
X221752500Y-114587442D01*
X221745102Y-114550252D01*
X221734726Y-114534723D01*
X221725394Y-114487807D01*
X221734726Y-114465277D01*
X221745101Y-114449749D01*
X221745102Y-114449748D01*
X221752500Y-114412558D01*
X221752500Y-114087442D01*
X221745102Y-114050252D01*
X221734726Y-114034723D01*
X221725394Y-113987807D01*
X221734726Y-113965277D01*
X221745101Y-113949749D01*
X221745102Y-113949748D01*
X221752500Y-113912558D01*
X221752500Y-113587442D01*
X221745102Y-113550252D01*
X221738784Y-113540797D01*
X221734726Y-113534723D01*
X221725394Y-113487807D01*
X221734726Y-113465277D01*
X221745101Y-113449749D01*
X221745102Y-113449748D01*
X221752500Y-113412558D01*
X221752500Y-113087442D01*
X221745102Y-113050252D01*
X221734726Y-113034723D01*
X221725394Y-112987807D01*
X221734726Y-112965277D01*
X221745101Y-112949749D01*
X221745102Y-112949748D01*
X221752500Y-112912558D01*
X221752500Y-112587442D01*
X221745102Y-112550252D01*
X221734726Y-112534723D01*
X221725394Y-112487807D01*
X221734726Y-112465277D01*
X221745101Y-112449749D01*
X221745102Y-112449748D01*
X221752500Y-112412558D01*
X221752500Y-112087442D01*
X221745102Y-112050252D01*
X221734726Y-112034723D01*
X221725394Y-111987807D01*
X221734726Y-111965277D01*
X221745101Y-111949749D01*
X221745102Y-111949748D01*
X221752500Y-111912558D01*
X221752500Y-111587442D01*
X221745102Y-111550252D01*
X221745099Y-111550247D01*
X221734425Y-111534272D01*
X221725093Y-111487355D01*
X221734427Y-111464824D01*
X221744629Y-111449555D01*
X221744630Y-111449553D01*
X221752000Y-111412507D01*
X221752000Y-111313500D01*
X220498000Y-111313500D01*
X220498000Y-111412507D01*
X220497999Y-111412507D01*
X220505369Y-111449553D01*
X220505370Y-111449557D01*
X220515574Y-111464828D01*
X220524906Y-111511744D01*
X220515574Y-111534272D01*
X220504899Y-111550247D01*
X220504898Y-111550251D01*
X220497500Y-111587442D01*
X220497500Y-111912557D01*
X220504512Y-111947806D01*
X220495180Y-111994722D01*
X220455407Y-112021299D01*
X220443213Y-112022500D01*
X220196898Y-112022500D01*
X220152704Y-112004194D01*
X220116440Y-111967930D01*
X220116439Y-111967929D01*
X220036062Y-111921522D01*
X220036059Y-111921521D01*
X219946414Y-111897501D01*
X219946409Y-111897500D01*
X219946408Y-111897500D01*
X219853592Y-111897500D01*
X219853591Y-111897500D01*
X219853585Y-111897501D01*
X219763940Y-111921521D01*
X219763937Y-111921522D01*
X219683560Y-111967929D01*
X219683554Y-111967934D01*
X219617934Y-112033554D01*
X219617929Y-112033560D01*
X219571522Y-112113937D01*
X219571521Y-112113940D01*
X219547501Y-112203585D01*
X219547500Y-112203593D01*
X219547500Y-112296406D01*
X219547501Y-112296414D01*
X219571521Y-112386059D01*
X219571522Y-112386062D01*
X219617929Y-112466439D01*
X219617934Y-112466445D01*
X219683554Y-112532065D01*
X219683560Y-112532070D01*
X219763937Y-112578477D01*
X219763940Y-112578478D01*
X219853592Y-112602500D01*
X219853593Y-112602500D01*
X219946407Y-112602500D01*
X219946408Y-112602500D01*
X220036060Y-112578478D01*
X220116440Y-112532070D01*
X220152704Y-112495805D01*
X220196897Y-112477500D01*
X220443213Y-112477500D01*
X220487407Y-112495806D01*
X220505713Y-112540000D01*
X220504512Y-112552194D01*
X220497500Y-112587442D01*
X220497500Y-112912557D01*
X220504898Y-112949748D01*
X220504898Y-112949749D01*
X220515274Y-112965277D01*
X220524606Y-113012193D01*
X220515274Y-113034723D01*
X220504898Y-113050250D01*
X220504898Y-113050251D01*
X220497500Y-113087442D01*
X220497500Y-113412557D01*
X220504898Y-113449748D01*
X220504898Y-113449749D01*
X220515274Y-113465277D01*
X220524606Y-113512193D01*
X220515274Y-113534723D01*
X220504898Y-113550250D01*
X220504898Y-113550251D01*
X220497500Y-113587442D01*
X220497500Y-113912557D01*
X220504898Y-113949747D01*
X220506680Y-113954050D01*
X220506679Y-113977966D01*
X220506680Y-114001883D01*
X220506679Y-114001884D01*
X220506679Y-114001886D01*
X220472856Y-114035709D01*
X220441618Y-114048648D01*
X220426897Y-114054747D01*
X220426895Y-114054747D01*
X220426894Y-114054748D01*
X220421133Y-114057133D01*
X220421130Y-114057135D01*
X219871132Y-114607135D01*
X219807136Y-114671130D01*
X219807132Y-114671135D01*
X219772500Y-114754744D01*
X219772500Y-120867378D01*
X219754194Y-120911572D01*
X219424073Y-121241694D01*
X219379879Y-121260000D01*
X219027499Y-121260000D01*
X218983305Y-121241694D01*
X218964999Y-121197500D01*
X218964999Y-121001674D01*
X218959192Y-120961812D01*
X218954309Y-120928296D01*
X218898976Y-120815110D01*
X218809890Y-120726024D01*
X218696704Y-120670691D01*
X218696702Y-120670690D01*
X218696701Y-120670690D01*
X218638413Y-120662198D01*
X218623327Y-120660000D01*
X218623326Y-120660000D01*
X218026674Y-120660000D01*
X217953298Y-120670690D01*
X217953297Y-120670690D01*
X217953296Y-120670691D01*
X217869875Y-120711473D01*
X217840108Y-120726025D01*
X217751025Y-120815108D01*
X217695690Y-120928298D01*
X217685000Y-121001673D01*
X217139999Y-121001673D01*
X217129309Y-120928296D01*
X217073976Y-120815110D01*
X216984890Y-120726024D01*
X216871704Y-120670691D01*
X216871702Y-120670690D01*
X216871701Y-120670690D01*
X216813413Y-120662198D01*
X216798327Y-120660000D01*
X216798326Y-120660000D01*
X216201674Y-120660000D01*
X216128298Y-120670690D01*
X216128297Y-120670690D01*
X216128296Y-120670691D01*
X216044875Y-120711473D01*
X216015108Y-120726025D01*
X215926025Y-120815108D01*
X215870690Y-120928298D01*
X215860000Y-121001673D01*
X215860000Y-121197500D01*
X215841694Y-121241694D01*
X215797500Y-121260000D01*
X215209852Y-121260000D01*
X215165658Y-121241694D01*
X215152677Y-121222744D01*
X215132904Y-121177961D01*
X215132901Y-121177957D01*
X215059541Y-121104597D01*
X215059537Y-121104594D01*
X214964634Y-121062692D01*
X214964628Y-121062690D01*
X214941439Y-121060000D01*
X214941431Y-121060000D01*
X213683567Y-121060000D01*
X213683559Y-121060000D01*
X213660369Y-121062690D01*
X213660363Y-121062692D01*
X213565460Y-121104594D01*
X213565456Y-121104597D01*
X213492096Y-121177957D01*
X213492093Y-121177961D01*
X213450191Y-121272864D01*
X213450189Y-121272870D01*
X213447499Y-121296058D01*
X172625500Y-121296058D01*
X172625500Y-120873277D01*
X209485502Y-120873277D01*
X209496177Y-120946556D01*
X209496179Y-120946560D01*
X209551437Y-121059595D01*
X209640405Y-121148563D01*
X209753442Y-121203822D01*
X209826722Y-121214499D01*
X210249001Y-121214499D01*
X210376001Y-121214499D01*
X210798279Y-121214499D01*
X210871557Y-121203823D01*
X210871561Y-121203821D01*
X210984596Y-121148563D01*
X211073564Y-121059595D01*
X211128823Y-120946558D01*
X211139501Y-120873278D01*
X211139501Y-120728855D01*
X211572999Y-120728855D01*
X211575685Y-120752021D01*
X211575686Y-120752022D01*
X211617514Y-120846752D01*
X211617515Y-120846754D01*
X211690742Y-120919981D01*
X211785481Y-120961812D01*
X211808642Y-120964499D01*
X212373998Y-120964499D01*
X212500998Y-120964499D01*
X213066353Y-120964499D01*
X213089519Y-120961812D01*
X213089520Y-120961811D01*
X213184250Y-120919983D01*
X213184252Y-120919983D01*
X213257479Y-120846755D01*
X213299310Y-120752016D01*
X213301998Y-120728855D01*
X213301998Y-120601000D01*
X212500998Y-120601000D01*
X212500998Y-120964499D01*
X212373998Y-120964499D01*
X212373998Y-120601000D01*
X211572999Y-120601000D01*
X211572999Y-120728855D01*
X211139501Y-120728855D01*
X211139501Y-120638500D01*
X210376001Y-120638500D01*
X210376001Y-121214499D01*
X210249001Y-121214499D01*
X210249001Y-120638500D01*
X209485502Y-120638500D01*
X209485502Y-120873277D01*
X172625500Y-120873277D01*
X172625500Y-120276721D01*
X209485501Y-120276721D01*
X209485501Y-120511500D01*
X210249001Y-120511500D01*
X210376001Y-120511500D01*
X211139500Y-120511500D01*
X211139500Y-120346144D01*
X211572998Y-120346144D01*
X211572998Y-120474000D01*
X212373998Y-120474000D01*
X212500998Y-120474000D01*
X213301997Y-120474000D01*
X213301997Y-120346144D01*
X213299310Y-120322978D01*
X213299309Y-120322977D01*
X213257481Y-120228247D01*
X213257481Y-120228246D01*
X213184253Y-120155018D01*
X213089514Y-120113187D01*
X213066354Y-120110500D01*
X212500998Y-120110500D01*
X212500998Y-120474000D01*
X212373998Y-120474000D01*
X212373998Y-120110500D01*
X211808642Y-120110500D01*
X211785476Y-120113187D01*
X211785475Y-120113188D01*
X211690745Y-120155016D01*
X211690744Y-120155017D01*
X211617516Y-120228244D01*
X211575685Y-120322983D01*
X211572998Y-120346144D01*
X211139500Y-120346144D01*
X211139500Y-120276722D01*
X211128824Y-120203443D01*
X211128822Y-120203439D01*
X211073564Y-120090404D01*
X210984596Y-120001436D01*
X210871559Y-119946177D01*
X210798279Y-119935500D01*
X210376001Y-119935500D01*
X210376001Y-120511500D01*
X210249001Y-120511500D01*
X210249001Y-119935500D01*
X209826723Y-119935500D01*
X209753444Y-119946176D01*
X209753440Y-119946178D01*
X209640405Y-120001436D01*
X209551437Y-120090404D01*
X209496178Y-120203441D01*
X209485501Y-120276721D01*
X172625500Y-120276721D01*
X172625500Y-119562507D01*
X217647999Y-119562507D01*
X217655369Y-119599553D01*
X217655369Y-119599554D01*
X217683438Y-119641561D01*
X217725446Y-119669630D01*
X217762493Y-119677000D01*
X218361500Y-119677000D01*
X218488500Y-119677000D01*
X219087507Y-119677000D01*
X219124553Y-119669630D01*
X219124554Y-119669630D01*
X219166561Y-119641561D01*
X219194630Y-119599554D01*
X219194630Y-119599553D01*
X219202000Y-119562507D01*
X219202000Y-118613500D01*
X218488500Y-118613500D01*
X218488500Y-119677000D01*
X218361500Y-119677000D01*
X218361500Y-118613500D01*
X217648000Y-118613500D01*
X217648000Y-119562507D01*
X217647999Y-119562507D01*
X172625500Y-119562507D01*
X172625500Y-117537492D01*
X217648000Y-117537492D01*
X217648000Y-118486500D01*
X218361500Y-118486500D01*
X218488500Y-118486500D01*
X219202000Y-118486500D01*
X219202000Y-117537492D01*
X219194630Y-117500446D01*
X219194630Y-117500445D01*
X219166561Y-117458438D01*
X219124553Y-117430369D01*
X219087507Y-117423000D01*
X218488500Y-117423000D01*
X218488500Y-118486500D01*
X218361500Y-118486500D01*
X218361500Y-117423000D01*
X217762493Y-117423000D01*
X217725446Y-117430369D01*
X217725445Y-117430369D01*
X217683438Y-117458438D01*
X217655369Y-117500445D01*
X217655369Y-117500446D01*
X217648000Y-117537492D01*
X172625500Y-117537492D01*
X172625500Y-108203593D01*
X219147500Y-108203593D01*
X219147500Y-108296406D01*
X219147501Y-108296414D01*
X219171521Y-108386059D01*
X219171522Y-108386062D01*
X219217929Y-108466439D01*
X219217934Y-108466445D01*
X219283554Y-108532065D01*
X219283560Y-108532070D01*
X219363937Y-108578477D01*
X219363940Y-108578478D01*
X219453592Y-108602500D01*
X219453593Y-108602500D01*
X219493136Y-108602500D01*
X219537330Y-108620806D01*
X219555636Y-108665000D01*
X219553506Y-108681177D01*
X219547500Y-108703587D01*
X219547500Y-108796412D01*
X219553506Y-108818823D01*
X219547263Y-108866249D01*
X219509313Y-108895370D01*
X219493136Y-108897500D01*
X219453592Y-108897500D01*
X219453591Y-108897500D01*
X219453585Y-108897501D01*
X219363940Y-108921521D01*
X219363937Y-108921522D01*
X219283560Y-108967929D01*
X219283554Y-108967934D01*
X219217934Y-109033554D01*
X219217929Y-109033560D01*
X219171522Y-109113937D01*
X219171521Y-109113940D01*
X219147501Y-109203585D01*
X219147500Y-109203593D01*
X219147500Y-109296406D01*
X219147501Y-109296414D01*
X219171521Y-109386059D01*
X219171522Y-109386062D01*
X219217929Y-109466439D01*
X219217934Y-109466445D01*
X219283554Y-109532065D01*
X219283560Y-109532070D01*
X219363937Y-109578477D01*
X219363940Y-109578478D01*
X219453592Y-109602500D01*
X219453593Y-109602500D01*
X219493136Y-109602500D01*
X219537330Y-109620806D01*
X219555636Y-109665000D01*
X219553506Y-109681177D01*
X219547500Y-109703587D01*
X219547500Y-109796412D01*
X219553506Y-109818823D01*
X219547263Y-109866249D01*
X219509313Y-109895370D01*
X219493136Y-109897500D01*
X219453592Y-109897500D01*
X219453591Y-109897500D01*
X219453585Y-109897501D01*
X219363940Y-109921521D01*
X219363937Y-109921522D01*
X219283560Y-109967929D01*
X219283554Y-109967934D01*
X219217934Y-110033554D01*
X219217929Y-110033560D01*
X219171522Y-110113937D01*
X219171521Y-110113940D01*
X219147501Y-110203585D01*
X219147500Y-110203593D01*
X219147500Y-110296406D01*
X219147501Y-110296414D01*
X219171521Y-110386059D01*
X219171522Y-110386062D01*
X219217929Y-110466439D01*
X219217934Y-110466445D01*
X219283554Y-110532065D01*
X219283560Y-110532070D01*
X219363937Y-110578477D01*
X219363940Y-110578478D01*
X219453592Y-110602500D01*
X219453593Y-110602500D01*
X219493136Y-110602500D01*
X219537330Y-110620806D01*
X219555636Y-110665000D01*
X219553506Y-110681177D01*
X219547500Y-110703587D01*
X219547500Y-110796406D01*
X219547501Y-110796414D01*
X219571521Y-110886059D01*
X219571522Y-110886062D01*
X219617929Y-110966439D01*
X219617934Y-110966445D01*
X219683554Y-111032065D01*
X219683560Y-111032070D01*
X219763937Y-111078477D01*
X219763940Y-111078478D01*
X219853592Y-111102500D01*
X219853593Y-111102500D01*
X219946407Y-111102500D01*
X219946408Y-111102500D01*
X220036060Y-111078478D01*
X220116440Y-111032070D01*
X220152704Y-110995805D01*
X220196897Y-110977500D01*
X220443723Y-110977500D01*
X220487917Y-110995806D01*
X220506223Y-111040000D01*
X220505022Y-111052194D01*
X220498000Y-111087492D01*
X220498000Y-111186500D01*
X221752000Y-111186500D01*
X221752000Y-111087492D01*
X221744630Y-111050446D01*
X221744630Y-111050445D01*
X221734425Y-111035172D01*
X221725093Y-110988256D01*
X221734424Y-110965728D01*
X221745102Y-110949748D01*
X221752500Y-110912558D01*
X221752500Y-110587442D01*
X221745102Y-110550252D01*
X221734726Y-110534723D01*
X221725394Y-110487807D01*
X221734726Y-110465277D01*
X221745101Y-110449749D01*
X221745102Y-110449748D01*
X221752500Y-110412558D01*
X221752500Y-110087442D01*
X221745102Y-110050252D01*
X221734726Y-110034723D01*
X221725394Y-109987807D01*
X221734726Y-109965277D01*
X221745101Y-109949749D01*
X221745102Y-109949748D01*
X221752500Y-109912558D01*
X221752500Y-109587442D01*
X221745102Y-109550252D01*
X221738905Y-109540978D01*
X221734726Y-109534723D01*
X221725394Y-109487807D01*
X221734726Y-109465277D01*
X221745101Y-109449749D01*
X221745102Y-109449748D01*
X221752500Y-109412558D01*
X221752500Y-109087442D01*
X221745102Y-109050252D01*
X221734726Y-109034723D01*
X221725394Y-108987807D01*
X221734726Y-108965277D01*
X221745101Y-108949749D01*
X221745102Y-108949748D01*
X221752500Y-108912558D01*
X221752500Y-108587442D01*
X221745102Y-108550252D01*
X221734726Y-108534723D01*
X221725394Y-108487807D01*
X221734726Y-108465277D01*
X221745101Y-108449749D01*
X221745102Y-108449748D01*
X221752500Y-108412558D01*
X221752500Y-108087442D01*
X221745102Y-108050252D01*
X221745101Y-108050250D01*
X221734425Y-108034272D01*
X221725093Y-107987355D01*
X221734427Y-107964824D01*
X221744629Y-107949555D01*
X221744630Y-107949553D01*
X221752000Y-107912507D01*
X221752000Y-107813500D01*
X220498000Y-107813500D01*
X220498000Y-107912507D01*
X220505022Y-107947806D01*
X220495690Y-107994722D01*
X220455917Y-108021299D01*
X220443723Y-108022500D01*
X219796898Y-108022500D01*
X219752704Y-108004194D01*
X219716440Y-107967930D01*
X219716439Y-107967929D01*
X219636062Y-107921522D01*
X219636059Y-107921521D01*
X219546414Y-107897501D01*
X219546409Y-107897500D01*
X219546408Y-107897500D01*
X219453592Y-107897500D01*
X219453591Y-107897500D01*
X219453585Y-107897501D01*
X219363940Y-107921521D01*
X219363937Y-107921522D01*
X219283560Y-107967929D01*
X219283554Y-107967934D01*
X219217934Y-108033554D01*
X219217929Y-108033560D01*
X219171522Y-108113937D01*
X219171521Y-108113940D01*
X219147501Y-108203585D01*
X219147500Y-108203593D01*
X172625500Y-108203593D01*
X172625500Y-107587492D01*
X220498000Y-107587492D01*
X220498000Y-107686500D01*
X221061500Y-107686500D01*
X221188500Y-107686500D01*
X221752000Y-107686500D01*
X221752000Y-107587492D01*
X221744630Y-107550446D01*
X221744630Y-107550445D01*
X221716561Y-107508438D01*
X221674553Y-107480369D01*
X221637507Y-107473000D01*
X221188500Y-107473000D01*
X221188500Y-107686500D01*
X221061500Y-107686500D01*
X221061500Y-107473000D01*
X220612493Y-107473000D01*
X220575446Y-107480369D01*
X220575445Y-107480369D01*
X220533438Y-107508438D01*
X220505369Y-107550445D01*
X220505369Y-107550446D01*
X220498000Y-107587492D01*
X172625500Y-107587492D01*
X172625500Y-106462507D01*
X217647999Y-106462507D01*
X217655369Y-106499553D01*
X217655369Y-106499554D01*
X217683438Y-106541561D01*
X217725446Y-106569630D01*
X217762493Y-106577000D01*
X218361500Y-106577000D01*
X218488500Y-106577000D01*
X219087507Y-106577000D01*
X219124553Y-106569630D01*
X219124554Y-106569630D01*
X219166561Y-106541561D01*
X219194630Y-106499554D01*
X219194630Y-106499553D01*
X219202000Y-106462507D01*
X219202000Y-105513500D01*
X218488500Y-105513500D01*
X218488500Y-106577000D01*
X218361500Y-106577000D01*
X218361500Y-105513500D01*
X217648000Y-105513500D01*
X217648000Y-106462507D01*
X217647999Y-106462507D01*
X172625500Y-106462507D01*
X172625500Y-104437492D01*
X217648000Y-104437492D01*
X217648000Y-105386500D01*
X218361500Y-105386500D01*
X218488500Y-105386500D01*
X219202000Y-105386500D01*
X219202000Y-104437492D01*
X219194630Y-104400446D01*
X219194630Y-104400445D01*
X219166561Y-104358438D01*
X219124553Y-104330369D01*
X219087507Y-104323000D01*
X218488500Y-104323000D01*
X218488500Y-105386500D01*
X218361500Y-105386500D01*
X218361500Y-104323000D01*
X217762493Y-104323000D01*
X217725446Y-104330369D01*
X217725445Y-104330369D01*
X217683438Y-104358438D01*
X217655369Y-104400445D01*
X217655369Y-104400446D01*
X217648000Y-104437492D01*
X172625500Y-104437492D01*
X172625500Y-98746802D01*
X200018000Y-98746802D01*
X200018000Y-98949998D01*
X200029929Y-99004834D01*
X200078636Y-99061046D01*
X200149997Y-99081999D01*
X200149999Y-99082000D01*
X201749999Y-99082000D01*
X201804836Y-99070070D01*
X201831854Y-99046657D01*
X201831854Y-99046656D01*
X200775000Y-97989802D01*
X200018000Y-98746802D01*
X172625500Y-98746802D01*
X172625500Y-98149998D01*
X199668000Y-98149998D01*
X199679929Y-98204834D01*
X199728636Y-98261046D01*
X199799997Y-98281999D01*
X199799999Y-98282000D01*
X199955500Y-98282000D01*
X199999694Y-98300306D01*
X200018000Y-98344500D01*
X200018000Y-98567198D01*
X200685198Y-97900000D01*
X200685198Y-97899999D01*
X200864802Y-97899999D01*
X200864802Y-97900000D01*
X201881999Y-98917198D01*
X201882000Y-98917198D01*
X201882000Y-96882801D01*
X201881999Y-96882801D01*
X200864802Y-97899999D01*
X200685198Y-97899999D01*
X199668000Y-96882801D01*
X199668000Y-98149998D01*
X172625500Y-98149998D01*
X172625500Y-96753341D01*
X199718143Y-96753341D01*
X200775000Y-97810198D01*
X201832914Y-96752283D01*
X201821364Y-96738955D01*
X201821363Y-96738954D01*
X201750001Y-96718000D01*
X199800001Y-96718000D01*
X199745164Y-96729929D01*
X199745163Y-96729929D01*
X199718143Y-96753341D01*
X172625500Y-96753341D01*
X172625500Y-93055107D01*
X201223000Y-93055107D01*
X201223000Y-93086500D01*
X201836500Y-93086500D01*
X201963500Y-93086500D01*
X202576999Y-93086500D01*
X202576999Y-93055109D01*
X202576998Y-93055107D01*
X202565279Y-92996185D01*
X202565277Y-92996180D01*
X202520634Y-92929366D01*
X202520633Y-92929365D01*
X202453817Y-92884721D01*
X202394892Y-92873000D01*
X201963500Y-92873000D01*
X201963500Y-93086500D01*
X201836500Y-93086500D01*
X201836500Y-92873000D01*
X201405109Y-92873000D01*
X201405107Y-92873001D01*
X201346185Y-92884720D01*
X201346180Y-92884722D01*
X201279366Y-92929365D01*
X201279365Y-92929366D01*
X201234721Y-92996182D01*
X201223000Y-93055107D01*
X172625500Y-93055107D01*
X172625500Y-92047715D01*
X199717084Y-92047715D01*
X199728635Y-92061044D01*
X199728636Y-92061045D01*
X199799999Y-92082000D01*
X201749999Y-92082000D01*
X201804836Y-92070070D01*
X201831854Y-92046657D01*
X201831854Y-92046656D01*
X200775000Y-90989802D01*
X199717084Y-92047715D01*
X172625500Y-92047715D01*
X172625500Y-90649997D01*
X199668000Y-90649997D01*
X199668000Y-91917198D01*
X200685198Y-90900000D01*
X200685198Y-90899999D01*
X200864802Y-90899999D01*
X200864802Y-90900000D01*
X201881999Y-91917198D01*
X201882000Y-91917198D01*
X201882000Y-89882801D01*
X201881999Y-89882801D01*
X200864802Y-90899999D01*
X200685198Y-90899999D01*
X200018000Y-90232801D01*
X200018000Y-90455500D01*
X199999694Y-90499694D01*
X199955500Y-90518000D01*
X199800001Y-90518000D01*
X199745165Y-90529929D01*
X199688953Y-90578636D01*
X199668000Y-90649997D01*
X172625500Y-90649997D01*
X172625500Y-89849997D01*
X200018000Y-89849997D01*
X200018000Y-90053198D01*
X200775000Y-90810198D01*
X201832914Y-89752283D01*
X201821364Y-89738955D01*
X201821363Y-89738954D01*
X201750001Y-89718000D01*
X200150001Y-89718000D01*
X200095165Y-89729929D01*
X200038953Y-89778636D01*
X200018000Y-89849997D01*
X172625500Y-89849997D01*
X172625500Y-87900944D01*
X172774500Y-87900944D01*
X172774500Y-88059055D01*
X172774501Y-88059063D01*
X172815421Y-88211780D01*
X172815422Y-88211783D01*
X172815423Y-88211784D01*
X172894480Y-88348716D01*
X173006284Y-88460520D01*
X173143216Y-88539577D01*
X173143219Y-88539578D01*
X173236681Y-88564621D01*
X173295943Y-88580500D01*
X173295944Y-88580500D01*
X173454056Y-88580500D01*
X173454057Y-88580500D01*
X173606784Y-88539577D01*
X173743716Y-88460520D01*
X173855520Y-88348716D01*
X173934577Y-88211784D01*
X173975500Y-88059057D01*
X173975500Y-87900944D01*
X241024500Y-87900944D01*
X241024500Y-88059055D01*
X241024501Y-88059063D01*
X241065421Y-88211780D01*
X241065422Y-88211783D01*
X241065423Y-88211784D01*
X241144480Y-88348716D01*
X241256284Y-88460520D01*
X241393216Y-88539577D01*
X241393219Y-88539578D01*
X241486681Y-88564621D01*
X241545943Y-88580500D01*
X241545944Y-88580500D01*
X241704056Y-88580500D01*
X241704057Y-88580500D01*
X241856784Y-88539577D01*
X241993716Y-88460520D01*
X242105520Y-88348716D01*
X242184577Y-88211784D01*
X242225500Y-88059057D01*
X242225500Y-87900943D01*
X242184577Y-87748216D01*
X242105520Y-87611284D01*
X241993716Y-87499480D01*
X241897464Y-87443909D01*
X241856783Y-87420422D01*
X241856780Y-87420421D01*
X241704063Y-87379501D01*
X241704058Y-87379500D01*
X241704057Y-87379500D01*
X241545943Y-87379500D01*
X241545942Y-87379500D01*
X241545936Y-87379501D01*
X241393219Y-87420421D01*
X241393216Y-87420422D01*
X241296964Y-87475993D01*
X241256284Y-87499480D01*
X241256283Y-87499481D01*
X241256279Y-87499484D01*
X241144484Y-87611279D01*
X241144481Y-87611283D01*
X241065422Y-87748216D01*
X241065421Y-87748219D01*
X241024501Y-87900936D01*
X241024500Y-87900944D01*
X173975500Y-87900944D01*
X173975500Y-87900943D01*
X173934577Y-87748216D01*
X173855520Y-87611284D01*
X173743716Y-87499480D01*
X173647464Y-87443909D01*
X173606783Y-87420422D01*
X173606780Y-87420421D01*
X173454063Y-87379501D01*
X173454058Y-87379500D01*
X173454057Y-87379500D01*
X173295943Y-87379500D01*
X173295942Y-87379500D01*
X173295936Y-87379501D01*
X173143219Y-87420421D01*
X173143216Y-87420422D01*
X173046964Y-87475993D01*
X173006284Y-87499480D01*
X173006283Y-87499481D01*
X173006279Y-87499484D01*
X172894484Y-87611279D01*
X172894481Y-87611283D01*
X172815422Y-87748216D01*
X172815421Y-87748219D01*
X172774501Y-87900936D01*
X172774500Y-87900944D01*
X172625500Y-87900944D01*
X172625500Y-86475036D01*
X172625500Y-86360687D01*
X172589132Y-86084446D01*
X172570482Y-86014844D01*
X172517020Y-85815319D01*
X172517019Y-85815314D01*
X172410394Y-85557898D01*
X172271081Y-85316602D01*
X172101465Y-85095553D01*
X171904447Y-84898535D01*
X171904443Y-84898532D01*
X171904441Y-84898530D01*
X171779019Y-84802291D01*
X171683398Y-84728919D01*
X171590832Y-84675476D01*
X171442107Y-84589609D01*
X171442102Y-84589606D01*
X171442099Y-84589605D01*
X171442096Y-84589603D01*
X171266861Y-84517019D01*
X171184686Y-84482981D01*
X171184682Y-84482980D01*
X171184680Y-84482979D01*
X171184681Y-84482979D01*
X170915558Y-84410868D01*
X170639317Y-84374500D01*
X170639313Y-84374500D01*
X170524964Y-84374500D01*
X156502044Y-84374500D01*
X156497956Y-84374366D01*
X156259416Y-84358730D01*
X156251311Y-84357663D01*
X156018861Y-84311427D01*
X156010964Y-84309311D01*
X155786542Y-84233129D01*
X155778989Y-84230001D01*
X155566421Y-84125175D01*
X155559341Y-84121087D01*
X155362282Y-83989416D01*
X155355796Y-83984439D01*
X155264582Y-83904447D01*
X155177600Y-83828166D01*
X155171833Y-83822399D01*
X155015559Y-83644202D01*
X155010583Y-83637717D01*
X154878912Y-83440658D01*
X154874824Y-83433578D01*
X154769998Y-83221010D01*
X154766870Y-83213457D01*
X154757103Y-83184686D01*
X154690685Y-82989024D01*
X154688575Y-82981149D01*
X154642335Y-82748687D01*
X154641269Y-82740583D01*
X154625634Y-82502044D01*
X154625500Y-82497956D01*
X154625500Y-79341214D01*
X156672500Y-79341214D01*
X156672500Y-79658785D01*
X156708056Y-79974358D01*
X156708059Y-79974375D01*
X156778723Y-80283979D01*
X156883615Y-80583741D01*
X157021407Y-80869870D01*
X157190364Y-81138765D01*
X157190376Y-81138782D01*
X157388364Y-81387051D01*
X157388369Y-81387057D01*
X157388375Y-81387064D01*
X157612936Y-81611625D01*
X157612943Y-81611631D01*
X157612948Y-81611635D01*
X157861217Y-81809623D01*
X157861223Y-81809627D01*
X157861229Y-81809632D01*
X158130130Y-81978593D01*
X158416258Y-82116385D01*
X158716014Y-82221275D01*
X159025630Y-82291942D01*
X159341211Y-82327500D01*
X159341214Y-82327500D01*
X159658786Y-82327500D01*
X159658789Y-82327500D01*
X159974370Y-82291942D01*
X160283986Y-82221275D01*
X160583742Y-82116385D01*
X160869870Y-81978593D01*
X161138771Y-81809632D01*
X161387064Y-81611625D01*
X161611625Y-81387064D01*
X161809632Y-81138771D01*
X161978593Y-80869870D01*
X162116385Y-80583742D01*
X162221275Y-80283986D01*
X162291942Y-79974370D01*
X162327500Y-79658789D01*
X162327500Y-79341211D01*
X162291942Y-79025630D01*
X162221275Y-78716014D01*
X162116385Y-78416258D01*
X161978593Y-78130130D01*
X161809632Y-77861229D01*
X161809627Y-77861223D01*
X161809623Y-77861217D01*
X161611635Y-77612948D01*
X161611631Y-77612943D01*
X161611625Y-77612936D01*
X161387064Y-77388375D01*
X161387057Y-77388369D01*
X161387051Y-77388364D01*
X161138782Y-77190376D01*
X161138765Y-77190364D01*
X160869870Y-77021407D01*
X160583742Y-76883615D01*
X160283986Y-76778725D01*
X160283982Y-76778724D01*
X160283979Y-76778723D01*
X159974375Y-76708059D01*
X159974372Y-76708058D01*
X159974370Y-76708058D01*
X159974368Y-76708057D01*
X159974358Y-76708056D01*
X159766979Y-76684690D01*
X159658789Y-76672500D01*
X159341211Y-76672500D01*
X159244116Y-76683440D01*
X159025641Y-76708056D01*
X159025624Y-76708059D01*
X158716020Y-76778723D01*
X158416258Y-76883615D01*
X158130129Y-77021407D01*
X157861234Y-77190364D01*
X157861217Y-77190376D01*
X157612948Y-77388364D01*
X157612928Y-77388382D01*
X157388382Y-77612928D01*
X157388364Y-77612948D01*
X157190376Y-77861217D01*
X157190364Y-77861234D01*
X157021407Y-78130129D01*
X156883615Y-78416258D01*
X156778723Y-78716020D01*
X156708059Y-79025624D01*
X156708056Y-79025641D01*
X156672500Y-79341214D01*
X154625500Y-79341214D01*
X154625500Y-76502043D01*
X154625634Y-76497955D01*
X154641269Y-76259416D01*
X154642336Y-76251311D01*
X154675527Y-76084446D01*
X154688575Y-76018846D01*
X154690683Y-76010979D01*
X154766871Y-75786538D01*
X154769998Y-75778989D01*
X154874828Y-75566413D01*
X154878906Y-75559350D01*
X155010589Y-75362273D01*
X155015553Y-75355804D01*
X155171840Y-75177592D01*
X155177592Y-75171840D01*
X155355804Y-75015553D01*
X155362273Y-75010589D01*
X155559350Y-74878906D01*
X155566413Y-74874828D01*
X155778993Y-74769996D01*
X155786538Y-74766871D01*
X156010979Y-74690683D01*
X156018846Y-74688575D01*
X156251314Y-74642335D01*
X156259414Y-74641269D01*
X156497956Y-74625634D01*
X156502044Y-74625500D01*
X156528644Y-74625500D01*
X221971356Y-74625500D01*
X221996930Y-74625500D01*
X222003056Y-74625801D01*
G37*
%TD.AperFunction*%
%TD*%
M02*
