%TF.GenerationSoftware,KiCad,Pcbnew,9.0.6+1*%
%TF.CreationDate,2026-01-17T13:13:53+00:00*%
%TF.ProjectId,Displayboard,44697370-6c61-4796-926f-6172642e6b69,1.0.0*%
%TF.SameCoordinates,Original*%
%TF.FileFunction,Profile,NP*%
%FSLAX46Y46*%
G04 Gerber Fmt 4.6, Leading zero omitted, Abs format (unit mm)*
G04 Created by KiCad (PCBNEW 9.0.6+1) date 2026-01-17 13:13:53*
%MOMM*%
%LPD*%
G01*
G04 APERTURE LIST*
%TA.AperFunction,Profile*%
%ADD10C,0.254000*%
%TD*%
G04 APERTURE END LIST*
D10*
X156500000Y-154500000D02*
G75*
G02*
X154500000Y-152500000I0J2000000D01*
G01*
X222000000Y-74500000D02*
G75*
G02*
X223000000Y-75500000I0J-1000000D01*
G01*
X238000000Y-75500000D02*
G75*
G02*
X239000000Y-74500000I1000000J0D01*
G01*
X170500000Y-144500000D02*
X156500000Y-144500000D01*
X260500000Y-152500000D02*
G75*
G02*
X258500000Y-154500000I-2000000J0D01*
G01*
X156500000Y-84500000D02*
X170500000Y-84500000D01*
X154500000Y-82500000D02*
X154500000Y-76500000D01*
X170500000Y-84500000D02*
G75*
G02*
X172500000Y-86500000I0J-2000000D01*
G01*
X156500000Y-84500000D02*
G75*
G02*
X154500000Y-82500000I0J2000000D01*
G01*
X258500000Y-74500000D02*
G75*
G02*
X260500000Y-76500000I0J-2000000D01*
G01*
X172500000Y-142500000D02*
G75*
G02*
X170500000Y-144500000I-2000000J0D01*
G01*
X224000000Y-84750000D02*
G75*
G02*
X223000000Y-83750000I0J1000000D01*
G01*
X260500000Y-76500000D02*
X260500000Y-152500000D01*
X154500000Y-146500000D02*
G75*
G02*
X156500000Y-144500000I2000000J0D01*
G01*
X222000000Y-74500000D02*
X156500000Y-74500000D01*
X258500000Y-154500000D02*
X156500000Y-154500000D01*
X172500000Y-86500000D02*
X172500000Y-142500000D01*
X238000000Y-83750000D02*
X238000000Y-75500000D01*
X238000000Y-83750000D02*
G75*
G02*
X237000000Y-84750000I-1000000J0D01*
G01*
X223000000Y-83750000D02*
X223000000Y-75500000D01*
X224000000Y-84750000D02*
X237000000Y-84750000D01*
X239000000Y-74500000D02*
X258500000Y-74500000D01*
X154500000Y-152500000D02*
X154500000Y-146500000D01*
X154500000Y-76500000D02*
G75*
G02*
X156500000Y-74500000I2000000J0D01*
G01*
M02*
