%TF.GenerationSoftware,KiCad,Pcbnew,9.0.6+1*%
%TF.CreationDate,2026-01-17T13:13:53+00:00*%
%TF.ProjectId,Displayboard,44697370-6c61-4796-926f-6172642e6b69,1.0.0*%
%TF.SameCoordinates,Original*%
%TF.FileFunction,Copper,L1,Top*%
%TF.FilePolarity,Positive*%
%FSLAX46Y46*%
G04 Gerber Fmt 4.6, Leading zero omitted, Abs format (unit mm)*
G04 Created by KiCad (PCBNEW 9.0.6+1) date 2026-01-17 13:13:53*
%MOMM*%
%LPD*%
G01*
G04 APERTURE LIST*
G04 Aperture macros list*
%AMRoundRect*
0 Rectangle with rounded corners*
0 $1 Rounding radius*
0 $2 $3 $4 $5 $6 $7 $8 $9 X,Y pos of 4 corners*
0 Add a 4 corners polygon primitive as box body*
4,1,4,$2,$3,$4,$5,$6,$7,$8,$9,$2,$3,0*
0 Add four circle primitives for the rounded corners*
1,1,$1+$1,$2,$3*
1,1,$1+$1,$4,$5*
1,1,$1+$1,$6,$7*
1,1,$1+$1,$8,$9*
0 Add four rect primitives between the rounded corners*
20,1,$1+$1,$2,$3,$4,$5,0*
20,1,$1+$1,$4,$5,$6,$7,0*
20,1,$1+$1,$6,$7,$8,$9,0*
20,1,$1+$1,$8,$9,$2,$3,0*%
%AMRotRect*
0 Rectangle, with rotation*
0 The origin of the aperture is its center*
0 $1 length*
0 $2 width*
0 $3 Rotation angle, in degrees counterclockwise*
0 Add horizontal line*
21,1,$1,$2,0,0,$3*%
G04 Aperture macros list end*
%ADD10C,0.120000*%
%TA.AperFunction,NonConductor*%
%ADD11C,0.120000*%
%TD*%
%TA.AperFunction,SMDPad,CuDef*%
%ADD12R,1.500000X1.300000*%
%TD*%
%TA.AperFunction,SMDPad,CuDef*%
%ADD13RoundRect,0.250000X0.450000X-0.262500X0.450000X0.262500X-0.450000X0.262500X-0.450000X-0.262500X0*%
%TD*%
%TA.AperFunction,SMDPad,CuDef*%
%ADD14RoundRect,0.250000X0.262500X0.450000X-0.262500X0.450000X-0.262500X-0.450000X0.262500X-0.450000X0*%
%TD*%
%TA.AperFunction,ComponentPad*%
%ADD15C,0.800000*%
%TD*%
%TA.AperFunction,ComponentPad*%
%ADD16C,5.400000*%
%TD*%
%TA.AperFunction,SMDPad,CuDef*%
%ADD17RoundRect,0.250000X-0.450000X0.262500X-0.450000X-0.262500X0.450000X-0.262500X0.450000X0.262500X0*%
%TD*%
%TA.AperFunction,SMDPad,CuDef*%
%ADD18RotRect,1.000000X2.000000X45.000000*%
%TD*%
%TA.AperFunction,SMDPad,CuDef*%
%ADD19RotRect,1.800000X2.000000X45.000000*%
%TD*%
%TA.AperFunction,SMDPad,CuDef*%
%ADD20R,0.800000X0.900000*%
%TD*%
%TA.AperFunction,ViaPad*%
%ADD21C,0.450000*%
%TD*%
%TA.AperFunction,Conductor*%
%ADD22C,0.200000*%
%TD*%
G04 APERTURE END LIST*
D10*
D11*
X241588470Y-151995855D02*
X241131327Y-151995855D01*
X241359899Y-151995855D02*
X241359899Y-151195855D01*
X241359899Y-151195855D02*
X241283708Y-151310140D01*
X241283708Y-151310140D02*
X241207518Y-151386331D01*
X241207518Y-151386331D02*
X241131327Y-151424426D01*
X241931328Y-151919664D02*
X241969423Y-151957760D01*
X241969423Y-151957760D02*
X241931328Y-151995855D01*
X241931328Y-151995855D02*
X241893232Y-151957760D01*
X241893232Y-151957760D02*
X241931328Y-151919664D01*
X241931328Y-151919664D02*
X241931328Y-151995855D01*
X242464661Y-151195855D02*
X242540851Y-151195855D01*
X242540851Y-151195855D02*
X242617042Y-151233950D01*
X242617042Y-151233950D02*
X242655137Y-151272045D01*
X242655137Y-151272045D02*
X242693232Y-151348236D01*
X242693232Y-151348236D02*
X242731327Y-151500617D01*
X242731327Y-151500617D02*
X242731327Y-151691093D01*
X242731327Y-151691093D02*
X242693232Y-151843474D01*
X242693232Y-151843474D02*
X242655137Y-151919664D01*
X242655137Y-151919664D02*
X242617042Y-151957760D01*
X242617042Y-151957760D02*
X242540851Y-151995855D01*
X242540851Y-151995855D02*
X242464661Y-151995855D01*
X242464661Y-151995855D02*
X242388470Y-151957760D01*
X242388470Y-151957760D02*
X242350375Y-151919664D01*
X242350375Y-151919664D02*
X242312280Y-151843474D01*
X242312280Y-151843474D02*
X242274184Y-151691093D01*
X242274184Y-151691093D02*
X242274184Y-151500617D01*
X242274184Y-151500617D02*
X242312280Y-151348236D01*
X242312280Y-151348236D02*
X242350375Y-151272045D01*
X242350375Y-151272045D02*
X242388470Y-151233950D01*
X242388470Y-151233950D02*
X242464661Y-151195855D01*
X243074185Y-151919664D02*
X243112280Y-151957760D01*
X243112280Y-151957760D02*
X243074185Y-151995855D01*
X243074185Y-151995855D02*
X243036089Y-151957760D01*
X243036089Y-151957760D02*
X243074185Y-151919664D01*
X243074185Y-151919664D02*
X243074185Y-151995855D01*
X243607518Y-151195855D02*
X243683708Y-151195855D01*
X243683708Y-151195855D02*
X243759899Y-151233950D01*
X243759899Y-151233950D02*
X243797994Y-151272045D01*
X243797994Y-151272045D02*
X243836089Y-151348236D01*
X243836089Y-151348236D02*
X243874184Y-151500617D01*
X243874184Y-151500617D02*
X243874184Y-151691093D01*
X243874184Y-151691093D02*
X243836089Y-151843474D01*
X243836089Y-151843474D02*
X243797994Y-151919664D01*
X243797994Y-151919664D02*
X243759899Y-151957760D01*
X243759899Y-151957760D02*
X243683708Y-151995855D01*
X243683708Y-151995855D02*
X243607518Y-151995855D01*
X243607518Y-151995855D02*
X243531327Y-151957760D01*
X243531327Y-151957760D02*
X243493232Y-151919664D01*
X243493232Y-151919664D02*
X243455137Y-151843474D01*
X243455137Y-151843474D02*
X243417041Y-151691093D01*
X243417041Y-151691093D02*
X243417041Y-151500617D01*
X243417041Y-151500617D02*
X243455137Y-151348236D01*
X243455137Y-151348236D02*
X243493232Y-151272045D01*
X243493232Y-151272045D02*
X243531327Y-151233950D01*
X243531327Y-151233950D02*
X243607518Y-151195855D01*
D12*
%TO.P,SW403,1,1*%
%TO.N,Net-(IC401-P1_1)*%
X214575000Y-143350000D03*
%TO.P,SW403,2,2*%
%TO.N,+3V3*%
X214575000Y-147850000D03*
%TO.P,SW403,3,3*%
%TO.N,Net-(IC401-P1_1)*%
X222525000Y-143350000D03*
%TO.P,SW403,4,4*%
%TO.N,+3V3*%
X222525000Y-147850000D03*
%TD*%
D13*
%TO.P,R405,1*%
%TO.N,Net-(D401-BK)*%
X249400000Y-92712500D03*
%TO.P,R405,2*%
%TO.N,Net-(IC401-P0_0)*%
X249400000Y-90887500D03*
%TD*%
D12*
%TO.P,SW401,1,1*%
%TO.N,Net-(IC401-P1_3)*%
X183575000Y-143350000D03*
%TO.P,SW401,2,2*%
%TO.N,+3V3*%
X183575000Y-147850000D03*
%TO.P,SW401,3,3*%
%TO.N,Net-(IC401-P1_3)*%
X191525000Y-143350000D03*
%TO.P,SW401,4,4*%
%TO.N,+3V3*%
X191525000Y-147850000D03*
%TD*%
%TO.P,SW404,1,1*%
%TO.N,Net-(IC401-P1_0)*%
X230075000Y-143350000D03*
%TO.P,SW404,2,2*%
%TO.N,+3V3*%
X230075000Y-147850000D03*
%TO.P,SW404,3,3*%
%TO.N,Net-(IC401-P1_0)*%
X238025000Y-143350000D03*
%TO.P,SW404,4,4*%
%TO.N,+3V3*%
X238025000Y-147850000D03*
%TD*%
D14*
%TO.P,R501,1*%
%TO.N,/Project Architecture/Connectors/SPI-MISO*%
X245712500Y-110750000D03*
%TO.P,R501,2*%
%TO.N,Net-(X502-Pin_12)*%
X243887500Y-110750000D03*
%TD*%
D15*
%TO.P,REF\u002A\u002A,1*%
%TO.N,N/C*%
X253475000Y-149500000D03*
X254068109Y-148068109D03*
X254068109Y-150931891D03*
X255500000Y-147475000D03*
D16*
X255500000Y-149500000D03*
D15*
X255500000Y-151525000D03*
X256931891Y-148068109D03*
X256931891Y-150931891D03*
X257525000Y-149500000D03*
%TD*%
D17*
%TO.P,R404,1*%
%TO.N,Net-(D401-GK)*%
X249000000Y-99987500D03*
%TO.P,R404,2*%
%TO.N,Net-(IC401-P0_1)*%
X249000000Y-101812500D03*
%TD*%
D15*
%TO.P,REF\u002A\u002A,1*%
%TO.N,N/C*%
X253475000Y-79500000D03*
X254068109Y-78068109D03*
X254068109Y-80931891D03*
X255500000Y-77475000D03*
D16*
X255500000Y-79500000D03*
D15*
X255500000Y-81525000D03*
X256931891Y-78068109D03*
X256931891Y-80931891D03*
X257525000Y-79500000D03*
%TD*%
D17*
%TO.P,R403,1*%
%TO.N,Net-(D401-RK)*%
X251000000Y-100987500D03*
%TO.P,R403,2*%
%TO.N,Net-(IC401-P0_2)*%
X251000000Y-102812500D03*
%TD*%
D18*
%TO.P,S401,1*%
%TO.N,Net-(IC401-P0_3)*%
X252679200Y-132163946D03*
%TO.P,S401,2*%
%TO.N,Net-(IC401-P0_4)*%
X251671573Y-133171573D03*
%TO.P,S401,3*%
%TO.N,Net-(IC401-P0_5)*%
X250663946Y-134179200D03*
%TO.P,S401,4*%
%TO.N,Net-(IC401-P0_6)*%
X258336054Y-137820800D03*
%TO.P,S401,5*%
%TO.N,+3V3*%
X257328427Y-138828427D03*
%TO.P,S401,6*%
%TO.N,Net-(IC401-P0_7)*%
X256320800Y-139836054D03*
D19*
%TO.P,S401,MP1*%
%TO.N,N/C*%
X257363782Y-133136218D03*
%TO.P,S401,MP2*%
X251636218Y-138863782D03*
%TD*%
D15*
%TO.P,REF\u002A\u002A,1*%
%TO.N,N/C*%
X157475000Y-79500000D03*
X158068109Y-78068109D03*
X158068109Y-80931891D03*
X159500000Y-77475000D03*
D16*
X159500000Y-79500000D03*
D15*
X159500000Y-81525000D03*
X160931891Y-78068109D03*
X160931891Y-80931891D03*
X161525000Y-79500000D03*
%TD*%
D12*
%TO.P,SW402,1,1*%
%TO.N,Net-(IC401-P1_2)*%
X199075000Y-143350000D03*
%TO.P,SW402,2,2*%
%TO.N,+3V3*%
X199075000Y-147850000D03*
%TO.P,SW402,3,3*%
%TO.N,Net-(IC401-P1_2)*%
X207025000Y-143350000D03*
%TO.P,SW402,4,4*%
%TO.N,+3V3*%
X207025000Y-147850000D03*
%TD*%
D20*
%TO.P,D401,1,A*%
%TO.N,+3V3*%
X250600000Y-95100000D03*
%TO.P,D401,2,BK*%
%TO.N,Net-(D401-BK)*%
X249400000Y-95100000D03*
%TO.P,D401,3,GK*%
%TO.N,Net-(D401-GK)*%
X249400000Y-96900000D03*
%TO.P,D401,4,RK*%
%TO.N,Net-(D401-RK)*%
X250600000Y-96900000D03*
%TD*%
D15*
%TO.P,REF\u002A\u002A,1*%
%TO.N,N/C*%
X157475000Y-149500000D03*
X158068109Y-148068109D03*
X158068109Y-150931891D03*
X159500000Y-147475000D03*
D16*
X159500000Y-149500000D03*
D15*
X159500000Y-151525000D03*
X160931891Y-148068109D03*
X160931891Y-150931891D03*
X161525000Y-149500000D03*
%TD*%
D21*
%TO.N,+3V3*%
X219900000Y-112250000D03*
X222700000Y-121800000D03*
X241250000Y-96350000D03*
X201000000Y-95650000D03*
X229800000Y-114100000D03*
X224387500Y-118600000D03*
X225387500Y-120949999D03*
X230500000Y-119949999D03*
%TO.N,/Project Architecture/Connectors/~{Expander-Int}*%
X226100000Y-103000000D03*
X244250000Y-102550000D03*
%TO.N,/Project Architecture/Connectors/~{Display-CS}*%
X246250000Y-107100000D03*
X219900000Y-109750000D03*
%TO.N,/Project Architecture/Connectors/~{Display-Reset}*%
X244750000Y-103950000D03*
X219500000Y-108250000D03*
%TO.N,/Project Architecture/Connectors/I2C-SCL*%
X225600000Y-99900000D03*
X222500000Y-99900000D03*
%TO.N,/Project Architecture/Connectors/SPI-SCLK*%
X219900000Y-108750000D03*
X245250000Y-105000000D03*
%TO.N,/Project Architecture/Connectors/SPI-MOSI*%
X246750000Y-108100000D03*
X219500000Y-110250000D03*
%TO.N,/Project Architecture/Connectors/Display-DC*%
X245750000Y-106150000D03*
X219500000Y-109250000D03*
%TO.N,/Project Architecture/Connectors/Display-Backlight*%
X246200000Y-112700000D03*
X215200000Y-124200000D03*
%TO.N,/Project Architecture/Connectors/SPI-MISO*%
X247250000Y-109212500D03*
%TO.N,Net-(IC401-P0_2)*%
X241850000Y-123350000D03*
%TO.N,Net-(IC401-P1_1)*%
X223887500Y-129200000D03*
%TO.N,Net-(IC401-P1_0)*%
X224387500Y-128400000D03*
%TO.N,Net-(IC401-P1_3)*%
X191525000Y-139100000D03*
%TO.N,Net-(IC401-P1_2)*%
X223387500Y-127712500D03*
%TO.N,Net-(IC401-P0_7)*%
X225387500Y-128000000D03*
%TO.N,Net-(IC401-P0_5)*%
X227750000Y-124850000D03*
%TO.N,Net-(IC401-P0_0)*%
X245650000Y-122350000D03*
%TO.N,Net-(IC401-P0_3)*%
X228850000Y-123850000D03*
%TO.N,Net-(IC401-P0_1)*%
X240250000Y-122850000D03*
%TO.N,Net-(IC401-P0_6)*%
X225887500Y-126900000D03*
%TO.N,Net-(IC401-P0_4)*%
X228200000Y-124350000D03*
%TO.N,Net-(X502-Pin_12)*%
X219900000Y-110750000D03*
%TD*%
D22*
%TO.N,/Project Architecture/Connectors/~{Expander-Int}*%
X226100000Y-103000000D02*
X243800000Y-103000000D01*
X243800000Y-103000000D02*
X244250000Y-102550000D01*
%TO.N,/Project Architecture/Connectors/~{Display-CS}*%
X222800000Y-107800000D02*
X245550000Y-107800000D01*
X245550000Y-107800000D02*
X246250000Y-107100000D01*
X220850000Y-109750000D02*
X222800000Y-107800000D01*
X219900000Y-109750000D02*
X220850000Y-109750000D01*
%TO.N,/Project Architecture/Connectors/~{Display-Reset}*%
X223450000Y-104300000D02*
X244400000Y-104300000D01*
X219500000Y-108250000D02*
X223450000Y-104300000D01*
X244400000Y-104300000D02*
X244750000Y-103950000D01*
%TO.N,/Project Architecture/Connectors/I2C-SCL*%
X225600000Y-99900000D02*
X222500000Y-99900000D01*
%TO.N,/Project Architecture/Connectors/SPI-SCLK*%
X223150000Y-105500000D02*
X244750000Y-105500000D01*
X219900000Y-108750000D02*
X223150000Y-105500000D01*
X244750000Y-105500000D02*
X245250000Y-105000000D01*
%TO.N,/Project Architecture/Connectors/SPI-MOSI*%
X221350000Y-110250000D02*
X222800000Y-108800000D01*
X222800000Y-108800000D02*
X246050000Y-108800000D01*
X246050000Y-108800000D02*
X246750000Y-108100000D01*
X219500000Y-110250000D02*
X221350000Y-110250000D01*
%TO.N,/Project Architecture/Connectors/Display-DC*%
X223000000Y-106600000D02*
X245300000Y-106600000D01*
X245300000Y-106600000D02*
X245750000Y-106150000D01*
X219500000Y-109250000D02*
X220350000Y-109250000D01*
X220350000Y-109250000D02*
X223000000Y-106600000D01*
%TO.N,/Project Architecture/Connectors/Display-Backlight*%
X215200000Y-124200000D02*
X226700000Y-112700000D01*
X226700000Y-112700000D02*
X246200000Y-112700000D01*
%TO.N,/Project Architecture/Connectors/SPI-MISO*%
X247250000Y-109212500D02*
X245712500Y-110750000D01*
%TO.N,Net-(D401-BK)*%
X249400000Y-95100000D02*
X249400000Y-92712500D01*
%TO.N,Net-(D401-GK)*%
X249400000Y-98100000D02*
X249000000Y-98500000D01*
X249400000Y-96900000D02*
X249400000Y-98100000D01*
X249000000Y-98500000D02*
X249000000Y-99987500D01*
%TO.N,Net-(D401-RK)*%
X250600000Y-96900000D02*
X250600000Y-98200000D01*
X250600000Y-98200000D02*
X251000000Y-98600000D01*
X251000000Y-98600000D02*
X251000000Y-100987500D01*
%TO.N,Net-(IC401-P0_2)*%
X241850000Y-123350000D02*
X251000000Y-114200000D01*
X251000000Y-114200000D02*
X251000000Y-102812500D01*
%TO.N,Net-(IC401-P1_1)*%
X222525000Y-130562500D02*
X222525000Y-143350000D01*
X223887500Y-129200000D02*
X222525000Y-130562500D01*
X222525000Y-143350000D02*
X214575000Y-143350000D01*
%TO.N,Net-(IC401-P1_0)*%
X230075000Y-134087500D02*
X230075000Y-143350000D01*
X224387500Y-128400000D02*
X230075000Y-134087500D01*
X230075000Y-143350000D02*
X238025000Y-143350000D01*
%TO.N,Net-(IC401-P1_3)*%
X183575000Y-143350000D02*
X191525000Y-143350000D01*
X191525000Y-139100000D02*
X191525000Y-143350000D01*
%TO.N,Net-(IC401-P1_2)*%
X207025000Y-143350000D02*
X199075000Y-143350000D01*
X223387500Y-127712500D02*
X214187500Y-127712500D01*
X207025000Y-134875000D02*
X207025000Y-143350000D01*
X214187500Y-127712500D02*
X207025000Y-134875000D01*
%TO.N,Net-(IC401-P0_7)*%
X254784746Y-138300000D02*
X256320800Y-139836054D01*
X237000000Y-128000000D02*
X245026000Y-136026000D01*
X225387500Y-128000000D02*
X237000000Y-128000000D01*
X253526000Y-136026000D02*
X254784746Y-137284746D01*
X245026000Y-136026000D02*
X253526000Y-136026000D01*
X254784746Y-137284746D02*
X254784746Y-138300000D01*
%TO.N,Net-(IC401-P0_5)*%
X250663946Y-134179200D02*
X241334746Y-124850000D01*
X241334746Y-124850000D02*
X227750000Y-124850000D01*
%TO.N,Net-(IC401-P0_0)*%
X245650000Y-122350000D02*
X253600000Y-114400000D01*
X253600000Y-114400000D02*
X253600000Y-92400000D01*
X253600000Y-92400000D02*
X252087500Y-90887500D01*
X252087500Y-90887500D02*
X249400000Y-90887500D01*
%TO.N,Net-(IC401-P0_3)*%
X244365254Y-123850000D02*
X228850000Y-123850000D01*
X252679200Y-132163946D02*
X244365254Y-123850000D01*
%TO.N,Net-(IC401-P0_1)*%
X240250000Y-122850000D02*
X249000000Y-114100000D01*
X249000000Y-114100000D02*
X249000000Y-101812500D01*
%TO.N,Net-(IC401-P0_6)*%
X256215254Y-135700000D02*
X258336054Y-137820800D01*
X225887500Y-126900000D02*
X236400000Y-126900000D01*
X245200000Y-135700000D02*
X256215254Y-135700000D01*
X236400000Y-126900000D02*
X245200000Y-135700000D01*
%TO.N,Net-(IC401-P0_4)*%
X242850000Y-124350000D02*
X251671573Y-133171573D01*
X228200000Y-124350000D02*
X242850000Y-124350000D01*
%TO.N,Net-(X502-Pin_12)*%
X219900000Y-110750000D02*
X243887500Y-110750000D01*
%TD*%
%TA.AperFunction,Conductor*%
%TO.N,+3V3*%
G36*
X222003056Y-74625801D02*
G01*
X222164482Y-74641699D01*
X222176491Y-74644088D01*
X222323135Y-74688572D01*
X222328766Y-74690280D01*
X222340085Y-74694969D01*
X222480420Y-74769980D01*
X222490605Y-74776785D01*
X222612272Y-74876635D01*
X222613606Y-74877729D01*
X222622268Y-74886391D01*
X222723212Y-75009392D01*
X222730019Y-75019579D01*
X222805030Y-75159914D01*
X222809719Y-75171233D01*
X222855910Y-75323504D01*
X222858300Y-75335521D01*
X222874199Y-75496943D01*
X222874500Y-75503069D01*
X222874500Y-83721356D01*
X222874500Y-83750000D01*
X222874500Y-83848468D01*
X222898476Y-83984439D01*
X222908698Y-84042413D01*
X222976054Y-84227476D01*
X223074522Y-84398024D01*
X223074523Y-84398027D01*
X223201110Y-84548889D01*
X223351972Y-84675476D01*
X223351973Y-84675476D01*
X223351974Y-84675477D01*
X223376041Y-84689372D01*
X223522523Y-84773945D01*
X223522526Y-84773946D01*
X223707587Y-84841302D01*
X223901532Y-84875500D01*
X223901537Y-84875500D01*
X237098462Y-84875500D01*
X237098468Y-84875500D01*
X237292413Y-84841302D01*
X237477474Y-84773946D01*
X237648026Y-84675477D01*
X237798889Y-84548889D01*
X237925477Y-84398026D01*
X238020681Y-84233129D01*
X238023945Y-84227476D01*
X238062667Y-84121087D01*
X238091302Y-84042413D01*
X238125500Y-83848468D01*
X238125500Y-83750000D01*
X238125500Y-83721356D01*
X238125500Y-79341214D01*
X252672500Y-79341214D01*
X252672500Y-79658785D01*
X252708056Y-79974358D01*
X252708059Y-79974375D01*
X252778723Y-80283979D01*
X252883615Y-80583741D01*
X253021407Y-80869870D01*
X253190364Y-81138765D01*
X253190376Y-81138782D01*
X253388364Y-81387051D01*
X253388369Y-81387057D01*
X253388375Y-81387064D01*
X253612936Y-81611625D01*
X253612943Y-81611631D01*
X253612948Y-81611635D01*
X253861217Y-81809623D01*
X253861223Y-81809627D01*
X253861229Y-81809632D01*
X254130130Y-81978593D01*
X254416258Y-82116385D01*
X254716014Y-82221275D01*
X255025630Y-82291942D01*
X255341211Y-82327500D01*
X255341214Y-82327500D01*
X255658786Y-82327500D01*
X255658789Y-82327500D01*
X255974370Y-82291942D01*
X256283986Y-82221275D01*
X256583742Y-82116385D01*
X256869870Y-81978593D01*
X257138771Y-81809632D01*
X257387064Y-81611625D01*
X257611625Y-81387064D01*
X257809632Y-81138771D01*
X257978593Y-80869870D01*
X258116385Y-80583742D01*
X258221275Y-80283986D01*
X258291942Y-79974370D01*
X258327500Y-79658789D01*
X258327500Y-79341211D01*
X258291942Y-79025630D01*
X258221275Y-78716014D01*
X258116385Y-78416258D01*
X257978593Y-78130130D01*
X257809632Y-77861229D01*
X257809627Y-77861223D01*
X257809623Y-77861217D01*
X257611635Y-77612948D01*
X257611631Y-77612943D01*
X257611625Y-77612936D01*
X257387064Y-77388375D01*
X257387057Y-77388369D01*
X257387051Y-77388364D01*
X257138782Y-77190376D01*
X257138765Y-77190364D01*
X256869870Y-77021407D01*
X256583742Y-76883615D01*
X256283986Y-76778725D01*
X256283982Y-76778724D01*
X256283979Y-76778723D01*
X255974375Y-76708059D01*
X255974372Y-76708058D01*
X255974370Y-76708058D01*
X255974368Y-76708057D01*
X255974358Y-76708056D01*
X255766979Y-76684690D01*
X255658789Y-76672500D01*
X255341211Y-76672500D01*
X255244116Y-76683440D01*
X255025641Y-76708056D01*
X255025624Y-76708059D01*
X254716020Y-76778723D01*
X254416258Y-76883615D01*
X254130129Y-77021407D01*
X253861234Y-77190364D01*
X253861217Y-77190376D01*
X253612948Y-77388364D01*
X253612928Y-77388382D01*
X253388382Y-77612928D01*
X253388364Y-77612948D01*
X253190376Y-77861217D01*
X253190364Y-77861234D01*
X253021407Y-78130129D01*
X252883615Y-78416258D01*
X252778723Y-78716020D01*
X252708059Y-79025624D01*
X252708056Y-79025641D01*
X252672500Y-79341214D01*
X238125500Y-79341214D01*
X238125500Y-75503069D01*
X238125801Y-75496943D01*
X238135198Y-75401532D01*
X238141700Y-75335515D01*
X238144087Y-75323510D01*
X238190281Y-75171230D01*
X238194969Y-75159914D01*
X238269980Y-75019579D01*
X238276782Y-75009398D01*
X238377735Y-74886386D01*
X238386386Y-74877735D01*
X238509398Y-74776782D01*
X238519579Y-74769980D01*
X238525398Y-74766870D01*
X238659914Y-74694969D01*
X238671230Y-74690281D01*
X238823510Y-74644087D01*
X238835515Y-74641700D01*
X238996944Y-74625801D01*
X239003070Y-74625500D01*
X239028644Y-74625500D01*
X258471356Y-74625500D01*
X258497956Y-74625500D01*
X258502044Y-74625634D01*
X258740583Y-74641269D01*
X258748687Y-74642335D01*
X258981149Y-74688575D01*
X258989024Y-74690685D01*
X259186116Y-74757589D01*
X259213457Y-74766870D01*
X259221010Y-74769998D01*
X259433578Y-74874824D01*
X259440656Y-74878910D01*
X259635934Y-75009392D01*
X259637717Y-75010583D01*
X259644202Y-75015559D01*
X259822399Y-75171833D01*
X259828166Y-75177600D01*
X259854464Y-75207587D01*
X259984439Y-75355796D01*
X259989416Y-75362282D01*
X260121087Y-75559341D01*
X260125175Y-75566421D01*
X260230001Y-75778989D01*
X260233129Y-75786542D01*
X260309311Y-76010964D01*
X260311427Y-76018861D01*
X260357663Y-76251311D01*
X260358730Y-76259416D01*
X260374366Y-76497955D01*
X260374500Y-76502043D01*
X260374500Y-152497956D01*
X260374366Y-152502044D01*
X260358730Y-152740583D01*
X260357663Y-152748688D01*
X260311427Y-152981138D01*
X260309311Y-152989035D01*
X260233129Y-153213457D01*
X260230001Y-153221010D01*
X260125175Y-153433578D01*
X260121087Y-153440658D01*
X259989416Y-153637717D01*
X259984439Y-153644203D01*
X259828173Y-153822392D01*
X259822392Y-153828173D01*
X259644203Y-153984439D01*
X259637717Y-153989416D01*
X259440658Y-154121087D01*
X259433578Y-154125175D01*
X259221010Y-154230001D01*
X259213457Y-154233129D01*
X258989035Y-154309311D01*
X258981138Y-154311427D01*
X258748688Y-154357663D01*
X258740583Y-154358730D01*
X258502044Y-154374366D01*
X258497956Y-154374500D01*
X156502044Y-154374500D01*
X156497956Y-154374366D01*
X156259416Y-154358730D01*
X156251311Y-154357663D01*
X156018861Y-154311427D01*
X156010964Y-154309311D01*
X155786542Y-154233129D01*
X155778989Y-154230001D01*
X155566421Y-154125175D01*
X155559341Y-154121087D01*
X155362282Y-153989416D01*
X155355796Y-153984439D01*
X155264582Y-153904447D01*
X155177600Y-153828166D01*
X155171833Y-153822399D01*
X155015559Y-153644202D01*
X155010583Y-153637717D01*
X154878912Y-153440658D01*
X154874824Y-153433578D01*
X154769998Y-153221010D01*
X154766870Y-153213457D01*
X154757103Y-153184686D01*
X154690685Y-152989024D01*
X154688575Y-152981149D01*
X154642335Y-152748687D01*
X154641269Y-152740583D01*
X154625634Y-152502044D01*
X154625500Y-152497956D01*
X154625500Y-149341214D01*
X156672500Y-149341214D01*
X156672500Y-149658785D01*
X156708056Y-149974358D01*
X156708059Y-149974375D01*
X156778723Y-150283979D01*
X156883615Y-150583741D01*
X157021407Y-150869870D01*
X157190364Y-151138765D01*
X157190376Y-151138782D01*
X157388364Y-151387051D01*
X157388369Y-151387057D01*
X157388375Y-151387064D01*
X157612936Y-151611625D01*
X157612943Y-151611631D01*
X157612948Y-151611635D01*
X157861217Y-151809623D01*
X157861223Y-151809627D01*
X157861229Y-151809632D01*
X158130130Y-151978593D01*
X158416258Y-152116385D01*
X158716014Y-152221275D01*
X159025630Y-152291942D01*
X159341211Y-152327500D01*
X159341214Y-152327500D01*
X159658786Y-152327500D01*
X159658789Y-152327500D01*
X159974370Y-152291942D01*
X160283986Y-152221275D01*
X160365139Y-152192878D01*
X240934304Y-152192878D01*
X244070771Y-152192878D01*
X244070771Y-150998832D01*
X240934304Y-150998832D01*
X240934304Y-152192878D01*
X160365139Y-152192878D01*
X160583742Y-152116385D01*
X160869870Y-151978593D01*
X161138771Y-151809632D01*
X161387064Y-151611625D01*
X161611625Y-151387064D01*
X161809632Y-151138771D01*
X161978593Y-150869870D01*
X162116385Y-150583742D01*
X162221275Y-150283986D01*
X162291942Y-149974370D01*
X162327500Y-149658789D01*
X162327500Y-149341214D01*
X252672500Y-149341214D01*
X252672500Y-149658785D01*
X252708056Y-149974358D01*
X252708059Y-149974375D01*
X252778723Y-150283979D01*
X252883615Y-150583741D01*
X253021407Y-150869870D01*
X253190364Y-151138765D01*
X253190376Y-151138782D01*
X253388364Y-151387051D01*
X253388369Y-151387057D01*
X253388375Y-151387064D01*
X253612936Y-151611625D01*
X253612943Y-151611631D01*
X253612948Y-151611635D01*
X253861217Y-151809623D01*
X253861223Y-151809627D01*
X253861229Y-151809632D01*
X254130130Y-151978593D01*
X254416258Y-152116385D01*
X254716014Y-152221275D01*
X255025630Y-152291942D01*
X255341211Y-152327500D01*
X255341214Y-152327500D01*
X255658786Y-152327500D01*
X255658789Y-152327500D01*
X255974370Y-152291942D01*
X256283986Y-152221275D01*
X256583742Y-152116385D01*
X256869870Y-151978593D01*
X257138771Y-151809632D01*
X257387064Y-151611625D01*
X257611625Y-151387064D01*
X257809632Y-151138771D01*
X257978593Y-150869870D01*
X258116385Y-150583742D01*
X258221275Y-150283986D01*
X258291942Y-149974370D01*
X258327500Y-149658789D01*
X258327500Y-149341211D01*
X258291942Y-149025630D01*
X258221275Y-148716014D01*
X258116385Y-148416258D01*
X257978593Y-148130130D01*
X257809632Y-147861229D01*
X257809627Y-147861223D01*
X257809623Y-147861217D01*
X257611635Y-147612948D01*
X257611631Y-147612943D01*
X257611625Y-147612936D01*
X257387064Y-147388375D01*
X257387057Y-147388369D01*
X257387051Y-147388364D01*
X257138782Y-147190376D01*
X257138765Y-147190364D01*
X256869870Y-147021407D01*
X256583742Y-146883615D01*
X256283986Y-146778725D01*
X256283982Y-146778724D01*
X256283979Y-146778723D01*
X255974375Y-146708059D01*
X255974372Y-146708058D01*
X255974370Y-146708058D01*
X255974368Y-146708057D01*
X255974358Y-146708056D01*
X255766979Y-146684690D01*
X255658789Y-146672500D01*
X255341211Y-146672500D01*
X255244116Y-146683440D01*
X255025641Y-146708056D01*
X255025624Y-146708059D01*
X254716020Y-146778723D01*
X254416258Y-146883615D01*
X254130129Y-147021407D01*
X253861234Y-147190364D01*
X253861217Y-147190376D01*
X253612948Y-147388364D01*
X253612928Y-147388382D01*
X253388382Y-147612928D01*
X253388364Y-147612948D01*
X253190376Y-147861217D01*
X253190364Y-147861234D01*
X253021407Y-148130129D01*
X252883615Y-148416258D01*
X252778723Y-148716020D01*
X252708059Y-149025624D01*
X252708056Y-149025641D01*
X252672500Y-149341214D01*
X162327500Y-149341214D01*
X162327500Y-149341211D01*
X162291942Y-149025630D01*
X162221275Y-148716014D01*
X162190127Y-148626999D01*
X182887801Y-148626999D01*
X182887802Y-148627000D01*
X184262198Y-148627000D01*
X184262198Y-148626999D01*
X190837801Y-148626999D01*
X190837802Y-148627000D01*
X192212198Y-148627000D01*
X192212198Y-148626999D01*
X198387801Y-148626999D01*
X198387802Y-148627000D01*
X199762198Y-148627000D01*
X199762198Y-148626999D01*
X206337801Y-148626999D01*
X206337802Y-148627000D01*
X207712198Y-148627000D01*
X207712198Y-148626999D01*
X213887801Y-148626999D01*
X213887802Y-148627000D01*
X215262198Y-148627000D01*
X215262198Y-148626999D01*
X221837801Y-148626999D01*
X221837802Y-148627000D01*
X223212198Y-148627000D01*
X223212198Y-148626999D01*
X229387801Y-148626999D01*
X229387802Y-148627000D01*
X230762198Y-148627000D01*
X230762198Y-148626999D01*
X237337801Y-148626999D01*
X237337802Y-148627000D01*
X238712198Y-148627000D01*
X238712198Y-148626999D01*
X238025000Y-147939802D01*
X237337801Y-148626999D01*
X230762198Y-148626999D01*
X230075000Y-147939802D01*
X229387801Y-148626999D01*
X223212198Y-148626999D01*
X222525000Y-147939802D01*
X221837801Y-148626999D01*
X215262198Y-148626999D01*
X214575000Y-147939802D01*
X213887801Y-148626999D01*
X207712198Y-148626999D01*
X207025000Y-147939802D01*
X206337801Y-148626999D01*
X199762198Y-148626999D01*
X199075000Y-147939802D01*
X198387801Y-148626999D01*
X192212198Y-148626999D01*
X191525000Y-147939802D01*
X190837801Y-148626999D01*
X184262198Y-148626999D01*
X183575000Y-147939802D01*
X182887801Y-148626999D01*
X162190127Y-148626999D01*
X162150064Y-148512507D01*
X182697999Y-148512507D01*
X182705369Y-148549553D01*
X182705369Y-148549554D01*
X182733435Y-148591559D01*
X182733441Y-148591564D01*
X182739549Y-148595645D01*
X182739551Y-148595645D01*
X182767056Y-148568141D01*
X183485198Y-147849999D01*
X183664802Y-147849999D01*
X183664802Y-147850000D01*
X184410447Y-148595645D01*
X184416561Y-148591562D01*
X184416563Y-148591560D01*
X184444630Y-148549554D01*
X184444630Y-148549553D01*
X184452000Y-148512507D01*
X190647999Y-148512507D01*
X190655369Y-148549553D01*
X190655369Y-148549554D01*
X190683435Y-148591559D01*
X190683441Y-148591564D01*
X190689549Y-148595645D01*
X190689551Y-148595645D01*
X190717056Y-148568141D01*
X191435198Y-147849999D01*
X191614802Y-147849999D01*
X191614802Y-147850000D01*
X192360447Y-148595645D01*
X192360448Y-148595645D01*
X192366561Y-148591562D01*
X192366563Y-148591560D01*
X192394630Y-148549554D01*
X192394630Y-148549553D01*
X192402000Y-148512507D01*
X198197999Y-148512507D01*
X198205369Y-148549553D01*
X198205369Y-148549554D01*
X198233435Y-148591559D01*
X198233441Y-148591564D01*
X198239549Y-148595645D01*
X198239551Y-148595645D01*
X198267056Y-148568141D01*
X198985198Y-147849999D01*
X199164802Y-147849999D01*
X199164802Y-147850000D01*
X199910447Y-148595645D01*
X199910448Y-148595645D01*
X199916561Y-148591562D01*
X199916563Y-148591560D01*
X199944630Y-148549554D01*
X199944630Y-148549553D01*
X199952000Y-148512507D01*
X206147999Y-148512507D01*
X206155369Y-148549553D01*
X206155369Y-148549554D01*
X206183435Y-148591559D01*
X206183441Y-148591564D01*
X206189549Y-148595645D01*
X206189551Y-148595645D01*
X206217056Y-148568141D01*
X206935198Y-147849999D01*
X207114802Y-147849999D01*
X207114802Y-147850000D01*
X207860447Y-148595645D01*
X207866561Y-148591562D01*
X207866563Y-148591560D01*
X207894630Y-148549554D01*
X207894630Y-148549553D01*
X207902000Y-148512507D01*
X213697999Y-148512507D01*
X213705369Y-148549553D01*
X213705369Y-148549554D01*
X213733435Y-148591559D01*
X213733441Y-148591564D01*
X213739549Y-148595645D01*
X213739551Y-148595645D01*
X213767056Y-148568141D01*
X214485198Y-147849999D01*
X214664802Y-147849999D01*
X214664802Y-147850000D01*
X215410447Y-148595645D01*
X215416561Y-148591562D01*
X215416563Y-148591560D01*
X215444630Y-148549554D01*
X215444630Y-148549553D01*
X215452000Y-148512507D01*
X221647999Y-148512507D01*
X221655369Y-148549553D01*
X221655369Y-148549554D01*
X221683435Y-148591559D01*
X221683441Y-148591564D01*
X221689549Y-148595645D01*
X221689551Y-148595645D01*
X221717056Y-148568141D01*
X222435198Y-147849999D01*
X222614802Y-147849999D01*
X222614802Y-147850000D01*
X223360447Y-148595645D01*
X223360448Y-148595645D01*
X223366561Y-148591562D01*
X223366563Y-148591560D01*
X223394630Y-148549554D01*
X223394630Y-148549553D01*
X223402000Y-148512507D01*
X229197999Y-148512507D01*
X229205369Y-148549553D01*
X229205369Y-148549554D01*
X229233435Y-148591559D01*
X229233441Y-148591564D01*
X229239549Y-148595645D01*
X229239551Y-148595645D01*
X229267056Y-148568141D01*
X229985198Y-147849999D01*
X230164802Y-147849999D01*
X230164802Y-147850000D01*
X230910447Y-148595645D01*
X230910448Y-148595645D01*
X230916561Y-148591562D01*
X230916563Y-148591560D01*
X230944630Y-148549554D01*
X230944630Y-148549553D01*
X230952000Y-148512507D01*
X237147999Y-148512507D01*
X237155369Y-148549553D01*
X237155369Y-148549554D01*
X237183435Y-148591559D01*
X237183441Y-148591564D01*
X237189549Y-148595645D01*
X237189551Y-148595645D01*
X237217056Y-148568141D01*
X237935198Y-147850000D01*
X237935198Y-147849999D01*
X238114802Y-147849999D01*
X238114802Y-147850000D01*
X238860447Y-148595645D01*
X238860448Y-148595645D01*
X238866561Y-148591562D01*
X238866563Y-148591560D01*
X238894630Y-148549554D01*
X238894630Y-148549553D01*
X238902000Y-148512507D01*
X238902000Y-147187492D01*
X238894630Y-147150446D01*
X238894630Y-147150445D01*
X238866562Y-147108438D01*
X238866558Y-147108434D01*
X238860448Y-147104352D01*
X238860447Y-147104352D01*
X238114802Y-147849999D01*
X237935198Y-147849999D01*
X237189551Y-147104352D01*
X237183437Y-147108438D01*
X237155369Y-147150445D01*
X237155369Y-147150446D01*
X237148000Y-147187492D01*
X237148000Y-148512507D01*
X237147999Y-148512507D01*
X230952000Y-148512507D01*
X230952000Y-147187492D01*
X230944630Y-147150446D01*
X230944630Y-147150445D01*
X230916562Y-147108438D01*
X230916558Y-147108434D01*
X230910448Y-147104352D01*
X230910447Y-147104352D01*
X230164802Y-147849999D01*
X229985198Y-147849999D01*
X229239551Y-147104352D01*
X229233437Y-147108438D01*
X229205369Y-147150445D01*
X229205369Y-147150446D01*
X229198000Y-147187492D01*
X229198000Y-148512507D01*
X229197999Y-148512507D01*
X223402000Y-148512507D01*
X223402000Y-147187492D01*
X223394630Y-147150446D01*
X223394630Y-147150445D01*
X223366562Y-147108438D01*
X223366558Y-147108434D01*
X223360447Y-147104352D01*
X222614802Y-147849999D01*
X222435198Y-147849999D01*
X221689551Y-147104352D01*
X221683437Y-147108438D01*
X221655369Y-147150445D01*
X221655369Y-147150446D01*
X221648000Y-147187492D01*
X221648000Y-148512507D01*
X221647999Y-148512507D01*
X215452000Y-148512507D01*
X215452000Y-147187492D01*
X215444630Y-147150446D01*
X215444630Y-147150445D01*
X215416562Y-147108438D01*
X215416558Y-147108434D01*
X215410448Y-147104352D01*
X215410447Y-147104352D01*
X214664802Y-147849999D01*
X214485198Y-147849999D01*
X213739551Y-147104352D01*
X213733437Y-147108438D01*
X213705369Y-147150445D01*
X213705369Y-147150446D01*
X213698000Y-147187492D01*
X213698000Y-148512507D01*
X213697999Y-148512507D01*
X207902000Y-148512507D01*
X207902000Y-147187492D01*
X207894630Y-147150446D01*
X207894630Y-147150445D01*
X207866562Y-147108438D01*
X207866558Y-147108434D01*
X207860448Y-147104352D01*
X207860447Y-147104352D01*
X207114802Y-147849999D01*
X206935198Y-147849999D01*
X206189551Y-147104352D01*
X206183437Y-147108438D01*
X206155369Y-147150445D01*
X206155369Y-147150446D01*
X206148000Y-147187492D01*
X206148000Y-148512507D01*
X206147999Y-148512507D01*
X199952000Y-148512507D01*
X199952000Y-147187492D01*
X199944630Y-147150446D01*
X199944630Y-147150445D01*
X199916562Y-147108438D01*
X199916558Y-147108434D01*
X199910447Y-147104352D01*
X199164802Y-147849999D01*
X198985198Y-147849999D01*
X198239551Y-147104352D01*
X198233437Y-147108438D01*
X198205369Y-147150445D01*
X198205369Y-147150446D01*
X198198000Y-147187492D01*
X198198000Y-148512507D01*
X198197999Y-148512507D01*
X192402000Y-148512507D01*
X192402000Y-147187492D01*
X192394630Y-147150446D01*
X192394630Y-147150445D01*
X192366562Y-147108438D01*
X192366558Y-147108434D01*
X192360448Y-147104352D01*
X192360447Y-147104352D01*
X191614802Y-147849999D01*
X191435198Y-147849999D01*
X190689551Y-147104352D01*
X190683437Y-147108438D01*
X190655369Y-147150445D01*
X190655369Y-147150446D01*
X190648000Y-147187492D01*
X190648000Y-148512507D01*
X190647999Y-148512507D01*
X184452000Y-148512507D01*
X184452000Y-147187492D01*
X184444630Y-147150446D01*
X184444630Y-147150445D01*
X184416562Y-147108438D01*
X184416558Y-147108434D01*
X184410447Y-147104352D01*
X183664802Y-147849999D01*
X183485198Y-147849999D01*
X182739551Y-147104352D01*
X182733437Y-147108438D01*
X182705369Y-147150445D01*
X182705369Y-147150446D01*
X182698000Y-147187492D01*
X182698000Y-148512507D01*
X182697999Y-148512507D01*
X162150064Y-148512507D01*
X162116385Y-148416258D01*
X161978593Y-148130130D01*
X161809632Y-147861229D01*
X161809627Y-147861223D01*
X161809623Y-147861217D01*
X161611635Y-147612948D01*
X161611631Y-147612943D01*
X161611625Y-147612936D01*
X161387064Y-147388375D01*
X161387057Y-147388369D01*
X161387051Y-147388364D01*
X161192588Y-147233285D01*
X161138782Y-147190376D01*
X161138765Y-147190364D01*
X160951980Y-147073000D01*
X182887801Y-147073000D01*
X183575000Y-147760198D01*
X184262198Y-147073000D01*
X190837801Y-147073000D01*
X191525000Y-147760198D01*
X192212198Y-147073000D01*
X198387801Y-147073000D01*
X199075000Y-147760198D01*
X199762198Y-147073000D01*
X206337801Y-147073000D01*
X207025000Y-147760198D01*
X207712198Y-147073000D01*
X213887801Y-147073000D01*
X214575000Y-147760198D01*
X215262198Y-147073000D01*
X221837801Y-147073000D01*
X222525000Y-147760198D01*
X223212198Y-147073000D01*
X229387801Y-147073000D01*
X230075000Y-147760198D01*
X230762198Y-147073000D01*
X237337801Y-147073000D01*
X238025000Y-147760198D01*
X238712198Y-147073000D01*
X237337801Y-147073000D01*
X230762198Y-147073000D01*
X229387801Y-147073000D01*
X223212198Y-147073000D01*
X221837801Y-147073000D01*
X215262198Y-147073000D01*
X213887801Y-147073000D01*
X207712198Y-147073000D01*
X206337801Y-147073000D01*
X199762198Y-147073000D01*
X198387801Y-147073000D01*
X192212198Y-147073000D01*
X190837801Y-147073000D01*
X184262198Y-147073000D01*
X182887801Y-147073000D01*
X160951980Y-147073000D01*
X160869870Y-147021407D01*
X160583742Y-146883615D01*
X160283986Y-146778725D01*
X160283982Y-146778724D01*
X160283979Y-146778723D01*
X159974375Y-146708059D01*
X159974372Y-146708058D01*
X159974370Y-146708058D01*
X159974368Y-146708057D01*
X159974358Y-146708056D01*
X159766979Y-146684690D01*
X159658789Y-146672500D01*
X159341211Y-146672500D01*
X159244116Y-146683440D01*
X159025641Y-146708056D01*
X159025624Y-146708059D01*
X158716020Y-146778723D01*
X158416258Y-146883615D01*
X158130129Y-147021407D01*
X157861234Y-147190364D01*
X157861217Y-147190376D01*
X157612948Y-147388364D01*
X157612928Y-147388382D01*
X157388382Y-147612928D01*
X157388364Y-147612948D01*
X157190376Y-147861217D01*
X157190364Y-147861234D01*
X157021407Y-148130129D01*
X156883615Y-148416258D01*
X156778723Y-148716020D01*
X156708059Y-149025624D01*
X156708056Y-149025641D01*
X156672500Y-149341214D01*
X154625500Y-149341214D01*
X154625500Y-146502043D01*
X154625634Y-146497955D01*
X154641269Y-146259416D01*
X154642336Y-146251311D01*
X154675527Y-146084446D01*
X154688575Y-146018846D01*
X154690683Y-146010979D01*
X154766871Y-145786538D01*
X154769998Y-145778989D01*
X154874828Y-145566413D01*
X154878906Y-145559350D01*
X155010589Y-145362273D01*
X155015553Y-145355804D01*
X155171840Y-145177592D01*
X155177592Y-145171840D01*
X155355804Y-145015553D01*
X155362273Y-145010589D01*
X155559350Y-144878906D01*
X155566413Y-144874828D01*
X155778993Y-144769996D01*
X155786538Y-144766871D01*
X156010979Y-144690683D01*
X156018846Y-144688575D01*
X156251314Y-144642335D01*
X156259414Y-144641269D01*
X156497956Y-144625634D01*
X156502044Y-144625500D01*
X170639307Y-144625500D01*
X170639313Y-144625500D01*
X170915554Y-144589132D01*
X171184686Y-144517019D01*
X171442102Y-144410394D01*
X171683398Y-144271081D01*
X171904447Y-144101465D01*
X172101465Y-143904447D01*
X172271081Y-143683398D01*
X172410394Y-143442102D01*
X172517019Y-143184686D01*
X172589132Y-142915554D01*
X172619164Y-142687442D01*
X182697500Y-142687442D01*
X182697500Y-144012557D01*
X182704898Y-144049748D01*
X182704898Y-144049749D01*
X182733077Y-144091922D01*
X182761257Y-144110750D01*
X182775252Y-144120102D01*
X182812442Y-144127500D01*
X182812443Y-144127500D01*
X184337557Y-144127500D01*
X184337558Y-144127500D01*
X184374748Y-144120102D01*
X184416922Y-144091922D01*
X184445102Y-144049748D01*
X184452500Y-144012558D01*
X184452500Y-143640000D01*
X184470806Y-143595806D01*
X184515000Y-143577500D01*
X190585000Y-143577500D01*
X190629194Y-143595806D01*
X190647500Y-143640000D01*
X190647500Y-144012557D01*
X190654898Y-144049748D01*
X190654898Y-144049749D01*
X190683077Y-144091922D01*
X190711257Y-144110750D01*
X190725252Y-144120102D01*
X190762442Y-144127500D01*
X190762443Y-144127500D01*
X192287557Y-144127500D01*
X192287558Y-144127500D01*
X192324748Y-144120102D01*
X192366922Y-144091922D01*
X192395102Y-144049748D01*
X192402500Y-144012558D01*
X192402500Y-142687442D01*
X198197500Y-142687442D01*
X198197500Y-144012557D01*
X198204898Y-144049748D01*
X198204898Y-144049749D01*
X198233077Y-144091922D01*
X198261257Y-144110750D01*
X198275252Y-144120102D01*
X198312442Y-144127500D01*
X198312443Y-144127500D01*
X199837557Y-144127500D01*
X199837558Y-144127500D01*
X199874748Y-144120102D01*
X199916922Y-144091922D01*
X199945102Y-144049748D01*
X199952500Y-144012558D01*
X199952500Y-143640000D01*
X199970806Y-143595806D01*
X200015000Y-143577500D01*
X206085000Y-143577500D01*
X206129194Y-143595806D01*
X206147500Y-143640000D01*
X206147500Y-144012557D01*
X206154898Y-144049748D01*
X206154898Y-144049749D01*
X206183077Y-144091922D01*
X206211257Y-144110750D01*
X206225252Y-144120102D01*
X206262442Y-144127500D01*
X206262443Y-144127500D01*
X207787557Y-144127500D01*
X207787558Y-144127500D01*
X207824748Y-144120102D01*
X207866922Y-144091922D01*
X207895102Y-144049748D01*
X207902500Y-144012558D01*
X207902500Y-142687442D01*
X213697500Y-142687442D01*
X213697500Y-144012557D01*
X213704898Y-144049748D01*
X213704898Y-144049749D01*
X213733077Y-144091922D01*
X213761257Y-144110750D01*
X213775252Y-144120102D01*
X213812442Y-144127500D01*
X213812443Y-144127500D01*
X215337557Y-144127500D01*
X215337558Y-144127500D01*
X215374748Y-144120102D01*
X215416922Y-144091922D01*
X215445102Y-144049748D01*
X215452500Y-144012558D01*
X215452500Y-143640000D01*
X215470806Y-143595806D01*
X215515000Y-143577500D01*
X221585000Y-143577500D01*
X221629194Y-143595806D01*
X221647500Y-143640000D01*
X221647500Y-144012557D01*
X221654898Y-144049748D01*
X221654898Y-144049749D01*
X221683077Y-144091922D01*
X221711257Y-144110750D01*
X221725252Y-144120102D01*
X221762442Y-144127500D01*
X221762443Y-144127500D01*
X223287557Y-144127500D01*
X223287558Y-144127500D01*
X223324748Y-144120102D01*
X223366922Y-144091922D01*
X223395102Y-144049748D01*
X223402500Y-144012558D01*
X223402500Y-142687442D01*
X223395102Y-142650252D01*
X223395101Y-142650250D01*
X223366922Y-142608077D01*
X223324748Y-142579898D01*
X223287558Y-142572500D01*
X223287557Y-142572500D01*
X222815000Y-142572500D01*
X222770806Y-142554194D01*
X222752500Y-142510000D01*
X222752500Y-130682621D01*
X222770806Y-130638427D01*
X223838428Y-129570806D01*
X223882622Y-129552500D01*
X223933907Y-129552500D01*
X223933908Y-129552500D01*
X224023560Y-129528478D01*
X224103940Y-129482070D01*
X224169570Y-129416440D01*
X224215978Y-129336060D01*
X224240000Y-129246408D01*
X224240000Y-129153592D01*
X224215978Y-129063940D01*
X224215977Y-129063937D01*
X224169570Y-128983560D01*
X224169565Y-128983554D01*
X224103945Y-128917934D01*
X224103939Y-128917929D01*
X224023562Y-128871522D01*
X224023559Y-128871521D01*
X223933914Y-128847501D01*
X223933909Y-128847500D01*
X223933908Y-128847500D01*
X223841092Y-128847500D01*
X223841091Y-128847500D01*
X223841085Y-128847501D01*
X223751440Y-128871521D01*
X223751437Y-128871522D01*
X223671060Y-128917929D01*
X223671054Y-128917934D01*
X223605434Y-128983554D01*
X223605429Y-128983560D01*
X223559022Y-129063937D01*
X223559021Y-129063940D01*
X223535001Y-129153585D01*
X223535000Y-129153593D01*
X223535000Y-129204878D01*
X223516694Y-129249072D01*
X222396132Y-130369635D01*
X222332136Y-130433630D01*
X222332132Y-130433635D01*
X222297500Y-130517244D01*
X222297500Y-142510000D01*
X222279194Y-142554194D01*
X222235000Y-142572500D01*
X221762442Y-142572500D01*
X221743847Y-142576199D01*
X221725251Y-142579898D01*
X221725250Y-142579898D01*
X221683077Y-142608077D01*
X221654898Y-142650250D01*
X221654898Y-142650251D01*
X221647500Y-142687442D01*
X221647500Y-143060000D01*
X221629194Y-143104194D01*
X221585000Y-143122500D01*
X215515000Y-143122500D01*
X215470806Y-143104194D01*
X215452500Y-143060000D01*
X215452500Y-142687442D01*
X215450266Y-142676213D01*
X215445102Y-142650252D01*
X215445101Y-142650250D01*
X215416922Y-142608077D01*
X215374748Y-142579898D01*
X215337558Y-142572500D01*
X213812442Y-142572500D01*
X213793847Y-142576199D01*
X213775251Y-142579898D01*
X213775250Y-142579898D01*
X213733077Y-142608077D01*
X213704898Y-142650250D01*
X213704898Y-142650251D01*
X213697500Y-142687442D01*
X207902500Y-142687442D01*
X207895102Y-142650252D01*
X207895101Y-142650250D01*
X207866922Y-142608077D01*
X207824748Y-142579898D01*
X207787558Y-142572500D01*
X207787557Y-142572500D01*
X207315000Y-142572500D01*
X207270806Y-142554194D01*
X207252500Y-142510000D01*
X207252500Y-134995121D01*
X207270806Y-134950927D01*
X213868141Y-128353593D01*
X224035000Y-128353593D01*
X224035000Y-128446406D01*
X224035001Y-128446414D01*
X224059021Y-128536059D01*
X224059022Y-128536062D01*
X224105429Y-128616439D01*
X224105434Y-128616445D01*
X224171054Y-128682065D01*
X224171060Y-128682070D01*
X224251437Y-128728477D01*
X224251440Y-128728478D01*
X224341092Y-128752500D01*
X224392379Y-128752500D01*
X224436573Y-128770806D01*
X229829194Y-134163427D01*
X229847500Y-134207621D01*
X229847500Y-142510000D01*
X229829194Y-142554194D01*
X229785000Y-142572500D01*
X229312442Y-142572500D01*
X229293847Y-142576199D01*
X229275251Y-142579898D01*
X229275250Y-142579898D01*
X229233077Y-142608077D01*
X229204898Y-142650250D01*
X229204898Y-142650251D01*
X229197500Y-142687442D01*
X229197500Y-144012557D01*
X229204898Y-144049748D01*
X229204898Y-144049749D01*
X229233077Y-144091922D01*
X229261257Y-144110750D01*
X229275252Y-144120102D01*
X229312442Y-144127500D01*
X229312443Y-144127500D01*
X230837557Y-144127500D01*
X230837558Y-144127500D01*
X230874748Y-144120102D01*
X230916922Y-144091922D01*
X230945102Y-144049748D01*
X230952500Y-144012558D01*
X230952500Y-143640000D01*
X230970806Y-143595806D01*
X231015000Y-143577500D01*
X237085000Y-143577500D01*
X237129194Y-143595806D01*
X237147500Y-143640000D01*
X237147500Y-144012557D01*
X237154898Y-144049748D01*
X237154898Y-144049749D01*
X237183077Y-144091922D01*
X237211257Y-144110750D01*
X237225252Y-144120102D01*
X237262442Y-144127500D01*
X237262443Y-144127500D01*
X238787557Y-144127500D01*
X238787558Y-144127500D01*
X238824748Y-144120102D01*
X238866922Y-144091922D01*
X238895102Y-144049748D01*
X238902500Y-144012558D01*
X238902500Y-142687442D01*
X238895102Y-142650252D01*
X238895101Y-142650250D01*
X238866922Y-142608077D01*
X238824748Y-142579898D01*
X238787558Y-142572500D01*
X237262442Y-142572500D01*
X237243847Y-142576199D01*
X237225251Y-142579898D01*
X237225250Y-142579898D01*
X237183077Y-142608077D01*
X237154898Y-142650250D01*
X237154898Y-142650251D01*
X237147500Y-142687442D01*
X237147500Y-143060000D01*
X237129194Y-143104194D01*
X237085000Y-143122500D01*
X231015000Y-143122500D01*
X230970806Y-143104194D01*
X230952500Y-143060000D01*
X230952500Y-142687442D01*
X230950266Y-142676213D01*
X230945102Y-142650252D01*
X230945101Y-142650250D01*
X230916922Y-142608077D01*
X230874748Y-142579898D01*
X230837558Y-142572500D01*
X230837557Y-142572500D01*
X230365000Y-142572500D01*
X230320806Y-142554194D01*
X230302500Y-142510000D01*
X230302500Y-138793070D01*
X250162718Y-138793070D01*
X250162718Y-138793071D01*
X250172612Y-138842817D01*
X250172613Y-138842819D01*
X250179557Y-138853212D01*
X250193681Y-138874351D01*
X251625648Y-140306318D01*
X251625651Y-140306320D01*
X251625652Y-140306321D01*
X251657181Y-140327387D01*
X251706929Y-140337282D01*
X251706930Y-140337282D01*
X251723511Y-140333983D01*
X251756676Y-140327387D01*
X251788205Y-140306321D01*
X253078757Y-139015769D01*
X253099823Y-138984240D01*
X253109718Y-138934493D01*
X253099823Y-138884745D01*
X253078757Y-138853216D01*
X253078756Y-138853215D01*
X253078754Y-138853212D01*
X251646787Y-137421245D01*
X251626324Y-137407573D01*
X251615255Y-137400177D01*
X251615253Y-137400176D01*
X251565507Y-137390282D01*
X251565506Y-137390282D01*
X251515761Y-137400176D01*
X251515760Y-137400177D01*
X251484227Y-137421245D01*
X250193681Y-138711791D01*
X250172613Y-138743324D01*
X250172612Y-138743325D01*
X250162718Y-138793070D01*
X230302500Y-138793070D01*
X230302500Y-136940944D01*
X241024500Y-136940944D01*
X241024500Y-137099055D01*
X241024501Y-137099063D01*
X241065421Y-137251780D01*
X241065422Y-137251783D01*
X241088909Y-137292464D01*
X241144480Y-137388716D01*
X241256284Y-137500520D01*
X241393216Y-137579577D01*
X241393219Y-137579578D01*
X241486681Y-137604621D01*
X241545943Y-137620500D01*
X241545944Y-137620500D01*
X241704056Y-137620500D01*
X241704057Y-137620500D01*
X241856784Y-137579577D01*
X241993716Y-137500520D01*
X242105520Y-137388716D01*
X242168615Y-137279432D01*
X252505997Y-137279432D01*
X252505997Y-137407573D01*
X252530995Y-137533245D01*
X252580032Y-137651630D01*
X252580033Y-137651632D01*
X252591718Y-137669120D01*
X252651221Y-137758172D01*
X252741828Y-137848779D01*
X252848370Y-137919968D01*
X252966753Y-137969004D01*
X253092428Y-137994003D01*
X253220566Y-137994003D01*
X253346241Y-137969004D01*
X253464624Y-137919968D01*
X253571166Y-137848779D01*
X253661773Y-137758172D01*
X253732962Y-137651630D01*
X253781998Y-137533247D01*
X253806997Y-137407572D01*
X253806997Y-137279434D01*
X253781998Y-137153759D01*
X253732962Y-137035376D01*
X253661773Y-136928834D01*
X253571166Y-136838227D01*
X253571165Y-136838226D01*
X253464626Y-136767039D01*
X253464624Y-136767038D01*
X253346239Y-136718001D01*
X253220567Y-136693003D01*
X253220566Y-136693003D01*
X253092428Y-136693003D01*
X253092426Y-136693003D01*
X252966754Y-136718001D01*
X252848369Y-136767038D01*
X252848367Y-136767039D01*
X252741828Y-136838226D01*
X252651220Y-136928834D01*
X252580033Y-137035373D01*
X252580032Y-137035375D01*
X252530995Y-137153760D01*
X252505997Y-137279432D01*
X242168615Y-137279432D01*
X242184577Y-137251784D01*
X242225500Y-137099057D01*
X242225500Y-136940943D01*
X242184577Y-136788216D01*
X242105520Y-136651284D01*
X241993716Y-136539480D01*
X241897464Y-136483909D01*
X241856783Y-136460422D01*
X241856780Y-136460421D01*
X241704063Y-136419501D01*
X241704058Y-136419500D01*
X241704057Y-136419500D01*
X241545943Y-136419500D01*
X241545942Y-136419500D01*
X241545936Y-136419501D01*
X241393219Y-136460421D01*
X241393216Y-136460422D01*
X241296964Y-136515993D01*
X241256284Y-136539480D01*
X241256283Y-136539481D01*
X241256279Y-136539484D01*
X241144484Y-136651279D01*
X241144481Y-136651283D01*
X241144480Y-136651284D01*
X241120993Y-136691964D01*
X241065422Y-136788216D01*
X241065421Y-136788219D01*
X241024501Y-136940936D01*
X241024500Y-136940944D01*
X230302500Y-136940944D01*
X230302500Y-134042246D01*
X230292355Y-134017756D01*
X230292354Y-134017754D01*
X230285183Y-134000441D01*
X230267866Y-133958632D01*
X224758306Y-128449072D01*
X224740000Y-128404878D01*
X224740000Y-128353593D01*
X224739998Y-128353585D01*
X224733270Y-128328477D01*
X224715978Y-128263940D01*
X224715977Y-128263937D01*
X224669570Y-128183560D01*
X224669565Y-128183554D01*
X224603945Y-128117934D01*
X224603939Y-128117929D01*
X224523562Y-128071522D01*
X224523559Y-128071521D01*
X224433914Y-128047501D01*
X224433909Y-128047500D01*
X224433908Y-128047500D01*
X224341092Y-128047500D01*
X224341091Y-128047500D01*
X224341085Y-128047501D01*
X224251440Y-128071521D01*
X224251437Y-128071522D01*
X224171060Y-128117929D01*
X224171054Y-128117934D01*
X224105434Y-128183554D01*
X224105429Y-128183560D01*
X224059022Y-128263937D01*
X224059021Y-128263940D01*
X224035001Y-128353585D01*
X224035000Y-128353593D01*
X213868141Y-128353593D01*
X213916432Y-128305302D01*
X214263428Y-127958306D01*
X214307622Y-127940000D01*
X223090602Y-127940000D01*
X223134796Y-127958306D01*
X223171055Y-127994565D01*
X223171059Y-127994569D01*
X223171060Y-127994570D01*
X223251437Y-128040977D01*
X223251440Y-128040978D01*
X223341092Y-128065000D01*
X223341093Y-128065000D01*
X223433907Y-128065000D01*
X223433908Y-128065000D01*
X223523560Y-128040978D01*
X223603940Y-127994570D01*
X223644917Y-127953593D01*
X225035000Y-127953593D01*
X225035000Y-128046406D01*
X225035001Y-128046414D01*
X225059021Y-128136059D01*
X225059022Y-128136062D01*
X225105429Y-128216439D01*
X225105434Y-128216445D01*
X225171054Y-128282065D01*
X225171060Y-128282070D01*
X225251437Y-128328477D01*
X225251440Y-128328478D01*
X225341092Y-128352500D01*
X225341093Y-128352500D01*
X225433907Y-128352500D01*
X225433908Y-128352500D01*
X225523560Y-128328478D01*
X225603940Y-128282070D01*
X225640204Y-128245805D01*
X225684397Y-128227500D01*
X236879879Y-128227500D01*
X236924073Y-128245806D01*
X244833135Y-136154868D01*
X244897132Y-136218865D01*
X244897133Y-136218865D01*
X244897135Y-136218867D01*
X244980744Y-136253499D01*
X244980747Y-136253500D01*
X253405879Y-136253500D01*
X253450073Y-136271806D01*
X254538940Y-137360673D01*
X254557246Y-137404867D01*
X254557246Y-138345255D01*
X254591878Y-138428864D01*
X254591882Y-138428869D01*
X255318476Y-139155463D01*
X255336782Y-139199657D01*
X255318476Y-139243851D01*
X255161106Y-139401220D01*
X255140037Y-139432753D01*
X255130142Y-139482500D01*
X255140037Y-139532247D01*
X255161106Y-139563780D01*
X256593073Y-140995747D01*
X256593076Y-140995749D01*
X256593077Y-140995750D01*
X256624606Y-141016816D01*
X256674353Y-141026712D01*
X256724101Y-141016816D01*
X256755630Y-140995750D01*
X257480496Y-140270884D01*
X257501562Y-140239355D01*
X257511458Y-140189607D01*
X257501562Y-140139860D01*
X257480496Y-140108331D01*
X257480495Y-140108330D01*
X257480493Y-140108327D01*
X256688850Y-139316684D01*
X256929972Y-139316684D01*
X257601021Y-139987733D01*
X257632428Y-140008718D01*
X257681980Y-140018574D01*
X257731533Y-140008717D01*
X257731534Y-140008717D01*
X257762937Y-139987734D01*
X257762939Y-139987732D01*
X258080435Y-139670237D01*
X257328427Y-138918229D01*
X256929972Y-139316684D01*
X256688850Y-139316684D01*
X256048526Y-138676360D01*
X256016993Y-138655291D01*
X255977142Y-138647364D01*
X255967247Y-138645396D01*
X255967246Y-138645396D01*
X255917499Y-138655291D01*
X255885966Y-138676360D01*
X255728597Y-138833730D01*
X255684403Y-138852036D01*
X255640209Y-138833730D01*
X255281352Y-138474873D01*
X256138279Y-138474873D01*
X256148135Y-138524425D01*
X256169120Y-138555832D01*
X256840169Y-139226881D01*
X257238623Y-138828427D01*
X257418229Y-138828427D01*
X258170237Y-139580435D01*
X258487732Y-139262939D01*
X258487734Y-139262937D01*
X258508717Y-139231534D01*
X258508717Y-139231533D01*
X258518574Y-139181980D01*
X258508718Y-139132428D01*
X258487733Y-139101021D01*
X257816684Y-138429972D01*
X257418229Y-138828427D01*
X257238623Y-138828427D01*
X257238624Y-138828426D01*
X256486617Y-138076419D01*
X256169121Y-138393914D01*
X256169119Y-138393916D01*
X256148136Y-138425319D01*
X256148136Y-138425320D01*
X256138279Y-138474873D01*
X255281352Y-138474873D01*
X255030552Y-138224073D01*
X255012246Y-138179879D01*
X255012246Y-137986617D01*
X256576419Y-137986617D01*
X257328426Y-138738624D01*
X257726881Y-138340169D01*
X257055832Y-137669120D01*
X257024425Y-137648135D01*
X256974874Y-137638279D01*
X256925320Y-137648136D01*
X256925319Y-137648136D01*
X256893916Y-137669119D01*
X256893914Y-137669121D01*
X256576419Y-137986617D01*
X255012246Y-137986617D01*
X255012246Y-137239492D01*
X255002101Y-137215002D01*
X255002100Y-137215000D01*
X254989427Y-137184403D01*
X254977612Y-137155878D01*
X253855926Y-136034193D01*
X253837621Y-135990000D01*
X253855927Y-135945806D01*
X253900121Y-135927500D01*
X256095133Y-135927500D01*
X256139327Y-135945806D01*
X257333730Y-137140209D01*
X257352036Y-137184403D01*
X257333730Y-137228597D01*
X257176360Y-137385966D01*
X257155291Y-137417499D01*
X257145396Y-137467246D01*
X257155291Y-137516993D01*
X257176360Y-137548526D01*
X258608327Y-138980493D01*
X258608330Y-138980495D01*
X258608331Y-138980496D01*
X258639860Y-139001562D01*
X258689607Y-139011458D01*
X258739355Y-139001562D01*
X258770884Y-138980496D01*
X259495750Y-138255630D01*
X259516816Y-138224101D01*
X259526712Y-138174353D01*
X259516816Y-138124606D01*
X259495750Y-138093077D01*
X259495749Y-138093076D01*
X259495747Y-138093073D01*
X258063780Y-136661106D01*
X258032247Y-136640037D01*
X257992396Y-136632110D01*
X257982501Y-136630142D01*
X257982500Y-136630142D01*
X257932753Y-136640037D01*
X257901220Y-136661106D01*
X257743851Y-136818476D01*
X257699657Y-136836782D01*
X257655463Y-136818476D01*
X256344123Y-135507136D01*
X256344118Y-135507132D01*
X256260509Y-135472500D01*
X256260507Y-135472500D01*
X251104857Y-135472500D01*
X251060663Y-135454194D01*
X251042357Y-135410000D01*
X251060663Y-135365806D01*
X251070132Y-135358034D01*
X251098776Y-135338896D01*
X251823642Y-134614030D01*
X251839293Y-134590606D01*
X255343003Y-134590606D01*
X255343003Y-134722387D01*
X255343004Y-134722395D01*
X255377109Y-134849679D01*
X255377110Y-134849682D01*
X255377111Y-134849683D01*
X255435564Y-134950927D01*
X255443004Y-134963812D01*
X255443007Y-134963816D01*
X255536183Y-135056992D01*
X255536187Y-135056995D01*
X255536189Y-135056997D01*
X255650317Y-135122889D01*
X255650320Y-135122890D01*
X255728215Y-135143761D01*
X255777611Y-135156997D01*
X255777612Y-135156997D01*
X255909394Y-135156997D01*
X255909395Y-135156997D01*
X256036689Y-135122889D01*
X256150817Y-135056997D01*
X256244003Y-134963811D01*
X256309895Y-134849683D01*
X256344003Y-134722389D01*
X256344003Y-134590605D01*
X256328502Y-134532753D01*
X256309896Y-134463314D01*
X256309895Y-134463311D01*
X256251536Y-134362231D01*
X256244003Y-134349183D01*
X256244001Y-134349181D01*
X256243998Y-134349177D01*
X256150822Y-134256001D01*
X256150818Y-134255998D01*
X256150817Y-134255997D01*
X256067028Y-134207621D01*
X256036688Y-134190104D01*
X256036685Y-134190103D01*
X255909401Y-134155998D01*
X255909396Y-134155997D01*
X255909395Y-134155997D01*
X255777611Y-134155997D01*
X255777610Y-134155997D01*
X255777604Y-134155998D01*
X255650320Y-134190103D01*
X255650317Y-134190104D01*
X255536187Y-134255998D01*
X255536183Y-134256001D01*
X255443007Y-134349177D01*
X255443004Y-134349181D01*
X255377110Y-134463311D01*
X255377109Y-134463314D01*
X255343004Y-134590598D01*
X255343003Y-134590606D01*
X251839293Y-134590606D01*
X251844708Y-134582501D01*
X251854604Y-134532753D01*
X251844708Y-134483006D01*
X251823642Y-134451477D01*
X251823641Y-134451476D01*
X251823639Y-134451473D01*
X250391672Y-133019506D01*
X250360139Y-132998437D01*
X250320288Y-132990510D01*
X250310393Y-132988542D01*
X250310392Y-132988542D01*
X250260645Y-132998437D01*
X250229112Y-133019506D01*
X250071743Y-133176876D01*
X250027549Y-133195182D01*
X249983355Y-133176876D01*
X241490673Y-124684194D01*
X241472367Y-124640000D01*
X241490673Y-124595806D01*
X241534867Y-124577500D01*
X242729879Y-124577500D01*
X242774073Y-124595806D01*
X250669249Y-132490982D01*
X250687555Y-132535176D01*
X250669249Y-132579370D01*
X250511879Y-132736739D01*
X250490810Y-132768272D01*
X250480915Y-132818019D01*
X250490810Y-132867766D01*
X250511879Y-132899299D01*
X251943846Y-134331266D01*
X251943849Y-134331268D01*
X251943850Y-134331269D01*
X251975379Y-134352335D01*
X252025126Y-134362231D01*
X252074874Y-134352335D01*
X252106403Y-134331269D01*
X252831269Y-133606403D01*
X252852335Y-133574874D01*
X252862231Y-133525126D01*
X252852335Y-133475379D01*
X252831269Y-133443850D01*
X252831268Y-133443849D01*
X252831266Y-133443846D01*
X251399299Y-132011879D01*
X251367766Y-131990810D01*
X251327915Y-131982883D01*
X251318020Y-131980915D01*
X251318019Y-131980915D01*
X251268272Y-131990810D01*
X251236739Y-132011879D01*
X251079370Y-132169249D01*
X251035176Y-132187555D01*
X250990982Y-132169249D01*
X243005927Y-124184194D01*
X242987621Y-124140000D01*
X243005927Y-124095806D01*
X243050121Y-124077500D01*
X244245133Y-124077500D01*
X244289327Y-124095806D01*
X251676876Y-131483355D01*
X251695182Y-131527549D01*
X251676876Y-131571743D01*
X251519506Y-131729112D01*
X251498437Y-131760645D01*
X251488542Y-131810392D01*
X251498437Y-131860139D01*
X251519506Y-131891672D01*
X252951473Y-133323639D01*
X252951476Y-133323641D01*
X252951477Y-133323642D01*
X252983006Y-133344708D01*
X253032753Y-133354604D01*
X253082501Y-133344708D01*
X253114030Y-133323642D01*
X253260796Y-133176876D01*
X253372167Y-133065506D01*
X255890282Y-133065506D01*
X255890282Y-133065507D01*
X255900176Y-133115253D01*
X255900177Y-133115255D01*
X255907121Y-133125648D01*
X255921245Y-133146787D01*
X257353212Y-134578754D01*
X257353215Y-134578756D01*
X257353216Y-134578757D01*
X257384745Y-134599823D01*
X257434493Y-134609718D01*
X257434494Y-134609718D01*
X257451075Y-134606419D01*
X257484240Y-134599823D01*
X257515769Y-134578757D01*
X258806321Y-133288205D01*
X258827387Y-133256676D01*
X258837282Y-133206929D01*
X258834945Y-133195182D01*
X258827387Y-133157182D01*
X258827387Y-133157181D01*
X258806321Y-133125652D01*
X258806320Y-133125651D01*
X258806318Y-133125648D01*
X257374351Y-131693681D01*
X257374142Y-131693541D01*
X257342819Y-131672613D01*
X257342817Y-131672612D01*
X257293071Y-131662718D01*
X257293070Y-131662718D01*
X257243325Y-131672612D01*
X257243324Y-131672613D01*
X257211791Y-131693681D01*
X255921245Y-132984227D01*
X255900177Y-133015760D01*
X255900176Y-133015761D01*
X255890282Y-133065506D01*
X253372167Y-133065506D01*
X253422516Y-133015157D01*
X253838893Y-132598779D01*
X253838896Y-132598776D01*
X253859962Y-132567247D01*
X253869858Y-132517499D01*
X253859962Y-132467752D01*
X253838896Y-132436223D01*
X253838895Y-132436222D01*
X253838893Y-132436219D01*
X252406926Y-131004252D01*
X252375393Y-130983183D01*
X252335542Y-130975256D01*
X252325647Y-130973288D01*
X252325646Y-130973288D01*
X252275899Y-130983183D01*
X252244366Y-131004252D01*
X252086997Y-131161622D01*
X252042803Y-131179928D01*
X251998609Y-131161622D01*
X244494123Y-123657136D01*
X244494118Y-123657132D01*
X244410509Y-123622500D01*
X244410507Y-123622500D01*
X242207957Y-123622500D01*
X242163763Y-123604194D01*
X242145457Y-123560000D01*
X242153831Y-123528749D01*
X242178477Y-123486061D01*
X242178478Y-123486060D01*
X242202500Y-123396408D01*
X242202500Y-123345121D01*
X242220806Y-123300927D01*
X243218140Y-122303593D01*
X245297500Y-122303593D01*
X245297500Y-122396406D01*
X245297501Y-122396414D01*
X245321521Y-122486059D01*
X245321522Y-122486062D01*
X245367929Y-122566439D01*
X245367934Y-122566445D01*
X245433554Y-122632065D01*
X245433560Y-122632070D01*
X245513937Y-122678477D01*
X245513940Y-122678478D01*
X245603592Y-122702500D01*
X245603593Y-122702500D01*
X245696407Y-122702500D01*
X245696408Y-122702500D01*
X245786060Y-122678478D01*
X245866440Y-122632070D01*
X245932070Y-122566440D01*
X245968669Y-122503048D01*
X245978477Y-122486062D01*
X245978478Y-122486059D01*
X246002500Y-122396408D01*
X246002500Y-122345121D01*
X246020806Y-122300927D01*
X246342539Y-121979194D01*
X253792866Y-114528868D01*
X253827500Y-114445253D01*
X253827500Y-114354747D01*
X253827500Y-92354747D01*
X253821722Y-92340797D01*
X253792867Y-92271135D01*
X253792863Y-92271130D01*
X252216369Y-90694636D01*
X252216364Y-90694632D01*
X252132755Y-90660000D01*
X252132753Y-90660000D01*
X250289999Y-90660000D01*
X250245805Y-90641694D01*
X250227499Y-90597500D01*
X250227499Y-90589174D01*
X250216809Y-90515798D01*
X250216809Y-90515796D01*
X250161476Y-90402610D01*
X250072390Y-90313524D01*
X249959204Y-90258191D01*
X249959202Y-90258190D01*
X249959201Y-90258190D01*
X249900913Y-90249698D01*
X249885827Y-90247500D01*
X249885826Y-90247500D01*
X248914174Y-90247500D01*
X248840798Y-90258190D01*
X248840797Y-90258190D01*
X248840796Y-90258191D01*
X248727610Y-90313524D01*
X248727608Y-90313525D01*
X248638525Y-90402608D01*
X248583190Y-90515798D01*
X248572500Y-90589173D01*
X248572500Y-91185825D01*
X248583190Y-91259201D01*
X248583191Y-91259204D01*
X248638524Y-91372390D01*
X248727610Y-91461476D01*
X248840796Y-91516809D01*
X248914173Y-91527500D01*
X249885826Y-91527499D01*
X249959204Y-91516809D01*
X250072390Y-91461476D01*
X250161476Y-91372390D01*
X250216809Y-91259204D01*
X250227500Y-91185827D01*
X250227500Y-91177500D01*
X250245806Y-91133306D01*
X250290000Y-91115000D01*
X251967379Y-91115000D01*
X252011573Y-91133306D01*
X253354194Y-92475927D01*
X253372500Y-92520121D01*
X253372500Y-114279878D01*
X253354194Y-114324072D01*
X245699073Y-121979194D01*
X245654879Y-121997500D01*
X245603592Y-121997500D01*
X245603591Y-121997500D01*
X245603585Y-121997501D01*
X245513940Y-122021521D01*
X245513937Y-122021522D01*
X245433560Y-122067929D01*
X245433554Y-122067934D01*
X245367934Y-122133554D01*
X245367929Y-122133560D01*
X245321522Y-122213937D01*
X245321521Y-122213940D01*
X245297501Y-122303585D01*
X245297500Y-122303593D01*
X243218140Y-122303593D01*
X243266431Y-122255302D01*
X243542539Y-121979194D01*
X251192865Y-114328868D01*
X251202435Y-114305766D01*
X251227499Y-114245255D01*
X251227500Y-114245252D01*
X251227500Y-103514999D01*
X251245806Y-103470805D01*
X251290000Y-103452499D01*
X251485826Y-103452499D01*
X251559204Y-103441809D01*
X251672390Y-103386476D01*
X251761476Y-103297390D01*
X251816809Y-103184204D01*
X251827500Y-103110827D01*
X251827499Y-102514174D01*
X251816809Y-102440796D01*
X251761476Y-102327610D01*
X251672390Y-102238524D01*
X251559204Y-102183191D01*
X251559202Y-102183190D01*
X251559201Y-102183190D01*
X251500913Y-102174698D01*
X251485827Y-102172500D01*
X251485826Y-102172500D01*
X250514174Y-102172500D01*
X250440798Y-102183190D01*
X250440797Y-102183190D01*
X250440796Y-102183191D01*
X250327610Y-102238524D01*
X250327608Y-102238525D01*
X250238525Y-102327608D01*
X250183190Y-102440798D01*
X250172500Y-102514173D01*
X250172500Y-103110825D01*
X250183190Y-103184201D01*
X250183191Y-103184204D01*
X250238524Y-103297390D01*
X250327610Y-103386476D01*
X250440796Y-103441809D01*
X250514173Y-103452500D01*
X250710000Y-103452499D01*
X250754194Y-103470805D01*
X250772500Y-103514999D01*
X250772500Y-114079879D01*
X250754194Y-114124073D01*
X241899073Y-122979194D01*
X241854879Y-122997500D01*
X241803592Y-122997500D01*
X241803591Y-122997500D01*
X241803585Y-122997501D01*
X241713940Y-123021521D01*
X241713937Y-123021522D01*
X241633560Y-123067929D01*
X241633554Y-123067934D01*
X241567934Y-123133554D01*
X241567929Y-123133560D01*
X241521522Y-123213937D01*
X241521521Y-123213940D01*
X241497501Y-123303585D01*
X241497500Y-123303593D01*
X241497500Y-123396406D01*
X241497501Y-123396414D01*
X241521521Y-123486059D01*
X241521522Y-123486061D01*
X241546169Y-123528749D01*
X241552414Y-123576175D01*
X241523294Y-123614126D01*
X241492043Y-123622500D01*
X229146898Y-123622500D01*
X229102704Y-123604194D01*
X229066440Y-123567930D01*
X229066439Y-123567929D01*
X228986062Y-123521522D01*
X228986059Y-123521521D01*
X228896414Y-123497501D01*
X228896409Y-123497500D01*
X228896408Y-123497500D01*
X228803592Y-123497500D01*
X228803591Y-123497500D01*
X228803585Y-123497501D01*
X228713940Y-123521521D01*
X228713937Y-123521522D01*
X228633560Y-123567929D01*
X228633554Y-123567934D01*
X228567934Y-123633554D01*
X228567929Y-123633560D01*
X228521522Y-123713937D01*
X228521521Y-123713940D01*
X228497501Y-123803585D01*
X228497500Y-123803593D01*
X228497500Y-123896406D01*
X228497501Y-123896414D01*
X228521521Y-123986059D01*
X228521521Y-123986060D01*
X228539535Y-124017260D01*
X228545778Y-124064686D01*
X228516658Y-124102637D01*
X228469232Y-124108880D01*
X228441213Y-124092703D01*
X228416444Y-124067933D01*
X228416439Y-124067929D01*
X228336062Y-124021522D01*
X228336059Y-124021521D01*
X228246414Y-123997501D01*
X228246409Y-123997500D01*
X228246408Y-123997500D01*
X228153592Y-123997500D01*
X228153591Y-123997500D01*
X228153585Y-123997501D01*
X228063940Y-124021521D01*
X228063937Y-124021522D01*
X227983560Y-124067929D01*
X227983554Y-124067934D01*
X227917934Y-124133554D01*
X227917929Y-124133560D01*
X227871522Y-124213937D01*
X227871521Y-124213940D01*
X227847501Y-124303585D01*
X227847500Y-124303593D01*
X227847500Y-124396412D01*
X227853506Y-124418823D01*
X227847263Y-124466249D01*
X227809313Y-124495370D01*
X227793136Y-124497500D01*
X227703592Y-124497500D01*
X227703591Y-124497500D01*
X227703585Y-124497501D01*
X227613940Y-124521521D01*
X227613937Y-124521522D01*
X227533560Y-124567929D01*
X227533554Y-124567934D01*
X227467934Y-124633554D01*
X227467929Y-124633560D01*
X227421522Y-124713937D01*
X227421521Y-124713940D01*
X227397501Y-124803585D01*
X227397500Y-124803593D01*
X227397500Y-124896406D01*
X227397501Y-124896414D01*
X227421521Y-124986059D01*
X227421522Y-124986062D01*
X227467929Y-125066439D01*
X227467934Y-125066445D01*
X227533554Y-125132065D01*
X227533560Y-125132070D01*
X227613937Y-125178477D01*
X227613940Y-125178478D01*
X227703592Y-125202500D01*
X227703593Y-125202500D01*
X227796407Y-125202500D01*
X227796408Y-125202500D01*
X227886060Y-125178478D01*
X227966440Y-125132070D01*
X228002704Y-125095805D01*
X228046897Y-125077500D01*
X241214625Y-125077500D01*
X241258819Y-125095806D01*
X249661622Y-133498609D01*
X249679928Y-133542803D01*
X249661622Y-133586997D01*
X249504252Y-133744366D01*
X249483183Y-133775899D01*
X249473288Y-133825646D01*
X249483183Y-133875393D01*
X249504252Y-133906926D01*
X250936219Y-135338893D01*
X250936222Y-135338895D01*
X250936223Y-135338896D01*
X250964864Y-135358032D01*
X250991441Y-135397805D01*
X250982110Y-135444722D01*
X250942337Y-135471299D01*
X250930142Y-135472500D01*
X245320121Y-135472500D01*
X245275927Y-135454194D01*
X236528869Y-126707136D01*
X236528864Y-126707132D01*
X236445255Y-126672500D01*
X236445253Y-126672500D01*
X226184398Y-126672500D01*
X226140204Y-126654194D01*
X226103940Y-126617930D01*
X226103939Y-126617929D01*
X226023562Y-126571522D01*
X226023559Y-126571521D01*
X225933914Y-126547501D01*
X225933909Y-126547500D01*
X225933908Y-126547500D01*
X225841092Y-126547500D01*
X225841091Y-126547500D01*
X225841085Y-126547501D01*
X225751440Y-126571521D01*
X225751437Y-126571522D01*
X225671060Y-126617929D01*
X225671054Y-126617934D01*
X225605434Y-126683554D01*
X225605429Y-126683560D01*
X225559022Y-126763937D01*
X225559021Y-126763940D01*
X225535001Y-126853585D01*
X225535000Y-126853593D01*
X225535000Y-126946406D01*
X225535001Y-126946414D01*
X225559021Y-127036059D01*
X225559022Y-127036062D01*
X225605429Y-127116439D01*
X225605434Y-127116445D01*
X225671054Y-127182065D01*
X225671060Y-127182070D01*
X225751437Y-127228477D01*
X225751440Y-127228478D01*
X225841092Y-127252500D01*
X225841093Y-127252500D01*
X225933907Y-127252500D01*
X225933908Y-127252500D01*
X226023560Y-127228478D01*
X226103940Y-127182070D01*
X226140204Y-127145805D01*
X226184397Y-127127500D01*
X236279879Y-127127500D01*
X236324073Y-127145806D01*
X236844073Y-127665806D01*
X236862379Y-127710000D01*
X236844073Y-127754194D01*
X236799879Y-127772500D01*
X225684398Y-127772500D01*
X225640204Y-127754194D01*
X225603940Y-127717930D01*
X225603939Y-127717929D01*
X225523562Y-127671522D01*
X225523559Y-127671521D01*
X225433914Y-127647501D01*
X225433909Y-127647500D01*
X225433908Y-127647500D01*
X225341092Y-127647500D01*
X225341091Y-127647500D01*
X225341085Y-127647501D01*
X225251440Y-127671521D01*
X225251437Y-127671522D01*
X225171060Y-127717929D01*
X225171054Y-127717934D01*
X225105434Y-127783554D01*
X225105429Y-127783560D01*
X225059022Y-127863937D01*
X225059021Y-127863940D01*
X225035001Y-127953585D01*
X225035000Y-127953593D01*
X223644917Y-127953593D01*
X223669570Y-127928940D01*
X223715978Y-127848560D01*
X223740000Y-127758908D01*
X223740000Y-127666092D01*
X223715978Y-127576440D01*
X223715977Y-127576437D01*
X223669570Y-127496060D01*
X223669565Y-127496054D01*
X223603945Y-127430434D01*
X223603939Y-127430429D01*
X223523562Y-127384022D01*
X223523559Y-127384021D01*
X223433914Y-127360001D01*
X223433909Y-127360000D01*
X223433908Y-127360000D01*
X223341092Y-127360000D01*
X223341091Y-127360000D01*
X223341085Y-127360001D01*
X223251440Y-127384021D01*
X223251437Y-127384022D01*
X223171060Y-127430429D01*
X223171059Y-127430430D01*
X223152928Y-127448562D01*
X223134795Y-127466694D01*
X223090603Y-127485000D01*
X214142245Y-127485000D01*
X214117755Y-127495144D01*
X214058635Y-127519631D01*
X214058630Y-127519635D01*
X206896132Y-134682135D01*
X206832136Y-134746130D01*
X206832132Y-134746135D01*
X206797500Y-134829744D01*
X206797500Y-142510000D01*
X206779194Y-142554194D01*
X206735000Y-142572500D01*
X206262442Y-142572500D01*
X206243847Y-142576199D01*
X206225251Y-142579898D01*
X206225250Y-142579898D01*
X206183077Y-142608077D01*
X206154898Y-142650250D01*
X206154898Y-142650251D01*
X206147500Y-142687442D01*
X206147500Y-143060000D01*
X206129194Y-143104194D01*
X206085000Y-143122500D01*
X200015000Y-143122500D01*
X199970806Y-143104194D01*
X199952500Y-143060000D01*
X199952500Y-142687442D01*
X199950266Y-142676213D01*
X199945102Y-142650252D01*
X199945101Y-142650250D01*
X199916922Y-142608077D01*
X199874748Y-142579898D01*
X199837558Y-142572500D01*
X198312442Y-142572500D01*
X198293847Y-142576199D01*
X198275251Y-142579898D01*
X198275250Y-142579898D01*
X198233077Y-142608077D01*
X198204898Y-142650250D01*
X198204898Y-142650251D01*
X198197500Y-142687442D01*
X192402500Y-142687442D01*
X192395102Y-142650252D01*
X192395101Y-142650250D01*
X192366922Y-142608077D01*
X192324748Y-142579898D01*
X192287558Y-142572500D01*
X192287557Y-142572500D01*
X191815000Y-142572500D01*
X191770806Y-142554194D01*
X191752500Y-142510000D01*
X191752500Y-139396898D01*
X191770806Y-139352704D01*
X191807070Y-139316440D01*
X191853478Y-139236060D01*
X191877500Y-139146408D01*
X191877500Y-139053592D01*
X191853478Y-138963940D01*
X191853477Y-138963937D01*
X191807070Y-138883560D01*
X191807065Y-138883554D01*
X191741445Y-138817934D01*
X191741439Y-138817929D01*
X191661062Y-138771522D01*
X191661059Y-138771521D01*
X191571414Y-138747501D01*
X191571409Y-138747500D01*
X191571408Y-138747500D01*
X191478592Y-138747500D01*
X191478591Y-138747500D01*
X191478585Y-138747501D01*
X191388940Y-138771521D01*
X191388937Y-138771522D01*
X191308560Y-138817929D01*
X191308554Y-138817934D01*
X191242934Y-138883554D01*
X191242929Y-138883560D01*
X191196522Y-138963937D01*
X191196521Y-138963940D01*
X191172501Y-139053585D01*
X191172500Y-139053593D01*
X191172500Y-139146406D01*
X191172501Y-139146414D01*
X191196521Y-139236059D01*
X191196522Y-139236062D01*
X191242929Y-139316439D01*
X191242930Y-139316440D01*
X191279194Y-139352704D01*
X191297500Y-139396897D01*
X191297500Y-142510000D01*
X191279194Y-142554194D01*
X191235000Y-142572500D01*
X190762442Y-142572500D01*
X190743847Y-142576199D01*
X190725251Y-142579898D01*
X190725250Y-142579898D01*
X190683077Y-142608077D01*
X190654898Y-142650250D01*
X190654898Y-142650251D01*
X190647500Y-142687442D01*
X190647500Y-143060000D01*
X190629194Y-143104194D01*
X190585000Y-143122500D01*
X184515000Y-143122500D01*
X184470806Y-143104194D01*
X184452500Y-143060000D01*
X184452500Y-142687442D01*
X184450266Y-142676213D01*
X184445102Y-142650252D01*
X184445101Y-142650250D01*
X184416922Y-142608077D01*
X184374748Y-142579898D01*
X184337558Y-142572500D01*
X182812442Y-142572500D01*
X182793847Y-142576199D01*
X182775251Y-142579898D01*
X182775250Y-142579898D01*
X182733077Y-142608077D01*
X182704898Y-142650250D01*
X182704898Y-142650251D01*
X182697500Y-142687442D01*
X172619164Y-142687442D01*
X172625500Y-142639313D01*
X172625500Y-142500000D01*
X172625500Y-142471356D01*
X172625500Y-136940944D01*
X172774500Y-136940944D01*
X172774500Y-137099055D01*
X172774501Y-137099063D01*
X172815421Y-137251780D01*
X172815422Y-137251783D01*
X172838909Y-137292464D01*
X172894480Y-137388716D01*
X173006284Y-137500520D01*
X173143216Y-137579577D01*
X173143219Y-137579578D01*
X173236681Y-137604621D01*
X173295943Y-137620500D01*
X173295944Y-137620500D01*
X173454056Y-137620500D01*
X173454057Y-137620500D01*
X173606784Y-137579577D01*
X173743716Y-137500520D01*
X173855520Y-137388716D01*
X173934577Y-137251784D01*
X173975500Y-137099057D01*
X173975500Y-136940943D01*
X173934577Y-136788216D01*
X173855520Y-136651284D01*
X173743716Y-136539480D01*
X173647464Y-136483909D01*
X173606783Y-136460422D01*
X173606780Y-136460421D01*
X173454063Y-136419501D01*
X173454058Y-136419500D01*
X173454057Y-136419500D01*
X173295943Y-136419500D01*
X173295942Y-136419500D01*
X173295936Y-136419501D01*
X173143219Y-136460421D01*
X173143216Y-136460422D01*
X173046964Y-136515993D01*
X173006284Y-136539480D01*
X173006283Y-136539481D01*
X173006279Y-136539484D01*
X172894484Y-136651279D01*
X172894481Y-136651283D01*
X172894480Y-136651284D01*
X172870993Y-136691964D01*
X172815422Y-136788216D01*
X172815421Y-136788219D01*
X172774501Y-136940936D01*
X172774500Y-136940944D01*
X172625500Y-136940944D01*
X172625500Y-124153593D01*
X214847500Y-124153593D01*
X214847500Y-124246406D01*
X214847501Y-124246414D01*
X214871521Y-124336059D01*
X214871522Y-124336062D01*
X214917929Y-124416439D01*
X214917934Y-124416445D01*
X214983554Y-124482065D01*
X214983560Y-124482070D01*
X215063937Y-124528477D01*
X215063940Y-124528478D01*
X215153592Y-124552500D01*
X215153593Y-124552500D01*
X215246407Y-124552500D01*
X215246408Y-124552500D01*
X215336060Y-124528478D01*
X215416440Y-124482070D01*
X215482070Y-124416440D01*
X215528478Y-124336060D01*
X215552500Y-124246408D01*
X215552500Y-124195121D01*
X215570806Y-124150927D01*
X216918140Y-122803593D01*
X239897500Y-122803593D01*
X239897500Y-122896406D01*
X239897501Y-122896414D01*
X239921521Y-122986059D01*
X239921522Y-122986062D01*
X239967929Y-123066439D01*
X239967934Y-123066445D01*
X240033554Y-123132065D01*
X240033560Y-123132070D01*
X240113937Y-123178477D01*
X240113940Y-123178478D01*
X240203592Y-123202500D01*
X240203593Y-123202500D01*
X240296407Y-123202500D01*
X240296408Y-123202500D01*
X240386060Y-123178478D01*
X240466440Y-123132070D01*
X240532070Y-123066440D01*
X240568669Y-123003048D01*
X240578477Y-122986062D01*
X240578478Y-122986059D01*
X240602500Y-122896408D01*
X240602500Y-122845121D01*
X240620806Y-122800927D01*
X241442539Y-121979194D01*
X249192866Y-114228868D01*
X249227500Y-114145252D01*
X249227500Y-114054747D01*
X249227500Y-102514999D01*
X249245806Y-102470805D01*
X249290000Y-102452499D01*
X249485826Y-102452499D01*
X249559204Y-102441809D01*
X249672390Y-102386476D01*
X249761476Y-102297390D01*
X249816809Y-102184204D01*
X249827500Y-102110827D01*
X249827499Y-101514174D01*
X249816809Y-101440796D01*
X249761476Y-101327610D01*
X249672390Y-101238524D01*
X249559204Y-101183191D01*
X249559202Y-101183190D01*
X249559201Y-101183190D01*
X249500913Y-101174698D01*
X249485827Y-101172500D01*
X249485826Y-101172500D01*
X248514174Y-101172500D01*
X248440798Y-101183190D01*
X248440797Y-101183190D01*
X248440796Y-101183191D01*
X248327610Y-101238524D01*
X248327608Y-101238525D01*
X248238525Y-101327608D01*
X248183190Y-101440798D01*
X248172500Y-101514173D01*
X248172500Y-102110825D01*
X248183190Y-102184201D01*
X248183191Y-102184204D01*
X248238524Y-102297390D01*
X248327610Y-102386476D01*
X248440796Y-102441809D01*
X248514173Y-102452500D01*
X248710000Y-102452499D01*
X248754194Y-102470805D01*
X248772500Y-102514999D01*
X248772500Y-113979878D01*
X248754194Y-114024072D01*
X240299073Y-122479194D01*
X240254879Y-122497500D01*
X240203592Y-122497500D01*
X240203591Y-122497500D01*
X240203585Y-122497501D01*
X240113940Y-122521521D01*
X240113937Y-122521522D01*
X240033560Y-122567929D01*
X240033554Y-122567934D01*
X239967934Y-122633554D01*
X239967929Y-122633560D01*
X239921522Y-122713937D01*
X239921521Y-122713940D01*
X239897501Y-122803585D01*
X239897500Y-122803593D01*
X216918140Y-122803593D01*
X216966431Y-122755302D01*
X226775928Y-112945806D01*
X226820122Y-112927500D01*
X245903102Y-112927500D01*
X245947296Y-112945806D01*
X245983555Y-112982065D01*
X245983559Y-112982069D01*
X245983560Y-112982070D01*
X246063937Y-113028477D01*
X246063940Y-113028478D01*
X246153592Y-113052500D01*
X246153593Y-113052500D01*
X246246407Y-113052500D01*
X246246408Y-113052500D01*
X246336060Y-113028478D01*
X246416440Y-112982070D01*
X246482070Y-112916440D01*
X246528478Y-112836060D01*
X246552500Y-112746408D01*
X246552500Y-112653592D01*
X246528478Y-112563940D01*
X246528477Y-112563937D01*
X246482070Y-112483560D01*
X246482065Y-112483554D01*
X246416445Y-112417934D01*
X246416439Y-112417929D01*
X246336062Y-112371522D01*
X246336059Y-112371521D01*
X246246414Y-112347501D01*
X246246409Y-112347500D01*
X246246408Y-112347500D01*
X246153592Y-112347500D01*
X246153591Y-112347500D01*
X246153585Y-112347501D01*
X246063940Y-112371521D01*
X246063937Y-112371522D01*
X245983560Y-112417929D01*
X245983559Y-112417930D01*
X245965428Y-112436062D01*
X245947295Y-112454194D01*
X245903103Y-112472500D01*
X226654747Y-112472500D01*
X226571133Y-112507133D01*
X226571130Y-112507135D01*
X215249073Y-123829194D01*
X215204879Y-123847500D01*
X215153592Y-123847500D01*
X215153591Y-123847500D01*
X215153585Y-123847501D01*
X215063940Y-123871521D01*
X215063937Y-123871522D01*
X214983560Y-123917929D01*
X214983554Y-123917934D01*
X214917934Y-123983554D01*
X214917929Y-123983560D01*
X214871522Y-124063937D01*
X214871521Y-124063940D01*
X214847501Y-124153585D01*
X214847500Y-124153593D01*
X172625500Y-124153593D01*
X172625500Y-108203593D01*
X219147500Y-108203593D01*
X219147500Y-108296406D01*
X219147501Y-108296414D01*
X219171521Y-108386059D01*
X219171522Y-108386062D01*
X219217929Y-108466439D01*
X219217934Y-108466445D01*
X219283554Y-108532065D01*
X219283560Y-108532070D01*
X219363937Y-108578477D01*
X219363940Y-108578478D01*
X219453592Y-108602500D01*
X219453593Y-108602500D01*
X219493136Y-108602500D01*
X219537330Y-108620806D01*
X219555636Y-108665000D01*
X219553506Y-108681177D01*
X219547500Y-108703587D01*
X219547500Y-108796412D01*
X219553506Y-108818823D01*
X219547263Y-108866249D01*
X219509313Y-108895370D01*
X219493136Y-108897500D01*
X219453592Y-108897500D01*
X219453591Y-108897500D01*
X219453585Y-108897501D01*
X219363940Y-108921521D01*
X219363937Y-108921522D01*
X219283560Y-108967929D01*
X219283554Y-108967934D01*
X219217934Y-109033554D01*
X219217929Y-109033560D01*
X219171522Y-109113937D01*
X219171521Y-109113940D01*
X219147501Y-109203585D01*
X219147500Y-109203593D01*
X219147500Y-109296406D01*
X219147501Y-109296414D01*
X219171521Y-109386059D01*
X219171522Y-109386062D01*
X219217929Y-109466439D01*
X219217934Y-109466445D01*
X219283554Y-109532065D01*
X219283560Y-109532070D01*
X219363937Y-109578477D01*
X219363940Y-109578478D01*
X219453592Y-109602500D01*
X219453593Y-109602500D01*
X219493136Y-109602500D01*
X219537330Y-109620806D01*
X219555636Y-109665000D01*
X219553506Y-109681177D01*
X219547500Y-109703587D01*
X219547500Y-109796412D01*
X219553506Y-109818823D01*
X219547263Y-109866249D01*
X219509313Y-109895370D01*
X219493136Y-109897500D01*
X219453592Y-109897500D01*
X219453591Y-109897500D01*
X219453585Y-109897501D01*
X219363940Y-109921521D01*
X219363937Y-109921522D01*
X219283560Y-109967929D01*
X219283554Y-109967934D01*
X219217934Y-110033554D01*
X219217929Y-110033560D01*
X219171522Y-110113937D01*
X219171521Y-110113940D01*
X219147501Y-110203585D01*
X219147500Y-110203593D01*
X219147500Y-110296406D01*
X219147501Y-110296414D01*
X219171521Y-110386059D01*
X219171522Y-110386062D01*
X219217929Y-110466439D01*
X219217934Y-110466445D01*
X219283554Y-110532065D01*
X219283560Y-110532070D01*
X219363937Y-110578477D01*
X219363940Y-110578478D01*
X219453592Y-110602500D01*
X219453593Y-110602500D01*
X219493136Y-110602500D01*
X219537330Y-110620806D01*
X219555636Y-110665000D01*
X219553506Y-110681177D01*
X219547500Y-110703587D01*
X219547500Y-110796406D01*
X219547501Y-110796414D01*
X219571521Y-110886059D01*
X219571522Y-110886062D01*
X219617929Y-110966439D01*
X219617934Y-110966445D01*
X219683554Y-111032065D01*
X219683560Y-111032070D01*
X219763937Y-111078477D01*
X219763940Y-111078478D01*
X219853592Y-111102500D01*
X219853593Y-111102500D01*
X219946407Y-111102500D01*
X219946408Y-111102500D01*
X220036060Y-111078478D01*
X220116440Y-111032070D01*
X220152704Y-110995805D01*
X220196897Y-110977500D01*
X243185001Y-110977500D01*
X243229195Y-110995806D01*
X243247501Y-111040000D01*
X243247501Y-111235825D01*
X243258190Y-111309201D01*
X243258191Y-111309204D01*
X243313524Y-111422390D01*
X243402610Y-111511476D01*
X243515796Y-111566809D01*
X243589173Y-111577500D01*
X244185826Y-111577499D01*
X244259204Y-111566809D01*
X244372390Y-111511476D01*
X244461476Y-111422390D01*
X244516809Y-111309204D01*
X244527500Y-111235827D01*
X244527499Y-110264174D01*
X244527499Y-110264173D01*
X245072500Y-110264173D01*
X245072500Y-111235825D01*
X245083190Y-111309201D01*
X245083191Y-111309204D01*
X245138524Y-111422390D01*
X245227610Y-111511476D01*
X245340796Y-111566809D01*
X245414173Y-111577500D01*
X246010826Y-111577499D01*
X246084204Y-111566809D01*
X246197390Y-111511476D01*
X246286476Y-111422390D01*
X246341809Y-111309204D01*
X246352500Y-111235827D01*
X246352499Y-110457619D01*
X246370804Y-110413427D01*
X247200927Y-109583306D01*
X247245121Y-109565000D01*
X247296407Y-109565000D01*
X247296408Y-109565000D01*
X247386060Y-109540978D01*
X247466440Y-109494570D01*
X247532070Y-109428940D01*
X247578478Y-109348560D01*
X247602500Y-109258908D01*
X247602500Y-109166092D01*
X247578478Y-109076440D01*
X247578477Y-109076437D01*
X247532070Y-108996060D01*
X247532065Y-108996054D01*
X247466445Y-108930434D01*
X247466439Y-108930429D01*
X247386062Y-108884022D01*
X247386059Y-108884021D01*
X247296414Y-108860001D01*
X247296409Y-108860000D01*
X247296408Y-108860000D01*
X247203592Y-108860000D01*
X247203591Y-108860000D01*
X247203585Y-108860001D01*
X247113940Y-108884021D01*
X247113937Y-108884022D01*
X247033560Y-108930429D01*
X247033554Y-108930434D01*
X246967934Y-108996054D01*
X246967929Y-108996060D01*
X246921522Y-109076437D01*
X246921521Y-109076440D01*
X246897501Y-109166085D01*
X246897500Y-109166093D01*
X246897500Y-109217378D01*
X246879194Y-109261572D01*
X246198619Y-109942146D01*
X246154425Y-109960452D01*
X246126976Y-109954101D01*
X246084204Y-109933191D01*
X246010827Y-109922500D01*
X246010826Y-109922500D01*
X245414174Y-109922500D01*
X245340798Y-109933190D01*
X245340797Y-109933190D01*
X245340796Y-109933191D01*
X245269738Y-109967929D01*
X245227608Y-109988525D01*
X245138525Y-110077608D01*
X245083190Y-110190798D01*
X245072500Y-110264173D01*
X244527499Y-110264173D01*
X244516809Y-110190796D01*
X244461476Y-110077610D01*
X244372390Y-109988524D01*
X244259204Y-109933191D01*
X244259202Y-109933190D01*
X244259201Y-109933190D01*
X244200913Y-109924698D01*
X244185827Y-109922500D01*
X244185826Y-109922500D01*
X243589174Y-109922500D01*
X243515798Y-109933190D01*
X243515797Y-109933190D01*
X243515796Y-109933191D01*
X243444738Y-109967929D01*
X243402608Y-109988525D01*
X243313525Y-110077608D01*
X243258190Y-110190798D01*
X243247500Y-110264173D01*
X243247500Y-110460000D01*
X243229194Y-110504194D01*
X243185000Y-110522500D01*
X221550121Y-110522500D01*
X221505927Y-110504194D01*
X221487621Y-110460000D01*
X221505927Y-110415806D01*
X222875928Y-109045806D01*
X222920122Y-109027500D01*
X246095253Y-109027500D01*
X246171155Y-108996060D01*
X246178864Y-108992867D01*
X246178864Y-108992866D01*
X246178868Y-108992865D01*
X246700927Y-108470806D01*
X246745121Y-108452500D01*
X246796407Y-108452500D01*
X246796408Y-108452500D01*
X246886060Y-108428478D01*
X246966440Y-108382070D01*
X247032070Y-108316440D01*
X247078478Y-108236060D01*
X247102500Y-108146408D01*
X247102500Y-108053592D01*
X247078478Y-107963940D01*
X247078477Y-107963937D01*
X247032070Y-107883560D01*
X247032065Y-107883554D01*
X246966445Y-107817934D01*
X246966439Y-107817929D01*
X246886062Y-107771522D01*
X246886059Y-107771521D01*
X246796414Y-107747501D01*
X246796409Y-107747500D01*
X246796408Y-107747500D01*
X246703592Y-107747500D01*
X246703591Y-107747500D01*
X246703585Y-107747501D01*
X246613940Y-107771521D01*
X246613937Y-107771522D01*
X246533560Y-107817929D01*
X246533554Y-107817934D01*
X246467934Y-107883554D01*
X246467929Y-107883560D01*
X246421522Y-107963937D01*
X246421521Y-107963940D01*
X246397501Y-108053585D01*
X246397500Y-108053593D01*
X246397500Y-108104879D01*
X246379194Y-108149073D01*
X245974073Y-108554194D01*
X245929879Y-108572500D01*
X222754747Y-108572500D01*
X222740315Y-108578478D01*
X222671133Y-108607133D01*
X222671130Y-108607135D01*
X221274073Y-110004194D01*
X221229879Y-110022500D01*
X221050121Y-110022500D01*
X221005927Y-110004194D01*
X220987621Y-109960000D01*
X221005927Y-109915806D01*
X222875927Y-108045806D01*
X222920121Y-108027500D01*
X245595253Y-108027500D01*
X245623124Y-108015955D01*
X245678864Y-107992867D01*
X245678864Y-107992866D01*
X245678868Y-107992865D01*
X246200927Y-107470806D01*
X246245121Y-107452500D01*
X246296407Y-107452500D01*
X246296408Y-107452500D01*
X246386060Y-107428478D01*
X246466440Y-107382070D01*
X246532070Y-107316440D01*
X246578478Y-107236060D01*
X246602500Y-107146408D01*
X246602500Y-107053592D01*
X246578478Y-106963940D01*
X246578477Y-106963937D01*
X246532070Y-106883560D01*
X246532065Y-106883554D01*
X246466445Y-106817934D01*
X246466439Y-106817929D01*
X246386062Y-106771522D01*
X246386059Y-106771521D01*
X246296414Y-106747501D01*
X246296409Y-106747500D01*
X246296408Y-106747500D01*
X246203592Y-106747500D01*
X246203591Y-106747500D01*
X246203585Y-106747501D01*
X246113940Y-106771521D01*
X246113937Y-106771522D01*
X246033560Y-106817929D01*
X246033554Y-106817934D01*
X245967934Y-106883554D01*
X245967929Y-106883560D01*
X245921522Y-106963937D01*
X245921521Y-106963940D01*
X245897501Y-107053585D01*
X245897500Y-107053593D01*
X245897500Y-107104879D01*
X245879194Y-107149073D01*
X245474073Y-107554194D01*
X245429879Y-107572500D01*
X222754744Y-107572500D01*
X222671135Y-107607132D01*
X222671130Y-107607136D01*
X220774073Y-109504194D01*
X220729879Y-109522500D01*
X220550121Y-109522500D01*
X220505927Y-109504194D01*
X220487621Y-109460000D01*
X220505927Y-109415806D01*
X223075928Y-106845806D01*
X223120122Y-106827500D01*
X245345253Y-106827500D01*
X245373124Y-106815955D01*
X245428864Y-106792867D01*
X245428864Y-106792866D01*
X245428868Y-106792865D01*
X245700927Y-106520806D01*
X245745121Y-106502500D01*
X245796407Y-106502500D01*
X245796408Y-106502500D01*
X245886060Y-106478478D01*
X245966440Y-106432070D01*
X246032070Y-106366440D01*
X246078478Y-106286060D01*
X246102500Y-106196408D01*
X246102500Y-106103592D01*
X246078478Y-106013940D01*
X246078477Y-106013937D01*
X246032070Y-105933560D01*
X246032065Y-105933554D01*
X245966445Y-105867934D01*
X245966439Y-105867929D01*
X245886062Y-105821522D01*
X245886059Y-105821521D01*
X245796414Y-105797501D01*
X245796409Y-105797500D01*
X245796408Y-105797500D01*
X245703592Y-105797500D01*
X245703591Y-105797500D01*
X245703585Y-105797501D01*
X245613940Y-105821521D01*
X245613937Y-105821522D01*
X245533560Y-105867929D01*
X245533554Y-105867934D01*
X245467934Y-105933554D01*
X245467929Y-105933560D01*
X245421522Y-106013937D01*
X245421521Y-106013940D01*
X245397501Y-106103585D01*
X245397500Y-106103593D01*
X245397500Y-106154879D01*
X245379194Y-106199073D01*
X245224073Y-106354194D01*
X245179879Y-106372500D01*
X222954747Y-106372500D01*
X222871133Y-106407133D01*
X222871130Y-106407135D01*
X220333483Y-108944783D01*
X220289289Y-108963089D01*
X220245095Y-108944783D01*
X220226789Y-108900589D01*
X220228918Y-108884416D01*
X220252500Y-108796408D01*
X220252500Y-108745121D01*
X220270806Y-108700927D01*
X223225927Y-105745806D01*
X223270121Y-105727500D01*
X244795253Y-105727500D01*
X244823124Y-105715955D01*
X244878864Y-105692867D01*
X244878864Y-105692866D01*
X244878868Y-105692865D01*
X245200928Y-105370806D01*
X245245122Y-105352500D01*
X245296407Y-105352500D01*
X245296408Y-105352500D01*
X245386060Y-105328478D01*
X245466440Y-105282070D01*
X245532070Y-105216440D01*
X245578478Y-105136060D01*
X245602500Y-105046408D01*
X245602500Y-104953592D01*
X245578478Y-104863940D01*
X245578477Y-104863937D01*
X245532070Y-104783560D01*
X245532065Y-104783554D01*
X245466445Y-104717934D01*
X245466439Y-104717929D01*
X245386062Y-104671522D01*
X245386059Y-104671521D01*
X245296414Y-104647501D01*
X245296409Y-104647500D01*
X245296408Y-104647500D01*
X245203592Y-104647500D01*
X245203591Y-104647500D01*
X245203585Y-104647501D01*
X245113940Y-104671521D01*
X245113937Y-104671522D01*
X245033560Y-104717929D01*
X245033554Y-104717934D01*
X244967934Y-104783554D01*
X244967929Y-104783560D01*
X244921522Y-104863937D01*
X244921521Y-104863940D01*
X244897501Y-104953585D01*
X244897500Y-104953593D01*
X244897500Y-105004878D01*
X244879194Y-105049072D01*
X244674073Y-105254194D01*
X244629879Y-105272500D01*
X223104744Y-105272500D01*
X223021135Y-105307132D01*
X223021130Y-105307136D01*
X219951784Y-108376482D01*
X219907590Y-108394788D01*
X219863396Y-108376482D01*
X219845090Y-108332288D01*
X219845315Y-108326994D01*
X219845784Y-108321470D01*
X219852500Y-108296408D01*
X219852500Y-108242473D01*
X219852725Y-108239827D01*
X219862590Y-108220760D01*
X219870806Y-108200927D01*
X223525928Y-104545806D01*
X223570122Y-104527500D01*
X244445253Y-104527500D01*
X244473124Y-104515955D01*
X244528864Y-104492867D01*
X244528864Y-104492866D01*
X244528868Y-104492865D01*
X244700927Y-104320806D01*
X244745121Y-104302500D01*
X244796407Y-104302500D01*
X244796408Y-104302500D01*
X244886060Y-104278478D01*
X244966440Y-104232070D01*
X245032070Y-104166440D01*
X245078478Y-104086060D01*
X245102500Y-103996408D01*
X245102500Y-103903592D01*
X245078478Y-103813940D01*
X245078477Y-103813937D01*
X245032070Y-103733560D01*
X245032065Y-103733554D01*
X244966445Y-103667934D01*
X244966439Y-103667929D01*
X244886062Y-103621522D01*
X244886059Y-103621521D01*
X244796414Y-103597501D01*
X244796409Y-103597500D01*
X244796408Y-103597500D01*
X244703592Y-103597500D01*
X244703591Y-103597500D01*
X244703585Y-103597501D01*
X244613940Y-103621521D01*
X244613937Y-103621522D01*
X244533560Y-103667929D01*
X244533554Y-103667934D01*
X244467934Y-103733554D01*
X244467929Y-103733560D01*
X244421522Y-103813937D01*
X244421521Y-103813940D01*
X244397501Y-103903585D01*
X244397500Y-103903593D01*
X244397500Y-103954878D01*
X244379195Y-103999070D01*
X244324071Y-104054194D01*
X244279880Y-104072500D01*
X223404744Y-104072500D01*
X223389375Y-104078867D01*
X223389374Y-104078868D01*
X223321131Y-104107134D01*
X223321130Y-104107135D01*
X219549073Y-107879194D01*
X219504879Y-107897500D01*
X219453592Y-107897500D01*
X219453591Y-107897500D01*
X219453585Y-107897501D01*
X219363940Y-107921521D01*
X219363937Y-107921522D01*
X219283560Y-107967929D01*
X219283554Y-107967934D01*
X219217934Y-108033554D01*
X219217929Y-108033560D01*
X219171522Y-108113937D01*
X219171521Y-108113940D01*
X219147501Y-108203585D01*
X219147500Y-108203593D01*
X172625500Y-108203593D01*
X172625500Y-102953593D01*
X225747500Y-102953593D01*
X225747500Y-103046406D01*
X225747501Y-103046414D01*
X225771521Y-103136059D01*
X225771522Y-103136062D01*
X225817929Y-103216439D01*
X225817934Y-103216445D01*
X225883554Y-103282065D01*
X225883560Y-103282070D01*
X225963937Y-103328477D01*
X225963940Y-103328478D01*
X226053592Y-103352500D01*
X226053593Y-103352500D01*
X226146407Y-103352500D01*
X226146408Y-103352500D01*
X226236060Y-103328478D01*
X226316440Y-103282070D01*
X226352704Y-103245805D01*
X226396897Y-103227500D01*
X243845253Y-103227500D01*
X243873124Y-103215955D01*
X243928864Y-103192867D01*
X243928864Y-103192866D01*
X243928868Y-103192865D01*
X244200927Y-102920806D01*
X244245121Y-102902500D01*
X244296407Y-102902500D01*
X244296408Y-102902500D01*
X244386060Y-102878478D01*
X244466440Y-102832070D01*
X244532070Y-102766440D01*
X244578478Y-102686060D01*
X244602500Y-102596408D01*
X244602500Y-102503592D01*
X244578478Y-102413940D01*
X244578477Y-102413937D01*
X244532070Y-102333560D01*
X244532065Y-102333554D01*
X244466445Y-102267934D01*
X244466439Y-102267929D01*
X244386062Y-102221522D01*
X244386059Y-102221521D01*
X244296414Y-102197501D01*
X244296409Y-102197500D01*
X244296408Y-102197500D01*
X244203592Y-102197500D01*
X244203591Y-102197500D01*
X244203585Y-102197501D01*
X244113940Y-102221521D01*
X244113937Y-102221522D01*
X244033560Y-102267929D01*
X244033554Y-102267934D01*
X243967934Y-102333554D01*
X243967929Y-102333560D01*
X243921522Y-102413937D01*
X243921521Y-102413940D01*
X243897501Y-102503585D01*
X243897500Y-102503593D01*
X243897500Y-102554879D01*
X243879194Y-102599073D01*
X243724073Y-102754194D01*
X243679879Y-102772500D01*
X226396898Y-102772500D01*
X226352704Y-102754194D01*
X226316440Y-102717930D01*
X226316439Y-102717929D01*
X226236062Y-102671522D01*
X226236059Y-102671521D01*
X226146414Y-102647501D01*
X226146409Y-102647500D01*
X226146408Y-102647500D01*
X226053592Y-102647500D01*
X226053591Y-102647500D01*
X226053585Y-102647501D01*
X225963940Y-102671521D01*
X225963937Y-102671522D01*
X225883560Y-102717929D01*
X225883554Y-102717934D01*
X225817934Y-102783554D01*
X225817929Y-102783560D01*
X225771522Y-102863937D01*
X225771521Y-102863940D01*
X225747501Y-102953585D01*
X225747500Y-102953593D01*
X172625500Y-102953593D01*
X172625500Y-99853593D01*
X222147500Y-99853593D01*
X222147500Y-99946406D01*
X222147501Y-99946414D01*
X222171521Y-100036059D01*
X222171522Y-100036062D01*
X222217929Y-100116439D01*
X222217934Y-100116445D01*
X222283554Y-100182065D01*
X222283560Y-100182070D01*
X222363937Y-100228477D01*
X222363940Y-100228478D01*
X222453592Y-100252500D01*
X222453593Y-100252500D01*
X222546407Y-100252500D01*
X222546408Y-100252500D01*
X222636060Y-100228478D01*
X222716440Y-100182070D01*
X222752704Y-100145805D01*
X222796897Y-100127500D01*
X225303102Y-100127500D01*
X225347296Y-100145806D01*
X225383555Y-100182065D01*
X225383559Y-100182069D01*
X225383560Y-100182070D01*
X225463937Y-100228477D01*
X225463940Y-100228478D01*
X225553592Y-100252500D01*
X225553593Y-100252500D01*
X225646407Y-100252500D01*
X225646408Y-100252500D01*
X225736060Y-100228478D01*
X225816440Y-100182070D01*
X225882070Y-100116440D01*
X225928478Y-100036060D01*
X225952500Y-99946408D01*
X225952500Y-99853592D01*
X225928478Y-99763940D01*
X225928477Y-99763937D01*
X225902048Y-99718162D01*
X225885311Y-99689173D01*
X248172500Y-99689173D01*
X248172500Y-100285825D01*
X248183190Y-100359201D01*
X248183191Y-100359204D01*
X248238524Y-100472390D01*
X248327610Y-100561476D01*
X248440796Y-100616809D01*
X248514173Y-100627500D01*
X249485826Y-100627499D01*
X249559204Y-100616809D01*
X249672390Y-100561476D01*
X249761476Y-100472390D01*
X249816809Y-100359204D01*
X249827500Y-100285827D01*
X249827499Y-99689174D01*
X249816809Y-99615796D01*
X249761476Y-99502610D01*
X249672390Y-99413524D01*
X249559204Y-99358191D01*
X249559202Y-99358190D01*
X249559201Y-99358190D01*
X249500913Y-99349698D01*
X249485827Y-99347500D01*
X249485826Y-99347500D01*
X249290000Y-99347500D01*
X249245806Y-99329194D01*
X249227500Y-99285000D01*
X249227500Y-98620121D01*
X249245806Y-98575927D01*
X249414598Y-98407135D01*
X249592865Y-98228868D01*
X249623567Y-98154747D01*
X249627500Y-98145253D01*
X249627500Y-97540000D01*
X249645806Y-97495806D01*
X249690000Y-97477500D01*
X249812557Y-97477500D01*
X249812558Y-97477500D01*
X249849748Y-97470102D01*
X249891922Y-97441922D01*
X249920102Y-97399748D01*
X249927500Y-97362558D01*
X249927500Y-96437442D01*
X250072500Y-96437442D01*
X250072500Y-97362557D01*
X250079898Y-97399748D01*
X250079898Y-97399749D01*
X250108077Y-97441922D01*
X250136257Y-97460750D01*
X250150252Y-97470102D01*
X250187442Y-97477500D01*
X250310000Y-97477500D01*
X250354194Y-97495806D01*
X250372500Y-97540000D01*
X250372500Y-98245255D01*
X250407132Y-98328864D01*
X250407136Y-98328869D01*
X250754194Y-98675927D01*
X250772500Y-98720121D01*
X250772500Y-100285000D01*
X250754194Y-100329194D01*
X250710000Y-100347500D01*
X250514174Y-100347500D01*
X250440798Y-100358190D01*
X250440797Y-100358190D01*
X250440796Y-100358191D01*
X250327610Y-100413524D01*
X250327608Y-100413525D01*
X250238525Y-100502608D01*
X250183190Y-100615798D01*
X250172500Y-100689173D01*
X250172500Y-101285825D01*
X250183190Y-101359201D01*
X250183191Y-101359204D01*
X250238524Y-101472390D01*
X250327610Y-101561476D01*
X250440796Y-101616809D01*
X250514173Y-101627500D01*
X251485826Y-101627499D01*
X251559204Y-101616809D01*
X251672390Y-101561476D01*
X251761476Y-101472390D01*
X251816809Y-101359204D01*
X251827500Y-101285827D01*
X251827499Y-100689174D01*
X251816809Y-100615796D01*
X251761476Y-100502610D01*
X251672390Y-100413524D01*
X251559204Y-100358191D01*
X251559202Y-100358190D01*
X251559201Y-100358190D01*
X251500913Y-100349698D01*
X251485827Y-100347500D01*
X251485826Y-100347500D01*
X251290000Y-100347500D01*
X251245806Y-100329194D01*
X251227500Y-100285000D01*
X251227500Y-98554747D01*
X251227499Y-98554744D01*
X251192867Y-98471135D01*
X251192863Y-98471130D01*
X250845806Y-98124073D01*
X250827500Y-98079879D01*
X250827500Y-97540000D01*
X250845806Y-97495806D01*
X250890000Y-97477500D01*
X251012557Y-97477500D01*
X251012558Y-97477500D01*
X251049748Y-97470102D01*
X251091922Y-97441922D01*
X251120102Y-97399748D01*
X251127500Y-97362558D01*
X251127500Y-96437442D01*
X251120102Y-96400252D01*
X251120101Y-96400250D01*
X251091922Y-96358077D01*
X251049748Y-96329898D01*
X251012558Y-96322500D01*
X250187442Y-96322500D01*
X250168847Y-96326199D01*
X250150251Y-96329898D01*
X250150250Y-96329898D01*
X250108077Y-96358077D01*
X250079898Y-96400250D01*
X250079898Y-96400251D01*
X250072500Y-96437442D01*
X249927500Y-96437442D01*
X249920102Y-96400252D01*
X249920101Y-96400250D01*
X249891922Y-96358077D01*
X249849748Y-96329898D01*
X249812558Y-96322500D01*
X248987442Y-96322500D01*
X248968847Y-96326199D01*
X248950251Y-96329898D01*
X248950250Y-96329898D01*
X248908077Y-96358077D01*
X248879898Y-96400250D01*
X248879898Y-96400251D01*
X248872500Y-96437442D01*
X248872500Y-97362557D01*
X248879898Y-97399748D01*
X248879898Y-97399749D01*
X248908077Y-97441922D01*
X248936257Y-97460750D01*
X248950252Y-97470102D01*
X248987442Y-97477500D01*
X249110000Y-97477500D01*
X249154194Y-97495806D01*
X249172500Y-97540000D01*
X249172500Y-97979879D01*
X249154194Y-98024073D01*
X248807136Y-98371130D01*
X248807132Y-98371135D01*
X248772500Y-98454744D01*
X248772500Y-99285000D01*
X248754194Y-99329194D01*
X248710000Y-99347500D01*
X248514174Y-99347500D01*
X248440798Y-99358190D01*
X248440797Y-99358190D01*
X248440796Y-99358191D01*
X248327610Y-99413524D01*
X248327608Y-99413525D01*
X248238525Y-99502608D01*
X248183190Y-99615798D01*
X248172500Y-99689173D01*
X225885311Y-99689173D01*
X225882070Y-99683560D01*
X225882065Y-99683554D01*
X225816445Y-99617934D01*
X225816439Y-99617929D01*
X225736062Y-99571522D01*
X225736059Y-99571521D01*
X225646414Y-99547501D01*
X225646409Y-99547500D01*
X225646408Y-99547500D01*
X225553592Y-99547500D01*
X225553591Y-99547500D01*
X225553585Y-99547501D01*
X225463940Y-99571521D01*
X225463937Y-99571522D01*
X225383560Y-99617929D01*
X225383559Y-99617930D01*
X225365428Y-99636062D01*
X225347295Y-99654194D01*
X225303103Y-99672500D01*
X222796898Y-99672500D01*
X222752704Y-99654194D01*
X222716440Y-99617930D01*
X222716439Y-99617929D01*
X222636062Y-99571522D01*
X222636059Y-99571521D01*
X222546414Y-99547501D01*
X222546409Y-99547500D01*
X222546408Y-99547500D01*
X222453592Y-99547500D01*
X222453591Y-99547500D01*
X222453585Y-99547501D01*
X222363940Y-99571521D01*
X222363937Y-99571522D01*
X222283560Y-99617929D01*
X222283554Y-99617934D01*
X222217934Y-99683554D01*
X222217929Y-99683560D01*
X222171522Y-99763937D01*
X222171521Y-99763940D01*
X222147501Y-99853585D01*
X222147500Y-99853593D01*
X172625500Y-99853593D01*
X172625500Y-92414173D01*
X248572500Y-92414173D01*
X248572500Y-93010825D01*
X248583190Y-93084201D01*
X248583191Y-93084204D01*
X248638524Y-93197390D01*
X248727610Y-93286476D01*
X248840796Y-93341809D01*
X248914173Y-93352500D01*
X249110000Y-93352499D01*
X249154194Y-93370805D01*
X249172500Y-93414999D01*
X249172500Y-94460000D01*
X249154194Y-94504194D01*
X249110000Y-94522500D01*
X248987442Y-94522500D01*
X248968847Y-94526199D01*
X248950251Y-94529898D01*
X248950250Y-94529898D01*
X248908077Y-94558077D01*
X248879898Y-94600250D01*
X248879898Y-94600251D01*
X248872500Y-94637442D01*
X248872500Y-95562557D01*
X248879898Y-95599748D01*
X248879898Y-95599749D01*
X248908077Y-95641922D01*
X248936257Y-95660750D01*
X248950252Y-95670102D01*
X248987442Y-95677500D01*
X248987443Y-95677500D01*
X249812557Y-95677500D01*
X249812558Y-95677500D01*
X249849748Y-95670102D01*
X249891922Y-95641922D01*
X249920102Y-95599748D01*
X249927500Y-95562558D01*
X249927500Y-95562507D01*
X250072999Y-95562507D01*
X250080369Y-95599553D01*
X250080369Y-95599554D01*
X250108438Y-95641561D01*
X250150446Y-95669630D01*
X250187493Y-95677000D01*
X250536500Y-95677000D01*
X250663500Y-95677000D01*
X251012507Y-95677000D01*
X251049553Y-95669630D01*
X251049554Y-95669630D01*
X251091561Y-95641561D01*
X251119630Y-95599554D01*
X251119630Y-95599553D01*
X251127000Y-95562507D01*
X251127000Y-95163500D01*
X250663500Y-95163500D01*
X250663500Y-95677000D01*
X250536500Y-95677000D01*
X250536500Y-95163500D01*
X250073000Y-95163500D01*
X250073000Y-95562507D01*
X250072999Y-95562507D01*
X249927500Y-95562507D01*
X249927500Y-94637492D01*
X250073000Y-94637492D01*
X250073000Y-95036500D01*
X250536500Y-95036500D01*
X250663500Y-95036500D01*
X251127000Y-95036500D01*
X251127000Y-94637492D01*
X251119630Y-94600446D01*
X251119630Y-94600445D01*
X251091561Y-94558438D01*
X251049553Y-94530369D01*
X251012507Y-94523000D01*
X250663500Y-94523000D01*
X250663500Y-95036500D01*
X250536500Y-95036500D01*
X250536500Y-94523000D01*
X250187493Y-94523000D01*
X250150446Y-94530369D01*
X250150445Y-94530369D01*
X250108438Y-94558438D01*
X250080369Y-94600445D01*
X250080369Y-94600446D01*
X250073000Y-94637492D01*
X249927500Y-94637492D01*
X249927500Y-94637442D01*
X249920102Y-94600252D01*
X249892163Y-94558438D01*
X249891922Y-94558077D01*
X249849748Y-94529898D01*
X249812558Y-94522500D01*
X249812557Y-94522500D01*
X249690000Y-94522500D01*
X249645806Y-94504194D01*
X249627500Y-94460000D01*
X249627500Y-93414999D01*
X249645806Y-93370805D01*
X249690000Y-93352499D01*
X249885826Y-93352499D01*
X249959204Y-93341809D01*
X250072390Y-93286476D01*
X250161476Y-93197390D01*
X250216809Y-93084204D01*
X250227500Y-93010827D01*
X250227499Y-92414174D01*
X250216809Y-92340796D01*
X250161476Y-92227610D01*
X250072390Y-92138524D01*
X249959204Y-92083191D01*
X249959202Y-92083190D01*
X249959201Y-92083190D01*
X249900913Y-92074698D01*
X249885827Y-92072500D01*
X249885826Y-92072500D01*
X248914174Y-92072500D01*
X248840798Y-92083190D01*
X248840797Y-92083190D01*
X248840796Y-92083191D01*
X248727610Y-92138524D01*
X248727608Y-92138525D01*
X248638525Y-92227608D01*
X248583190Y-92340798D01*
X248572500Y-92414173D01*
X172625500Y-92414173D01*
X172625500Y-87900944D01*
X172774500Y-87900944D01*
X172774500Y-88059055D01*
X172774501Y-88059063D01*
X172815421Y-88211780D01*
X172815422Y-88211783D01*
X172815423Y-88211784D01*
X172894480Y-88348716D01*
X173006284Y-88460520D01*
X173143216Y-88539577D01*
X173143219Y-88539578D01*
X173236681Y-88564621D01*
X173295943Y-88580500D01*
X173295944Y-88580500D01*
X173454056Y-88580500D01*
X173454057Y-88580500D01*
X173606784Y-88539577D01*
X173743716Y-88460520D01*
X173855520Y-88348716D01*
X173934577Y-88211784D01*
X173975500Y-88059057D01*
X173975500Y-87900944D01*
X241024500Y-87900944D01*
X241024500Y-88059055D01*
X241024501Y-88059063D01*
X241065421Y-88211780D01*
X241065422Y-88211783D01*
X241065423Y-88211784D01*
X241144480Y-88348716D01*
X241256284Y-88460520D01*
X241393216Y-88539577D01*
X241393219Y-88539578D01*
X241486681Y-88564621D01*
X241545943Y-88580500D01*
X241545944Y-88580500D01*
X241704056Y-88580500D01*
X241704057Y-88580500D01*
X241856784Y-88539577D01*
X241993716Y-88460520D01*
X242105520Y-88348716D01*
X242184577Y-88211784D01*
X242225500Y-88059057D01*
X242225500Y-87900943D01*
X242184577Y-87748216D01*
X242105520Y-87611284D01*
X241993716Y-87499480D01*
X241897464Y-87443909D01*
X241856783Y-87420422D01*
X241856780Y-87420421D01*
X241704063Y-87379501D01*
X241704058Y-87379500D01*
X241704057Y-87379500D01*
X241545943Y-87379500D01*
X241545942Y-87379500D01*
X241545936Y-87379501D01*
X241393219Y-87420421D01*
X241393216Y-87420422D01*
X241296964Y-87475993D01*
X241256284Y-87499480D01*
X241256283Y-87499481D01*
X241256279Y-87499484D01*
X241144484Y-87611279D01*
X241144481Y-87611283D01*
X241065422Y-87748216D01*
X241065421Y-87748219D01*
X241024501Y-87900936D01*
X241024500Y-87900944D01*
X173975500Y-87900944D01*
X173975500Y-87900943D01*
X173934577Y-87748216D01*
X173855520Y-87611284D01*
X173743716Y-87499480D01*
X173647464Y-87443909D01*
X173606783Y-87420422D01*
X173606780Y-87420421D01*
X173454063Y-87379501D01*
X173454058Y-87379500D01*
X173454057Y-87379500D01*
X173295943Y-87379500D01*
X173295942Y-87379500D01*
X173295936Y-87379501D01*
X173143219Y-87420421D01*
X173143216Y-87420422D01*
X173046964Y-87475993D01*
X173006284Y-87499480D01*
X173006283Y-87499481D01*
X173006279Y-87499484D01*
X172894484Y-87611279D01*
X172894481Y-87611283D01*
X172815422Y-87748216D01*
X172815421Y-87748219D01*
X172774501Y-87900936D01*
X172774500Y-87900944D01*
X172625500Y-87900944D01*
X172625500Y-86475036D01*
X172625500Y-86360687D01*
X172589132Y-86084446D01*
X172570482Y-86014844D01*
X172517020Y-85815319D01*
X172517019Y-85815314D01*
X172410394Y-85557898D01*
X172271081Y-85316602D01*
X172101465Y-85095553D01*
X171904447Y-84898535D01*
X171904443Y-84898532D01*
X171904441Y-84898530D01*
X171779019Y-84802291D01*
X171683398Y-84728919D01*
X171590832Y-84675476D01*
X171442107Y-84589609D01*
X171442102Y-84589606D01*
X171442099Y-84589605D01*
X171442096Y-84589603D01*
X171266861Y-84517019D01*
X171184686Y-84482981D01*
X171184682Y-84482980D01*
X171184680Y-84482979D01*
X171184681Y-84482979D01*
X170915558Y-84410868D01*
X170639317Y-84374500D01*
X170639313Y-84374500D01*
X170524964Y-84374500D01*
X156502044Y-84374500D01*
X156497956Y-84374366D01*
X156259416Y-84358730D01*
X156251311Y-84357663D01*
X156018861Y-84311427D01*
X156010964Y-84309311D01*
X155786542Y-84233129D01*
X155778989Y-84230001D01*
X155566421Y-84125175D01*
X155559341Y-84121087D01*
X155362282Y-83989416D01*
X155355796Y-83984439D01*
X155264582Y-83904447D01*
X155177600Y-83828166D01*
X155171833Y-83822399D01*
X155015559Y-83644202D01*
X155010583Y-83637717D01*
X154878912Y-83440658D01*
X154874824Y-83433578D01*
X154769998Y-83221010D01*
X154766870Y-83213457D01*
X154757103Y-83184686D01*
X154690685Y-82989024D01*
X154688575Y-82981149D01*
X154642335Y-82748687D01*
X154641269Y-82740583D01*
X154625634Y-82502044D01*
X154625500Y-82497956D01*
X154625500Y-79341214D01*
X156672500Y-79341214D01*
X156672500Y-79658785D01*
X156708056Y-79974358D01*
X156708059Y-79974375D01*
X156778723Y-80283979D01*
X156883615Y-80583741D01*
X157021407Y-80869870D01*
X157190364Y-81138765D01*
X157190376Y-81138782D01*
X157388364Y-81387051D01*
X157388369Y-81387057D01*
X157388375Y-81387064D01*
X157612936Y-81611625D01*
X157612943Y-81611631D01*
X157612948Y-81611635D01*
X157861217Y-81809623D01*
X157861223Y-81809627D01*
X157861229Y-81809632D01*
X158130130Y-81978593D01*
X158416258Y-82116385D01*
X158716014Y-82221275D01*
X159025630Y-82291942D01*
X159341211Y-82327500D01*
X159341214Y-82327500D01*
X159658786Y-82327500D01*
X159658789Y-82327500D01*
X159974370Y-82291942D01*
X160283986Y-82221275D01*
X160583742Y-82116385D01*
X160869870Y-81978593D01*
X161138771Y-81809632D01*
X161387064Y-81611625D01*
X161611625Y-81387064D01*
X161809632Y-81138771D01*
X161978593Y-80869870D01*
X162116385Y-80583742D01*
X162221275Y-80283986D01*
X162291942Y-79974370D01*
X162327500Y-79658789D01*
X162327500Y-79341211D01*
X162291942Y-79025630D01*
X162221275Y-78716014D01*
X162116385Y-78416258D01*
X161978593Y-78130130D01*
X161809632Y-77861229D01*
X161809627Y-77861223D01*
X161809623Y-77861217D01*
X161611635Y-77612948D01*
X161611631Y-77612943D01*
X161611625Y-77612936D01*
X161387064Y-77388375D01*
X161387057Y-77388369D01*
X161387051Y-77388364D01*
X161138782Y-77190376D01*
X161138765Y-77190364D01*
X160869870Y-77021407D01*
X160583742Y-76883615D01*
X160283986Y-76778725D01*
X160283982Y-76778724D01*
X160283979Y-76778723D01*
X159974375Y-76708059D01*
X159974372Y-76708058D01*
X159974370Y-76708058D01*
X159974368Y-76708057D01*
X159974358Y-76708056D01*
X159766979Y-76684690D01*
X159658789Y-76672500D01*
X159341211Y-76672500D01*
X159244116Y-76683440D01*
X159025641Y-76708056D01*
X159025624Y-76708059D01*
X158716020Y-76778723D01*
X158416258Y-76883615D01*
X158130129Y-77021407D01*
X157861234Y-77190364D01*
X157861217Y-77190376D01*
X157612948Y-77388364D01*
X157612928Y-77388382D01*
X157388382Y-77612928D01*
X157388364Y-77612948D01*
X157190376Y-77861217D01*
X157190364Y-77861234D01*
X157021407Y-78130129D01*
X156883615Y-78416258D01*
X156778723Y-78716020D01*
X156708059Y-79025624D01*
X156708056Y-79025641D01*
X156672500Y-79341214D01*
X154625500Y-79341214D01*
X154625500Y-76502043D01*
X154625634Y-76497955D01*
X154641269Y-76259416D01*
X154642336Y-76251311D01*
X154675527Y-76084446D01*
X154688575Y-76018846D01*
X154690683Y-76010979D01*
X154766871Y-75786538D01*
X154769998Y-75778989D01*
X154874828Y-75566413D01*
X154878906Y-75559350D01*
X155010589Y-75362273D01*
X155015553Y-75355804D01*
X155171840Y-75177592D01*
X155177592Y-75171840D01*
X155355804Y-75015553D01*
X155362273Y-75010589D01*
X155559350Y-74878906D01*
X155566413Y-74874828D01*
X155778993Y-74769996D01*
X155786538Y-74766871D01*
X156010979Y-74690683D01*
X156018846Y-74688575D01*
X156251314Y-74642335D01*
X156259414Y-74641269D01*
X156497956Y-74625634D01*
X156502044Y-74625500D01*
X156528644Y-74625500D01*
X221971356Y-74625500D01*
X221996930Y-74625500D01*
X222003056Y-74625801D01*
G37*
%TD.AperFunction*%
%TD*%
M02*
